<svg width="200" height="200" viewBox="0 0 200 200" fill="none" xmlns="http://www.w3.org/2000/svg">
<path d="M103.438 83.0973L76.7769 60.3025L77.0539 59.9828L103.374 82.4835L135.26 41.7018L147.808 50.7848L173.429 17.0146L173.77 17.2703L147.893 51.373L135.341 42.29L103.438 83.0973Z" fill="#EBEBEB"/>
<path d="M10.9499 119.719C10.9499 120.005 10.8652 120.284 10.7064 120.522C10.5476 120.759 10.3219 120.945 10.0579 121.054C9.7939 121.163 9.50338 121.192 9.22309 121.136C8.9428 121.08 8.68534 120.943 8.48327 120.741C8.28119 120.539 8.14358 120.281 8.08782 120.001C8.03207 119.721 8.06068 119.43 8.17005 119.166C8.27941 118.902 8.46461 118.676 8.70222 118.518C8.93984 118.359 9.2192 118.274 9.50498 118.274C9.88819 118.274 10.2557 118.426 10.5267 118.697C10.7977 118.968 10.9499 119.336 10.9499 119.719Z" fill="#EBEBEB"/>
<path d="M76.9132 62.9963C78.4881 62.9963 79.7647 61.7197 79.7647 60.1448C79.7647 58.57 78.4881 57.2934 76.9132 57.2934C75.3384 57.2934 74.0618 58.57 74.0618 60.1448C74.0618 61.7197 75.3384 62.9963 76.9132 62.9963Z" fill="#EBEBEB"/>
<path d="M9.66258 119.86L9.34717 119.574L40.4321 85.237L47.4564 91.3449L75.4683 61.2104L75.7794 61.5002L47.4862 91.9373L40.4662 85.8337L9.66258 119.86Z" fill="#EBEBEB"/>
<path d="M173.731 19.6145C175.784 19.6145 177.448 17.9505 177.448 15.8978C177.448 13.8451 175.784 12.1811 173.731 12.1811C171.679 12.1811 170.015 13.8451 170.015 15.8978C170.015 17.9505 171.679 19.6145 173.731 19.6145Z" fill="#EBEBEB"/>
<path d="M175.547 14.6277C175.065 15.3244 174.522 15.9763 173.923 16.5756L173.31 17.2405L173.246 17.3087L173.173 17.2533C172.718 16.9499 172.296 16.5984 171.916 16.2047C172.404 16.4511 172.865 16.7467 173.292 17.087H173.156L173.757 16.4136C174.302 15.7684 174.901 15.1709 175.547 14.6277Z" fill="white"/>
<path d="M53.5303 53.6448C53.8926 50.9851 50.146 48.8028 47.3286 48.5726C45.986 48.4661 44.5922 48.6707 43.3178 48.2274C40.5601 47.2684 39.4817 43.7051 36.7709 42.5713C34.7591 41.7188 32.4404 42.4775 30.4925 43.4579C28.5447 44.4382 26.6138 45.6743 24.4358 45.8149C22.5433 45.9343 20.4846 45.231 18.8266 46.1602C17.5905 46.8464 16.9427 48.2913 15.8046 49.1097C14.6666 49.928 13.2473 50.107 11.8577 50.1838C10.4682 50.2605 9.04463 50.2733 7.78299 50.8487C6.52134 51.4241 5.4856 52.7539 5.7456 54.1136L53.5303 53.6448Z" fill="#EBEBEB"/>
<path d="M153.903 9.13781C154.129 7.47978 151.793 6.11584 150.037 5.97518C149.185 5.90699 148.332 6.03486 147.535 5.75781C145.83 5.16109 145.127 2.94043 143.448 2.22862C142.195 1.7001 140.75 2.17321 139.535 2.78272C138.32 3.39223 137.114 4.16797 135.758 4.25321C134.574 4.32994 133.291 3.89092 132.255 4.47059C131.488 4.89682 131.083 5.78764 130.371 6.31191C129.632 6.76884 128.776 6.99995 127.907 6.97683C127.036 6.96027 126.169 7.10477 125.35 7.40306C124.566 7.76109 123.918 8.59224 124.071 9.44044L153.903 9.13781Z" fill="#F5F5F5"/>
<path d="M185.334 46.629C185.457 45.7382 184.2 45.0093 183.254 44.9241C182.801 44.9406 182.349 44.9005 181.907 44.8047C180.982 44.4851 180.628 43.2874 179.712 42.908C179.038 42.6224 178.258 42.8782 177.606 43.2064C176.954 43.5346 176.306 43.948 175.573 43.9949C174.938 44.0375 174.247 43.8031 173.693 44.1143C173.267 44.3444 173.062 44.8218 172.679 45.1031C172.281 45.349 171.821 45.4735 171.353 45.4611C170.888 45.4497 170.426 45.5263 169.989 45.687C169.772 45.7711 169.588 45.9234 169.465 46.1209C169.343 46.3185 169.287 46.5506 169.307 46.7825L185.334 46.629Z" fill="#F5F5F5"/>
<path d="M43.6587 23.6765C43.778 22.7857 42.5207 22.0525 41.5787 21.9716C41.1265 21.9881 40.674 21.948 40.2318 21.8522C39.3069 21.5325 38.9531 20.3348 38.0367 19.9555C37.359 19.6699 36.5833 19.9257 35.9311 20.2539C35.279 20.5821 34.6525 20.9955 33.898 21.0424C33.2629 21.085 32.5725 20.8506 32.0184 21.1575C31.5921 21.3919 31.3875 21.8693 31.0039 22.1506C30.6061 22.3958 30.1456 22.5202 29.6784 22.5086C29.2135 22.4968 28.7506 22.5735 28.3144 22.7345C28.0959 22.8194 27.9109 22.973 27.7872 23.172C27.6634 23.3711 27.6077 23.605 27.6282 23.8385L43.6587 23.6765Z" fill="#FAFAFA"/>
<path d="M52.115 114.528L60.5714 95.7393L69.258 90.5222L74.6541 78.7796L90.1518 82.4068L101.711 117.865L83.818 126.658L69.258 135.536L52.115 114.528Z" fill="#F5F5F5"/>
<path d="M200 168.978L184.703 138.443L177.623 127.847L169.277 89.252L159.227 80.8936L149.129 94.9592L135.337 98.3946L122.618 110.559L148.217 137.723L163.306 153.634L175.091 175.645L197.711 197.029C197.481 196.82 200 168.978 200 168.978Z" fill="#EBEBEB"/>
<path d="M0 199.688L1.56 178.965L9.8928 166.012L15.3486 141.359L25.2669 135.536L37.521 114.928L49.1912 107.03L73.4054 130.976L89.389 113.76L101.711 117.865L96.6349 124.177L83.8182 126.658L58.5726 148.673L38.9404 159.495L33.7063 168.949L22.3473 170.611L0 199.688Z" fill="#EBEBEB"/>
<path d="M58.3937 134.049C57.7075 135.025 56.3734 134.701 55.7553 134.104C55.1373 133.508 54.8773 132.642 54.6386 131.816C54.0973 129.927 53.5475 127.95 53.9524 126.027C54.0492 125.443 54.3059 124.897 54.694 124.45C54.8893 124.23 55.139 124.066 55.4181 123.973C55.6972 123.88 55.9958 123.863 56.2839 123.922C56.9573 124.101 57.375 124.774 57.6776 125.384C58.5654 127.232 59.0313 129.254 59.0416 131.304C59.1033 132.263 58.8777 133.219 58.3937 134.049Z" fill="#B75400"/>
<g opacity="0.2">
<path opacity="0.2" d="M58.3937 134.049C57.7075 135.025 56.3734 134.701 55.7553 134.104C55.1373 133.508 54.8773 132.642 54.6386 131.816C54.0973 129.927 53.5475 127.95 53.9524 126.027C54.0492 125.443 54.3059 124.897 54.694 124.45C54.8893 124.23 55.139 124.066 55.4181 123.973C55.6972 123.88 55.9958 123.863 56.2839 123.922C56.9573 124.101 57.375 124.774 57.6776 125.384C58.5654 127.232 59.0313 129.254 59.0416 131.304C59.1033 132.263 58.8777 133.219 58.3937 134.049Z" fill="black"/>
</g>
<path d="M55.8235 139.006C54.6739 138.467 53.3818 138.31 52.1366 138.559C51.4561 138.619 50.8154 138.906 50.3166 139.373C49.8605 139.876 49.7753 140.758 50.3166 141.188C50.6529 141.417 51.0584 141.521 51.4632 141.482C52.4392 141.482 53.5176 141.299 54.2976 141.883C54.7238 142.22 55.035 142.774 55.5763 142.94C55.8423 142.998 56.1196 142.969 56.368 142.857C56.6163 142.746 56.8228 142.559 56.9573 142.322C57.2117 141.835 57.2682 141.269 57.115 140.741C57.0489 140.371 56.8978 140.022 56.6737 139.721C56.4496 139.42 56.1585 139.175 55.8235 139.006Z" fill="#B75400"/>
<path d="M60.2733 135.451C59.9225 134.991 59.6888 134.452 59.5923 133.881C59.4957 133.31 59.5393 132.724 59.7192 132.174C60.097 131.074 60.7693 130.1 61.6628 129.356C62.6777 128.453 63.8592 127.757 65.1409 127.306C65.6367 127.105 66.1707 127.014 66.7051 127.042C66.9721 127.057 67.2313 127.137 67.4601 127.275C67.689 127.413 67.8805 127.605 68.0179 127.835C68.3802 128.534 68.0179 129.378 67.6514 130.068C66.9834 131.286 66.2195 132.449 65.3668 133.546C64.6848 134.428 63.9005 135.302 62.8563 135.699C61.812 136.095 60.7251 136.052 60.1753 135.328" fill="#B75400"/>
<path d="M58.4406 148.818C58.4052 148.678 58.3838 148.536 58.3767 148.392C58.3468 148.068 58.3042 147.659 58.2573 147.177C58.1971 146.579 58.106 145.984 57.9845 145.395C57.8262 144.678 57.6095 143.976 57.3367 143.294C57.072 142.612 56.7102 141.972 56.2626 141.393C55.9023 140.919 55.4388 140.532 54.9072 140.263C54.5477 140.085 54.1621 139.964 53.7649 139.905C53.621 139.898 53.4782 139.877 53.3386 139.841C53.4888 139.826 53.6402 139.826 53.7904 139.841C54.2022 139.87 54.6053 139.974 54.9796 140.148C55.5388 140.411 56.0292 140.801 56.4117 141.286C56.8783 141.875 57.2534 142.53 57.5242 143.23C57.7997 143.921 58.015 144.634 58.1678 145.361C58.2833 145.957 58.363 146.559 58.4065 147.164C58.4449 147.68 58.4576 148.098 58.4662 148.387C58.4686 148.531 58.46 148.675 58.4406 148.818Z" fill="#212121"/>
<path d="M58.3554 147.884C58.3444 147.815 58.3444 147.745 58.3554 147.675V147.087C58.3554 146.576 58.3554 145.834 58.3299 144.918C58.2872 143.085 58.1295 140.557 57.8227 137.778C57.5158 134.999 57.1109 132.502 56.74 130.707C56.6505 130.281 56.5653 129.855 56.48 129.501C56.3948 129.147 56.3351 128.836 56.2669 128.589C56.1987 128.342 56.1689 128.163 56.1305 128.018C56.1087 127.952 56.0972 127.883 56.0964 127.813C56.1257 127.875 56.1486 127.939 56.1646 128.005C56.2115 128.154 56.2669 128.342 56.3394 128.572C56.4118 128.802 56.4928 129.122 56.5823 129.475C56.6718 129.829 56.7699 130.23 56.8679 130.682C57.3742 133.019 57.7541 135.383 58.0059 137.761C58.3128 140.545 58.4322 143.081 58.462 144.913C58.462 145.834 58.462 146.576 58.4279 147.087C58.4279 147.33 58.4023 147.513 58.3938 147.68C58.3862 147.749 58.3734 147.817 58.3554 147.884Z" fill="#212121"/>
<path d="M58.3424 142.996C58.3276 142.79 58.3276 142.583 58.3424 142.377C58.3424 141.981 58.4192 141.41 58.53 140.707C58.6664 139.886 58.8485 139.073 59.0756 138.273C59.3453 137.289 59.6857 136.326 60.0942 135.392C60.7988 133.672 61.8097 132.095 63.0778 130.737C63.2977 130.505 63.5326 130.287 63.7811 130.085C63.8877 129.991 63.9857 129.902 64.0837 129.829L64.3565 129.642C64.5192 129.517 64.6917 129.406 64.8723 129.309C64.2732 129.78 63.7038 130.286 63.1673 130.827C61.9393 132.196 60.9534 133.764 60.2519 135.464C59.8499 136.393 59.5082 137.347 59.229 138.32C58.9605 139.215 58.8028 140.025 58.6493 140.728C58.4959 141.431 58.449 142.007 58.4064 142.382C58.4004 142.588 58.379 142.793 58.3424 142.996Z" fill="#212121"/>
<path d="M181.31 161.247C180.915 161.252 180.525 161.338 180.164 161.499C179.803 161.659 179.478 161.891 179.208 162.18C178.673 162.762 178.278 163.459 178.053 164.218C177.58 165.667 177.729 167.419 178.053 168.906C179.677 168.424 180.751 166.775 181.246 165.922C182.022 164.55 182.597 161.596 181.297 161.26" fill="#B75400"/>
<path d="M175.518 170.658C175.8 170.319 175.988 169.912 176.063 169.477C176.138 169.042 176.097 168.595 175.944 168.181C175.783 167.77 175.543 167.395 175.236 167.077C174.93 166.76 174.563 166.506 174.158 166.332C173.981 166.23 173.784 166.169 173.58 166.153C173.377 166.137 173.172 166.166 172.981 166.238C172.816 166.333 172.68 166.471 172.585 166.636C172.491 166.802 172.442 166.989 172.444 167.18C172.457 167.563 172.57 167.937 172.773 168.262C173.408 169.4 174.23 170.394 175.509 170.658" fill="#B75400"/>
<path d="M175.189 175.423C175.237 175.328 175.27 175.226 175.287 175.12C175.338 174.92 175.407 174.63 175.483 174.268C175.696 173.327 175.782 172.363 175.739 171.399C175.688 170.426 175.374 169.485 174.831 168.676C174.662 168.435 174.465 168.216 174.243 168.024C174.168 167.945 174.078 167.881 173.979 167.836C174.253 168.118 174.504 168.422 174.729 168.744C175.233 169.547 175.526 170.465 175.581 171.412C175.621 172.362 175.553 173.313 175.377 174.247C175.29 174.635 175.228 175.027 175.189 175.423Z" fill="#212121"/>
<path d="M180.615 163.446C180.512 163.589 180.424 163.742 180.351 163.902C180.189 164.205 179.963 164.639 179.69 165.181C179.145 166.263 178.411 167.776 177.653 169.464C176.894 171.152 176.238 172.699 175.786 173.829C175.556 174.392 175.36 174.848 175.262 175.167C175.191 175.328 175.134 175.495 175.091 175.666C175.183 175.516 175.26 175.358 175.321 175.193L175.897 173.876C176.378 172.759 177.047 171.225 177.81 169.537C178.573 167.849 179.285 166.332 179.801 165.232L180.41 163.928C180.49 163.772 180.559 163.611 180.615 163.446Z" fill="#212121"/>
<path d="M177.32 172.376C177.826 171.593 178.511 170.942 179.318 170.478C180.125 170.013 181.032 169.747 181.962 169.703C182.431 169.703 182.998 169.784 183.194 170.21C183.39 170.637 183.092 171.135 182.768 171.489C182.061 172.18 181.165 172.647 180.194 172.831C179.222 173.014 178.218 172.906 177.308 172.521" fill="#B75400"/>
<path d="M181.259 170.948C181.157 170.933 181.054 170.933 180.952 170.948C180.831 170.947 180.71 170.956 180.59 170.973C180.431 170.987 180.273 171.008 180.117 171.037C179.709 171.114 179.31 171.232 178.927 171.391C178.456 171.586 178.007 171.831 177.589 172.124C177.177 172.424 176.799 172.767 176.46 173.147C176.186 173.46 175.944 173.8 175.739 174.162C175.658 174.299 175.585 174.441 175.522 174.588C175.467 174.695 175.421 174.806 175.385 174.92C175.343 175.014 175.313 175.113 175.296 175.214C175.33 175.214 175.475 174.814 175.841 174.226C176.056 173.879 176.303 173.554 176.579 173.254C177.25 172.52 178.072 171.938 178.987 171.549C179.36 171.387 179.746 171.26 180.142 171.169C180.82 170.986 181.259 170.982 181.259 170.948Z" fill="#212121"/>
<path d="M168.019 186.172C167.955 186.121 167.895 186.063 167.841 186.001L167.312 185.524L165.376 183.719L158.886 177.554L158.975 177.585L156.521 177.88L145.955 179.118L142.749 179.466L141.876 179.551C141.775 179.566 141.672 179.571 141.569 179.564C141.668 179.536 141.77 179.517 141.872 179.506L142.741 179.381L145.933 178.962L156.495 177.661C157.334 177.561 158.149 177.474 158.949 177.366L159 177.362L159.037 177.397L165.476 183.614L167.365 185.469L167.879 185.961C167.934 186.026 167.981 186.097 168.019 186.172Z" fill="#212121"/>
<path d="M73 179.496L46.3921 179L39.0198 184.417L27.3405 187.366L21 195L28.3809 190.14L42.586 188.789L52.7026 182.806L73 179.496Z" fill="#F5F5F5"/>
<path d="M0 199.688C0 199.688 0.123607 199.514 0.379345 199.177L1.51312 197.685L5.90755 191.931C9.74362 186.923 15.323 179.647 22.2876 170.568V170.543H22.3174L33.6764 168.872L33.6168 168.91C35.2578 165.927 37.0266 162.76 38.8424 159.452H38.8679L58.4745 148.622L83.7628 126.577H83.7841H83.8139L96.6264 124.096L96.5625 124.135L103.092 116.007L109.273 108.334L109.315 108.283H109.383L123.334 111.386H123.368L123.389 111.412L163.374 153.609C167.807 161.912 171.749 169.285 175.138 175.628L191.761 191.398L196.177 195.597L197.311 196.683C197.566 196.926 197.69 197.054 197.69 197.054L197.298 196.696L196.151 195.626L191.71 191.449L175.019 175.721L163.221 153.715L123.21 111.561L123.266 111.595L109.337 108.475L109.447 108.437L103.267 116.109L96.7202 124.246L96.6946 124.28H96.6562L83.8395 126.756L83.8906 126.73L58.6365 148.741L39.0001 159.55L39.0384 159.516L33.7958 168.97V169.004H33.7532L22.3899 170.662L22.4368 170.632C15.4551 179.698 9.85871 186.957 6.00558 191.944L1.54722 197.711L0.396394 199.19C0.136394 199.522 0 199.688 0 199.688Z" fill="#212121"/>
<path d="M75 179L74.8939 179.023L74.5715 179.08L73.3283 179.292L68.6612 180.064L52.5384 182.682L52.5893 182.667C50.6036 183.891 48.4568 185.219 46.225 186.592L42.555 188.856L42.5295 188.871H42.4956L28.4305 190.259L28.4814 190.241L22.3123 194.448L20.6152 195.603L20.1612 195.902C20.0594 195.967 20 196 20 196C20 196 20.0467 195.962 20.1443 195.892C20.2418 195.821 20.3903 195.713 20.5685 195.583C20.9589 195.306 21.5232 194.914 22.2402 194.411L28.3542 190.173L28.3754 190.158H28.4051L42.4744 188.75L42.415 188.767C43.6072 188.031 44.8334 187.274 46.0808 186.504L52.445 182.581H52.4663H52.4917L68.6145 180.006L73.2817 179.272L74.5545 179.08L74.877 179.033L75 179Z" fill="#212121"/>
<path d="M133.709 152.006C133.709 152.066 127.946 152.117 120.836 152.117C113.727 152.117 107.96 152.066 107.96 152.006C107.96 151.946 113.723 151.895 120.836 151.895C127.95 151.895 133.709 151.959 133.709 152.006Z" fill="#212121"/>
<path d="M135.857 83.3829C135.857 83.3829 135.827 80.9576 135.724 80.9406L130.742 82.0488C130.691 82.3642 130.064 86.3409 130.171 86.7373L135.763 88.2845C135.763 88.2845 135.857 83.5235 135.857 83.3829Z" fill="#FFBE9D"/>
<path d="M135.861 87.9137C135.861 87.9137 135.861 87.8711 135.887 87.8071C135.946 87.2616 135.887 84.8917 135.622 84.7937C135.358 84.6957 134.488 84.8619 134.429 85.1773C134.369 85.4927 134.565 88.1609 134.565 88.1609C134.565 88.1609 134.621 88.5871 135.328 88.6809C135.763 88.7406 135.861 87.9137 135.861 87.9137Z" fill="#FFBE9D"/>
<path d="M134.441 88.7662C134.441 88.7662 134.441 88.7236 134.467 88.6597C134.522 88.1141 134.488 85.7442 134.198 85.6462C133.909 85.5482 133.065 85.7144 133.009 86.0298C132.954 86.3452 133.141 89.0134 133.141 89.0134C133.141 89.0134 133.201 89.4397 133.909 89.5334C134.343 89.5931 134.441 88.7662 134.441 88.7662Z" fill="#FFBE9D"/>
<path d="M133.052 89.1924C133.052 89.1924 133.052 89.1498 133.073 89.0816C133.133 88.5403 133.099 86.1704 132.809 86.0681C132.519 85.9658 131.675 86.1406 131.62 86.4517C131.564 86.7629 131.752 89.4353 131.752 89.4353C131.752 89.4353 131.812 89.8616 132.515 89.9596C132.954 90.0193 133.052 89.1924 133.052 89.1924Z" fill="#FFBE9D"/>
<path d="M131.667 89.593C131.667 89.593 131.667 89.5504 131.692 89.4822C131.748 88.9409 131.714 86.571 131.424 86.4688C131.134 86.3665 130.29 86.5412 130.235 86.8524C130.179 87.1635 130.371 89.836 130.371 89.836C130.371 89.836 130.426 90.2622 131.134 90.3602C131.569 90.4156 131.667 89.593 131.667 89.593Z" fill="#FFBE9D"/>
<path d="M134.42 85.8677C134.503 86.247 134.54 86.6348 134.531 87.0228C134.57 87.4036 134.557 87.7878 134.493 88.1651C134.41 87.7859 134.373 87.3981 134.382 87.01C134.343 86.6293 134.356 86.245 134.42 85.8677Z" fill="#EB996E"/>
<path d="M133.022 85.8592C133.16 86.9489 133.198 88.0488 133.137 89.1455C133.047 88.6032 133.003 88.0542 133.005 87.5045C132.962 86.9567 132.967 86.4061 133.022 85.8592Z" fill="#EB996E"/>
<g opacity="0.78">
<path opacity="0.78" d="M131.603 85.9786C131.74 87.0683 131.779 88.1682 131.718 89.2649C131.628 88.7226 131.583 88.1736 131.586 87.6239C131.542 87.0761 131.548 86.5254 131.603 85.9786Z" fill="#EB996E"/>
</g>
<path d="M130.712 82.1809C130.712 82.1809 128.739 86.6606 129.028 86.9377C129.4 87.2147 129.8 87.4518 130.222 87.6452L130.712 82.1809Z" fill="#FFBE9D"/>
<path d="M119.804 22.0825L118.36 38.8376L109.967 38.1684C109.916 37.1881 109.967 33.3989 109.967 33.3989C109.967 33.3989 106.476 32.8533 106.434 29.3625C106.412 27.6576 106.655 24.1625 106.911 21.0041C107.046 19.3202 107.836 17.7564 109.111 16.648C110.386 15.5397 112.044 14.975 113.731 15.0752C114.594 15.1234 115.439 15.3445 116.216 15.7255C116.992 16.1065 117.684 16.6396 118.251 17.2931C118.817 17.9467 119.247 18.7074 119.514 19.5301C119.781 20.3529 119.879 21.2208 119.804 22.0825Z" fill="#FFBE9D"/>
<path d="M109.98 33.3477C111.591 33.3838 113.176 32.9386 114.532 32.069C114.532 32.069 113.458 34.5837 109.972 34.2683L109.98 33.3477Z" fill="#EB996E"/>
<path d="M108.28 23.4506C108.279 23.5808 108.329 23.7061 108.419 23.8005C108.509 23.895 108.631 23.9513 108.761 23.9578C108.889 23.966 109.016 23.9231 109.112 23.8384C109.209 23.7538 109.268 23.6342 109.277 23.506C109.278 23.3759 109.228 23.2505 109.138 23.1566C109.048 23.0626 108.925 23.0075 108.795 23.0031C108.732 22.9979 108.668 23.0054 108.608 23.0252C108.547 23.0449 108.491 23.0766 108.443 23.1183C108.395 23.16 108.356 23.2109 108.328 23.2679C108.3 23.325 108.283 23.3871 108.28 23.4506Z" fill="#212121"/>
<path d="M107.674 22.7644C107.734 22.8326 108.1 22.5513 108.65 22.5513C109.2 22.5513 109.579 22.8241 109.639 22.7559C109.699 22.6877 109.605 22.611 109.43 22.4874C109.202 22.3252 108.928 22.238 108.648 22.238C108.368 22.238 108.094 22.3252 107.866 22.4874C107.7 22.6195 107.631 22.7346 107.674 22.7644Z" fill="#212121"/>
<path d="M113.432 23.4549C113.432 23.5847 113.482 23.7095 113.572 23.8032C113.662 23.8969 113.784 23.9523 113.914 23.9578C113.977 23.9625 114.041 23.9544 114.101 23.9341C114.162 23.9137 114.217 23.8816 114.265 23.8395C114.312 23.7974 114.351 23.7463 114.379 23.689C114.406 23.6317 114.422 23.5695 114.425 23.506C114.428 23.3763 114.379 23.2509 114.29 23.1568C114.2 23.0628 114.078 23.0075 113.948 23.0031C113.884 22.9979 113.82 23.0055 113.76 23.0256C113.699 23.0456 113.643 23.0777 113.595 23.1198C113.546 23.1619 113.507 23.2133 113.479 23.2709C113.452 23.3284 113.436 23.391 113.432 23.4549Z" fill="#212121"/>
<path d="M112.947 22.8582C113.011 22.9221 113.373 22.6408 113.923 22.645C114.473 22.6493 114.852 22.9136 114.912 22.8496C114.971 22.7857 114.877 22.7005 114.707 22.5768C114.474 22.4171 114.197 22.3323 113.914 22.3339C113.635 22.3308 113.363 22.4191 113.138 22.5854C112.972 22.7175 112.917 22.8582 112.947 22.8582Z" fill="#212121"/>
<path d="M110.999 26.8435C110.722 26.7578 110.436 26.7048 110.146 26.6858C110.01 26.6858 109.878 26.6474 109.856 26.5536C109.84 26.4056 109.871 26.2562 109.946 26.1274C110.078 25.795 110.21 25.4454 110.372 25.0832C110.747 24.1996 111.051 23.2874 111.28 22.3553C110.832 23.2055 110.455 24.0907 110.151 25.0022C110.018 25.3687 109.886 25.7182 109.763 26.0507C109.677 26.2159 109.653 26.4063 109.695 26.5877C109.713 26.6368 109.744 26.6806 109.783 26.7154C109.822 26.7503 109.869 26.7752 109.92 26.7881C109.995 26.8107 110.073 26.8222 110.151 26.8222C110.431 26.8646 110.716 26.8717 110.999 26.8435Z" fill="#212121"/>
<path d="M112.58 27.2143C112.491 27.2143 112.491 27.7939 111.992 28.2074C111.493 28.6208 110.875 28.5569 110.871 28.6336C110.867 28.7103 111.007 28.7444 111.272 28.753C111.613 28.7578 111.945 28.6416 112.209 28.4248C112.463 28.2193 112.625 27.9222 112.661 27.5979C112.682 27.3549 112.618 27.2143 112.58 27.2143Z" fill="#212121"/>
<path d="M112.81 20.7611C112.861 20.9103 113.398 20.8379 114.029 20.9146C114.66 20.9913 115.167 21.1618 115.248 21.0339C115.329 20.9061 115.197 20.8336 114.993 20.6929C114.721 20.5168 114.411 20.4072 114.089 20.3733C113.766 20.337 113.44 20.3749 113.134 20.4841C112.904 20.5779 112.785 20.6929 112.81 20.7611Z" fill="#212121"/>
<path d="M107.87 21.2129C107.964 21.3365 108.335 21.2129 108.778 21.2129C109.221 21.2129 109.601 21.2939 109.686 21.166C109.771 21.0381 109.665 20.9827 109.503 20.8676C109.281 20.7296 109.024 20.6601 108.763 20.6677C108.502 20.6752 108.25 20.7596 108.037 20.9103C107.883 21.0296 107.828 21.1532 107.87 21.2129Z" fill="#212121"/>
<path d="M122.273 17.6112C122.294 17.2852 122.194 16.9627 121.992 16.7061C121.79 16.4494 121.499 16.2769 121.177 16.2217C121.315 15.9085 121.349 15.5596 121.276 15.2255C121.202 14.8915 121.024 14.5895 120.767 14.3635C120.51 14.1375 120.188 13.9992 119.847 13.9685C119.506 13.9378 119.164 14.0164 118.871 14.1929C118.773 13.8134 118.569 13.4693 118.285 13.1997C118 12.9302 117.645 12.746 117.261 12.6683C116.877 12.5905 116.478 12.6223 116.111 12.76C115.744 12.8977 115.423 13.1357 115.184 13.447C114.939 13.1554 114.622 12.9323 114.264 12.7991C113.907 12.666 113.521 12.6273 113.144 12.6869C112.767 12.7465 112.412 12.9022 112.114 13.1392C111.815 13.3761 111.582 13.6862 111.438 14.0394C111.176 13.818 110.87 13.6545 110.54 13.5596C110.21 13.4647 109.864 13.4406 109.525 13.4889C109.185 13.5372 108.859 13.6568 108.569 13.8398C108.279 14.0229 108.031 14.2652 107.841 14.5509C107.458 14.4134 107.053 14.3484 106.647 14.3591C106.385 14.3658 106.13 14.4435 105.908 14.5838C105.687 14.7242 105.508 14.922 105.39 15.1562C105.314 15.3566 105.308 15.5769 105.373 15.7811C105.438 15.9854 105.57 16.1617 105.748 16.2814C105.595 16.2322 105.434 16.2153 105.275 16.2316C105.115 16.2478 104.961 16.297 104.821 16.376C104.682 16.455 104.56 16.5621 104.464 16.6904C104.368 16.8188 104.3 16.9657 104.263 17.1219C104.227 17.278 104.223 17.44 104.253 17.5976C104.282 17.7552 104.344 17.905 104.434 18.0375C104.524 18.17 104.641 18.2824 104.777 18.3675C104.913 18.4526 105.065 18.5086 105.223 18.5319C105.112 18.589 105.018 18.6765 104.954 18.7843C104.89 18.8922 104.858 19.016 104.861 19.1414C104.909 19.3496 105.009 19.542 105.152 19.7003C105.295 19.8585 105.477 19.9772 105.68 20.045C106.711 20.4181 107.844 20.3999 108.863 19.9939C109.895 19.6486 110.85 19.1073 111.873 18.7152C112.896 18.323 114.605 17.6709 115.632 18.0332C115.783 18.0873 115.926 18.1603 116.058 18.2506C116.61 18.6906 116.973 19.3249 117.073 20.0237C117.075 20.0464 117.075 20.0692 117.073 20.0919C117.209 21.0893 117.188 22.0994 117.333 23.0755C117.428 24.0838 117.858 25.031 118.556 25.765C118.859 26.0463 119.408 26.2424 119.643 25.9099C119.729 25.7739 119.772 25.6149 119.766 25.4539C119.903 23.7191 120.278 22.125 120.478 20.4286C120.735 20.0001 121.054 19.6123 121.425 19.2778C121.896 18.8407 122.197 18.2499 122.273 17.6112Z" fill="#212121"/>
<path d="M111.864 15.8552C111.803 15.7082 111.787 15.5467 111.817 15.3906C111.855 14.9524 112.054 14.5437 112.376 14.244C112.62 14.0236 112.919 13.8736 113.242 13.8098C113.565 13.746 113.899 13.7708 114.208 13.8817C114.397 13.9435 114.57 14.0441 114.716 14.177C114.863 14.3099 114.981 14.4721 115.061 14.6532C115.142 14.8587 115.151 15.0855 115.086 15.2968C115.055 15.4099 114.998 15.5141 114.92 15.6014C114.841 15.6887 114.744 15.7566 114.635 15.7998C114.524 15.8436 114.404 15.8595 114.286 15.8461C114.168 15.8328 114.055 15.7905 113.957 15.7231C113.866 15.6503 113.795 15.5551 113.752 15.4467C113.708 15.3384 113.694 15.2206 113.71 15.105C113.73 14.8915 113.831 14.6936 113.991 14.5509C114.138 14.4202 114.313 14.3241 114.502 14.2696C114.815 14.1743 115.145 14.1521 115.467 14.2046C115.789 14.257 116.095 14.3828 116.361 14.5722C116.568 14.7216 116.725 14.9294 116.813 15.169C116.874 15.3501 116.885 15.5449 116.842 15.7316C116.761 16.0385 116.587 16.1322 116.587 16.1237C116.671 15.9942 116.729 15.8494 116.757 15.6975C116.782 15.5275 116.761 15.3541 116.698 15.1945C116.606 14.9873 116.459 14.81 116.271 14.6831C116.022 14.5196 115.74 14.4134 115.446 14.3721C115.151 14.3309 114.851 14.3555 114.566 14.4444C114.407 14.4822 114.262 14.565 114.149 14.6829C114.036 14.8008 113.959 14.9488 113.927 15.1093C113.915 15.1887 113.924 15.2699 113.953 15.3447C113.982 15.4196 114.03 15.4854 114.093 15.5355C114.161 15.581 114.239 15.6091 114.32 15.6173C114.401 15.6254 114.483 15.6135 114.558 15.5824C114.709 15.507 114.825 15.3763 114.882 15.2176C114.939 15.0589 114.933 14.8842 114.865 14.7299C114.795 14.5758 114.694 14.4376 114.569 14.324C114.444 14.2103 114.296 14.1236 114.136 14.0693C113.858 13.9686 113.558 13.942 113.267 13.9921C112.976 14.0422 112.702 14.1672 112.474 14.3549C112.167 14.627 111.963 14.9953 111.894 15.3991C111.856 15.689 111.894 15.8552 111.864 15.8552Z" fill="#424242"/>
<path d="M116.105 13.6261C116.206 13.5876 116.313 13.5674 116.42 13.5664C116.713 13.5382 117.008 13.5468 117.298 13.592C117.746 13.6549 118.16 13.8648 118.475 14.1887C118.675 14.3954 118.801 14.6624 118.835 14.9483C118.868 15.2341 118.806 15.5229 118.658 15.77C118.606 15.8509 118.543 15.924 118.471 15.9874L118.355 15.7998C118.493 15.7508 118.64 15.7353 118.784 15.7546C118.929 15.7739 119.067 15.8274 119.187 15.9107C119.412 16.0532 119.572 16.278 119.634 16.5372C119.677 16.7468 119.675 16.9631 119.628 17.1718C119.581 17.3805 119.49 17.5768 119.361 17.7477C119.197 17.9681 118.995 18.1572 118.765 18.3061C118.603 18.4126 118.509 18.4552 118.5 18.4425C118.492 18.4297 118.573 18.3657 118.713 18.2421C118.914 18.0743 119.091 17.8792 119.238 17.6625C119.342 17.5063 119.413 17.3305 119.448 17.1459C119.482 16.9613 119.479 16.7716 119.438 16.5884C119.385 16.3807 119.254 16.2018 119.072 16.0897C118.98 16.0271 118.874 15.9868 118.764 15.972C118.654 15.9572 118.542 15.9683 118.436 16.0044L117.865 16.2346L118.326 15.8084C118.383 15.7584 118.433 15.7011 118.475 15.6379C118.603 15.4274 118.653 15.1783 118.615 14.9346C118.582 14.7037 118.479 14.4884 118.321 14.3165C118.04 14.0181 117.671 13.8154 117.269 13.7369C116.582 13.609 116.105 13.6729 116.105 13.6261Z" fill="#424242"/>
<path d="M121.16 17.3172C121.186 17.3172 121.25 17.4365 121.25 17.6496C121.246 17.937 121.138 18.2133 120.946 18.4272C120.754 18.6411 120.491 18.7782 120.205 18.8132C119.992 18.8132 119.864 18.7877 119.869 18.7578C120.207 18.6756 120.52 18.5117 120.781 18.2805C120.986 17.9961 121.116 17.6649 121.16 17.3172Z" fill="#424242"/>
<path d="M106.246 15.5014C106.334 15.3886 106.447 15.2969 106.575 15.2329C107.003 14.9956 107.495 14.9023 107.981 14.9668C108.466 15.0313 108.917 15.2501 109.268 15.5909C109.401 15.714 109.508 15.8629 109.581 16.0286C109.654 16.1942 109.693 16.3731 109.695 16.5542C109.682 16.7652 109.588 16.9632 109.432 17.1057C109.276 17.2483 109.07 17.3242 108.859 17.3171C108.75 17.3045 108.645 17.2627 108.558 17.1959C108.47 17.1292 108.402 17.04 108.36 16.9378C108.279 16.7538 108.266 16.5469 108.322 16.3539C108.377 16.1775 108.474 16.0175 108.606 15.888C108.738 15.7586 108.899 15.6639 109.077 15.6122C109.381 15.5053 109.714 15.5053 110.018 15.6122C110.275 15.7065 110.51 15.8514 110.709 16.0385C110.989 16.3045 111.222 16.6157 111.399 16.9591C111.474 17.0776 111.531 17.207 111.566 17.3427C111.474 17.2368 111.393 17.1226 111.323 17.0017C111.128 16.6837 110.886 16.3964 110.607 16.1493C110.415 15.9683 110.179 15.8399 109.923 15.7764C109.667 15.7129 109.399 15.7166 109.145 15.787C109.002 15.8303 108.872 15.907 108.765 16.0108C108.659 16.1146 108.578 16.2425 108.531 16.3837C108.45 16.665 108.582 17.0486 108.88 17.0699C109.029 17.0671 109.172 17.0087 109.28 16.9062C109.388 16.8036 109.454 16.6644 109.464 16.5158C109.463 16.3654 109.432 16.2166 109.373 16.0783C109.313 15.94 109.227 15.8149 109.119 15.7103C108.737 15.3266 108.224 15.1025 107.683 15.0837C107.315 15.0665 106.948 15.1366 106.613 15.2883C106.495 15.3665 106.373 15.4377 106.246 15.5014Z" fill="#424242"/>
<path d="M118.628 23.6595C118.688 23.6339 121.028 22.952 120.951 25.3389C120.874 27.7257 118.496 27.1546 118.492 27.0864C118.488 27.0182 118.628 23.6595 118.628 23.6595Z" fill="#FFBE9D"/>
<path d="M119.251 26.2084C119.251 26.2084 119.293 26.2382 119.361 26.2723C119.461 26.3115 119.573 26.3115 119.673 26.2723C119.829 26.1789 119.958 26.0457 120.047 25.8862C120.135 25.7267 120.179 25.5467 120.176 25.3644C120.187 25.1597 120.155 24.9548 120.082 24.7634C120.061 24.6887 120.023 24.62 119.97 24.5629C119.917 24.5058 119.852 24.4621 119.779 24.4352C119.731 24.4199 119.68 24.4222 119.634 24.4417C119.587 24.4613 119.55 24.4968 119.528 24.5418C119.494 24.6057 119.506 24.6526 119.494 24.6569C119.481 24.6611 119.447 24.6185 119.468 24.5205C119.483 24.4613 119.518 24.4089 119.566 24.3713C119.633 24.3256 119.716 24.3073 119.796 24.3202C119.894 24.3424 119.985 24.3894 120.059 24.4565C120.134 24.5237 120.19 24.6088 120.222 24.7038C120.316 24.9139 120.357 25.1435 120.342 25.373C120.347 25.5857 120.289 25.7953 120.176 25.9752C120.062 26.1551 119.897 26.297 119.702 26.3831C119.638 26.3992 119.572 26.401 119.507 26.3885C119.442 26.376 119.381 26.3494 119.327 26.3107C119.255 26.268 119.242 26.2126 119.251 26.2084Z" fill="#EB996E"/>
<path d="M103.825 139.679L105.377 146.823C105.377 146.823 98.638 150.795 98.7957 152.142L112.746 149.636L110.786 138.409L103.825 139.679Z" fill="#212121"/>
<path d="M112.746 149.636L112.503 148.511L99.2135 151.337C99.2135 151.337 98.6423 151.72 98.7872 152.142L112.746 149.636Z" fill="#424242"/>
<path d="M119.698 140.464L119.928 147.769C119.928 147.769 112.58 150.459 112.491 151.81L126.671 151.874L126.778 140.477L119.698 140.464Z" fill="#212121"/>
<g opacity="0.6">
<path opacity="0.6" d="M126.671 151.874L126.637 150.723L113.053 151.094C113.053 151.094 112.422 151.367 112.491 151.81L126.671 151.874Z" fill="#424242"/>
</g>
<path d="M103.058 145.804C103.058 145.804 95.8122 110.15 95.7866 109.434L108.77 102.563L113.799 144.406L103.058 145.804Z" fill="#212121"/>
<path d="M119.413 147.002L109.371 85.1986V71.8746L123.087 73.1533C123.261 73.6733 127.75 147.091 127.75 147.091L126.335 147.01H119.413" fill="#212121"/>
<path d="M101.477 70.9284L95.7866 109.434L108.51 106.348L113.697 72.1815L101.477 70.9284Z" fill="#212121"/>
<path d="M113.249 74.1933C113.249 74.1933 113.249 74.2573 113.249 74.3809L113.309 74.935C113.364 75.4251 113.445 76.1412 113.552 77.0661C113.769 78.9074 114.097 81.5714 114.524 84.8619C115.376 91.4386 116.655 100.509 118.044 110.534C118.735 115.55 119.37 120.337 119.911 124.68C120.052 125.767 120.163 126.833 120.337 127.86C120.512 128.887 120.649 129.885 120.794 130.844C121.088 132.77 121.36 134.569 121.608 136.206C122.102 139.488 122.49 142.143 122.746 143.98C122.874 144.896 122.967 145.608 123.023 146.111C123.053 146.354 123.07 146.537 123.078 146.665C123.082 146.712 123.082 146.759 123.078 146.806C123.078 146.844 123.057 146.806 123.057 146.806C123.057 146.806 123.087 146.806 123.082 146.806C123.088 146.758 123.088 146.709 123.082 146.661C123.082 146.537 123.082 146.35 123.044 146.107C123.001 145.621 122.916 144.905 122.801 143.976C122.567 142.139 122.196 139.479 121.718 136.197C121.476 134.556 121.211 132.757 120.926 130.831C120.781 129.868 120.63 128.873 120.474 127.847C120.325 126.82 120.218 125.754 120.077 124.668C119.549 120.316 118.918 115.533 118.228 110.521C116.842 100.496 115.534 91.4258 114.656 84.8534C114.23 81.5714 113.872 78.9117 113.629 77.0661L113.352 74.935C113.322 74.6963 113.296 74.5088 113.279 74.3851C113.262 74.2615 113.249 74.1933 113.249 74.1933Z" fill="#424242"/>
<path d="M105.594 145.476C105.594 145.476 105.594 145.412 105.573 145.293L105.5 144.76C105.419 144.287 105.304 143.596 105.151 142.71C104.84 140.924 104.388 138.349 103.83 135.174L99.4053 110.316C99.2746 109.725 99.2386 109.116 99.2988 108.513C99.3755 107.917 99.4735 107.316 99.563 106.723C99.7477 105.538 99.9282 104.37 100.104 103.22C100.467 100.922 100.82 98.7101 101.174 96.6045C101.873 92.3891 102.551 88.6042 103.156 85.4287C103.761 82.2533 104.29 79.696 104.695 77.9356C104.887 77.0533 105.061 76.3714 105.168 75.911C105.219 75.6851 105.258 75.4848 105.287 75.3825C105.317 75.2802 105.326 75.2035 105.326 75.2035C105.326 75.2035 105.304 75.2589 105.27 75.3782C105.236 75.4976 105.194 75.6766 105.134 75.9025C105.015 76.3628 104.831 77.0405 104.631 77.9186C104.205 79.6789 103.655 82.2363 103.033 85.4074C102.41 88.5786 101.724 92.3635 101.016 96.5747C100.658 98.6845 100.3 100.897 99.9339 103.194C99.7548 104.341 99.5758 105.513 99.3883 106.698C99.303 107.294 99.205 107.883 99.124 108.496C99.0651 109.116 99.1025 109.742 99.2348 110.35C100.982 120.047 102.564 128.832 103.71 135.195C104.29 138.367 104.759 140.937 105.083 142.723L105.466 144.769C105.513 144.994 105.547 145.173 105.573 145.297C105.599 145.421 105.594 145.476 105.594 145.476Z" fill="#424242"/>
<path d="M109.371 84.7638C109.324 84.7638 109.916 88.7661 110.696 93.6806C111.476 98.595 112.145 102.563 112.192 102.563C112.239 102.563 111.647 98.5609 110.867 93.6465C110.087 88.732 109.417 84.7553 109.371 84.7638Z" fill="#424242"/>
<path d="M119.289 146.891C119.396 146.921 119.506 146.939 119.617 146.946C119.83 146.972 120.141 147.002 120.521 147.032C121.284 147.091 122.341 147.147 123.504 147.168C124.668 147.189 125.729 147.168 126.488 147.13C126.871 147.13 127.183 147.096 127.396 147.074C127.507 147.075 127.618 147.06 127.724 147.027C127.313 146.993 126.9 146.986 126.488 147.006C125.721 147.006 124.668 147.006 123.504 147.006C122.341 147.006 121.284 146.946 120.521 146.921C120.111 146.883 119.7 146.873 119.289 146.891Z" fill="#424242"/>
<path d="M103.058 145.804C103.201 145.813 103.344 145.806 103.484 145.783L104.639 145.664C105.615 145.549 106.958 145.387 108.441 145.191C109.925 144.994 111.263 144.815 112.231 144.675L113.381 144.5C113.526 144.488 113.669 144.459 113.808 144.415C113.666 144.4 113.523 144.4 113.381 144.415L112.226 144.534C111.25 144.645 109.908 144.811 108.424 145.003C106.941 145.195 105.603 145.378 104.631 145.523L103.484 145.698C103.339 145.718 103.196 145.754 103.058 145.804Z" fill="#424242"/>
<path d="M38.5823 11.1028C38.5823 11.1028 44.217 8.90345 48.0659 10.0031C51.9148 11.1028 53.0741 13.4812 55.9597 13.2894C58.2528 13.1274 59.8767 12.1343 60.7036 9.69624C61.5305 7.25821 61.5305 4.21492 69.3604 4.50476C75.3532 4.7264 75.9584 5.60443 75.9584 5.60443L76.602 21.5497C73.1922 21.0127 69.7397 20.6248 66.0187 21.149C65.11 21.3456 64.2853 21.8209 63.6595 22.5085C63.0338 23.1962 62.6382 24.0619 62.5279 24.9851C62.1017 28.395 58.5938 29.7163 56.4967 29.7163C53.5131 29.7163 51.9787 27.6874 49.4341 27.0992C45.4403 26.1743 38.5823 28.9704 38.5823 28.9704V11.1028Z" fill="#B75400"/>
<path d="M79.0401 44.4383L75.5962 44.1953L75.6857 49.5999L79.3811 52.2979L79.7562 52.1615L79.9693 46.0153L79.0401 44.4383Z" fill="#EB996E"/>
<path d="M60.111 23.391C60.0513 23.391 59.949 20.7483 59.8851 17.4877C59.8212 14.227 59.8212 11.5801 59.8851 11.5801C59.949 11.5801 60.0471 14.2185 60.111 17.4834C60.1749 20.7483 60.1707 23.3867 60.111 23.391Z" fill="#212121"/>
<path d="M53.803 16.4648C53.8669 16.4648 53.9138 19.1969 53.9138 22.5598C53.9138 25.9228 53.8669 28.6592 53.803 28.6592C53.739 28.6592 53.6921 25.9271 53.6921 22.5598C53.6921 19.1926 53.7433 16.4648 53.803 16.4648Z" fill="#212121"/>
<g opacity="0.2">
<path opacity="0.2" d="M53.8029 25.9696C53.7602 27.1929 53.8029 28.8168 53.8029 28.8168C54.6979 29.4136 56.5435 29.7759 57.5707 29.4562H57.6006C58.2797 29.2387 58.8914 28.8499 59.3767 28.3273C59.8619 27.8048 60.2044 27.166 60.3711 26.4726C60.4972 26.0105 60.5518 25.5318 60.533 25.0532C60.192 20.9998 59.753 15.949 59.8809 11.8827C59.032 12.6004 58.0196 13.0983 56.9329 13.3324C55.8462 13.5666 54.7186 13.5298 53.6494 13.2253L53.8029 25.9696Z" fill="black"/>
</g>
<g opacity="0.6">
<path opacity="0.6" d="M53.2404 13.7879C53.0562 13.7061 52.8806 13.6062 52.7162 13.4896L51.3224 12.6371C49.8181 11.6566 48.151 10.9523 46.3994 10.5571C44.6339 10.2326 42.816 10.3408 41.1014 10.8725C40.3983 11.1214 39.7083 11.406 39.0342 11.725C39.1947 11.6021 39.3659 11.4937 39.5457 11.4011C40.0292 11.1378 40.5339 10.9154 41.0545 10.7361C42.7878 10.1488 44.643 10.0167 46.4421 10.3525C48.22 10.7493 49.9056 11.4828 51.4076 12.5135C51.9916 12.8886 52.4476 13.2125 52.7631 13.4384C52.933 13.5394 53.0928 13.6565 53.2404 13.7879Z" fill="white"/>
</g>
<g opacity="0.6">
<path opacity="0.6" d="M67.0885 5.64704C67.0885 5.6854 66.6623 5.64704 65.9974 5.71523C65.1311 5.81692 64.3033 6.13074 63.5873 6.62888C62.8713 7.12702 62.2893 7.79409 61.8928 8.57098C61.5859 9.1677 61.4921 9.58114 61.4666 9.56836C61.4908 9.19628 61.5924 8.83336 61.7649 8.50278C62.1374 7.67447 62.7279 6.96293 63.4734 6.44418C64.2189 5.92543 65.0913 5.61896 65.9974 5.55753C66.3634 5.51272 66.7347 5.54318 67.0885 5.64704Z" fill="white"/>
</g>
<path d="M76.2611 3.96767L80.809 130.319L80.0248 130.507L75.3533 4.02734L76.2611 3.96767Z" fill="#212121"/>
<path d="M84.6705 51.5904L82.9656 45.4569L76.9046 41.1946C76.9046 41.1946 76.1971 41.6208 77.2797 43.2192L78.6394 45.0946C78.6394 45.0946 78.5967 47.5369 79.7604 48.9691L79.3853 52.2766L84.6705 51.5904Z" fill="#FFBE9D"/>
<path d="M75.5833 45.312C76.2426 45.7402 76.82 46.283 77.2882 46.9146C77.379 47.0939 77.423 47.2933 77.4161 47.4942C77.4208 47.5806 77.4009 47.6665 77.3586 47.742C77.3164 47.8175 77.2535 47.8794 77.1774 47.9205C77.1138 47.9461 77.0449 47.956 76.9766 47.9493C76.9084 47.9426 76.8427 47.9196 76.7853 47.8821C76.6671 47.8109 76.5607 47.7217 76.4699 47.6178L75.302 46.4116C75.1045 46.2347 74.9636 46.0034 74.8971 45.7467C74.8955 45.667 74.9144 45.5883 74.9521 45.5181C74.9897 45.4479 75.0448 45.3885 75.112 45.3457C75.1792 45.3029 75.2563 45.2781 75.3358 45.2737C75.4154 45.2693 75.4947 45.2854 75.5663 45.3205" fill="#FFBE9D"/>
<path d="M75.5747 46.8763C76.2321 47.307 76.8091 47.8494 77.2796 48.4789C77.3695 48.6586 77.4135 48.8578 77.4075 49.0586C77.4122 49.1449 77.3923 49.2309 77.3501 49.3063C77.3078 49.3818 77.2449 49.4437 77.1688 49.4848C77.104 49.5079 77.0349 49.5164 76.9663 49.5098C76.8978 49.5032 76.8316 49.4815 76.7724 49.4465C76.6556 49.3751 76.5506 49.286 76.4613 49.1822L75.3062 48.0058C75.1112 47.8275 74.9721 47.5965 74.9055 47.3409C74.9051 47.2616 74.9248 47.1836 74.9628 47.114C75.0007 47.0445 75.0557 46.9857 75.1225 46.9431C75.1893 46.9005 75.2659 46.8756 75.3449 46.8706C75.424 46.8656 75.5031 46.8808 75.5747 46.9146" fill="#FFBE9D"/>
<path d="M75.8262 48.5812C76.4855 49.0095 77.0629 49.5522 77.5311 50.1838C77.6239 50.3625 77.668 50.5624 77.659 50.7635C77.6636 50.8493 77.6441 50.9348 77.6027 51.0101C77.5612 51.0854 77.4995 51.1477 77.4246 51.1897C77.36 51.214 77.2906 51.2232 77.2219 51.2166C77.1532 51.2099 77.0869 51.1876 77.0282 51.1514C76.9108 51.079 76.8045 50.99 76.7128 50.8871L75.5449 49.6809C75.3502 49.5016 75.2099 49.2712 75.14 49.0159C75.1384 48.9363 75.1574 48.8576 75.195 48.7873C75.2326 48.7171 75.2877 48.6577 75.3549 48.6149C75.4221 48.5721 75.4992 48.5473 75.5787 48.5429C75.6583 48.5385 75.7376 48.5546 75.8092 48.5897" fill="#FFBE9D"/>
<path d="M75.8604 44.2336C76.1274 44.3544 76.3679 44.5267 76.5679 44.7408C76.6702 44.8547 76.738 44.9952 76.7637 45.1461C76.7893 45.297 76.7717 45.452 76.7129 45.5933C76.6885 45.6482 76.6508 45.6961 76.6031 45.7326C76.5555 45.7691 76.4994 45.793 76.4401 45.8022C76.3564 45.8062 76.2733 45.7854 76.2014 45.7425C76.0356 45.6663 75.8796 45.5704 75.7368 45.4569C75.5959 45.3258 75.4662 45.1832 75.3489 45.0307C75.2681 44.9681 75.2125 44.8786 75.1921 44.7785C75.1718 44.6783 75.1881 44.5742 75.2381 44.4851C75.3276 44.2805 75.4171 44.1612 75.8604 44.2123" fill="#FFBE9D"/>
<path d="M84.3168 48.5258L93.5191 56.7904L90.527 63.3884L79.9692 52.1232L84.3168 48.5258Z" fill="#FFBE9D"/>
<path d="M83.9504 48.1677L92.1382 54.3992C92.1382 54.3992 99.7549 41.4077 100.428 40.6021C101.102 39.7965 102.811 38.9313 102.811 38.9313L101.865 55.5841C101.865 55.5841 97.7474 66.0992 92.0913 65.528C87.7608 65.1018 80.2805 53.6703 80.2805 53.6703L83.9504 48.1677Z" fill="#B75400"/>
<g opacity="0.2">
<path opacity="0.2" d="M91.9844 54.1947C91.4233 55.0703 91.0587 56.0573 90.916 57.0875C90.7732 58.1177 90.8556 59.1667 91.1576 60.1619C91.1999 60.3729 91.3182 60.561 91.49 60.6904C91.636 60.7544 91.8005 60.7618 91.9517 60.7114C92.1028 60.6611 92.2299 60.5564 92.3084 60.4177C92.4547 60.1332 92.528 59.8168 92.5215 59.497C92.6565 59.805 92.8624 60.0766 93.1225 60.2898C93.2574 60.3906 93.4227 60.4421 93.5909 60.4359C93.7592 60.4297 93.9203 60.3661 94.0474 60.2557C94.3202 59.9573 94.1667 59.4842 94.0048 59.1134C93.3057 57.5335 92.6082 55.9536 91.912 54.3737" fill="black"/>
</g>
<path d="M86.0088 50.0303C85.4478 51.1144 84.8215 52.1635 84.1334 53.1716C83.5079 54.2191 82.8205 55.2282 82.0747 56.1936C82.6337 55.1084 83.2601 54.0593 83.9501 53.0523C84.5751 52.0046 85.2625 50.9954 86.0088 50.0303Z" fill="#212121"/>
<path d="M83.9247 49.8044C83.9247 49.7831 84.0099 49.6765 84.1975 49.7447C84.2521 49.766 84.3005 49.8005 84.3384 49.8452C84.3764 49.8898 84.4026 49.9432 84.4149 50.0005C84.4249 50.0764 84.4114 50.1537 84.3762 50.2217C84.341 50.2898 84.2857 50.3455 84.218 50.3812C84.1502 50.417 84.0731 50.4311 83.997 50.4217C83.921 50.4123 83.8496 50.3798 83.7926 50.3287C83.7527 50.2859 83.724 50.234 83.7092 50.1774C83.6943 50.1209 83.6936 50.0616 83.7073 50.0047C83.7542 49.8087 83.9034 49.7831 83.9076 49.8129C83.9119 49.8428 83.8565 49.9024 83.865 50.0218C83.8735 50.1411 83.9673 50.2605 84.1122 50.1838C84.1401 50.1701 84.1636 50.1488 84.18 50.1224C84.1964 50.0961 84.2051 50.0656 84.2051 50.0346C84.2051 50.0035 84.1964 49.9731 84.18 49.9467C84.1636 49.9203 84.1401 49.8991 84.1122 49.8854C84.0313 49.8129 83.9417 49.83 83.9247 49.8044Z" fill="#212121"/>
<path d="M92.1467 58.3375C91.6727 57.071 91.6516 55.6795 92.087 54.3992C92.151 54.3992 91.9762 55.2857 91.9975 56.3726C92.0188 57.4595 92.2106 58.3205 92.1467 58.3375Z" fill="#212121"/>
<path d="M93.7322 58.2822C92.8971 57.133 92.3279 55.8125 92.0657 54.4163C92.3727 55.0483 92.6472 55.6956 92.8883 56.3556C93.3444 57.417 93.7877 58.2353 93.7322 58.2822Z" fill="#212121"/>
<path d="M119.941 37.35L118.714 34.8906H109.763L108.356 37.6697L102.815 38.9228L100.433 74.5897C100.421 75.0366 100.53 75.4784 100.748 75.8684L122.486 76.7209L123.368 77.0832C124.148 76.6015 123.662 74.6153 123.671 73.6733L123.952 56.0104L128.253 41.8936L119.941 37.35Z" fill="#B75400"/>
<g opacity="0.2">
<path opacity="0.2" d="M110.662 38.5733L112.243 36.992L114.025 41.2798C116.07 40.0778 118.017 38.7152 119.847 37.2051L113.824 39.1359C113.313 37.789 112.804 36.4393 112.299 35.0867C111.939 36.3138 111.429 37.4919 110.781 38.5946" fill="black"/>
</g>
<path d="M135.895 82.0616L130.034 82.3642V65.5452L123.973 56.0146L128.274 41.8979C129.16 42.2474 135.839 59.0153 137.54 63.5717C137.787 64.2272 137.894 64.9269 137.855 65.6261L135.895 82.0616Z" fill="#B75400"/>
<path d="M102.811 46.3008C102.875 46.3008 102.581 49.7575 102.163 54.0028C101.746 58.248 101.353 61.6749 101.311 61.6749C101.268 61.6749 101.541 58.2182 101.959 53.9687C102.376 49.7192 102.751 46.2752 102.811 46.3008Z" fill="#212121"/>
<path d="M112.29 35.0952C112.004 36.0756 111.648 37.0342 111.225 37.9638L111.105 38.2536C111.065 38.3662 110.998 38.4672 110.909 38.5477C110.855 38.5904 110.788 38.6157 110.719 38.6203C110.65 38.6248 110.581 38.6085 110.521 38.5733C110.419 38.5221 110.347 38.4667 110.27 38.4198L109.464 37.8743C109.207 37.7211 108.969 37.5364 108.757 37.3244C109.037 37.4349 109.303 37.578 109.55 37.7507L110.381 38.2536C110.538 38.3559 110.7 38.471 110.773 38.3857C110.882 38.2342 110.966 38.0657 111.02 37.887C111.374 36.9263 111.798 35.9932 112.29 35.0952Z" fill="#212121"/>
<path d="M119.408 37.2818C118.967 37.5011 118.51 37.685 118.04 37.8317C117.188 38.1471 116.003 38.5648 114.69 39.0123L113.974 39.2553L113.876 39.2894L113.837 39.1956C113.377 38.0789 112.985 37.09 112.699 36.374C112.531 35.9998 112.396 35.6119 112.294 35.2146C112.503 35.5682 112.684 35.9373 112.836 36.3186C113.147 37.0176 113.569 37.9979 114.042 39.1104L113.901 39.0507L114.617 38.8035C115.93 38.3772 117.124 37.951 117.989 37.6825C118.451 37.514 118.926 37.3801 119.408 37.2818Z" fill="#212121"/>
<path d="M127.34 42.4051C127.34 42.469 126.1 42.8313 124.638 43.4622C123.176 44.093 122.081 44.8176 122.038 44.7409C122.238 44.5338 122.468 44.3584 122.72 44.2208C123.889 43.4782 125.162 42.9123 126.496 42.5415C126.769 42.4526 127.054 42.4066 127.34 42.4051Z" fill="#212121"/>
<path d="M112.29 35.0952C112.295 35.1306 112.295 35.1665 112.29 35.2018C112.29 35.287 112.29 35.3893 112.29 35.5172C112.29 35.7942 112.316 36.1992 112.32 36.7234C112.32 37.7677 112.32 39.2808 112.252 41.152C112.12 44.8943 111.651 50.0517 110.905 55.7077C110.543 58.5422 110.142 61.2487 109.873 63.6868C109.617 65.8594 109.497 68.046 109.515 70.2337C109.533 71.7075 109.65 73.1784 109.865 74.6366C109.929 75.1566 110.01 75.553 110.053 75.8258C110.053 75.9494 110.087 76.0517 110.099 76.137C110.104 76.1723 110.104 76.2081 110.099 76.2435C110.085 76.2108 110.075 76.1764 110.07 76.1412C110.048 76.056 110.027 75.9579 109.997 75.8343C109.946 75.5658 109.848 75.1694 109.771 74.6494C109.52 73.1901 109.378 71.7141 109.345 70.2337C109.301 68.0399 109.403 65.8456 109.652 63.6655C109.912 61.2018 110.304 58.5123 110.666 55.6822C111.412 50.0261 111.902 44.8815 112.077 41.1477C112.171 39.2808 112.201 37.7677 112.218 36.7234C112.218 36.212 112.218 35.8113 112.218 35.5172C112.218 35.3893 112.218 35.287 112.218 35.2061C112.235 35.1652 112.26 35.1277 112.29 35.0952Z" fill="#212121"/>
<path d="M136.215 79.4871C135.179 79.5461 134.141 79.5319 133.107 79.4445C132.071 79.4316 131.037 79.3448 130.013 79.1845C131.047 79.1227 132.084 79.1355 133.116 79.2229C134.154 79.2388 135.189 79.3271 136.215 79.4871Z" fill="#212121"/>
<path d="M131.015 80.1435C131.015 80.1435 131.015 80.2245 131.015 80.3012C131.015 80.378 131.108 80.4249 131.185 80.3609C131.262 80.297 131.236 80.2331 131.164 80.1819C131.091 80.1308 131.032 80.1521 131.01 80.1308C130.989 80.1094 131.049 80.0072 131.211 80.0327C131.257 80.0399 131.301 80.059 131.339 80.0881C131.376 80.1172 131.405 80.1554 131.424 80.199C131.444 80.2584 131.445 80.3225 131.428 80.3828C131.41 80.4431 131.375 80.4966 131.326 80.536C131.277 80.5755 131.218 80.5991 131.155 80.6036C131.093 80.6081 131.03 80.5933 130.976 80.5612C130.938 80.5326 130.907 80.4952 130.886 80.4522C130.866 80.4092 130.855 80.3618 130.857 80.314C130.887 80.1521 131.002 80.1137 131.015 80.1435Z" fill="#212121"/>
<g opacity="0.2">
<path opacity="0.2" d="M124.046 55.9677C123.407 54.8169 122.77 53.666 122.136 52.5152C121.382 58.6061 121.816 64.7855 123.415 70.711C123.614 65.8207 123.812 60.9318 124.008 56.0444" fill="black"/>
</g>
<g opacity="0.2">
<path opacity="0.2" d="M97.3679 45.5507C97.9438 46.3714 98.7738 46.9797 99.7298 47.2817C100.686 47.5837 101.715 47.5625 102.657 47.2215C102.797 47.4349 102.986 47.6109 103.209 47.7343C103.432 47.8576 103.681 47.9245 103.936 47.929C104.441 47.9362 104.941 47.839 105.407 47.6435C107.192 46.9637 108.78 45.8485 110.025 44.3992C111.271 42.9499 112.134 41.2125 112.537 39.3448C109.78 40.3123 107.921 42.9848 105.215 44.093C104.151 44.5376 102.992 44.7085 101.844 44.5901C100.697 44.4717 99.5977 44.0678 98.6466 43.4153L97.3679 45.5507Z" fill="black"/>
</g>
<path d="M114.345 49.6297C114.459 49.6092 114.574 49.6007 114.69 49.6041L115.709 49.5785C116.595 49.5785 117.87 49.5402 119.408 49.5317H119.511V49.634C119.408 50.9809 119.297 52.5409 119.174 54.2032V54.2628L119.118 54.2927L118.893 54.412L116.416 55.7163L116.352 55.7461L116.297 55.7035L113.999 53.8238L113.965 53.794V53.7471C114.076 52.511 114.166 51.4838 114.23 50.7208C114.264 50.3926 114.289 50.1199 114.315 49.9025C114.317 49.8104 114.33 49.7189 114.353 49.6297C114.361 49.7333 114.361 49.8373 114.353 49.9408C114.353 50.1625 114.328 50.4438 114.315 50.7933C114.272 51.5435 114.217 52.5579 114.149 53.7769L114.115 53.7002L116.433 55.5543H116.318L118.786 54.2458L119.016 54.1264L118.956 54.2159L119.319 49.651L119.417 49.7533C117.921 49.7533 116.668 49.7235 115.777 49.7064L114.737 49.6808C114.605 49.6725 114.474 49.6554 114.345 49.6297Z" fill="#212121"/>
<path d="M119.272 51.6756C117.583 51.7921 115.887 51.7607 114.204 51.5818C115.046 51.4854 115.895 51.464 116.74 51.5178C117.587 51.4972 118.434 51.5499 119.272 51.6756Z" fill="#FAFAFA"/>
<path d="M119.234 52.5536C118.385 52.6512 117.529 52.6726 116.676 52.6176C115.828 52.6404 114.979 52.5876 114.14 52.4598C114.989 52.3652 115.845 52.3438 116.698 52.3959C117.546 52.3755 118.394 52.4282 119.234 52.5536Z" fill="#FAFAFA"/>
<path d="M103.591 76.0602C103.591 76.1199 103.135 76.0602 102.841 75.5956C102.547 75.131 102.636 74.7048 102.696 74.7432C102.755 74.7815 102.773 75.1268 103.024 75.489C103.275 75.8513 103.612 76.0005 103.591 76.0602Z" fill="#212121"/>
<path d="M104.158 75.8215C103.828 75.5806 103.608 75.2189 103.544 74.8156C103.476 74.6244 103.446 74.4216 103.457 74.2188C103.468 74.0161 103.519 73.8176 103.608 73.6349C103.672 73.6349 103.608 74.1592 103.761 74.7602C103.915 75.3612 104.222 75.7831 104.158 75.8215Z" fill="#212121"/>
<path d="M120.572 73.3707C120.614 73.9882 120.498 74.6062 120.235 75.1663C119.971 75.7264 119.57 76.2101 119.067 76.5717C119.426 76.0959 119.749 75.5944 120.035 75.0714C120.255 74.5184 120.435 73.95 120.572 73.3707Z" fill="#212121"/>
<path d="M111.634 36.9153H112.81L113.313 37.7891L112.819 39.153L111.647 39.0209L111.186 38.0363L111.634 36.9153Z" fill="#424242"/>
<path d="M111.647 39.0209C111.647 39.0209 104.571 43.5773 100.957 41.7573C97.3424 39.9373 92.8585 37.7081 88.8221 38.2409C86.4608 38.529 84.1732 39.2515 82.0748 40.372L80.7961 43.4451L84.0653 44.6215C84.0653 44.6215 88.8306 42.3199 92.2958 42.9379C94.7168 43.3642 99.367 45.8363 102.5 45.6019C105.633 45.3674 109.959 43.1383 112.806 39.136L111.647 39.0209Z" fill="#424242"/>
<path d="M112.503 39.5281C112.339 39.4855 112.183 39.4148 112.043 39.3192C111.886 39.247 111.742 39.149 111.617 39.0294C111.783 39.072 111.94 39.1442 112.081 39.2425C112.238 39.3121 112.381 39.4088 112.503 39.5281Z" fill="#212121"/>
<path d="M113.202 37.6356C112.962 37.8948 112.699 38.133 112.418 38.3474C112.153 38.5857 111.868 38.801 111.566 38.991C111.806 38.7318 112.069 38.4936 112.35 38.2792C112.615 38.0409 112.901 37.8256 113.202 37.6356Z" fill="#212121"/>
<path d="M112.704 38.0831C112.239 37.7869 111.854 37.3816 111.583 36.9025C111.604 36.9025 111.825 37.1753 112.132 37.4992C112.439 37.8231 112.716 38.0618 112.704 38.0831Z" fill="#212121"/>
<path d="M106.86 44.2464C106.792 44.1312 106.74 44.0081 106.702 43.8799C106.613 43.6497 106.498 43.33 106.378 42.9763C106.259 42.6225 106.152 42.2985 106.08 42.0641C106.036 41.9378 106.004 41.8081 105.982 41.6763C106.048 41.792 106.101 41.915 106.14 42.0428C106.229 42.273 106.344 42.5926 106.464 42.9464C106.583 43.3002 106.69 43.6241 106.758 43.8586C106.804 43.9844 106.838 44.1143 106.86 44.2464Z" fill="#FAFAFA"/>
<path d="M108.629 43.1851C108.388 42.8772 108.171 42.5508 107.981 42.209C107.766 41.8823 107.575 41.5404 107.41 41.1861C107.867 41.8202 108.274 42.4885 108.629 43.1851Z" fill="#FAFAFA"/>
<path d="M110.231 41.9405C109.969 41.7473 109.727 41.5288 109.507 41.2884C109.265 41.07 109.046 40.8287 108.851 40.568C109.35 40.9848 109.812 41.444 110.231 41.9405Z" fill="#FAFAFA"/>
<path d="M111.557 40.6363C111.36 40.5248 111.177 40.3903 111.012 40.2356C110.83 40.0999 110.665 39.9425 110.521 39.7668C110.722 39.8734 110.905 40.0083 111.067 40.1674C111.252 40.299 111.418 40.4569 111.557 40.6363Z" fill="#FAFAFA"/>
<path d="M104.341 45.3418C104.272 44.8301 104.23 44.315 104.217 43.7988C104.174 43.2843 104.161 42.7677 104.179 42.2516C104.251 42.763 104.294 43.2782 104.307 43.7946C104.348 44.3092 104.359 44.8258 104.341 45.3418Z" fill="#FAFAFA"/>
<path d="M101.916 45.7212C101.916 45.7212 101.98 44.9284 102.112 43.9566C102.244 42.9848 102.372 42.1962 102.393 42.2005C102.361 42.7917 102.297 43.3807 102.201 43.9651C102.137 44.5551 102.042 45.1413 101.916 45.7212Z" fill="#FAFAFA"/>
<path d="M100.484 41.4802C100.505 41.4802 100.279 42.3327 99.9721 43.3812C99.6652 44.4297 99.4052 45.2609 99.3796 45.2566C99.3541 45.2523 99.5842 44.4041 99.8868 43.3556C100.189 42.3071 100.458 41.4759 100.484 41.4802Z" fill="#FAFAFA"/>
<path d="M98.8342 40.7045C98.8598 40.7045 98.587 41.5868 98.2332 42.6523C97.8794 43.7179 97.5683 44.5832 97.5427 44.5746C97.5171 44.5661 97.7899 43.6966 98.1479 42.6268C98.506 41.5569 98.8129 40.6959 98.8342 40.7045Z" fill="#FAFAFA"/>
<path d="M96.4514 39.5877C96.4514 39.5877 96.234 40.5425 95.9186 41.7189C95.6032 42.8953 95.3261 43.8159 95.3048 43.8117C95.2835 43.8074 95.5179 42.8569 95.8334 41.6805C96.1488 40.5041 96.4258 39.5835 96.4514 39.5877Z" fill="#FAFAFA"/>
<path d="M93.8983 38.893C93.9239 38.893 93.7363 39.835 93.4721 40.9858C93.2078 42.1366 92.9947 43.0658 92.9691 43.0573C92.9436 43.0487 93.1311 42.1153 93.3954 40.9687C93.6596 39.8222 93.877 38.8887 93.8983 38.893Z" fill="#FAFAFA"/>
<path d="M91.3239 38.4497C91.3495 38.4497 91.3793 39.4428 91.3878 40.6703C91.3963 41.8979 91.3878 42.8995 91.3622 42.8995C91.3367 42.8995 91.3111 41.9021 91.3026 40.6746C91.2941 39.447 91.3026 38.4497 91.3239 38.4497Z" fill="#FAFAFA"/>
<path d="M89.257 42.9847C89.2356 42.9264 89.2185 42.8665 89.2058 42.8057C89.1717 42.6395 89.1376 42.4733 89.0993 42.3028C89.014 41.8765 88.9117 41.2926 88.818 40.6405C88.7242 39.9883 88.6517 39.3959 88.6134 38.9654C88.6134 38.7949 88.5835 38.6286 88.5707 38.4582C88.5598 38.3961 88.5598 38.3326 88.5707 38.2706C88.588 38.3305 88.5994 38.3918 88.6048 38.4539C88.6048 38.6201 88.6517 38.7906 88.673 38.9611C88.7498 39.4939 88.8222 40.0352 88.9032 40.6277C88.9842 41.2201 89.078 41.7614 89.1632 42.2942L89.2399 42.7972C89.2551 42.8585 89.2609 42.9217 89.257 42.9847Z" fill="#FAFAFA"/>
<path d="M86.968 43.4579C86.9467 43.4579 86.5972 42.4733 86.188 41.25C85.7788 40.0267 85.4719 39.0208 85.4932 39.0123C85.5145 39.0038 85.8683 39.9926 86.2732 41.2201C86.6781 42.4477 86.9936 43.4493 86.968 43.4579Z" fill="#FAFAFA"/>
<path d="M84.8921 44.191C84.8708 44.191 84.4147 43.2874 83.8734 42.1451C83.3321 41.0028 82.9101 40.0736 82.9314 40.0608C82.9527 40.048 83.4131 40.9687 83.9544 42.1067C84.4957 43.2447 84.9134 44.1697 84.8921 44.191Z" fill="#FAFAFA"/>
<path d="M82.1984 43.9523C81.989 43.7169 81.8192 43.4492 81.6954 43.1595C81.5427 42.8843 81.4403 42.5841 81.3928 42.2729C81.4184 42.2729 81.5505 42.6608 81.7722 43.1254C81.9938 43.59 82.2197 43.9352 82.1984 43.9523Z" fill="#FAFAFA"/>
<path d="M67.7336 169.265H68.7453C69.2557 169.26 69.659 169.128 69.9553 168.868C70.2561 168.608 70.4064 168.232 70.4064 167.74C70.4064 167.266 70.2811 166.899 70.0305 166.64C69.7844 166.375 69.4061 166.243 68.8957 166.243C68.4491 166.243 68.0822 166.373 67.7951 166.633C67.508 166.888 67.3645 167.223 67.3645 167.638H65.7033C65.7033 167.127 65.8378 166.662 66.1066 166.243C66.3801 165.824 66.7583 165.498 67.2414 165.266C67.729 165.029 68.2736 164.91 68.8752 164.91C69.8687 164.91 70.648 165.161 71.2131 165.662C71.7827 166.159 72.0676 166.852 72.0676 167.74C72.0676 168.187 71.924 168.608 71.6369 169.005C71.3544 169.397 70.9875 169.693 70.5363 169.894C71.0832 170.08 71.4979 170.374 71.7805 170.775C72.0676 171.176 72.2111 171.655 72.2111 172.211C72.2111 173.104 71.9035 173.815 71.2883 174.344C70.6776 174.872 69.8732 175.137 68.8752 175.137C67.9182 175.137 67.1343 174.882 66.5236 174.371C65.913 173.861 65.6076 173.182 65.6076 172.334H67.2687C67.2687 172.771 67.4146 173.127 67.7062 173.4C68.0025 173.674 68.399 173.811 68.8957 173.811C69.4107 173.811 69.8163 173.674 70.1125 173.4C70.4087 173.127 70.5568 172.73 70.5568 172.211C70.5568 171.687 70.4019 171.284 70.092 171.001C69.7821 170.718 69.3218 170.577 68.7111 170.577H67.7336V169.265ZM80.2633 170.81C80.2633 172.241 79.9944 173.321 79.4566 174.05C78.9234 174.774 78.11 175.137 77.0162 175.137C75.9407 175.137 75.1295 174.784 74.5826 174.077C74.0403 173.366 73.7623 172.316 73.7486 170.926V169.203C73.7486 167.772 74.0152 166.699 74.5484 165.983C75.0862 165.268 75.9042 164.91 77.0025 164.91C78.0917 164.91 78.9029 165.259 79.4361 165.956C79.9739 166.653 80.2496 167.697 80.2633 169.087V170.81ZM78.6021 168.95C78.6021 168.016 78.4745 167.332 78.2193 166.899C77.9641 166.462 77.5585 166.243 77.0025 166.243C76.4602 166.243 76.0615 166.451 75.8062 166.865C75.551 167.275 75.4166 167.918 75.4029 168.793V171.049C75.4029 171.979 75.5328 172.671 75.7926 173.127C76.0523 173.583 76.4602 173.811 77.0162 173.811C77.5494 173.811 77.9436 173.601 78.1988 173.182C78.454 172.758 78.5885 172.097 78.6021 171.199V168.95ZM82.0811 177.242L81.1855 176.709C81.4499 176.294 81.6299 175.932 81.7256 175.622C81.8258 175.317 81.8783 175.005 81.8828 174.686V173.394H83.3799L83.373 174.59C83.3685 175.073 83.2454 175.556 83.0039 176.039C82.7669 176.527 82.4593 176.928 82.0811 177.242ZM91.309 170.81C91.309 172.241 91.0401 173.321 90.5023 174.05C89.9691 174.774 89.1557 175.137 88.0619 175.137C86.9864 175.137 86.1752 174.784 85.6283 174.077C85.086 173.366 84.808 172.316 84.7943 170.926V169.203C84.7943 167.772 85.0609 166.699 85.5941 165.983C86.1319 165.268 86.9499 164.91 88.0482 164.91C89.1374 164.91 89.9486 165.259 90.4818 165.956C91.0196 166.653 91.2953 167.697 91.309 169.087V170.81ZM89.6479 168.95C89.6479 168.016 89.5202 167.332 89.265 166.899C89.0098 166.462 88.6042 166.243 88.0482 166.243C87.5059 166.243 87.1072 166.451 86.852 166.865C86.5967 167.275 86.4623 167.918 86.4486 168.793V171.049C86.4486 171.979 86.5785 172.671 86.8383 173.127C87.098 173.583 87.5059 173.811 88.0619 173.811C88.5951 173.811 88.9893 173.601 89.2445 173.182C89.4997 172.758 89.6342 172.097 89.6479 171.199V168.95ZM99.2723 170.81C99.2723 172.241 99.0034 173.321 98.4656 174.05C97.9324 174.774 97.1189 175.137 96.0252 175.137C94.9497 175.137 94.1385 174.784 93.5916 174.077C93.0493 173.366 92.7713 172.316 92.7576 170.926V169.203C92.7576 167.772 93.0242 166.699 93.5574 165.983C94.0952 165.268 94.9132 164.91 96.0115 164.91C97.1007 164.91 97.9119 165.259 98.4451 165.956C98.9829 166.653 99.2586 167.697 99.2723 169.087V170.81ZM97.6111 168.95C97.6111 168.016 97.4835 167.332 97.2283 166.899C96.9731 166.462 96.5675 166.243 96.0115 166.243C95.4692 166.243 95.0704 166.451 94.8152 166.865C94.56 167.275 94.4256 167.918 94.4119 168.793V171.049C94.4119 171.979 94.5418 172.671 94.8016 173.127C95.0613 173.583 95.4692 173.811 96.0252 173.811C96.5584 173.811 96.9526 173.601 97.2078 173.182C97.463 172.758 97.5975 172.097 97.6111 171.199V168.95ZM107.236 170.81C107.236 172.241 106.967 173.321 106.429 174.05C105.896 174.774 105.082 175.137 103.988 175.137C102.913 175.137 102.102 174.784 101.555 174.077C101.013 173.366 100.735 172.316 100.721 170.926V169.203C100.721 167.772 100.987 166.699 101.521 165.983C102.058 165.268 102.876 164.91 103.975 164.91C105.064 164.91 105.875 165.259 106.408 165.956C106.946 166.653 107.222 167.697 107.236 169.087V170.81ZM105.574 168.95C105.574 168.016 105.447 167.332 105.192 166.899C104.936 166.462 104.531 166.243 103.975 166.243C103.432 166.243 103.034 166.451 102.779 166.865C102.523 167.275 102.389 167.918 102.375 168.793V171.049C102.375 171.979 102.505 172.671 102.765 173.127C103.025 173.583 103.432 173.811 103.988 173.811C104.522 173.811 104.916 173.601 105.171 173.182C105.426 172.758 105.561 172.097 105.574 171.199V168.95ZM109.053 177.242L108.158 176.709C108.422 176.294 108.602 175.932 108.698 175.622C108.798 175.317 108.851 175.005 108.855 174.686V173.394H110.352L110.345 174.59C110.341 175.073 110.218 175.556 109.976 176.039C109.739 176.527 109.432 176.928 109.053 177.242ZM118.281 170.81C118.281 172.241 118.012 173.321 117.475 174.05C116.941 174.774 116.128 175.137 115.034 175.137C113.959 175.137 113.147 174.784 112.601 174.077C112.058 173.366 111.78 172.316 111.767 170.926V169.203C111.767 167.772 112.033 166.699 112.566 165.983C113.104 165.268 113.922 164.91 115.021 164.91C116.11 164.91 116.921 165.259 117.454 165.956C117.992 166.653 118.268 167.697 118.281 169.087V170.81ZM116.62 168.95C116.62 168.016 116.493 167.332 116.237 166.899C115.982 166.462 115.576 166.243 115.021 166.243C114.478 166.243 114.079 166.451 113.824 166.865C113.569 167.275 113.435 167.918 113.421 168.793V171.049C113.421 171.979 113.551 172.671 113.811 173.127C114.07 173.583 114.478 173.811 115.034 173.811C115.567 173.811 115.962 173.601 116.217 173.182C116.472 172.758 116.606 172.097 116.62 171.199V168.95ZM126.245 170.81C126.245 172.241 125.976 173.321 125.438 174.05C124.905 174.774 124.091 175.137 122.997 175.137C121.922 175.137 121.111 174.784 120.564 174.077C120.022 173.366 119.744 172.316 119.73 170.926V169.203C119.73 167.772 119.996 166.699 120.53 165.983C121.067 165.268 121.885 164.91 122.984 164.91C124.073 164.91 124.884 165.259 125.417 165.956C125.955 166.653 126.231 167.697 126.245 169.087V170.81ZM124.583 168.95C124.583 168.016 124.456 167.332 124.201 166.899C123.945 166.462 123.54 166.243 122.984 166.243C122.441 166.243 122.043 166.451 121.787 166.865C121.532 167.275 121.398 167.918 121.384 168.793V171.049C121.384 171.979 121.514 172.671 121.774 173.127C122.034 173.583 122.441 173.811 122.997 173.811C123.531 173.811 123.925 173.601 124.18 173.182C124.435 172.758 124.57 172.097 124.583 171.199V168.95ZM134.208 170.81C134.208 172.241 133.939 173.321 133.401 174.05C132.868 174.774 132.054 175.137 130.961 175.137C129.885 175.137 129.074 174.784 128.527 174.077C127.985 173.366 127.707 172.316 127.693 170.926V169.203C127.693 167.772 127.96 166.699 128.493 165.983C129.031 165.268 129.849 164.91 130.947 164.91C132.036 164.91 132.847 165.259 133.381 165.956C133.918 166.653 134.194 167.697 134.208 169.087V170.81ZM132.547 168.95C132.547 168.016 132.419 167.332 132.164 166.899C131.909 166.462 131.503 166.243 130.947 166.243C130.405 166.243 130.006 166.451 129.751 166.865C129.496 167.275 129.361 167.918 129.347 168.793V171.049C129.347 171.979 129.477 172.671 129.737 173.127C129.997 173.583 130.405 173.811 130.961 173.811C131.494 173.811 131.888 173.601 132.143 173.182C132.399 172.758 132.533 172.097 132.547 171.199V168.95Z" fill="#B75400"/>
<path d="M53.4209 193.284L55.2529 187.604H56.5449L53.8926 195H52.9287L50.249 187.604H51.541L53.4209 193.284ZM59.142 195H57.8773V187.604H59.142V195ZM57.7748 185.642C57.7748 185.437 57.8363 185.263 57.9594 185.122C58.087 184.981 58.2738 184.91 58.5199 184.91C58.766 184.91 58.9529 184.981 59.0805 185.122C59.2081 185.263 59.2719 185.437 59.2719 185.642C59.2719 185.847 59.2081 186.018 59.0805 186.154C58.9529 186.291 58.766 186.359 58.5199 186.359C58.2738 186.359 58.087 186.291 57.9594 186.154C57.8363 186.018 57.7748 185.847 57.7748 185.642ZM65.4852 193.038C65.4852 192.696 65.3553 192.432 65.0955 192.245C64.8403 192.054 64.3914 191.89 63.7488 191.753C63.1108 191.616 62.6027 191.452 62.2244 191.261C61.8507 191.069 61.5727 190.841 61.3904 190.577C61.2127 190.313 61.1238 189.998 61.1238 189.634C61.1238 189.028 61.379 188.515 61.8895 188.096C62.4044 187.676 63.0607 187.467 63.8582 187.467C64.6967 187.467 65.3758 187.683 65.8953 188.116C66.4194 188.549 66.6814 189.103 66.6814 189.777H65.41C65.41 189.431 65.2618 189.132 64.9656 188.882C64.674 188.631 64.3048 188.506 63.8582 188.506C63.3979 188.506 63.0379 188.606 62.7781 188.807C62.5184 189.007 62.3885 189.269 62.3885 189.593C62.3885 189.898 62.5092 190.128 62.7508 190.283C62.9923 190.438 63.4275 190.586 64.0564 190.728C64.6899 190.869 65.2026 191.037 65.5945 191.233C65.9865 191.429 66.2758 191.666 66.4627 191.944C66.6541 192.218 66.7498 192.553 66.7498 192.949C66.7498 193.61 66.4855 194.141 65.9568 194.542C65.4282 194.938 64.7423 195.137 63.8992 195.137C63.3068 195.137 62.7827 195.032 62.327 194.822C61.8712 194.613 61.5135 194.321 61.2537 193.947C60.9985 193.569 60.8709 193.161 60.8709 192.724H62.1355C62.1583 193.147 62.327 193.485 62.6414 193.735C62.9604 193.981 63.3797 194.104 63.8992 194.104C64.3777 194.104 64.7605 194.009 65.0477 193.817C65.3393 193.621 65.4852 193.362 65.4852 193.038ZM69.7775 195H68.5129V187.604H69.7775V195ZM68.4104 185.642C68.4104 185.437 68.4719 185.263 68.5949 185.122C68.7225 184.981 68.9094 184.91 69.1555 184.91C69.4016 184.91 69.5884 184.981 69.716 185.122C69.8436 185.263 69.9074 185.437 69.9074 185.642C69.9074 185.847 69.8436 186.018 69.716 186.154C69.5884 186.291 69.4016 186.359 69.1555 186.359C68.9094 186.359 68.7225 186.291 68.5949 186.154C68.4719 186.018 68.4104 185.847 68.4104 185.642ZM73.5299 185.812V187.604H74.9107V188.581H73.5299V193.168C73.5299 193.464 73.5914 193.688 73.7145 193.838C73.8375 193.984 74.0471 194.057 74.3434 194.057C74.4892 194.057 74.6897 194.029 74.9449 193.975V195C74.6122 195.091 74.2887 195.137 73.9742 195.137C73.4091 195.137 72.983 194.966 72.6959 194.624C72.4088 194.282 72.2652 193.797 72.2652 193.168V188.581H70.9186V187.604H72.2652V185.812H73.5299ZM80.707 193.038C80.707 192.696 80.5771 192.432 80.3174 192.245C80.0622 192.054 79.6133 191.89 78.9707 191.753C78.3327 191.616 77.8245 191.452 77.4463 191.261C77.0726 191.069 76.7946 190.841 76.6123 190.577C76.4346 190.313 76.3457 189.998 76.3457 189.634C76.3457 189.028 76.6009 188.515 77.1113 188.096C77.6263 187.676 78.2826 187.467 79.0801 187.467C79.9186 187.467 80.5977 187.683 81.1172 188.116C81.6413 188.549 81.9033 189.103 81.9033 189.777H80.6318C80.6318 189.431 80.4837 189.132 80.1875 188.882C79.8958 188.631 79.5267 188.506 79.0801 188.506C78.6198 188.506 78.2598 188.606 78 188.807C77.7402 189.007 77.6104 189.269 77.6104 189.593C77.6104 189.898 77.7311 190.128 77.9727 190.283C78.2142 190.438 78.6494 190.586 79.2783 190.728C79.9118 190.869 80.4245 191.037 80.8164 191.233C81.2083 191.429 81.4977 191.666 81.6846 191.944C81.876 192.218 81.9717 192.553 81.9717 192.949C81.9717 193.61 81.7074 194.141 81.1787 194.542C80.6501 194.938 79.9642 195.137 79.1211 195.137C78.5286 195.137 78.0046 195.032 77.5488 194.822C77.0931 194.613 76.7354 194.321 76.4756 193.947C76.2204 193.569 76.0928 193.161 76.0928 192.724H77.3574C77.3802 193.147 77.5488 193.485 77.8633 193.735C78.1823 193.981 78.6016 194.104 79.1211 194.104C79.5996 194.104 79.9824 194.009 80.2695 193.817C80.5612 193.621 80.707 193.362 80.707 193.038ZM93.3523 191.384C93.3523 192.509 93.0949 193.416 92.5799 194.104C92.0649 194.793 91.3676 195.137 90.4881 195.137C89.5903 195.137 88.8839 194.852 88.3689 194.282V197.844H87.1043V187.604H88.2596L88.3211 188.424C88.8361 187.786 89.5516 187.467 90.4676 187.467C91.3563 187.467 92.0581 187.802 92.573 188.472C93.0926 189.142 93.3523 190.074 93.3523 191.268V191.384ZM92.0877 191.24C92.0877 190.406 91.91 189.748 91.5545 189.265C91.199 188.782 90.7114 188.54 90.0916 188.54C89.326 188.54 88.7518 188.88 88.3689 189.559V193.093C88.7472 193.767 89.326 194.104 90.1053 194.104C90.7114 194.104 91.1922 193.865 91.5477 193.387C91.9077 192.904 92.0877 192.188 92.0877 191.24ZM98.0412 195.137C97.0386 195.137 96.2229 194.809 95.5939 194.152C94.965 193.492 94.6506 192.61 94.6506 191.507V191.274C94.6506 190.541 94.7896 189.887 95.0676 189.312C95.3501 188.734 95.7421 188.283 96.2434 187.959C96.7492 187.631 97.2961 187.467 97.884 187.467C98.8456 187.467 99.593 187.784 100.126 188.417C100.659 189.05 100.926 189.957 100.926 191.138V191.664H95.9152C95.9335 192.393 96.1454 192.983 96.551 193.435C96.9611 193.881 97.4807 194.104 98.1096 194.104C98.5562 194.104 98.9344 194.013 99.2443 193.831C99.5542 193.649 99.8254 193.407 100.058 193.106L100.83 193.708C100.21 194.66 99.2808 195.137 98.0412 195.137ZM97.884 188.506C97.3736 188.506 96.9452 188.693 96.5988 189.066C96.2525 189.436 96.0383 189.955 95.9562 190.625H99.6613V190.529C99.6249 189.887 99.4517 189.39 99.1418 189.039C98.8319 188.684 98.4126 188.506 97.884 188.506ZM105.977 188.738C105.786 188.706 105.578 188.69 105.355 188.69C104.526 188.69 103.963 189.044 103.667 189.75V195H102.402V187.604H103.632L103.653 188.458C104.068 187.797 104.656 187.467 105.417 187.467C105.663 187.467 105.85 187.499 105.977 187.562V188.738ZM111.821 187.604L111.855 188.424C112.397 187.786 113.129 187.467 114.049 187.467C115.084 187.467 115.788 187.863 116.162 188.656C116.408 188.301 116.727 188.014 117.119 187.795C117.515 187.576 117.982 187.467 118.52 187.467C120.142 187.467 120.967 188.326 120.995 190.044V195H119.73V190.119C119.73 189.59 119.609 189.196 119.368 188.937C119.126 188.672 118.72 188.54 118.151 188.54C117.681 188.54 117.292 188.681 116.982 188.964C116.672 189.242 116.492 189.618 116.442 190.092V195H115.17V190.153C115.17 189.078 114.644 188.54 113.591 188.54C112.762 188.54 112.194 188.893 111.889 189.6V195H110.624V187.604H111.821ZM122.58 191.233C122.58 190.509 122.721 189.857 123.004 189.278C123.291 188.7 123.687 188.253 124.193 187.938C124.704 187.624 125.285 187.467 125.936 187.467C126.943 187.467 127.757 187.815 128.377 188.513C129.001 189.21 129.313 190.137 129.313 191.295V191.384C129.313 192.104 129.174 192.751 128.896 193.325C128.623 193.895 128.229 194.339 127.714 194.658C127.203 194.977 126.615 195.137 125.95 195.137C124.947 195.137 124.134 194.788 123.51 194.091C122.89 193.394 122.58 192.471 122.58 191.322V191.233ZM123.851 191.384C123.851 192.204 124.04 192.863 124.419 193.359C124.802 193.856 125.312 194.104 125.95 194.104C126.593 194.104 127.103 193.854 127.481 193.353C127.86 192.847 128.049 192.14 128.049 191.233C128.049 190.422 127.855 189.766 127.468 189.265C127.085 188.759 126.574 188.506 125.936 188.506C125.312 188.506 124.808 188.754 124.426 189.251C124.043 189.748 123.851 190.459 123.851 191.384ZM132.102 187.604L132.143 188.533C132.708 187.822 133.446 187.467 134.358 187.467C135.921 187.467 136.709 188.349 136.723 190.112V195H135.458V190.105C135.454 189.572 135.331 189.178 135.089 188.923C134.852 188.668 134.481 188.54 133.975 188.54C133.565 188.54 133.205 188.649 132.895 188.868C132.585 189.087 132.343 189.374 132.17 189.729V195H130.905V187.604H132.102ZM140.352 185.812V187.604H141.733V188.581H140.352V193.168C140.352 193.464 140.414 193.688 140.537 193.838C140.66 193.984 140.869 194.057 141.166 194.057C141.311 194.057 141.512 194.029 141.767 193.975V195C141.435 195.091 141.111 195.137 140.796 195.137C140.231 195.137 139.805 194.966 139.518 194.624C139.231 194.282 139.088 193.797 139.088 193.168V188.581H137.741V187.604H139.088V185.812H140.352ZM144.487 188.499C145.048 187.811 145.777 187.467 146.675 187.467C148.238 187.467 149.026 188.349 149.04 190.112V195H147.775V190.105C147.771 189.572 147.648 189.178 147.406 188.923C147.169 188.668 146.798 188.54 146.292 188.54C145.882 188.54 145.522 188.649 145.212 188.868C144.902 189.087 144.66 189.374 144.487 189.729V195H143.223V184.5H144.487V188.499Z" fill="black" fill-opacity="0.6"/>
</svg>
