<svg width="1090" height="670" viewBox="0 0 1090 670" fill="none" xmlns="http://www.w3.org/2000/svg">
<g filter="url(#filter0_dd)">
<rect x="65" y="45" width="960" height="540" rx="32" fill="white"/>
<path d="M618.8 377.443C617.318 377.443 615.864 377.249 614.464 376.874C612.29 376.291 610.184 375.32 607.87 373.821C607.524 373.599 605.322 371.711 604.089 370.657L604.061 370.629C603.825 370.435 603.631 370.268 603.493 370.143C602.149 370.796 600.875 371.67 599.628 372.53C597.121 374.265 594.516 376.041 591.178 376.166C588.31 376.277 585.276 375.819 581.799 374.779C581.495 374.695 580.816 374.404 579.708 373.96C578.475 373.446 576.618 372.808 576.009 372.558C575.953 372.53 575.718 372.392 575.635 372.142C575.552 371.906 575.552 371.531 575.593 371.448C577.893 369.685 580.109 367.576 582.257 365.522C583.67 364.176 585.138 362.774 586.606 361.497C587.119 361.053 587.59 360.567 588.047 360.04L588.795 359.082C592.757 353.67 594.419 344.899 595.347 338.376C596.22 332.298 595.749 325.983 595.237 320.543C594.295 310.495 591.095 303.209 585.429 298.241C582.797 295.937 579.846 294.064 577.048 292.357L575.829 291.621C572.975 289.886 570.038 288.096 567.365 285.973C567.06 285.737 566.935 285.362 567.032 285.001C567.476 283.28 574.956 280.866 575.025 280.852C576.369 280.644 577.824 280.533 579.458 280.533C581.315 280.533 583.171 280.671 584.916 280.796C589.169 281.129 591.912 283.058 594.835 285.112C595.86 285.834 596.913 286.57 598.063 287.263L598.173 287.139C598.52 286.694 598.769 286.153 599.046 285.584C599.42 284.793 599.808 283.974 600.487 283.308C602.094 281.74 604.061 281.31 605.612 281.115C606.18 281.046 606.693 281.004 607.206 281.004C610.059 281.004 611.832 282.17 614.063 283.669C614.409 283.891 614.755 284.127 615.129 284.377C616.057 284.974 616.847 285.279 617.484 285.279C618.551 285.279 619.188 284.474 620.172 283.156C621.211 281.754 622.374 280.172 624.605 279.908C626.904 279.644 628.719 280.81 630.298 281.837C631.503 282.614 632.653 283.364 633.817 283.364C634.745 283.364 635.701 282.892 636.726 281.907C637.987 280.699 639.039 279.783 640.314 279.783C641.214 279.783 642.115 280.241 643.14 281.227L643.375 281.449C645.592 283.572 646.201 284.169 648.986 282.684C651.105 281.56 653.806 280.852 656.051 280.852C659.874 280.852 662.243 282.836 662.381 286.264L662.035 286.361L661.426 286.556C661.148 286.667 660.996 286.694 660.747 286.805C657.782 287.708 648.819 292.718 647.919 293.411C644.913 295.701 642.087 298.643 639.967 301.697C631.753 313.493 631.905 330.299 634.537 341.11C635.922 346.8 637.779 353.434 641.117 359.61C642.6 362.358 644.331 364.911 646.243 367.201L646.437 367.437C651.022 372.947 652.033 373.169 652.324 373.46C652.504 373.641 652.629 373.765 652.657 373.932C652.698 374.293 652.297 374.57 651.992 374.737C651.59 374.945 651.161 375.084 650.717 375.181C650.288 375.278 650.011 375.32 649.443 375.417C648.972 375.5 648.487 375.542 648.002 375.583C645.924 375.736 643.874 375.819 641.796 375.611C640.508 375.472 639.219 375.32 637.945 375.084C636.407 374.806 633.152 374.126 631.337 373.044L630.146 373.71C628.276 374.987 624.84 376.402 624.397 376.555C622.596 377.124 620.698 377.443 618.8 377.443ZM604.518 369.366C605.682 370.379 608.244 372.558 608.535 372.752C610.738 374.182 612.719 375.112 614.769 375.653C617.72 376.444 620.975 376.333 624.051 375.32C624.452 375.195 627.999 373.71 629.619 372.53L629.259 371.809C627.916 369.102 626.059 365.397 625.117 362.663C624.909 362.08 624.715 361.525 624.522 361.012C623.469 358.111 622.651 355.807 622.651 351.755V348.299L630.825 370.129C631.019 370.518 631.199 370.962 631.351 371.406H631.365C632.016 372.336 635.354 373.307 638.18 373.821C642.96 374.681 647.309 374.695 650.731 373.821C649.706 373.002 648.127 371.378 645.481 368.214L645.287 367.992C643.32 365.647 641.547 363.024 640.009 360.193C636.601 353.906 634.717 347.161 633.318 341.402C630.631 330.341 630.492 313.118 638.942 300.975C641.145 297.811 644.068 294.772 647.157 292.398C647.933 291.802 658.059 286.209 660.968 285.543C660.497 282.711 658.073 282.087 656.037 282.087C653.987 282.087 651.507 282.725 649.554 283.766C646.021 285.64 644.83 284.571 642.489 282.337L642.253 282.115C641.477 281.379 640.84 281.018 640.286 281.018C639.483 281.018 638.61 281.782 637.571 282.795C636.31 284.002 635.077 284.599 633.803 284.599C632.265 284.599 630.908 283.725 629.606 282.878C628.123 281.92 626.599 280.921 624.729 281.143C623.039 281.338 622.125 282.573 621.155 283.891C620.199 285.182 619.216 286.528 617.47 286.528C616.584 286.528 615.586 286.167 614.437 285.432C614.063 285.182 613.702 284.946 613.356 284.724C611.126 283.253 609.657 282.267 607.178 282.267C606.735 282.267 606.25 282.295 605.751 282.365C603.715 282.628 602.399 283.183 601.346 284.21C600.833 284.724 600.501 285.404 600.154 286.125C599.933 286.597 599.697 287.083 599.393 287.541C602.191 291.996 603.756 297.339 604.255 300.628C605.114 306.318 603.701 309.427 602.357 312.438L601.332 314.714L597.841 288.582C596.483 287.805 595.264 286.944 594.087 286.125C591.316 284.183 588.698 282.351 584.792 282.045C583.06 281.907 581.231 281.782 579.431 281.782C577.865 281.782 576.48 281.879 575.192 282.087C574.43 282.253 569.346 284.21 568.348 285.168C570.897 287.166 573.723 288.887 576.452 290.539L577.671 291.274C580.511 293.009 583.517 294.91 586.218 297.283C592.134 302.46 595.472 310.024 596.442 320.404C596.954 325.914 597.425 332.326 596.539 338.529C595.722 344.288 594.475 350.922 591.926 356.168L598.298 350.381C598.935 349.798 599.794 349.132 600.487 348.577L603.922 345.857L599.379 352.657C598.354 353.587 597.578 354.322 596.76 355.488C595.929 356.682 594.572 357.695 593.588 358.444C592.535 359.235 591.372 359.651 589.751 359.832C589.044 360.789 588.255 361.65 587.396 362.399C585.941 363.662 584.487 365.05 583.088 366.382C581.218 368.159 579.306 369.991 577.297 371.614C577.948 371.85 578.849 372.225 580.151 372.752C581.024 373.113 581.855 373.46 582.118 373.53C585.47 374.529 588.366 374.973 591.095 374.876C594.087 374.765 596.414 373.169 598.894 371.462C600.265 370.518 601.678 369.547 603.23 368.839L610.198 342.346V347.175C610.198 351.949 609.879 354.017 609.422 356.432C609.145 357.917 608.397 359.818 607.732 361.511C607.372 362.413 607.039 363.274 606.818 363.981C606.416 365.217 606.014 366.063 605.488 367.146C605.238 367.798 604.906 368.492 604.518 369.366ZM624.452 356.64C624.771 357.972 625.214 359.193 625.727 360.609C625.921 361.136 626.115 361.692 626.322 362.274C626.821 363.732 627.597 365.48 628.414 367.215L624.452 356.64ZM608.729 352.99L606.582 361.15C606.596 361.123 606.596 361.095 606.61 361.081C607.247 359.443 607.981 357.584 608.231 356.224C608.425 355.183 608.605 354.183 608.729 352.99ZM596.816 353.476L591.663 358.153C592.106 357.972 592.494 357.75 592.868 357.473C593.782 356.779 595.043 355.835 595.763 354.808C596.109 354.295 596.456 353.864 596.816 353.476ZM599.351 289.886L602.011 310.135C602.994 307.72 603.687 305.069 603.05 300.795C602.634 298.033 601.443 293.772 599.351 289.886ZM632.778 363.621C632.265 362.469 632.002 361.303 631.753 360.179L631.559 359.318L631.129 357.833C631.102 357.709 631.06 357.597 631.019 357.473C630.658 356.501 630.187 355.655 629.73 354.822C629.204 353.864 628.664 352.865 628.262 351.672C626.738 347.092 625.713 343.123 625.713 338.654V334.157L632.39 357.736C632.528 358.153 632.653 358.597 632.75 359.027L633.928 363.176L632.778 363.621ZM617.831 322.666L621.349 314.909C621.696 313.604 621.931 312.008 622.18 310.468C622.444 308.761 622.693 307.151 623.095 306.11C624.258 303.084 626.793 301.239 629.232 299.462C630.464 298.574 631.614 297.728 632.612 296.742L635.798 293.592L623.469 315.408C622.984 317.06 620.754 321.459 619.285 322.07L617.831 322.666ZM630.825 299.851C630.534 300.059 630.243 300.281 629.952 300.489C627.541 302.238 625.27 303.889 624.244 306.568C623.898 307.47 623.663 309.024 623.399 310.662C623.233 311.772 623.053 312.896 622.832 313.979L630.825 299.851ZM634.911 296.631L635.812 293.745C636.518 291.469 638.624 286.139 642.738 285.903L644.206 285.82L634.911 296.631ZM640.716 287.971C639.967 288.526 639.261 289.345 638.624 290.4L640.716 287.971Z" fill="#212121"/>
<path d="M576.549 374.987C582.7 386.214 600.044 388.698 611.431 388.976C615.78 389.087 620.172 388.809 624.48 388.254C626.779 387.949 628.954 387.297 631.323 386.631C635.382 385.479 639.441 384.216 643.278 382.439C646.7 380.843 651.548 379.206 652.573 374.834C650.731 377.874 635.867 376.139 633.623 375.056C632.224 374.376 632.362 374.14 631.212 375.251C627.652 378.706 621.377 379.816 616.722 378.956C612.968 378.262 607.898 375.334 604.878 372.988C603.715 372.072 604.269 371.615 602.648 372.378C599.018 374.071 596.442 376.347 592.272 377.027C587.922 377.735 583.877 376.958 579.029 374.806C577.824 374.279 577.339 374.21 575.967 373.294L576.549 374.987Z" fill="#212121"/>
<path d="M567.531 283.405C574.831 273.483 586.856 269.916 598.173 266.78C603.936 265.184 608.729 264.198 614.811 264.198C620.116 264.198 625.284 265.447 630.451 266.488C635.645 267.529 640.965 268.348 645.564 271.151C648.529 272.955 652.019 273.913 654.984 275.759C655.981 276.383 659.486 277.216 659.043 278.729C658.406 280.88 653.225 278.853 651.59 279.686C649.817 280.588 647.476 282.267 645.453 281.685C643.514 281.129 642.96 278.84 640.785 278.618C637.46 278.284 636.795 281.823 633.471 281.574C630.949 281.379 628.054 278.229 625.505 278.396C623.095 278.548 620.477 281.143 618.69 282.462C615.406 284.904 613.993 281.504 611.181 280.38C609.505 279.714 608.854 279.52 607.012 279.52C602.399 279.52 599.586 281.574 596.968 285.237C597.855 283.988 592.009 281.227 591.427 281.06C588.975 280.38 586.426 279.353 583.891 279.311C577.491 279.2 572.975 279.381 567.531 283.405Z" fill="#212121"/>
<path d="M615.24 230.128C613.98 228.448 612.428 229.114 610.447 229.212C609.38 232.182 610.364 234.707 610.904 237.219C611.5 239.995 612.013 242.84 612.511 245.449C613.051 248.211 613.259 251.097 613.412 254.137C613.481 255.622 613.55 257.301 613.232 258.716C612.941 259.993 612.068 260.854 611.832 262.103C614.34 262.033 617.041 262.089 619.604 261.95C619.618 260.687 618.787 259.438 618.482 258.245C618.135 256.871 618.357 255.552 618.205 254.137C617.955 251.777 617.374 249.46 617.11 246.948C616.515 241.397 615.587 235.818 615.24 230.128Z" fill="#212121"/>
<path d="M659.708 240.481C652.837 240.592 645.315 240.925 638.956 244.505C635.978 246.171 633.858 248.266 631.074 250.32C629.675 251.361 628.248 252.277 626.613 253.096C624.965 253.915 623.012 254.053 621.488 254.969L622.291 256.815C624.355 256.232 624.799 255.885 626.918 255.76C629.01 255.635 631.005 255.289 633.29 255.511C635.438 255.719 637.931 255.677 639.981 256.232C642.378 256.885 645.426 256.885 647.877 257.079C652.768 257.454 658.766 256.385 663.656 255.358C667.174 254.609 671.871 253.096 674.572 250.445C675.708 249.321 676.303 248.225 677.661 246.962C678.949 245.754 680.944 243.34 681.9 241.938C682.842 240.55 683.701 239.703 684.587 238.205C685.363 236.9 686.832 234.166 686.859 232.515C680.21 240.009 668.781 240.328 659.708 240.481Z" fill="#212121"/>
<path d="M714.686 341.872C714.2 348.764 711.714 354.189 707.228 358.148C702.771 362.108 696.884 364.087 689.569 364.087C681.568 364.087 675.268 361.331 670.667 355.817C666.096 350.274 663.81 342.678 663.81 333.029V329.114C663.81 322.955 664.867 317.529 666.981 312.837C669.096 308.144 672.11 304.552 676.025 302.059C679.968 299.537 684.54 298.276 689.741 298.276C696.941 298.276 702.742 300.255 707.142 304.215C711.543 308.174 714.086 313.731 714.772 320.887H701.913C701.599 316.752 700.47 313.761 698.527 311.913C696.613 310.036 693.684 309.098 689.741 309.098C685.455 309.098 682.24 310.681 680.097 313.849C677.982 316.987 676.897 321.87 676.839 328.498V333.337C676.839 340.258 677.854 345.318 679.883 348.514C681.94 351.711 685.169 353.309 689.569 353.309C693.541 353.309 696.498 352.386 698.442 350.538C700.413 348.661 701.542 345.772 701.828 341.872H714.686Z" fill="#212121"/>
<path d="M774.392 332.633C774.392 338.939 773.306 344.467 771.134 349.218C768.963 353.969 765.848 357.635 761.791 360.216C757.762 362.797 753.133 364.087 747.904 364.087C742.732 364.087 738.117 362.812 734.059 360.26C730.002 357.709 726.859 354.072 724.63 349.35C722.401 344.599 721.272 339.144 721.244 332.985V329.818C721.244 323.512 722.344 317.969 724.544 313.189C726.773 308.379 729.902 304.698 733.931 302.147C737.988 299.566 742.617 298.276 747.818 298.276C753.018 298.276 757.633 299.566 761.662 302.147C765.72 304.698 768.848 308.379 771.049 313.189C773.277 317.969 774.392 323.498 774.392 329.774V332.633ZM761.362 329.73C761.362 323.014 760.19 317.911 757.847 314.421C755.504 310.931 752.161 309.186 747.818 309.186C743.503 309.186 740.174 310.916 737.831 314.377C735.488 317.808 734.302 322.852 734.274 329.51V332.633C734.274 339.173 735.445 344.247 737.788 347.854C740.131 351.462 743.503 353.265 747.904 353.265C752.218 353.265 755.533 351.535 757.847 348.074C760.162 344.584 761.333 339.511 761.362 332.853V329.73Z" fill="#212121"/>
<path d="M806.838 339.76H796.594V363.208H783.736V299.155H806.924C814.296 299.155 819.982 300.842 823.982 304.215C827.983 307.587 829.983 312.353 829.983 318.512C829.983 322.882 829.054 326.533 827.197 329.466C825.368 332.369 822.582 334.686 818.839 336.417L832.34 362.592V363.208H818.539L806.838 339.76ZM796.594 329.07H806.966C810.195 329.07 812.696 328.234 814.467 326.562C816.239 324.861 817.125 322.53 817.125 319.568C817.125 316.547 816.282 314.171 814.596 312.441C812.938 310.711 810.381 309.845 806.924 309.845H796.594V329.07Z" fill="#212121"/>
<path d="M877.345 335.449H852.657V352.606H881.631V363.208H839.798V299.155H881.545V309.845H852.657V325.111H877.345V335.449Z" fill="#212121"/>
<path d="M208 225H388V405H208V225Z" fill="#E85E13"/>
<path d="M263.05 324.73C263.05 339.15 254.625 346.278 242.635 346.278C233.257 346.278 227.172 341.94 223.176 336.467L230.214 329.267C233.779 333.785 237.325 336.395 242.455 336.395C248.18 336.395 252.104 332.579 252.104 324.496V284.604H263.05V324.73ZM282.419 345.396H271.906V299.528H282.419V345.396ZM277.109 294.343C273.329 294.343 270.268 291.283 270.25 287.52C270.25 283.74 273.311 280.68 277.073 280.662C280.835 280.644 283.914 283.722 283.932 287.484V287.502C283.95 291.283 280.889 294.343 277.109 294.343ZM324.526 331.841C324.526 341.472 317.055 346.26 307.496 346.26C300.979 346.26 293.779 343.92 288.036 339.402L292.735 332.291C297.685 336.017 303.068 337.943 307.766 337.943C312.284 337.943 314.877 336.035 314.877 332.993V332.813C314.877 329.249 310.016 328.042 304.634 326.386C297.865 324.478 290.304 321.706 290.304 312.921V312.741C290.304 304.064 297.523 298.753 306.632 298.753C312.356 298.753 318.621 300.752 323.482 303.974L319.305 311.445C314.877 308.762 310.178 307.106 306.362 307.106C302.275 307.106 299.935 309.015 299.935 311.715V311.895C299.935 315.189 304.886 316.575 310.268 318.321C316.947 320.41 324.508 323.452 324.508 331.697L324.526 331.841ZM352.933 346.44C339.287 346.44 329.224 335.765 329.224 322.642C329.224 309.519 339.305 298.591 353.023 298.591C361.717 298.591 367.1 301.814 371.348 306.494L364.832 313.533C361.627 310.149 358.225 307.808 352.933 307.808C345.282 307.808 339.737 314.415 339.737 322.48C339.737 330.725 345.39 337.331 353.455 337.331C358.405 337.331 362.059 334.991 365.354 331.607L371.69 337.871C367.172 342.876 361.879 346.44 352.933 346.44Z" fill="white"/>
</g>
<defs>
<filter id="filter0_dd" x="0" y="0" width="1090" height="670" filterUnits="userSpaceOnUse" color-interpolation-filters="sRGB">
<feFlood flood-opacity="0" result="BackgroundImageFix"/>
<feColorMatrix in="SourceAlpha" type="matrix" values="0 0 0 0 0 0 0 0 0 0 0 0 0 0 0 0 0 0 127 0"/>
<feMorphology radius="15" operator="dilate" in="SourceAlpha" result="effect1_dropShadow"/>
<feOffset dy="20"/>
<feGaussianBlur stdDeviation="25"/>
<feColorMatrix type="matrix" values="0 0 0 0 0 0 0 0 0 0 0 0 0 0 0 0 0 0 0.2 0"/>
<feBlend mode="normal" in2="BackgroundImageFix" result="effect1_dropShadow"/>
<feColorMatrix in="SourceAlpha" type="matrix" values="0 0 0 0 0 0 0 0 0 0 0 0 0 0 0 0 0 0 127 0"/>
<feMorphology radius="5" operator="dilate" in="SourceAlpha" result="effect2_dropShadow"/>
<feOffset/>
<feGaussianBlur stdDeviation="15"/>
<feColorMatrix type="matrix" values="0 0 0 0 0 0 0 0 0 0 0 0 0 0 0 0 0 0 0.14 0"/>
<feBlend mode="normal" in2="effect1_dropShadow" result="effect2_dropShadow"/>
<feBlend mode="normal" in="SourceGraphic" in2="effect2_dropShadow" result="shape"/>
</filter>
</defs>
</svg>
