<svg width="88" height="48" viewBox="0 0 44 24" fill="#000" fill-opacity=".87" xmlns="http://www.w3.org/2000/svg"><path d="M7.784 22.267a2.52 2.52 0 0 1-.651-.086 3.436 3.436 0 0 1-.991-.458c-.052-.033-.383-.316-.569-.474l-.004-.005a2.787 2.787 0 0 1-.085-.072 4.531 4.531 0 0 0-.58.358c-.378.26-.769.526-1.27.545-.432.017-.888-.052-1.41-.208-.046-.013-.148-.056-.314-.123-.186-.077-.465-.173-.556-.21a.12.12 0 0 1-.056-.063.206.206 0 0 1-.007-.104c.346-.264.679-.58 1.002-.889.212-.202.433-.412.653-.603.077-.067.148-.14.217-.219l.112-.144c.596-.811.845-2.127.985-3.105.131-.912.06-1.86-.017-2.675-.141-1.508-.622-2.6-1.474-3.346-.395-.345-.839-.626-1.26-.882l-.182-.11c-.43-.261-.87-.53-1.272-.848a.137.137 0 0 1-.05-.146c.066-.258 1.19-.62 1.201-.622.202-.031.42-.048.666-.048.28 0 .558.02.82.04.64.05 1.052.339 1.49.647.155.108.313.218.486.323l.017-.02c.052-.066.089-.147.13-.232.057-.119.115-.242.217-.342.242-.235.537-.3.77-.329.086-.01.163-.016.24-.016.429 0 .695.175 1.03.4.052.033.104.068.16.106.14.09.259.135.354.135.16 0 .256-.12.404-.319.156-.21.331-.447.666-.487.346-.04.619.136.856.29.181.116.354.229.529.229.14 0 .283-.071.437-.219.19-.181.348-.319.54-.319.134 0 .27.07.424.217l.035.033c.333.319.425.408.843.186a2.418 2.418 0 0 1 1.062-.275c.575 0 .93.297.951.812l-.052.014-.091.03c-.042.016-.065.02-.102.037-.446.135-1.793.887-1.928.99a5.681 5.681 0 0 0-1.195 1.244c-1.234 1.769-1.212 4.29-.816 5.912.208.853.487 1.848.989 2.774.223.413.483.796.77 1.14l.03.035c.688.826.84.86.884.903.027.027.046.046.05.07.006.055-.054.097-.1.121a.773.773 0 0 1-.191.067c-.065.015-.107.021-.192.035a5.37 5.37 0 0 1-1.728-.05c-.231-.041-.72-.143-.993-.305l-.179.1c-.28.191-.797.403-.864.426-.27.086-.556.134-.84.134zm-2.146-1.212c.175.152.56.479.604.508.33.214.628.354.936.435.444.119.933.102 1.395-.05.06-.019.593-.242.837-.418l-.054-.109c-.202-.406-.481-.961-.623-1.372-.03-.087-.06-.17-.09-.247-.157-.435-.28-.78-.28-1.389v-.518l1.228 3.274a1.6 1.6 0 0 1 .08.192h.001c.098.14.6.285 1.024.362.719.13 1.372.131 1.886 0-.154-.123-.39-.366-.788-.84l-.03-.034a7.078 7.078 0 0 1-.793-1.17c-.512-.943-.795-1.955-1.005-2.819-.404-1.659-.425-4.242.845-6.064.331-.474.77-.93 1.235-1.286.116-.09 1.638-.929 2.075-1.029-.07-.424-.435-.518-.741-.518-.308 0-.68.096-.974.252-.531.281-.71.12-1.062-.214l-.035-.034c-.117-.11-.213-.164-.296-.164-.12 0-.252.114-.408.266-.19.181-.375.27-.566.27-.231 0-.435-.13-.631-.257-.223-.144-.452-.294-.733-.26-.254.029-.391.214-.537.412-.144.193-.291.395-.554.395-.133 0-.283-.054-.456-.164-.056-.038-.11-.073-.162-.106-.335-.221-.556-.369-.928-.369-.067 0-.14.004-.215.015-.306.04-.504.123-.662.277a1.019 1.019 0 0 0-.179.287c-.033.07-.068.143-.114.212.42.668.655 1.47.73 1.963.13.854-.083 1.32-.285 1.772l-.154.341-.524-3.92c-.204-.116-.388-.245-.565-.368-.416-.292-.81-.566-1.396-.612-.26-.021-.535-.04-.806-.04a3.98 3.98 0 0 0-.637.046c-.115.025-.879.319-1.028.462.383.3.807.558 1.217.806l.184.11c.426.26.878.546 1.284.902.889.776 1.39 1.91 1.536 3.468.077.826.148 1.788.015 2.718-.123.864-.31 1.86-.693 2.646l.957-.868c.096-.087.225-.187.33-.27l.515-.409-.682 1.02c-.154.14-.271.25-.394.425-.125.18-.329.331-.477.444-.158.118-.333.18-.576.208a2.408 2.408 0 0 1-.354.385c-.219.19-.437.397-.647.597-.281.267-.569.542-.87.785.097.035.233.092.428.17.131.055.256.107.296.117.504.15.939.217 1.349.202.45-.016.8-.256 1.172-.512.206-.141.418-.287.651-.393l1.047-3.974v.724c0 .716-.047 1.027-.116 1.389-.042.223-.154.508-.254.762a5.539 5.539 0 0 0-.137.37c-.06.186-.121.313-.2.475-.038.098-.088.202-.146.333zm2.996-1.909c.047.2.114.383.191.595.03.08.058.163.09.25.075.219.191.481.314.741l-.595-1.586zm-2.363-.547-.323 1.224c.002-.005.002-.009.004-.01.096-.246.206-.525.244-.73.029-.156.056-.305.075-.484zm-1.79.072-.775.702a.815.815 0 0 0 .181-.102c.138-.104.327-.246.435-.4.052-.077.104-.141.159-.2zm.38-9.538.4 3.037c.148-.362.252-.76.156-1.4a5.378 5.378 0 0 0-.556-1.637zm5.024 11.06a2.641 2.641 0 0 1-.154-.516l-.03-.13-.064-.222c-.004-.019-.01-.035-.017-.054-.054-.146-.125-.273-.193-.398a2.836 2.836 0 0 1-.221-.472c-.229-.687-.383-1.283-.383-1.953v-.674l1.003 3.537c.021.062.04.128.054.193l.177.622-.172.067zM7.638 14.05l.53-1.164c.051-.195.087-.435.124-.666.04-.256.077-.497.138-.654.174-.453.555-.73.922-.997.185-.133.358-.26.508-.408l.479-.472-1.853 3.272c-.073.248-.408.908-.629 1l-.219.089zm1.953-3.422c-.044.03-.087.064-.131.095-.362.263-.704.51-.858.912-.052.136-.087.369-.127.614a9.54 9.54 0 0 1-.085.498l1.201-2.12zm.614-.483.136-.433c.106-.342.422-1.141 1.04-1.176l.221-.013-1.397 1.622zm.873-1.3a1.258 1.258 0 0 0-.315.365l.315-.364z"/><path d="M1.435 21.898c.924 1.684 3.53 2.057 5.242 2.098.653.017 1.313-.025 1.96-.108.346-.046.673-.144 1.03-.243.609-.173 1.219-.363 1.796-.63.514-.239 1.242-.484 1.396-1.14-.277.456-2.51.196-2.847.033-.21-.102-.19-.137-.363.03-.535.518-1.478.684-2.177.555-.564-.104-1.326-.543-1.78-.895-.175-.137-.092-.206-.335-.091-.545.254-.933.595-1.56.697-.653.106-1.26-.01-1.99-.333-.18-.08-.253-.09-.46-.227l.088.254zM.08 8.16c1.097-1.488 2.904-2.023 4.605-2.493.866-.24 1.586-.387 2.5-.387.797 0 1.573.187 2.35.343.78.156 1.58.28 2.271.7.446.27.97.414 1.416.69.15.094.676.22.61.446-.096.323-.875.019-1.12.144-.267.135-.619.387-.923.3-.291-.084-.374-.427-.701-.46-.5-.05-.6.48-1.1.443-.378-.03-.813-.502-1.196-.477-.362.023-.756.412-1.024.61-.494.367-.706-.143-1.129-.312-.252-.1-.35-.13-.626-.13-.694 0-1.116.309-1.51.859.134-.188-.745-.602-.832-.627-.369-.102-.752-.256-1.133-.262-.961-.017-1.64.01-2.458.614zM7.25.17c-.19-.253-.423-.153-.721-.138-.16.445-.013.824.069 1.2.09.417.166.844.241 1.235.081.415.113.848.135 1.303.01.223.021.475-.027.687-.043.192-.175.321-.21.508.377-.01.783-.002 1.168-.023.002-.189-.123-.376-.169-.555-.052-.206-.018-.404-.041-.617-.038-.353-.125-.701-.165-1.078-.09-.833-.229-1.67-.28-2.523zM13.931 1.722c-1.032.017-2.162.067-3.118.604-.447.25-.766.564-1.184.872-.21.156-.425.294-.67.416-.248.123-.542.144-.77.281l.12.277c.31-.087.377-.14.695-.158.314-.019.614-.07.958-.037.322.03.697.025 1.005.108.36.098.818.098 1.187.127.735.056 1.636-.104 2.37-.258.53-.113 1.235-.34 1.641-.737.17-.169.26-.333.464-.523.194-.18.494-.543.637-.753.142-.208.271-.335.404-.56.117-.196.337-.606.342-.854-1 1.124-2.717 1.172-4.08 1.195zM25.523 18.352h-4.406L20.195 21h-2.054l4.297-11.375h1.773L28.516 21h-2.063l-.93-2.648zm-3.851-1.594h3.297l-1.649-4.719-1.648 4.719zM31.798 16.773V21h-1.976V9.625h4.351c1.271 0 2.28.33 3.024.992.75.662 1.125 1.537 1.125 2.625 0 1.115-.367 1.982-1.102 2.602-.729.62-1.752.93-3.07.93h-2.352zm0-1.585h2.375c.704 0 1.24-.165 1.61-.493.37-.333.554-.812.554-1.437 0-.615-.187-1.104-.562-1.469-.375-.37-.89-.56-1.547-.57h-2.43v3.969zM42.152 21h-1.97V9.625h1.97V21z"/></svg>
