<svg width="82" height="49" viewBox="0 0 82 49" fill="none" xmlns="http://www.w3.org/2000/svg">
<path d="M47.2321 25.6491C47.2325 24.4655 46.9998 23.2935 46.5471 22.1999C46.0945 21.1063 45.4309 20.1125 44.5941 19.2755C43.7574 18.4384 42.7639 17.7744 41.6705 17.3214C40.577 16.8683 39.4051 16.6352 38.2215 16.6352C37.7056 16.6354 37.1907 16.6805 36.6826 16.7701C36.6889 13.369 35.3438 10.1047 32.9433 7.69528C30.5427 5.28588 27.2834 3.92877 23.8822 3.92251C20.4811 3.91624 17.2168 5.26133 14.8074 7.66187C12.398 10.0624 11.0409 13.3218 11.0346 16.7229C10.6219 16.6663 10.2059 16.637 9.78933 16.6352C7.43886 16.6252 5.17753 17.534 3.48775 19.1679C1.79797 20.8017 0.813508 23.0312 0.74438 25.3806C0.675253 27.7301 1.52694 30.0136 3.11773 31.7439C4.70853 33.4743 6.91251 34.5145 9.25949 34.6428H38.775C41.0646 34.5019 43.2143 33.493 44.7857 31.8218C46.3572 30.1507 47.2321 27.943 47.2321 25.6491Z" fill="white" stroke="#212121" stroke-width="0.4875" stroke-linecap="round" stroke-linejoin="round"/>
<path d="M28.6475 25.3116L22.9205 20.5532L17.1936 25.3116H18.4524V40.6127H27.3921V25.3116H28.6475Z" fill="#212121"/>
<path d="M23.9193 37.6631C23.8126 37.6647 23.7104 37.7066 23.6334 37.7805C23.5564 37.8544 23.5102 37.9548 23.5042 38.0614L23.484 38.6013H16.7784L16.3835 48H29.2548L29.5518 40.8759L29.653 38.6013L29.6935 37.6631H23.9193Z" fill="#B75400" stroke="#212121" stroke-width="0.4875" stroke-linecap="round" stroke-linejoin="round"/>
<path d="M29.2549 48L29.2009 39.256H16.8291L16.927 47.892L29.2549 48Z" fill="white" stroke="#212121" stroke-width="0.4875" stroke-linecap="round" stroke-linejoin="round"/>
<path d="M29.2548 48L28.6946 39.256H16.3228L16.4206 47.892L29.2548 48Z" fill="white" stroke="#212121" stroke-width="0.4875" stroke-linecap="round" stroke-linejoin="round"/>
<path d="M16.3837 48L14.6626 38.986H27.6149L29.255 48H16.3837Z" fill="#B75400" stroke="#212121" stroke-width="0.4875" stroke-linecap="round" stroke-linejoin="round"/>
<path d="M81.2596 36.5056C81.2618 35.7336 81.0947 34.9706 80.7702 34.2701C80.4456 33.5697 79.9715 32.9489 79.3811 32.4515C78.7907 31.9541 78.0984 31.5922 77.3531 31.3912C76.6077 31.1902 75.8273 31.1551 75.0669 31.2883C75.0289 29.3167 74.2199 27.4384 72.8133 26.0563C71.4068 24.6741 69.5147 23.8981 67.5427 23.8945C65.5707 23.891 63.6758 24.6603 62.2643 26.0374C60.8528 27.4145 60.0371 29.2898 59.992 31.2613C59.7494 31.2261 59.5047 31.2081 59.2596 31.2073C57.8834 31.209 56.5618 31.7462 55.5746 32.7052C54.5874 33.6641 54.0121 34.9696 53.9704 36.3452C53.9288 37.7209 54.424 39.0588 55.3514 40.0757C56.2787 41.0926 57.5654 41.7088 58.939 41.7938H76.2886C77.6343 41.7097 78.8973 41.1161 79.8208 40.1337C80.7443 39.1513 81.2588 37.8539 81.2596 36.5056Z" fill="white" stroke="#212121" stroke-width="0.4875" stroke-linecap="round" stroke-linejoin="round"/>
<path d="M61.9222 8.19157C61.9222 7.39947 61.6075 6.6398 61.0474 6.0797C60.4873 5.51959 59.7276 5.20493 58.9355 5.20493C58.7647 5.20402 58.5941 5.2187 58.426 5.2488C58.426 4.12195 57.9783 3.04125 57.1815 2.24445C56.3847 1.44764 55.304 1 54.1772 1C53.0503 1 51.9696 1.44764 51.1728 2.24445C50.376 3.04125 49.9284 4.12195 49.9284 5.2488C49.7907 5.23119 49.6521 5.22217 49.5133 5.2218C48.7403 5.22717 47.9994 5.53205 47.4466 6.07233C46.8937 6.61261 46.5719 7.34621 46.5487 8.11888C46.5255 8.89156 46.8029 9.64312 47.3224 10.2155C47.8419 10.788 48.5631 11.1367 49.3344 11.1883H59.1211C59.8824 11.141 60.5967 10.8041 61.1175 10.2469C61.6383 9.68966 61.9262 8.95429 61.9222 8.19157Z" fill="white" stroke="#212121" stroke-width="0.4875" stroke-linecap="round" stroke-linejoin="round"/>
</svg>
