<svg xmlns="http://www.w3.org/2000/svg" width="150" height="150" viewBox="0 0 150 150" fill="none">
<path d="M100.053 119.563C88.6188 126.164 75.0294 127.953 62.2756 124.536C49.522 121.118 38.6483 112.774 32.0465 101.34C25.4448 89.9048 23.6552 76.3159 27.0725 63.5622C30.4899 50.8085 38.8342 39.935 50.2688 33.3331C61.7034 26.7313 75.2924 24.9419 88.0461 28.3591C100.8 31.7764 111.674 40.1202 118.276 51.5549C124.878 62.9896 126.667 76.5789 123.249 89.3327C119.832 102.087 111.488 112.961 100.053 119.563Z" fill="white" stroke="#FEF5EF" stroke-width="21.3161" stroke-miterlimit="10"/>
<path d="M48.2916 30.1426L51.8564 36.5484L50.5365 37.2829L46.9717 30.8771L48.2916 30.1426ZM52.3662 31.4591L52.9391 32.4886L50.0266 34.1094L49.4537 33.0799L52.3662 31.4591ZM51.1513 28.5511L51.7267 29.585L48.5062 31.3772L47.9308 30.3433L51.1513 28.5511Z" fill="#B75400"/>
<path d="M59.0721 26.7667L58.9911 33.1622L57.4588 33.6435L57.8605 25.8332L58.8357 25.5269L59.0721 26.7667ZM62.4737 32.0682L58.7454 26.8693L58.216 25.7215L59.2007 25.4122L64.0109 31.5854L62.4737 32.0682ZM61.5694 29.4918L61.924 30.6207L58.2301 31.781L57.8755 30.6522L61.5694 29.4918Z" fill="#B75400"/>
<path d="M68.5958 23.4433L69.5139 30.7165L68.0203 30.905L67.1022 23.6318L68.5958 23.4433Z" fill="#B75400"/>
<path d="M74.3883 23.0159L77.1192 23.1445C77.6792 23.1709 78.1564 23.2774 78.5508 23.464C78.9486 23.6507 79.2488 23.9135 79.4512 24.2524C79.6537 24.5912 79.7436 25.0004 79.7211 25.4798C79.7026 25.8721 79.6197 26.2059 79.4723 26.4813C79.3284 26.7534 79.1313 26.9777 78.8811 27.1541C78.6343 27.3273 78.3474 27.4616 78.0203 27.5571L77.5307 27.7861L75.1568 27.6743L75.2022 26.4969L76.9675 26.5801C77.2324 26.5925 77.4542 26.5559 77.633 26.4703C77.8118 26.3846 77.9487 26.26 78.0438 26.0964C78.1422 25.9331 78.1966 25.7407 78.207 25.5194C78.2181 25.2847 78.184 25.0798 78.1049 24.9047C78.0258 24.7296 77.8995 24.5926 77.7261 24.4937C77.5526 24.3948 77.3318 24.3391 77.0636 24.3264L75.8414 24.2689L75.5522 30.4098L74.0434 30.3387L74.3883 23.0159ZM78.1373 30.5315L76.6213 27.1888L78.2161 27.2538L79.7551 30.5371L79.7518 30.6075L78.1373 30.5315Z" fill="#B75400"/>
<path d="M92.1994 28.6065C92.6548 28.7691 92.9898 29.0409 93.1837 29.4277C93.3837 29.8098 93.4093 30.2129 93.2626 30.6236C93.116 31.0339 92.8403 31.3307 92.443 31.5047C92.049 31.6768 91.6182 31.6727 91.1625 31.5099C90.7068 31.3471 90.3691 31.0769 90.1683 30.6934L90.1677 30.6922C89.9705 30.3059 89.9451 29.9016 90.0916 29.4912C90.2383 29.0805 90.5134 28.7848 90.9102 28.6159C91.3099 28.4414 91.7433 28.4437 92.1994 28.6065Z" fill="#B75400" stroke="#B75400" stroke-width="0.338127"/>
<path d="M104.07 31.8607L106.265 33.4911C106.715 33.8254 107.051 34.18 107.275 34.5549C107.501 34.9318 107.603 35.3174 107.582 35.7116C107.561 36.1057 107.407 36.4955 107.121 36.8808C106.887 37.1961 106.632 37.4268 106.356 37.5731C106.085 37.7187 105.796 37.7948 105.49 37.8016C105.189 37.8077 104.876 37.7591 104.551 37.6559L104.017 37.5727L102.109 36.1555L102.804 35.2037L104.222 36.2576C104.435 36.4158 104.64 36.5091 104.836 36.5378C105.032 36.5664 105.215 36.5394 105.385 36.4567C105.558 36.376 105.71 36.2468 105.843 36.069C105.983 35.8803 106.069 35.6913 106.101 35.5018C106.133 35.3124 106.104 35.1282 106.016 34.9494C105.927 34.7705 105.775 34.6011 105.559 34.4409L104.577 33.7113L100.911 38.6463L99.6985 37.7455L104.07 31.8607ZM102.988 40.1896L103.595 36.5696L104.882 37.5134L104.328 41.0968L104.286 41.1534L102.988 40.1896Z" fill="#B75400"/>
<path d="M111.284 46.6865L110.404 47.4708L107.807 44.559L108.686 43.7747L111.284 46.6865ZM113.606 40.0471L108.135 44.9272L107.13 43.8L112.6 38.9199L113.606 40.0471ZM113.308 44.1988L112.452 44.963L110.193 42.4306L111.049 41.6664L113.308 44.1988ZM115.872 42.587L114.989 43.3746L112.394 40.4665L113.277 39.6789L115.872 42.587Z" fill="#B75400"/>
<path d="M116.537 51.9234L115.601 50.307L116.62 49.7165L117.557 51.333C117.701 51.5828 117.86 51.7625 118.032 51.8723C118.207 51.9803 118.39 52.0278 118.58 52.0146C118.77 52.0014 118.958 51.941 119.144 51.8333C119.333 51.724 119.488 51.5859 119.608 51.4191C119.729 51.2523 119.793 51.0618 119.801 50.8478C119.809 50.6337 119.74 50.4018 119.596 50.152L118.922 48.9887L113.602 52.0698L112.845 50.7627L119.189 47.0886L120.62 49.559C120.907 50.0557 121.064 50.5334 121.089 50.992C121.119 51.4519 121.031 51.8671 120.827 52.2376C120.623 52.6081 120.319 52.9103 119.915 53.1441C119.505 53.3813 119.096 53.4921 118.688 53.4766C118.279 53.4611 117.89 53.3218 117.52 53.0587C117.153 52.7986 116.825 52.4201 116.537 51.9234Z" fill="#B75400"/>
<path d="M122.788 63.8049L122.457 63.9106C121.926 64.0802 121.427 64.1604 120.959 64.1513C120.491 64.1423 120.066 64.0541 119.685 63.8869C119.307 63.7187 118.982 63.4773 118.709 63.1628C118.436 62.8516 118.23 62.4753 118.089 62.0341C117.949 61.596 117.899 61.1697 117.94 60.7551C117.981 60.3438 118.106 59.9584 118.316 59.5991C118.528 59.2387 118.822 58.9175 119.197 58.6356C119.573 58.3569 120.027 58.1328 120.557 57.9633L120.888 57.8576C121.422 57.687 121.922 57.6068 122.387 57.6169C122.855 57.6259 123.279 57.7141 123.66 57.8813C124.042 58.0517 124.37 58.2925 124.642 58.6038C124.915 58.9183 125.121 59.2946 125.261 59.7326C125.402 60.1739 125.452 60.6002 125.411 61.0115C125.37 61.4261 125.243 61.812 125.03 62.1691C124.817 62.5295 124.523 62.8491 124.147 63.1278C123.775 63.4086 123.322 63.6344 122.788 63.8049ZM121.993 62.4574L122.333 62.3486C122.704 62.2301 123.02 62.0924 123.28 61.9353C123.54 61.7783 123.745 61.6036 123.895 61.4112C124.044 61.2189 124.137 61.013 124.173 60.7937C124.212 60.5734 124.192 60.3418 124.115 60.0988C124.037 59.8557 123.919 59.6557 123.759 59.4988C123.604 59.3439 123.41 59.2316 123.176 59.1618C122.943 59.0952 122.676 59.0732 122.373 59.096C122.07 59.1187 121.733 59.1893 121.362 59.3078L121.022 59.4165C120.654 59.534 120.338 59.6717 120.075 59.8298C119.815 59.9868 119.609 60.162 119.456 60.3554C119.306 60.5478 119.211 60.7541 119.172 60.9745C119.134 61.1948 119.153 61.4264 119.231 61.6694C119.308 61.9125 119.427 62.1125 119.586 62.2694C119.745 62.4264 119.941 62.5382 120.174 62.6049C120.41 62.6705 120.679 62.6919 120.982 62.6692C121.288 62.6454 121.625 62.5748 121.993 62.4574Z" fill="#B75400"/>
<path d="M122.221 72.6543C122.351 72.642 122.466 72.611 122.566 72.5612C122.67 72.5145 122.76 72.4352 122.837 72.3235C122.918 72.2114 122.993 72.0577 123.062 71.8624C123.131 71.6671 123.199 71.4164 123.265 71.1102C123.341 70.7693 123.431 70.4439 123.537 70.1339C123.643 69.8273 123.774 69.5521 123.93 69.3082C124.09 69.0674 124.282 68.8707 124.507 68.7182C124.732 68.5689 125.002 68.4796 125.316 68.4502C125.62 68.4217 125.902 68.4627 126.162 68.5733C126.425 68.6835 126.657 68.8506 126.857 69.0746C127.06 69.2983 127.225 69.5694 127.352 69.8879C127.48 70.2096 127.563 70.5677 127.6 70.9621C127.65 71.5001 127.597 71.9788 127.441 72.398C127.285 72.8172 127.048 73.1529 126.731 73.405C126.415 73.6606 126.039 73.8087 125.605 73.8494L125.465 72.3555C125.679 72.3355 125.861 72.2728 126.013 72.1676C126.169 72.0653 126.285 71.9196 126.362 71.7304C126.439 71.5445 126.465 71.3162 126.439 71.0455C126.415 70.7848 126.354 70.5713 126.258 70.405C126.165 70.2385 126.047 70.118 125.906 70.0436C125.767 69.9689 125.616 69.9392 125.452 69.9546C125.329 69.9662 125.219 70.0067 125.125 70.0763C125.03 70.1492 124.946 70.2515 124.87 70.3833C124.795 70.5151 124.727 70.6748 124.667 70.8625C124.607 71.0502 124.552 71.2661 124.501 71.5102C124.417 71.9192 124.315 72.2811 124.193 72.596C124.071 72.9142 123.926 73.184 123.758 73.4054C123.59 73.6268 123.392 73.8004 123.164 73.9262C122.937 74.0521 122.672 74.1291 122.372 74.1572C122.054 74.187 121.764 74.1517 121.502 74.0516C121.24 73.9514 121.011 73.7925 120.815 73.5748C120.619 73.3571 120.461 73.0904 120.341 72.7747C120.22 72.459 120.141 72.1006 120.103 71.6996C120.07 71.3386 120.083 70.9783 120.144 70.6186C120.208 70.2586 120.323 69.9259 120.49 69.6203C120.658 69.3181 120.884 69.0676 121.168 68.869C121.453 68.6704 121.801 68.5519 122.212 68.5134L122.354 70.0223C122.126 70.0436 121.937 70.0967 121.787 70.1816C121.636 70.2664 121.519 70.3769 121.434 70.513C121.349 70.6524 121.293 70.8127 121.266 70.9939C121.24 71.1785 121.236 71.3777 121.256 71.5916C121.281 71.8522 121.338 72.0627 121.427 72.2229C121.516 72.3865 121.63 72.5022 121.768 72.5702C121.906 72.6416 122.057 72.6696 122.221 72.6543Z" fill="#B75400"/>
<path d="M127.542 80.828L120.234 80.2476L120.353 78.7469L127.661 79.3272L127.542 80.828Z" fill="#B75400"/>
<path d="M125.965 89.7603L118.866 87.9333L119.241 86.4753L126.341 88.3023L125.965 89.7603ZM125.403 91.9448L124.257 91.6499L125.748 85.8571L126.894 86.152L125.403 91.9448Z" fill="#B75400"/>
<path d="M117.63 101.03L117.32 100.873C116.823 100.622 116.41 100.329 116.083 99.9948C115.756 99.6603 115.515 99.2998 115.36 98.9134C115.208 98.5285 115.146 98.1282 115.171 97.7124C115.195 97.2997 115.312 96.8866 115.521 96.4731C115.728 96.0627 115.991 95.7237 116.311 95.4563C116.628 95.1918 116.988 95.0049 117.389 94.8954C117.793 94.7875 118.228 94.7644 118.693 94.8263C119.157 94.8912 119.637 95.0493 120.135 95.3005L120.445 95.4571C120.945 95.7098 121.358 96.0027 121.682 96.3357C122.009 96.6703 122.25 97.0308 122.405 97.4172C122.558 97.8066 122.622 98.2077 122.598 98.6204C122.573 99.0361 122.456 99.4492 122.249 99.8597C122.04 100.273 121.777 100.612 121.459 100.877C121.14 101.144 120.779 101.33 120.376 101.435C119.972 101.543 119.538 101.565 119.074 101.5C118.612 101.439 118.131 101.283 117.63 101.03ZM118.008 99.5117L118.327 99.6728C118.675 99.8484 118.996 99.9712 119.292 100.041C119.587 100.112 119.856 100.131 120.097 100.099C120.339 100.067 120.55 99.985 120.729 99.8536C120.911 99.7237 121.06 99.5449 121.175 99.3172C121.29 99.0895 121.345 98.8638 121.342 98.6401C121.34 98.421 121.28 98.2045 121.162 97.9909C121.043 97.7803 120.867 97.5769 120.635 97.3808C120.403 97.1848 120.114 96.9989 119.766 96.8234L119.447 96.6623C119.102 96.4883 118.781 96.3654 118.482 96.2936C118.187 96.2234 117.917 96.2035 117.672 96.2341C117.43 96.2661 117.218 96.3471 117.036 96.477C116.854 96.6068 116.705 96.7856 116.59 97.0133C116.475 97.2411 116.42 97.4668 116.423 97.6904C116.427 97.9141 116.488 98.1313 116.608 98.3419C116.73 98.5541 116.907 98.7582 117.139 98.9543C117.374 99.1519 117.663 99.3377 118.008 99.5117Z" fill="#B75400"/>
<path d="M117.629 107.402L115.903 109.522C115.549 109.956 115.18 110.277 114.795 110.483C114.409 110.692 114.019 110.777 113.626 110.739C113.233 110.7 112.851 110.529 112.479 110.226C112.174 109.978 111.955 109.713 111.821 109.431C111.688 109.154 111.624 108.862 111.631 108.556C111.639 108.254 111.701 107.944 111.819 107.624L111.925 107.094L113.426 105.251L114.346 105.988L113.23 107.358C113.063 107.564 112.96 107.764 112.923 107.958C112.886 108.153 112.904 108.337 112.979 108.511C113.052 108.687 113.175 108.845 113.346 108.985C113.529 109.133 113.714 109.228 113.902 109.268C114.089 109.309 114.275 109.289 114.457 109.208C114.64 109.127 114.816 108.983 114.985 108.774L115.758 107.826L110.991 103.944L111.945 102.772L117.629 107.402ZM109.357 105.95L112.946 106.718L111.946 107.962L108.391 107.248L108.336 107.204L109.357 105.95Z" fill="#B75400"/>
<path d="M109.395 116.276L106.107 114.632L107.011 118.196L105.728 119.228L104.683 114.084L103.01 112.005L104.203 111.045L105.876 113.124L110.682 115.241L109.395 116.276Z" fill="#B75400"/>
<path d="M93.1391 123.268C92.6903 123.448 92.2594 123.467 91.8578 123.306C91.4547 123.152 91.1683 122.868 91.0058 122.463C90.8435 122.058 90.8532 121.653 91.0353 121.26C91.2161 120.87 91.5414 120.587 91.9904 120.407C92.4395 120.227 92.8715 120.205 93.2761 120.359L93.2773 120.36C93.681 120.518 93.9681 120.804 94.1306 121.208C94.293 121.613 94.2831 122.017 94.098 122.406C93.9144 122.802 93.5884 123.088 93.1391 123.268Z" fill="#B75400" stroke="#B75400" stroke-width="0.338127"/>
<path d="M77.4406 124.186L75.9407 124.315C75.9285 123.82 76.0264 123.372 76.2343 122.97C76.439 122.569 76.7461 122.242 77.1557 121.992C77.562 121.741 78.0645 121.59 78.6631 121.538C79.1313 121.498 79.5579 121.542 79.943 121.671C80.3283 121.803 80.6662 122.009 80.9566 122.291C81.2436 122.573 81.4742 122.924 81.6485 123.343C81.8227 123.763 81.9329 124.24 81.979 124.775L82.0226 125.282C82.0686 125.817 82.04 126.306 81.9367 126.75C81.8303 127.197 81.6581 127.584 81.4201 127.911C81.1787 128.239 80.8795 128.5 80.5224 128.696C80.1653 128.892 79.7576 129.009 79.2995 129.049C78.6908 129.101 78.168 129.035 77.7309 128.85C77.2906 128.666 76.9383 128.39 76.6741 128.021C76.4067 127.654 76.2282 127.224 76.1388 126.733L77.6437 126.604C77.6858 126.897 77.7657 127.141 77.8836 127.336C78.0018 127.535 78.1673 127.677 78.3803 127.763C78.5901 127.853 78.8623 127.884 79.1967 127.855C79.4475 127.833 79.6626 127.768 79.8418 127.658C80.021 127.548 80.1659 127.392 80.2766 127.191C80.3873 126.989 80.4619 126.74 80.5004 126.444C80.5358 126.151 80.5368 125.811 80.5035 125.423L80.459 124.906C80.4265 124.528 80.3694 124.198 80.2878 123.915C80.2065 123.636 80.0988 123.403 79.9647 123.215C79.8277 123.032 79.6612 122.898 79.4652 122.814C79.2663 122.733 79.033 122.704 78.7655 122.727C78.4511 122.754 78.1962 122.827 78.0009 122.945C77.8055 123.063 77.6628 123.225 77.5728 123.431C77.4794 123.638 77.4353 123.89 77.4406 124.186Z" fill="#B75400"/>
<path d="M66.865 122.385L67.0033 121.215L70.8784 121.673L70.7402 122.843L66.865 122.385ZM69.5283 128.895L70.3884 121.615L71.8885 121.792L71.0284 129.073L69.5283 128.895ZM66.9985 125.59L67.1332 124.45L70.5033 124.848L70.3686 125.988L66.9985 125.59ZM66.1482 128.496L66.287 127.321L70.1572 127.778L70.0183 128.953L66.1482 128.496Z" fill="#B75400"/>
<path d="M60.6805 127.325L58.0862 126.463C57.5543 126.286 57.1237 126.054 56.7944 125.768C56.462 125.48 56.2441 125.146 56.1409 124.765C56.0377 124.384 56.0618 123.966 56.2133 123.51C56.3372 123.138 56.5074 122.839 56.7237 122.614C56.9359 122.39 57.1863 122.228 57.4749 122.126C57.7593 122.026 58.0719 121.974 58.4126 121.971L58.9459 121.883L61.201 122.633L60.8388 123.754L59.1618 123.196C58.9102 123.112 58.6867 123.088 58.4914 123.122C58.2962 123.156 58.1306 123.239 57.9948 123.371C57.8559 123.501 57.7515 123.672 57.6815 123.882C57.6074 124.105 57.5847 124.311 57.6135 124.501C57.6423 124.691 57.7268 124.857 57.867 124.999C58.0072 125.142 58.2047 125.255 58.4596 125.34L59.6205 125.726L61.5605 119.892L62.9938 120.369L60.6805 127.325ZM59.1048 119.076L59.6598 122.704L58.1421 122.21L57.5489 118.632L57.5711 118.566L59.1048 119.076Z" fill="#B75400"/>
<path d="M47.5048 121.623L51.2151 115.3L52.5135 116.062L48.8032 122.385L47.5048 121.623ZM45.5593 120.481L46.1582 119.461L51.3171 122.488L50.7182 123.509L45.5593 120.481Z" fill="#B75400"/>
<path d="M40.037 116.224L44.7782 110.633L45.9265 111.606L41.1853 117.198L40.037 116.224Z" fill="#B75400"/>
<path d="M34.8975 111.13L40.4703 106.367L41.4517 107.515L35.8789 112.278L34.8975 111.13ZM35.3809 106.875L36.2765 106.11L38.4421 108.644L37.5464 109.409L35.3809 106.875ZM32.7712 108.642L33.6706 107.873L36.0652 110.675L35.1657 111.444L32.7712 108.642Z" fill="#B75400"/>
<path d="M29.1649 103.25L35.4266 99.4371L36.2095 100.723L29.9478 104.535L29.1649 103.25Z" fill="#B75400"/>
<path d="M29.4123 92.3922L28.8619 90.991C29.3323 90.8387 29.7897 90.8051 30.2342 90.8902C30.6775 90.9721 31.0777 91.1737 31.4347 91.4951C31.7905 91.8134 32.0782 92.2521 32.2979 92.8113C32.4697 93.2487 32.5487 93.6703 32.535 94.076C32.5181 94.4829 32.416 94.8656 32.2286 95.2241C32.04 95.5795 31.7694 95.9004 31.4167 96.1868C31.064 96.4732 30.6376 96.7146 30.1378 96.9109L29.6644 97.0968C29.1646 97.2932 28.6873 97.4049 28.2327 97.432C27.7738 97.4572 27.3537 97.4022 26.9725 97.267C26.59 97.1288 26.2541 96.9163 25.9648 96.6296C25.6755 96.343 25.4468 95.9856 25.2786 95.5576C25.0553 94.989 24.97 94.4689 25.0228 93.9974C25.0744 93.5227 25.2391 93.1064 25.5168 92.7485C25.7933 92.3875 26.1542 92.0942 26.5994 91.8689L27.1516 93.2748C26.8828 93.3984 26.6715 93.5445 26.5178 93.7131C26.3609 93.8829 26.2715 94.0821 26.2495 94.3108C26.2231 94.5375 26.2713 94.8071 26.394 95.1195C26.4861 95.3538 26.6102 95.5413 26.7664 95.6819C26.9226 95.8225 27.113 95.9172 27.3378 95.9659C27.5625 96.0147 27.8224 96.0154 28.1175 95.968C28.4083 95.9187 28.7349 95.8229 29.0973 95.6805L29.58 95.4909C29.9331 95.3522 30.2335 95.2036 30.4813 95.0449C30.726 94.8875 30.9191 94.7179 31.0604 94.5362C31.1975 94.3525 31.2785 94.1548 31.3035 93.943C31.3242 93.7294 31.2854 93.4975 31.1872 93.2476C31.0719 92.9539 30.9299 92.7302 30.7613 92.5764C30.5927 92.4227 30.3966 92.332 30.173 92.3044C29.9482 92.2737 29.6946 92.303 29.4123 92.3922Z" fill="#B75400"/>
<path d="M23.6244 84.4281L29.9401 85.4378L30.1936 87.0238L22.5246 85.491L22.3633 84.4817L23.6244 84.4281ZM29.364 81.8332L23.6784 84.7662L22.4658 85.1231L22.3029 84.1039L29.1097 80.2422L29.364 81.8332ZM26.6835 82.3534L27.8519 82.1666L28.463 85.99L27.2946 86.1767L26.6835 82.3534Z" fill="#B75400"/>
<path d="M21.8118 72.6355L29.1307 73.0553L29.0445 74.5583L21.7256 74.1385L21.8118 72.6355ZM21.941 70.3835L23.1222 70.4513L22.7797 76.423L21.5984 76.3552L21.941 70.3835Z" fill="#B75400"/>
<path d="M23.2123 63.5277L30.3503 65.1985L30.0072 66.6643L22.8692 64.9935L23.2123 63.5277Z" fill="#B75400"/>
<path d="M30.4249 53.7712L30.7437 53.9093C31.255 54.1307 31.6839 54.3988 32.0305 54.7135C32.377 55.0282 32.6388 55.3739 32.8159 55.7505C32.9899 56.1258 33.0763 56.5218 33.0751 56.9383C33.0753 57.3517 32.9834 57.7709 32.7993 58.196C32.6165 58.618 32.3736 58.9719 32.0706 59.2576C31.7689 59.5403 31.421 59.7481 31.0269 59.881C30.6297 60.0126 30.1972 60.0612 29.7292 60.0268C29.2626 59.9893 28.7737 59.8598 28.2623 59.6384L27.9435 59.5003C27.4292 59.2775 27.0002 59.0095 26.6568 58.6961C26.3102 58.3814 26.0484 58.0357 25.8713 57.6591C25.6956 57.2794 25.6077 56.8828 25.6075 56.4693C25.6086 56.0528 25.7006 55.6336 25.8834 55.2116C26.0675 54.7866 26.3104 54.4327 26.612 54.15C26.915 53.8642 27.2645 53.6571 27.6603 53.5286C28.0575 53.397 28.4894 53.3499 28.956 53.3874C29.4209 53.4205 29.9105 53.5484 30.4249 53.7712ZM30.1374 55.3092L29.8093 55.1671C29.452 55.0124 29.1238 54.9087 28.8248 54.856C28.5257 54.8032 28.2564 54.8 28.0169 54.8462C27.7774 54.8925 27.5721 54.9865 27.401 55.1282C27.2268 55.2685 27.089 55.4558 26.9876 55.6899C26.8862 55.924 26.8439 56.1526 26.8607 56.3756C26.8757 56.5943 26.9483 56.8068 27.0784 57.0131C27.2098 57.2164 27.3971 57.4091 27.6401 57.5911C27.8832 57.7732 28.1833 57.9416 28.5406 58.0964L28.8687 58.2385C29.2229 58.3919 29.5511 58.4956 29.8532 58.5497C30.1523 58.6024 30.4231 58.6063 30.6657 58.5614C30.9052 58.5151 31.1121 58.4218 31.2863 58.2814C31.4605 58.1411 31.5982 57.9538 31.6996 57.7197C31.801 57.4856 31.8433 57.2571 31.8266 57.034C31.8098 56.8109 31.7357 56.5977 31.6042 56.3945C31.4697 56.1899 31.2809 55.9966 31.0379 55.8145C30.7917 55.6311 30.4916 55.4626 30.1374 55.3092Z" fill="#B75400"/>
<path d="M33.5754 42.5518L39.4961 46.8748L38.6054 48.0947L32.8997 47.5758L36.8685 50.4736L35.9778 51.6935L30.0571 47.3705L30.9478 46.1506L36.6605 46.6685L32.6877 43.7677L33.5754 42.5518Z" fill="#B75400"/>
<path d="M42.5799 37.0905C42.9684 36.8025 43.3806 36.6753 43.8098 36.7293C44.2386 36.7755 44.5878 36.9785 44.8476 37.3288C45.1071 37.6789 45.2004 38.0731 45.124 38.5C45.0479 38.9232 44.8049 39.2788 44.4162 39.567C44.0274 39.8553 43.615 39.9856 43.1846 39.9392L43.1833 39.939C42.7526 39.8881 42.4025 39.6843 42.1428 39.3343C41.8831 38.984 41.7904 38.5909 41.8707 38.1671C41.948 37.738 42.191 37.379 42.5799 37.0905Z" fill="#B75400" stroke="#B75400" stroke-width="0.338127"/>
<path d="M74.7117 96.5471C74.243 96.5471 73.783 96.4858 73.3406 96.3674C72.6529 96.1833 71.987 95.8765 71.2555 95.4031C71.146 95.333 70.4495 94.7368 70.0596 94.4037L70.0509 94.395C69.9764 94.3336 69.9151 94.281 69.8713 94.2415C69.4464 94.4476 69.0434 94.7237 68.6491 94.9955C67.8563 95.5434 67.0328 96.1044 65.9771 96.1439C65.0703 96.1789 64.111 96.0343 63.0115 95.7055C62.9152 95.6792 62.7005 95.5872 62.3501 95.4469C61.9602 95.2848 61.3732 95.0831 61.1805 95.0042C61.163 94.9955 61.0885 94.9516 61.0622 94.8727C61.036 94.7982 61.036 94.6799 61.0491 94.6536C61.7762 94.0969 62.4771 93.4306 63.1561 92.7819C63.6029 92.3567 64.0672 91.914 64.5315 91.5108C64.6936 91.3705 64.8425 91.2171 64.9871 91.0505L65.2236 90.7481C66.4764 89.0386 67.0021 86.2684 67.2956 84.2082C67.5716 82.2884 67.4226 80.294 67.2605 78.5758C66.9627 75.4023 65.9508 73.1011 64.1592 71.5319C63.3269 70.8042 62.3939 70.2125 61.509 69.6733L61.1236 69.441C60.2212 68.8931 59.2925 68.3277 58.4471 67.657C58.3508 67.5825 58.3113 67.4642 58.342 67.3502C58.4822 66.8067 60.8476 66.044 60.8695 66.0396C61.2944 65.9739 61.7543 65.9388 62.2712 65.9388C62.8582 65.9388 63.4452 65.9826 63.9971 66.0221C65.3419 66.1273 66.2092 66.7366 67.1335 67.3853C67.4577 67.6132 67.7906 67.8455 68.1542 68.0647L68.1892 68.0252C68.2987 67.885 68.3776 67.714 68.4652 67.5343C68.5834 67.2845 68.7061 67.0259 68.9207 66.8155C69.4289 66.3202 70.0509 66.1843 70.5415 66.1229C70.7211 66.101 70.8832 66.0878 71.0452 66.0878C71.9476 66.0878 72.5083 66.456 73.2136 66.9294C73.3231 66.9996 73.4326 67.0741 73.5508 67.153C73.8443 67.3415 74.094 67.4379 74.2955 67.4379C74.6328 67.4379 74.8343 67.1837 75.1453 66.7672C75.4739 66.3245 75.8418 65.8248 76.5471 65.7416C77.2742 65.6583 77.8481 66.0265 78.3474 66.3508C78.7285 66.5963 79.0921 66.833 79.46 66.833C79.7535 66.833 80.0558 66.684 80.3799 66.3728C80.7786 65.9914 81.1115 65.7021 81.5145 65.7021C81.7992 65.7021 82.0839 65.8468 82.4081 66.158L82.4825 66.2281C83.1834 66.8987 83.3762 67.0872 84.2566 66.6182C84.9268 66.2632 85.781 66.0396 86.4906 66.0396C87.6996 66.0396 88.4487 66.6664 88.4925 67.7491L88.383 67.7798L88.1902 67.8411C88.1026 67.8762 88.0545 67.885 87.9756 67.92C87.0382 68.205 84.2041 69.7873 83.9193 70.0065C82.9688 70.7297 82.0752 71.659 81.405 72.6233C78.8074 76.3491 78.8555 81.6572 79.6878 85.0718C80.1259 86.8689 80.7129 88.9641 81.7685 90.9146C82.2372 91.7825 82.7848 92.5891 83.3893 93.3123L83.4506 93.3868C84.9005 95.127 85.2203 95.1971 85.3123 95.2891C85.3692 95.3461 85.4087 95.3856 85.4174 95.4382C85.4306 95.5521 85.3035 95.6398 85.2072 95.6924C85.0801 95.7581 84.9443 95.802 84.8042 95.8327C84.6684 95.8633 84.5808 95.8765 84.4012 95.9072C84.2522 95.9335 84.0989 95.9466 83.9456 95.9598C83.2885 96.008 82.6402 96.0343 81.9832 95.9685C81.5758 95.9247 81.1684 95.8765 80.7654 95.802C80.2792 95.7143 79.2498 95.4995 78.676 95.1576L78.2992 95.368C77.7079 95.7713 76.6215 96.2184 76.4814 96.2666C75.9119 96.4463 75.3118 96.5471 74.7117 96.5471ZM70.1954 93.9961C70.5634 94.3161 71.3738 95.0042 71.4658 95.0656C72.1622 95.5171 72.7887 95.8107 73.437 95.9817C74.37 96.2315 75.3994 96.1965 76.3718 95.8765C76.4989 95.837 77.6203 95.368 78.1328 94.9955L78.0189 94.7675C77.594 93.9128 77.007 92.7425 76.7091 91.879C76.6434 91.6949 76.5821 91.5195 76.5208 91.3573C76.1879 90.4412 75.9294 89.7136 75.9294 88.4337V87.3423L78.5139 94.2372C78.5752 94.3599 78.6321 94.5001 78.6803 94.6404H78.6847C78.8906 94.9341 79.9463 95.2409 80.8399 95.4031C82.3511 95.6749 83.7266 95.6792 84.8086 95.4031C84.4844 95.1445 83.985 94.6316 83.1484 93.6323L83.087 93.5621C82.465 92.8214 81.9043 91.9929 81.4181 91.0987C80.3405 89.1131 79.7448 86.9829 79.3024 85.1638C78.4526 81.6703 78.4087 76.2307 81.0808 72.3954C81.7773 71.396 82.7016 70.436 83.6784 69.6865C83.9237 69.498 87.1258 67.7316 88.0457 67.5212C87.8968 66.627 87.1302 66.4297 86.4863 66.4297C85.838 66.4297 85.0539 66.6314 84.4362 66.9601C83.3192 67.5519 82.9425 67.2143 82.2022 66.5086L82.1277 66.4385C81.8824 66.2062 81.6809 66.0922 81.5057 66.0922C81.2516 66.0922 80.9757 66.3333 80.6471 66.6533C80.2485 67.0346 79.8587 67.2231 79.4557 67.2231C78.9694 67.2231 78.5402 66.947 78.1284 66.6796C77.6597 66.3771 77.1778 66.0615 76.5865 66.1317C76.0521 66.193 75.763 66.5831 75.4563 66.9996C75.1541 67.4072 74.8431 67.8324 74.2911 67.8324C74.0108 67.8324 73.6954 67.7184 73.3318 67.4861C73.2136 67.4072 73.0997 67.3327 72.9902 67.2626C72.2849 66.7979 71.8206 66.4867 71.0365 66.4867C70.8963 66.4867 70.743 66.4955 70.5853 66.5174C69.9414 66.6007 69.5252 66.776 69.1923 67.1004C69.0302 67.2626 68.9251 67.4773 68.8156 67.7053C68.7455 67.8543 68.671 68.0077 68.5747 68.1524C69.4595 69.5594 69.9545 71.2469 70.1122 72.2858C70.3838 74.0829 69.937 75.0648 69.5121 76.0159L69.1879 76.7348L68.0841 68.4811C67.6548 68.2356 67.2693 67.9639 66.897 67.7053C66.0209 67.0916 65.193 66.513 63.9577 66.4166C63.4101 66.3728 62.8319 66.3333 62.2625 66.3333C61.7675 66.3333 61.3294 66.364 60.9221 66.4297C60.6811 66.4823 59.0735 67.1004 58.7581 67.4028C59.5641 68.034 60.4577 68.5775 61.3207 69.0991L61.7062 69.3315C62.6041 69.8794 63.5547 70.4799 64.4089 71.2294C66.2793 72.8644 67.335 75.2532 67.6416 78.5319C67.8037 80.2721 67.9527 82.2971 67.6723 84.2565C67.4139 86.0755 67.0196 88.1707 66.2136 89.8276L68.2286 87.9998C68.4301 87.8157 68.7017 87.6053 68.9207 87.4299L70.0071 86.5708L68.5703 88.7186C68.2461 89.0123 68.0008 89.2446 67.7424 89.6128C67.4796 89.9898 67.0503 90.3097 66.7393 90.5464C66.4064 90.7963 66.0384 90.9278 65.5259 90.9848C65.3025 91.2872 65.0528 91.559 64.7812 91.7957C64.3213 92.1946 63.8613 92.6329 63.4189 93.0537C62.8276 93.6147 62.2231 94.1933 61.5879 94.7062C61.7938 94.7807 62.0785 94.899 62.4903 95.0656C62.7662 95.1796 63.0291 95.2891 63.1123 95.3111C64.1723 95.6267 65.0879 95.7669 65.9508 95.7362C66.897 95.7012 67.6329 95.1971 68.417 94.6579C68.8506 94.3599 69.2974 94.0531 69.7881 93.8295L71.9914 85.4619V86.9872C71.9914 88.4951 71.8907 89.1482 71.7461 89.9109C71.6585 90.3799 71.422 90.9804 71.2117 91.5151C71.0978 91.8001 70.9927 92.0718 70.9226 92.2954C70.7956 92.6855 70.6685 92.9529 70.5021 93.2948C70.4232 93.5008 70.3181 93.7199 70.1954 93.9961ZM76.4989 89.9766C76.5996 90.3974 76.7398 90.7831 76.9019 91.2302C76.9632 91.3968 77.0245 91.5721 77.0902 91.7562C77.2479 92.2165 77.4932 92.7688 77.7517 93.3167L76.4989 89.9766ZM71.5271 88.8238L70.8481 91.4012C70.8525 91.3924 70.8525 91.3836 70.8569 91.3793C71.0584 90.862 71.2905 90.2747 71.3694 89.8451C71.4307 89.5164 71.4877 89.2008 71.5271 88.8238ZM67.7599 88.9772L66.1304 90.4544C66.2706 90.3974 66.3932 90.3273 66.5115 90.2396C66.8006 90.0205 67.1992 89.7224 67.427 89.398C67.5365 89.2359 67.646 89.1 67.7599 88.9772ZM68.5615 68.8931L69.4026 75.2883C69.7136 74.5256 69.9326 73.6884 69.7311 72.3384C69.5997 71.4661 69.223 70.1204 68.5615 68.8931ZM79.1315 92.1814C78.9694 91.8176 78.8862 91.4494 78.8074 91.0944L78.746 90.8226L78.6102 90.3536C78.6015 90.3141 78.5883 90.2791 78.5752 90.2396C78.4613 89.9328 78.3124 89.6654 78.1678 89.4024C78.0014 89.1 77.8305 88.7844 77.7035 88.4074C77.2216 86.9609 76.8975 85.7073 76.8975 84.2959V82.8757L79.0089 90.3229C79.0527 90.4544 79.0921 90.5947 79.1228 90.7305L79.4951 92.0411L79.1315 92.1814ZM74.405 79.2464L75.5177 76.7962C75.6272 76.3841 75.7016 75.8801 75.7805 75.3935C75.8637 74.8544 75.9426 74.3459 76.0696 74.0172C76.4376 73.0616 77.2392 72.4786 78.0101 71.9176C78.4 71.6371 78.7636 71.3697 79.079 71.0585L80.0864 70.0635L76.1879 76.954C76.0346 77.4756 75.3293 78.8651 74.865 79.0579L74.405 79.2464ZM78.5139 72.0403C78.4219 72.1061 78.3299 72.1762 78.2379 72.2419C77.4757 72.7942 76.7573 73.3158 76.4332 74.1618C76.3237 74.4467 76.2492 74.9376 76.166 75.4549C76.1134 75.8055 76.0565 76.1606 75.9864 76.5025L78.5139 72.0403ZM79.8061 71.0234L80.0908 70.1117C80.3142 69.3928 80.9801 67.7096 82.281 67.6351L82.7454 67.6088L79.8061 71.0234ZM81.6415 68.2882C81.405 68.4636 81.1816 68.7222 80.9801 69.0553L81.6415 68.2882Z" fill="#212121"/>
<path d="M61.3513 95.7713C63.2962 99.3174 68.7805 100.102 72.3813 100.19C73.7567 100.225 75.1453 100.137 76.5076 99.9617C77.2348 99.8653 77.9225 99.6592 78.6716 99.4489C79.955 99.085 81.2385 98.6862 82.4519 98.1251C83.5338 97.621 85.067 97.1038 85.3911 95.7231C84.8085 96.683 80.1083 96.1351 79.3987 95.7932C78.9563 95.5784 79.0001 95.5039 78.6365 95.8546C77.5107 96.946 75.5264 97.2967 74.0546 97.0249C72.8675 96.8057 71.2643 95.8809 70.3093 95.1401C69.9414 94.8508 70.1166 94.7062 69.6041 94.9472C68.4564 95.482 67.6416 96.2008 66.3231 96.4156C64.9477 96.6392 63.6686 96.3937 62.1354 95.7143C61.7543 95.5477 61.601 95.5258 61.1674 95.2365L61.3513 95.7713Z" fill="#212121"/>
<path d="M58.4997 66.8461C60.8082 63.7121 64.6104 62.5856 68.1892 61.595C70.0115 61.0909 71.5271 60.7797 73.4501 60.7797C75.1278 60.7797 76.7617 61.1742 78.3956 61.5029C80.0383 61.8317 81.7204 62.0903 83.1747 62.9757C84.1121 63.5455 85.2159 63.848 86.1534 64.431C86.4687 64.6282 87.577 64.8912 87.4368 65.369C87.2353 66.0484 85.597 65.4084 85.0801 65.6714C84.5195 65.9563 83.7792 66.4867 83.1396 66.3026C82.5264 66.1273 82.3511 65.404 81.6634 65.3339C80.6121 65.2287 80.4018 66.3464 79.3505 66.2675C78.5533 66.2062 77.6378 65.2112 76.8318 65.2638C76.0696 65.312 75.2417 66.1317 74.6766 66.5481C73.6385 67.3195 73.1917 66.2456 72.3024 65.8906C71.7724 65.6802 71.5665 65.6188 70.9839 65.6188C69.5252 65.6188 68.636 66.2675 67.8081 67.4247C68.0885 67.0302 66.2399 66.158 66.0559 66.1054C65.2806 65.8906 64.4746 65.5662 63.673 65.5531C61.6492 65.518 60.2212 65.575 58.4997 66.8461Z" fill="#212121"/>
<path d="M73.5859 50.0188C73.1873 49.4884 72.6967 49.6988 72.0703 49.7295C71.733 50.6675 72.044 51.4653 72.2148 52.2586C72.4032 53.1353 72.5652 54.0339 72.7229 54.8579C72.8938 55.7302 72.9595 56.6419 73.0077 57.6018C73.0296 58.0708 73.0515 58.6012 72.9507 59.0483C72.8587 59.4516 72.5828 59.7233 72.5083 60.1178C73.3012 60.0959 74.1553 60.1134 74.9657 60.0696C74.9701 59.6707 74.7073 59.2762 74.6109 58.8993C74.5014 58.4653 74.5715 58.0489 74.5233 57.6018C74.4445 56.8567 74.2605 56.1247 74.1772 55.3313C73.9889 53.578 73.6954 51.8159 73.5859 50.0188Z" fill="#212121"/>
<path d="M87.6471 53.2887C85.4744 53.3238 83.0958 53.429 81.0852 54.5599C80.1434 55.0859 79.4732 55.7477 78.5927 56.3964C78.1503 56.7252 77.6991 57.0145 77.1822 57.2731C76.661 57.5317 76.0433 57.5755 75.5615 57.8648L75.8155 58.4478C76.4682 58.2637 76.6084 58.1541 77.2786 58.1147C77.9401 58.0752 78.5708 57.9657 79.2936 58.0358C79.9726 58.1015 80.761 58.0884 81.4094 58.2637C82.1672 58.4697 83.1309 58.4697 83.9062 58.5311C85.4525 58.6494 87.3492 58.3119 88.8955 57.9876C90.0081 57.7509 91.4931 57.2731 92.3473 56.4359C92.7065 56.0809 92.8948 55.7346 93.3241 55.3357C93.7315 54.9544 94.3623 54.1917 94.6645 53.749C94.9624 53.3106 95.234 53.0433 95.5143 52.5699C95.7596 52.1578 96.224 51.2943 96.2327 50.7727C94.1301 53.1397 90.5163 53.2405 87.6471 53.2887Z" fill="#212121"/>
<path d="M105.059 128.546C91.175 136.562 74.6751 138.734 59.1896 134.585C43.7043 130.436 30.5017 120.304 22.4859 106.42C14.4701 92.5365 12.2972 76.0371 16.4465 60.5516C20.5958 45.0662 30.7273 31.8638 44.6111 23.8479C58.4949 15.832 74.9944 13.6593 90.4798 17.8085C105.965 21.9578 119.169 32.0888 127.184 45.9726C135.2 59.8566 137.372 76.3563 133.223 91.8418C129.074 107.327 118.943 120.531 105.059 128.546Z" stroke="#B75400" stroke-width="1.36167" stroke-miterlimit="10"/>
<path d="M95.1334 109.436C86.1586 114.618 75.4931 116.022 65.483 113.34C55.4728 110.658 46.9374 104.108 41.7557 95.1335C36.5741 86.1586 35.1705 75.4929 37.8527 65.4827C40.5349 55.4725 47.0833 46.9375 56.0582 41.7558C65.0331 36.5741 75.6996 35.1701 85.7099 37.8523C95.7199 40.5346 104.254 47.0836 109.436 56.0583C114.618 65.0333 116.022 75.6993 113.34 85.7095C110.658 95.7198 104.108 104.254 95.1334 109.436Z" stroke="#B75400" stroke-width="1.36167" stroke-miterlimit="10"/>
</svg>
