<svg xmlns="http://www.w3.org/2000/svg" width="62" height="62" viewBox="0 0 62 62" fill="none">
<g id="Icon">
<path id="Line 6" d="M33.583 23.2539H49.083" stroke="#B75400" stroke-width="2.58333" stroke-linecap="round"/>
<path id="Line 10" d="M33.583 15.5039H49.083" stroke="#B75400" stroke-width="2.58333" stroke-linecap="round"/>
<path id="Line 7" d="M36.167 31.0039L49.0837 31.0039" stroke="#B75400" stroke-width="2.58333" stroke-linecap="round"/>
<path id="Line 8" d="M33.583 38.7539H49.083" stroke="#B75400" stroke-width="2.58333" stroke-linecap="round"/>
<path id="Line 9" d="M33.583 46.5039H49.083" stroke="#B75400" stroke-width="2.58333" stroke-linecap="round"/>
<path id="Subtract" fill-rule="evenodd" clip-rule="evenodd" d="M23.2493 7.75326H54.2493L54.2494 54.2533L23.2493 54.2533V46.2889C22.4092 46.4299 21.5462 46.5033 20.666 46.5033V54.2533C20.666 55.68 21.8226 56.8366 23.2494 56.8366H54.2494C55.6761 56.8366 56.8327 55.68 56.8327 54.2533V7.75326C56.8327 6.32652 55.6761 5.16992 54.2493 5.16992H23.2493C21.8226 5.16992 20.666 6.32652 20.666 7.75326V15.5033C21.5462 15.5033 22.4092 15.5766 23.2493 15.7176V7.75326Z" fill="#B75400"/>
<g id="Subtract_2">
<mask id="path-7-inside-1_3025_4136" fill="white">
<path fill-rule="evenodd" clip-rule="evenodd" d="M20.666 46.5039C29.2264 46.5039 36.166 39.5643 36.166 31.0039C36.166 22.4435 29.2264 15.5039 20.666 15.5039C12.1056 15.5039 5.16602 22.4435 5.16602 31.0039C5.16602 39.5643 12.1056 46.5039 20.666 46.5039ZM15.3694 30.9996L18.0119 33.3325L25.7028 25.8378L28.416 28.3971L17.8478 37.6509L12.916 33.3325L15.3694 30.9996Z"/>
</mask>
<path fill-rule="evenodd" clip-rule="evenodd" d="M20.666 46.5039C29.2264 46.5039 36.166 39.5643 36.166 31.0039C36.166 22.4435 29.2264 15.5039 20.666 15.5039C12.1056 15.5039 5.16602 22.4435 5.16602 31.0039C5.16602 39.5643 12.1056 46.5039 20.666 46.5039ZM15.3694 30.9996L18.0119 33.3325L25.7028 25.8378L28.416 28.3971L17.8478 37.6509L12.916 33.3325L15.3694 30.9996Z" fill="#B75400"/>
<path d="M18.0119 33.3325L16.3022 35.2691L18.0986 36.8551L19.8149 35.1826L18.0119 33.3325ZM15.3694 30.9996L17.0792 29.0629L15.3047 27.4963L13.5893 29.1275L15.3694 30.9996ZM25.7028 25.8378L27.4754 23.9586L25.6737 22.2591L23.8998 23.9877L25.7028 25.8378ZM28.416 28.3971L30.1178 30.3407L32.2563 28.4683L30.1886 26.5179L28.416 28.3971ZM17.8478 37.6509L16.146 39.5944L17.8478 41.0846L19.5497 39.5944L17.8478 37.6509ZM12.916 33.3325L11.1359 31.4604L9.08439 33.4111L11.2142 35.276L12.916 33.3325ZM33.5827 31.0039C33.5827 38.1376 27.7997 43.9206 20.666 43.9206V49.0872C30.6532 49.0872 38.7494 40.9911 38.7494 31.0039H33.5827ZM20.666 18.0872C27.7997 18.0872 33.5827 23.8702 33.5827 31.0039H38.7494C38.7494 21.0168 30.6532 12.9206 20.666 12.9206V18.0872ZM7.74935 31.0039C7.74935 23.8702 13.5323 18.0872 20.666 18.0872V12.9206C10.6789 12.9206 2.58268 21.0168 2.58268 31.0039H7.74935ZM20.666 43.9206C13.5323 43.9206 7.74935 38.1376 7.74935 31.0039H2.58268C2.58268 40.9911 10.6789 49.0872 20.666 49.0872V43.9206ZM19.7216 31.3959L17.0792 29.0629L13.6597 32.9362L16.3022 35.2691L19.7216 31.3959ZM23.8998 23.9877L16.209 31.4823L19.8149 35.1826L27.5057 27.688L23.8998 23.9877ZM30.1886 26.5179L27.4754 23.9586L23.9301 27.717L26.6434 30.2764L30.1886 26.5179ZM19.5497 39.5944L30.1178 30.3407L26.7142 26.4536L16.146 35.7073L19.5497 39.5944ZM11.2142 35.276L16.146 39.5944L19.5497 35.7073L14.6178 31.3889L11.2142 35.276ZM13.5893 29.1275L11.1359 31.4604L14.6962 35.2046L17.1496 32.8716L13.5893 29.1275Z" fill="#B75400" mask="url(#path-7-inside-1_3025_4136)"/>
</g>
</g>
</svg>
