<svg xmlns="http://www.w3.org/2000/svg" width="62" height="62" viewBox="0 0 62 62" fill="none">
  <path d="M52.0357 32.7527V41.5176H9.96427V13.47H27.494V9.96405H9.96427C9.03443 9.96405 8.14268 10.3334 7.48518 10.9909C6.82769 11.6484 6.45831 12.5402 6.45831 13.47V41.5176C6.45831 42.4475 6.82769 43.3392 7.48518 43.9967C8.14268 44.6542 9.03443 45.0236 9.96427 45.0236H23.9881V52.0355H16.9762V55.5414H45.0238V52.0355H38.0119V45.0236H52.0357C52.9655 45.0236 53.8573 44.6542 54.5148 43.9967C55.1723 43.3392 55.5416 42.4475 55.5416 41.5176V32.7527H52.0357ZM34.5059 52.0355H27.494V45.0236H34.5059V52.0355Z" fill="#B75400"/>
  <path d="M55.5417 20.4821V16.9761H51.8587C51.6326 15.8788 51.1969 14.8354 50.5755 13.9031L53.1874 11.2912L50.7087 8.8125L48.0968 11.4244C47.1645 10.803 46.1211 10.3673 45.0238 10.1413V6.45825H41.5179V10.1413C40.4205 10.3673 39.3771 10.803 38.4449 11.4244L35.833 8.8125L33.3542 11.2912L35.9662 13.9031C35.3448 14.8354 34.9091 15.8788 34.683 16.9761H31V20.4821H34.683C34.9091 21.5794 35.3448 22.6228 35.9662 23.555L33.3542 26.167L35.833 28.6457L38.4449 26.0337C39.3771 26.6551 40.4205 27.0908 41.5179 27.3169V30.9999H45.0238V27.3169C46.1211 27.0908 47.1645 26.6551 48.0968 26.0337L50.7087 28.6457L53.1874 26.167L50.5755 23.555C51.1969 22.6228 51.6326 21.5794 51.8587 20.4821H55.5417ZM43.2708 23.988C42.2307 23.988 41.214 23.6796 40.3491 23.1017C39.4843 22.5239 38.8103 21.7025 38.4122 20.7416C38.0142 19.7806 37.91 18.7233 38.113 17.7031C38.3159 16.683 38.8167 15.7459 39.5522 15.0105C40.2877 14.275 41.2247 13.7741 42.2449 13.5712C43.265 13.3683 44.3224 13.4724 45.2833 13.8705C46.2443 14.2685 47.0656 14.9426 47.6435 15.8074C48.2213 16.6722 48.5298 17.689 48.5298 18.7291C48.5284 20.1234 47.9739 21.4602 46.9879 22.4462C46.002 23.4321 44.6652 23.9866 43.2708 23.988Z" fill="#B75400"/>
</svg>
