<svg xmlns="http://www.w3.org/2000/svg" width="352" height="352" viewBox="0 0 352 352" fill="none">
<path d="M19.1939 324.204H350.525" stroke="#212121" stroke-width="0.88" stroke-linecap="round" stroke-linejoin="round"/>
<path opacity="0.3" d="M350.576 177.058V165.795H343.089C342.508 163.209 341.504 160.736 340.118 158.477L345.526 153.069L337.564 145.114L332.178 150.493C329.961 149.117 327.537 148.109 324.999 147.507V139.691H313.736V147.507C311.248 148.1 308.871 149.089 306.696 150.434L301.017 144.74L293.055 152.703L298.705 158.352C297.374 160.491 296.386 162.824 295.777 165.268H287.632V176.531H295.646C296.199 178.986 297.135 181.34 298.419 183.505L292.682 189.25L300.644 197.212L306.228 191.628C308.377 193.009 310.73 194.041 313.202 194.687V202.627H324.465V194.95C327.018 194.4 329.464 193.438 331.71 192.104L337.184 197.585L345.146 189.623L339.833 184.303C341.263 182.074 342.318 179.627 342.958 177.058H350.576ZM319.371 183.988C316.832 183.989 314.349 183.238 312.237 181.828C310.125 180.418 308.479 178.413 307.506 176.067C306.534 173.722 306.279 171.14 306.774 168.649C307.269 166.159 308.492 163.871 310.287 162.075C312.083 160.28 314.371 159.057 316.861 158.562C319.352 158.067 321.933 158.322 324.279 159.294C326.625 160.267 328.63 161.913 330.04 164.025C331.45 166.137 332.201 168.62 332.2 171.159C332.2 172.844 331.868 174.512 331.223 176.068C330.579 177.625 329.634 179.039 328.442 180.23C327.251 181.422 325.837 182.367 324.28 183.011C322.724 183.656 321.056 183.988 319.371 183.988Z" stroke="#212121" stroke-width="0.88" stroke-linecap="round" stroke-linejoin="round"/>
<g opacity="0.3">
<path d="M80.2422 286.362V275.099H72.763C72.1807 272.512 71.1743 270.039 69.7845 267.781L75.2 262.373L67.2305 254.418L61.8882 259.797C59.6721 258.419 57.2478 257.408 54.7091 256.804V248.988H43.4098V256.804C40.9212 257.402 38.5427 258.39 36.3624 259.731L30.6908 254.052L22.7286 262L28.3782 267.686C27.0479 269.824 26.0602 272.158 25.451 274.602H17.2985V285.864H25.2973C25.8479 288.321 26.7841 290.675 28.0709 292.839L22.37 298.547L30.3322 306.509L35.916 300.925C38.0557 302.302 40.3996 303.332 42.8609 303.977V311.932H54.1383V304.277C56.6913 303.726 59.1381 302.765 61.3832 301.43L66.8572 306.904L74.8194 298.942L69.4991 293.629C70.9309 291.402 71.9866 288.954 72.624 286.384L80.2422 286.362ZM49.0375 293.3C46.4994 293.297 44.0191 292.541 41.9101 291.129C39.8012 289.717 38.1582 287.711 37.1889 285.366C36.2196 283.02 35.9675 280.439 36.4645 277.95C36.9614 275.461 38.1851 273.176 39.9808 271.382C41.7765 269.588 44.0637 268.367 46.5533 267.873C49.0428 267.379 51.623 267.634 53.9676 268.606C56.3123 269.578 58.3161 271.223 59.7259 273.334C61.1357 275.444 61.8882 277.925 61.8882 280.464C61.8892 282.151 61.5573 283.821 60.9117 285.38C60.266 286.939 59.3193 288.355 58.1256 289.547C56.9319 290.74 55.5147 291.685 53.9553 292.329C52.3958 292.973 50.7246 293.303 49.0375 293.3Z" stroke="#212121" stroke-width="0.88" stroke-linecap="round" stroke-linejoin="round"/>
<path d="M46.9664 229.28V221.859H42.0413C41.6578 220.155 40.9951 218.525 40.08 217.037L43.644 213.473L38.3968 208.226L34.8475 211.775C33.3878 210.869 31.7915 210.204 30.12 209.806V204.684H22.692V209.806C21.0551 210.197 19.4895 210.841 18.0523 211.716L14.32 207.977L9.07288 213.224L12.7978 216.949C11.922 218.36 11.2702 219.898 10.8658 221.508H5.48697V228.9H10.7707C11.1389 230.517 11.7561 232.067 12.6002 233.495L8.81674 237.279L14.0639 242.526L17.723 238.867C19.1543 239.786 20.723 240.47 22.37 240.894V246.134H29.7614V241.07C31.445 240.707 33.0588 240.075 34.5401 239.196L38.148 242.804L43.3952 237.557L39.8897 234.022C40.8327 232.556 41.5275 230.944 41.9461 229.251L46.9664 229.28ZM26.4096 233.847C24.7358 233.848 23.0992 233.353 21.7069 232.424C20.3145 231.495 19.2291 230.174 18.5879 228.628C17.9467 227.082 17.7785 225.38 18.1047 223.738C18.4309 222.096 19.2368 220.588 20.4203 219.405C21.6039 218.221 23.112 217.415 24.7537 217.089C26.3954 216.763 28.097 216.931 29.6431 217.572C31.1893 218.214 32.5104 219.299 33.4395 220.691C34.3685 222.084 34.8636 223.72 34.8621 225.394C34.8621 227.636 33.9716 229.786 32.3865 231.371C30.8013 232.956 28.6514 233.847 26.4096 233.847Z" stroke="#212121" stroke-width="0.88" stroke-linecap="round" stroke-linejoin="round"/>
</g>
<g opacity="0.2">
<path d="M237.993 36.6072C240.188 38.9124 246.775 41.5543 246.775 41.5543C246.775 41.5543 247.192 36.673 247.177 36.3657C247.023 32.7505 244.594 25.8568 240.693 24.7883C240.039 24.6271 239.359 24.6055 238.696 24.7248C238.034 24.844 237.404 25.1016 236.847 25.4806C236.291 25.8597 235.82 26.3517 235.467 26.9247C235.113 27.4976 234.884 28.1386 234.795 28.806C234.319 31.6235 236.134 34.6386 237.993 36.6072Z" fill="#212121"/>
<path d="M303.534 66.2313C303.578 66.2899 306.579 62.3893 306.74 62.1258C308.599 59.0229 310.399 51.9389 307.713 48.8872C307.256 48.3926 306.701 47.9998 306.082 47.7343C305.463 47.4688 304.796 47.3365 304.123 47.3462C303.449 47.3559 302.786 47.5072 302.175 47.7904C301.564 48.0735 301.02 48.4822 300.578 48.9897C298.624 51.0754 298.478 54.5954 298.939 57.2592C299.48 60.3841 303.534 66.224 303.534 66.2313Z" fill="#212121"/>
<path d="M333.158 50.8483C329.616 48.8724 323.052 52.0705 320.403 54.5074C320.176 54.7196 316.978 58.4592 317.051 58.4885H317.124C316.085 58.9861 314.98 59.535 313.78 60.1497C311.584 61.3133 309.082 62.6525 306.462 64.2845C303.636 66.0145 300.914 67.9082 298.309 69.9561C295.388 72.2531 292.68 74.8077 290.215 77.589L290.128 77.6914C290.611 76.6083 291.869 73.5347 291.935 73.3005C292.916 69.8244 292.755 62.5208 289.381 60.2815C288.811 59.9245 288.172 59.6918 287.506 59.5984C286.84 59.505 286.161 59.5531 285.515 59.7395C284.869 59.926 284.269 60.2466 283.755 60.6804C283.241 61.1143 282.824 61.6516 282.531 62.2574C281.199 64.7895 281.982 68.2217 283.131 70.666C284.419 73.4249 289.454 77.7061 289.857 78.05C287.401 80.9189 285.142 83.9507 283.095 87.1245C281.887 88.9687 280.731 90.8568 279.597 92.7742C279.985 91.8228 280.329 90.9666 280.329 90.8422C281.309 87.3661 281.148 80.0625 277.774 77.8231C277.204 77.4662 276.565 77.2334 275.899 77.1401C275.233 77.0467 274.555 77.0948 273.908 77.2812C273.262 77.4677 272.662 77.7883 272.148 78.2221C271.634 78.6559 271.217 79.1933 270.925 79.7991C269.593 82.3311 270.376 85.7634 271.525 88.215C272.674 90.6665 276.904 94.4281 278.031 95.4014C277.606 96.1332 277.167 96.8651 276.743 97.5969C274.701 101.146 272.681 104.696 270.595 108.12C269.864 109.328 269.095 110.484 268.327 111.655C268.671 110.806 268.956 110.096 268.985 109.979C269.966 106.496 269.805 99.1922 266.431 96.9529C265.86 96.5973 265.221 96.3659 264.555 96.2736C263.889 96.1814 263.21 96.2304 262.564 96.4175C261.918 96.6045 261.319 96.9254 260.805 97.3594C260.291 97.7933 259.874 98.3305 259.581 98.9361C258.25 101.468 259.033 104.9 260.182 107.345C261.331 109.789 265.151 113.199 266.49 114.363C265.67 115.526 264.851 116.705 264.002 117.795C263.409 118.527 262.889 119.259 262.245 119.991L260.416 122.105C259.201 123.408 257.95 124.755 256.757 125.991C255.915 126.862 255.103 127.675 254.283 128.494C255.015 127.301 256.435 124.938 256.53 124.725C257.738 121.781 258.172 118.576 257.789 115.417C257.935 115.093 258.052 114.758 258.14 114.414C258.325 113.768 258.373 113.089 258.279 112.423C258.185 111.757 257.953 111.118 257.596 110.548C257.239 109.978 256.766 109.489 256.208 109.114C255.65 108.739 255.019 108.485 254.356 108.369C250.346 107.798 245.37 113.141 243.782 116.419C243.694 116.617 242.911 118.805 242.435 120.203C242.589 119.339 242.75 118.505 242.896 117.619C243.196 115.863 243.445 114.107 243.716 112.211C243.818 111.297 243.921 110.367 244.023 109.43C244.125 108.494 244.155 107.513 244.228 106.547C244.345 104.293 244.352 102.01 244.308 99.7045C245.845 99.9606 251.312 100.81 253.939 100.129C256.566 99.4484 259.706 97.875 260.804 95.2331C261.085 94.6217 261.234 93.9577 261.241 93.2847C261.249 92.6117 261.114 91.9447 260.846 91.3273C260.578 90.7099 260.183 90.1559 259.686 89.7016C259.19 89.2473 258.603 88.9028 257.964 88.6906C254.064 87.4831 248.333 92.0497 246.306 94.977C246.182 95.1599 244.938 97.4578 244.286 98.7385C244.25 97.3481 244.221 95.9722 244.14 94.5671C243.906 90.5275 243.54 86.4513 243.196 82.3751C243.086 81.1236 242.998 79.8795 242.903 78.6355C243.445 78.7379 249.929 79.8796 252.871 79.1185C255.483 78.4452 258.63 76.8645 259.735 74.2226C260.014 73.6108 260.161 72.9473 260.168 72.2749C260.174 71.6026 260.039 70.9365 259.771 70.3197C259.503 69.7029 259.109 69.1492 258.614 68.6945C258.118 68.2398 257.533 67.8942 256.896 67.6801C253.017 66.5092 247.287 71.0392 245.231 74.0104C245.07 74.2372 243.291 77.5451 242.881 78.4013C242.676 75.657 242.494 72.92 242.42 70.2196C242.303 66.5564 242.426 62.8895 242.786 59.2423C243.035 59.2862 249.79 60.5083 252.805 59.7326C255.425 59.0593 258.572 57.4786 259.669 54.8367C259.951 54.2253 260.1 53.5614 260.107 52.8884C260.114 52.2153 259.98 51.5484 259.712 50.9309C259.444 50.3135 259.049 49.7596 258.552 49.3052C258.055 48.8509 257.469 48.5064 256.83 48.2943C252.959 47.1161 247.228 51.6533 245.165 54.6245C245.033 54.8221 243.701 57.3396 243.057 58.5544L242.837 58.4885C243.293 54.8395 244.077 51.239 245.179 47.7308C245.757 45.7915 246.423 43.9692 247.111 42.2129C248.341 42.5715 254.005 44.1376 256.793 43.7351C259.581 43.3326 262.772 42.1251 264.155 39.6296C264.501 39.0521 264.721 38.4085 264.802 37.7404C264.883 37.0723 264.822 36.3947 264.624 35.7516C264.426 35.1085 264.095 34.5141 263.652 34.0072C263.21 33.5003 262.666 33.092 262.055 32.809C258.33 31.2136 252.139 35.0923 249.76 37.822C249.636 37.9683 248.487 39.6222 247.667 40.8371C247.989 40.0467 248.311 39.2271 248.633 38.4806C249.834 35.6631 251.114 33.1603 252.293 30.9502C252.959 29.6988 253.581 28.5864 254.173 27.5472C255.571 27.2618 261.177 26.0836 263.431 24.4443C265.685 22.8051 267.99 20.2656 268.063 17.4042C268.105 16.7326 268.005 16.0597 267.769 15.4294C267.534 14.7992 267.168 14.2257 266.695 13.7464C266.223 13.2671 265.655 12.8929 265.028 12.648C264.401 12.4032 263.73 12.2932 263.058 12.3254C259.018 12.6255 255.308 18.9118 254.459 22.4318C254.386 22.7392 253.778 27.6204 253.859 27.6058H253.939C253.346 28.5937 252.724 29.6622 252.066 30.8404C250.866 33.0359 249.526 35.5094 248.253 38.3123C246.858 41.3161 245.637 44.3972 244.594 47.5405C243.383 51.0697 242.487 54.699 241.915 58.3861C241.919 58.4299 241.919 58.4739 241.915 58.5178C241.718 57.3469 241.066 54.1269 240.993 53.8488C239.888 50.4019 235.724 44.3937 231.677 44.3937C231.004 44.4102 230.342 44.5685 229.735 44.8582C229.127 45.1479 228.587 45.5625 228.151 46.0749C227.714 46.5874 227.391 47.1862 227.202 47.8321C227.012 48.4781 226.961 49.1568 227.052 49.8238C227.338 52.6706 229.884 55.1002 232.175 56.5053C234.78 58.0933 241.337 58.891 241.857 58.9496C241.394 62.7001 241.184 66.4774 241.227 70.2561C241.227 72.4516 241.315 74.6471 241.425 76.8937C241.22 75.8838 241.037 74.9837 241.001 74.8666C239.896 71.4197 235.732 65.4188 231.685 65.4115C231.013 65.4282 230.353 65.5862 229.746 65.875C229.14 66.1638 228.601 66.577 228.164 67.0879C227.728 67.5987 227.404 68.1956 227.214 68.8398C227.024 69.484 226.971 70.1611 227.059 70.827C227.345 73.6737 229.892 76.1034 232.182 77.5085C234.473 78.9136 240.1 79.7039 241.579 79.9161C241.63 80.7651 241.674 81.6213 241.725 82.4702C241.981 86.5537 242.252 90.63 242.398 94.6403C242.457 96.0527 242.45 97.4432 242.457 98.8336C242.281 97.9408 242.12 97.1944 242.084 97.0773C240.979 93.6377 236.822 87.6295 232.768 87.6222C232.095 87.6396 231.433 87.7988 230.826 88.0893C230.218 88.3799 229.679 88.7954 229.243 89.3085C228.807 89.8217 228.485 90.4211 228.296 91.0674C228.108 91.7138 228.058 92.3926 228.15 93.0596C228.428 95.9064 230.982 98.336 233.273 99.7411C235.563 101.146 240.649 101.878 242.406 102.112C242.362 103.539 242.325 104.966 242.23 106.349C242.135 107.286 242.113 108.201 241.974 109.145C241.835 110.089 241.725 110.996 241.608 111.919C241.308 113.668 241.015 115.483 240.686 117.188C240.459 118.373 240.225 119.5 239.998 120.642C239.961 119.229 239.83 116.485 239.793 116.251C239.222 112.68 236.024 106.115 232.021 105.501C231.354 105.416 230.676 105.473 230.032 105.668C229.388 105.863 228.792 106.192 228.283 106.632C227.774 107.072 227.364 107.615 227.079 108.225C226.794 108.834 226.64 109.497 226.628 110.17C226.481 113.024 228.626 115.812 230.697 117.554C232.973 119.464 239.076 121.213 239.837 121.418C239.449 123.298 239.054 125.121 238.651 126.833C237.283 132.724 235.922 137.591 234.912 140.994L237.437 142.069L237.503 141.843C238.447 138.366 239.698 133.39 240.993 127.353C241.396 125.45 241.791 123.401 242.179 121.3C244.218 121.343 246.259 121.267 248.29 121.074C249.321 123.95 253.178 128.45 253.676 129.028C252.315 130.375 250.975 131.678 249.695 132.892C245.304 137.049 241.484 140.35 238.769 142.64L241.535 143.819C244.14 141.506 247.536 138.403 251.363 134.612C252.754 133.244 254.21 131.758 255.688 130.221C256.332 130.668 261.543 134.276 264.47 134.81C267.127 135.3 270.647 135.176 272.754 133.244C273.266 132.806 273.679 132.265 273.967 131.656C274.255 131.048 274.412 130.385 274.427 129.712C274.443 129.039 274.316 128.37 274.055 127.749C273.795 127.128 273.406 126.569 272.915 126.108C269.893 123.423 262.787 125.135 259.669 126.972C259.486 127.075 257.628 128.436 256.464 129.38C257.064 128.743 257.657 128.136 258.272 127.477C259.486 126.182 260.665 124.85 261.931 123.423L263.716 121.271C264.331 120.539 264.887 119.742 265.48 118.973C266.819 117.158 268.093 115.256 269.329 113.316C270.464 114.377 274.562 118.102 277.123 118.988C279.685 119.873 283.175 120.283 285.554 118.688C286.125 118.332 286.614 117.86 286.991 117.302C287.368 116.744 287.622 116.114 287.739 115.451C287.856 114.788 287.832 114.108 287.668 113.456C287.505 112.803 287.206 112.192 286.79 111.662C284.207 108.545 276.933 109.167 273.574 110.506C273.362 110.587 271.056 111.823 269.812 112.526C270.544 111.355 271.276 110.184 272.008 108.969C274.042 105.471 275.989 101.863 277.95 98.2775C278.55 97.1797 279.155 96.0869 279.765 94.9989C280.168 95.3795 284.939 99.9094 287.815 100.905C290.362 101.783 293.86 102.2 296.238 100.605C296.81 100.249 297.3 99.7776 297.677 99.2202C298.055 98.6628 298.31 98.0322 298.428 97.3695C298.545 96.7067 298.522 96.0267 298.359 95.3737C298.196 94.7206 297.897 94.1092 297.482 93.5792C294.892 90.4616 287.617 91.0837 284.258 92.4229C284.002 92.5254 280.694 94.3037 279.867 94.8013C281.207 92.3936 282.561 90.0152 283.995 87.7173C285.916 84.6082 288.035 81.626 290.34 78.7891C290.523 78.9721 295.463 83.7216 298.426 84.7388C300.98 85.617 304.479 86.0341 306.85 84.4388C307.421 84.0835 307.912 83.6117 308.289 83.0543C308.666 82.4969 308.922 81.8663 309.039 81.2036C309.156 80.5409 309.133 79.8608 308.97 79.2078C308.807 78.5548 308.509 77.9433 308.094 77.4133C305.51 74.2958 298.229 74.9178 294.87 76.257C294.65 76.3449 292.125 77.7207 290.94 78.372L290.794 78.189C293.191 75.4017 295.831 72.8327 298.683 70.5123C300.241 69.217 301.8 68.0607 303.337 66.9776C304.171 67.9509 308.028 72.3857 310.575 73.564C313.121 74.7422 316.429 75.5179 318.983 74.1933C319.59 73.9026 320.128 73.4875 320.563 72.9751C320.999 72.4627 321.322 71.8643 321.511 71.219C321.7 70.5737 321.751 69.8957 321.661 69.2293C321.571 68.5629 321.342 67.9229 320.988 67.3508C318.793 63.9625 311.475 63.7796 307.977 64.7456C307.786 64.7968 305.913 65.5506 304.566 66.1067C305.298 65.6311 305.986 65.1188 306.667 64.6431C309.228 62.9599 311.672 61.5768 313.846 60.3693C315.09 59.696 316.232 59.1032 317.3 58.569C318.617 59.1032 323.96 61.1889 326.726 61.0865C329.492 60.984 332.836 60.1132 334.476 57.7713C334.871 57.2398 335.152 56.632 335.3 55.9864C335.448 55.3407 335.461 54.6714 335.337 54.0206C335.213 53.3699 334.956 52.7519 334.581 52.2059C334.206 51.6598 333.721 51.1976 333.158 50.8483Z" fill="#212121"/>
</g>
<g opacity="0.2">
<path d="M121.114 38.0197C118.919 40.3323 112.332 42.9668 112.332 42.9741C112.332 42.9815 111.915 38.0929 111.93 37.7782C112.084 34.1631 114.513 27.2766 118.421 26.2009C119.072 26.0467 119.748 26.0304 120.405 26.1531C121.062 26.2757 121.687 26.5345 122.238 26.9129C122.79 27.2913 123.256 27.7809 123.607 28.3502C123.958 28.9195 124.185 29.5559 124.276 30.2186C124.781 33.0361 122.966 36.0585 121.114 38.0197Z" fill="#212121"/>
<path d="M55.5653 67.6435C55.5653 67.7094 52.5283 63.8088 52.3673 63.538C50.5011 60.4351 48.7155 53.3511 51.394 50.336C51.8506 49.8427 52.4059 49.4508 53.0239 49.1861C53.6418 48.9213 54.3085 48.7894 54.9807 48.7991C55.653 48.8087 56.3156 48.9597 56.9257 49.2421C57.5358 49.5246 58.0796 49.9322 58.5219 50.4385C60.4758 52.5315 60.6295 56.0442 60.1685 58.708C59.6269 61.7963 55.5726 67.6435 55.5653 67.6435Z" fill="#212121"/>
<path d="M25.9486 52.2609C29.4833 50.2849 36.0477 53.483 38.6969 55.9199C38.9237 56.1322 42.1218 59.8718 42.0559 59.901H41.9754C43.0146 60.3914 44.1269 60.9402 45.3271 61.5623C47.5226 62.7259 50.0181 64.0578 52.6453 65.6897C55.4707 67.4238 58.195 69.3174 60.8051 71.3613C63.7263 73.6659 66.4396 76.2224 68.9136 79.0015L68.9941 79.1113C68.5111 78.0282 67.2597 74.9472 67.1865 74.7204C66.2132 71.2369 66.3669 63.9334 69.7406 61.694C70.3118 61.3372 70.9517 61.1047 71.6188 61.0118C72.2858 60.9189 72.965 60.9676 73.6119 61.1547C74.2589 61.3418 74.8592 61.6632 75.3736 62.0978C75.8881 62.5324 76.3052 63.0706 76.5977 63.6772C77.9296 66.202 77.1466 69.6415 75.9976 72.0858C74.7023 74.8448 69.6674 79.1259 69.2649 79.4625C71.721 82.3357 73.9825 85.3698 76.0342 88.5444C77.2344 90.3813 78.3907 92.2767 79.5323 94.1867C79.1371 93.2354 78.8005 92.3864 78.8005 92.262C77.8272 88.7786 77.9808 81.475 81.3545 79.2357C81.9257 78.8789 82.5657 78.6464 83.2327 78.5535C83.8998 78.4606 84.5789 78.5093 85.2259 78.6964C85.8728 78.8835 86.4731 79.2048 86.9876 79.6395C87.502 80.0741 87.9191 80.6123 88.2117 81.2189C89.5436 83.751 88.7605 87.1832 87.6116 89.6275C86.4626 92.0718 82.2254 95.848 81.0984 96.8213C81.5302 97.5531 81.9619 98.2849 82.3864 99.0167C84.4282 102.566 86.448 106.115 88.5337 109.533C89.2655 110.74 90.0412 111.904 90.8023 113.068C90.4583 112.226 90.1803 111.509 90.1437 111.399C89.1703 107.916 89.324 100.612 92.6977 98.3727C93.2689 98.0159 93.9089 97.7835 94.5759 97.6905C95.243 97.5976 95.9221 97.6463 96.5691 97.8334C97.216 98.0205 97.8163 98.3419 98.3307 98.7765C98.8452 99.2112 99.2623 99.7493 99.5548 100.356C100.887 102.881 100.104 106.32 98.9548 108.765C97.8058 111.209 93.9784 114.619 92.6465 115.775C93.4661 116.946 94.2858 118.117 95.1273 119.215C95.7274 119.947 96.247 120.679 96.8837 121.41L98.7206 123.518C99.9354 124.821 101.179 126.167 102.38 127.411C103.221 128.275 104.041 129.087 104.861 129.907C104.129 128.714 102.702 126.35 102.607 126.138C101.397 123.194 100.966 119.988 101.355 116.829C101.206 116.509 101.086 116.176 100.997 115.834C100.812 115.187 100.766 114.508 100.861 113.842C100.957 113.176 101.191 112.538 101.549 111.968C101.907 111.399 102.382 110.911 102.941 110.537C103.5 110.163 104.132 109.91 104.795 109.796C108.805 109.218 113.781 114.568 115.369 117.846C115.465 118.037 116.248 120.232 116.716 121.623C116.562 120.759 116.409 119.932 116.262 119.039C115.962 117.29 115.713 115.527 115.435 113.638C115.34 112.716 115.238 111.794 115.135 110.858C115.033 109.921 115.004 108.933 114.93 107.93C114.813 105.676 114.806 103.393 114.843 101.088C113.306 101.351 107.839 102.193 105.212 101.52C102.585 100.846 99.4524 99.2582 98.3474 96.6237C98.0672 96.0115 97.9189 95.3473 97.9121 94.6741C97.9053 94.001 98.0402 93.3339 98.3079 92.7162C98.5757 92.0986 98.9704 91.5441 99.4664 91.0889C99.9623 90.6337 100.548 90.2879 101.187 90.0739C105.065 88.903 110.796 93.433 112.852 96.4041C112.984 96.5944 114.22 98.8923 114.879 100.166C114.916 98.7825 114.938 97.3994 115.025 96.0016C115.26 91.962 115.618 87.8785 115.97 83.8022C116.072 82.5581 116.16 81.314 116.262 80.0626C115.713 80.1651 109.237 81.3067 106.295 80.553C103.675 79.8797 100.528 78.2916 99.4304 75.6571C99.1491 75.0456 99 74.3817 98.9927 73.7087C98.9853 73.0357 99.1201 72.3687 99.388 71.7513C99.656 71.1339 100.051 70.5799 100.548 70.1256C101.044 69.6713 101.631 69.3268 102.27 69.1146C106.141 67.9364 111.871 72.4664 113.935 75.4375C114.089 75.6644 115.867 78.9722 116.277 79.8285C116.489 77.0915 116.672 74.3545 116.745 71.6467C116.861 67.9958 116.738 64.3412 116.379 60.706C116.123 60.75 109.369 61.9794 106.353 61.2037C103.741 60.5304 100.594 58.9424 99.489 56.3078C99.2026 55.6939 99.0493 55.0263 99.0394 54.3489C99.0294 53.6715 99.1629 52.9997 99.4311 52.3776C99.6992 51.7555 100.096 51.1972 100.595 50.7394C101.095 50.2816 101.685 49.9347 102.328 49.7215C106.207 48.5505 111.937 53.0805 113.994 56.0517C114.133 56.2493 115.457 58.774 116.109 59.9815L116.328 59.9157C115.866 56.2672 115.08 52.6671 113.979 49.1579C113.401 47.2186 112.735 45.3964 112.054 43.64C110.818 43.9986 105.153 45.5647 102.365 45.1695C99.6939 44.789 96.3934 43.5595 95.0029 41.0567C94.6577 40.4794 94.4379 39.8359 94.3577 39.168C94.2776 38.5001 94.3389 37.8228 94.5377 37.1802C94.7365 36.5376 95.0683 35.944 95.5116 35.438C95.9549 34.9321 96.4997 34.5251 97.1106 34.2435C100.836 32.6481 107.027 36.5194 109.398 39.2491C109.53 39.3955 110.671 41.0494 111.491 42.2642C111.169 41.4812 110.854 40.6615 110.532 39.9078C109.325 37.0976 108.044 34.5875 106.873 32.3847C106.214 31.1333 105.585 30.0136 104.992 28.9744C103.594 28.689 97.9888 27.5108 95.7421 25.8788C93.4954 24.2469 91.1609 21.7367 91.1023 18.868C91.0617 18.1963 91.1627 17.5236 91.3987 16.8935C91.6348 16.2634 92.0007 15.69 92.4727 15.2104C92.9447 14.7308 93.5122 14.3558 94.1385 14.1097C94.7648 13.8636 95.4358 13.7519 96.108 13.7819C100.148 14.0819 103.858 20.3682 104.707 23.8956C104.78 24.1956 105.387 29.0842 105.314 29.0695H105.226C105.819 30.0575 106.449 31.1259 107.107 32.3042C108.307 34.4996 109.639 36.9805 110.913 39.776C112.315 42.7791 113.537 45.8631 114.572 49.0116C115.762 52.5269 116.634 56.142 117.177 59.8132C117.177 59.8571 117.177 59.901 117.177 59.9449C117.367 58.774 118.019 55.5174 118.099 55.2759C119.233 51.7998 123.361 45.8209 127.444 45.8135C128.117 45.8322 128.779 45.9921 129.386 46.283C129.993 46.5739 130.532 46.9892 130.968 47.502C131.404 48.0147 131.728 48.6135 131.918 49.2593C132.107 49.9052 132.159 50.5838 132.07 51.2509C131.784 54.0904 129.23 56.5274 126.947 57.9324C124.349 59.5132 117.792 60.3109 117.265 60.3694C117.73 64.1197 117.943 67.8971 117.902 71.676C117.902 73.8715 117.806 76.0669 117.704 78.3136C117.902 77.311 118.092 76.4109 118.128 76.2865C119.233 72.8396 123.39 66.8387 127.444 66.8314C128.117 66.85 128.779 67.01 129.386 67.3008C129.993 67.5917 130.532 68.007 130.968 68.5198C131.404 69.0325 131.728 69.6313 131.918 70.2772C132.107 70.923 132.159 71.6016 132.07 72.2688C131.784 75.1082 129.23 77.5452 126.947 78.9503C124.664 80.3554 119.029 81.1457 117.55 81.3579C117.499 82.2069 117.462 83.0558 117.404 83.912C117.148 87.9955 116.877 92.0718 116.731 96.0748C116.679 97.4872 116.679 98.8777 116.672 100.275C116.855 99.3826 117.009 98.6289 117.045 98.5191C118.15 95.0722 122.314 89.064 126.361 89.064C127.034 89.0805 127.696 89.2388 128.304 89.5285C128.911 89.8182 129.451 90.2328 129.888 90.7452C130.324 91.2577 130.648 91.8565 130.837 92.5025C131.026 93.1484 131.077 93.8271 130.986 94.4941C130.701 97.3409 128.154 99.7705 125.864 101.176C123.573 102.581 118.487 103.312 116.731 103.547C116.731 104.974 116.804 106.401 116.906 107.784C116.994 108.728 117.016 109.635 117.162 110.579C117.309 111.523 117.404 112.438 117.528 113.353C117.821 115.109 118.114 116.917 118.45 118.622C118.67 119.815 118.904 120.942 119.138 122.076C119.138 120.671 119.299 117.92 119.336 117.685C119.907 114.114 123.112 107.55 127.115 106.928C127.782 106.843 128.46 106.9 129.104 107.095C129.747 107.29 130.343 107.619 130.851 108.059C131.359 108.5 131.769 109.043 132.053 109.652C132.337 110.262 132.49 110.924 132.501 111.597C132.655 114.451 130.503 117.239 128.44 118.981C126.164 120.898 120.053 122.64 119.292 122.845C119.68 124.725 120.082 126.548 120.485 128.26C121.853 134.159 123.215 139.018 124.224 142.428L121.692 143.504C121.692 143.423 121.692 143.35 121.634 143.27C120.69 139.801 119.402 134.817 118.136 128.78C117.733 126.877 117.338 124.828 116.957 122.728C114.915 122.774 112.872 122.698 110.839 122.501C109.815 125.377 105.958 129.877 105.453 130.456C106.814 131.809 108.154 133.112 109.434 134.32C113.825 138.476 117.645 141.784 120.368 144.067L117.506 145.253C114.908 142.948 111.513 139.838 107.678 136.054C106.295 134.686 104.831 133.193 103.353 131.663C102.716 132.102 97.4984 135.717 94.5712 136.252C91.9073 136.735 88.3873 136.61 86.287 134.678C85.7754 134.241 85.3617 133.701 85.0728 133.094C84.784 132.486 84.6265 131.824 84.6106 131.152C84.5947 130.479 84.7208 129.811 84.9807 129.19C85.2405 128.57 85.6283 128.011 86.1187 127.55C89.1484 124.857 96.247 126.57 99.3646 128.407C99.5475 128.516 101.414 129.914 102.57 130.814C101.97 130.178 101.377 129.57 100.77 128.911C99.5475 127.616 98.3693 126.284 97.1106 124.857L95.3249 122.706C94.7102 121.974 94.154 121.176 93.5613 120.408C92.222 118.6 90.956 116.697 89.7192 114.751C88.5776 115.819 84.4867 119.537 81.918 120.422C79.3493 121.308 75.8659 121.718 73.4948 120.122C72.9234 119.768 72.4331 119.297 72.056 118.74C71.6788 118.183 71.4232 117.553 71.3058 116.891C71.1884 116.229 71.2119 115.549 71.3747 114.897C71.5375 114.244 71.836 113.634 72.2507 113.104C74.834 109.979 82.1156 110.601 85.4747 111.941C85.6796 112.028 87.9848 113.265 89.2362 113.968C88.5044 112.79 87.7726 111.619 87.0408 110.411C85.0136 106.913 83.0597 103.305 81.1057 99.7193C80.5056 98.6142 79.8909 97.5238 79.2835 96.4334C78.8883 96.8213 74.1095 101.344 71.2335 102.339C68.6794 103.225 65.1814 103.634 62.8029 102.046C62.2319 101.691 61.7422 101.218 61.3657 100.661C60.9891 100.103 60.7343 99.4723 60.6176 98.8096C60.5009 98.1469 60.5251 97.467 60.6885 96.8143C60.852 96.1616 61.151 95.5505 61.5662 95.021C64.1495 91.8961 71.4311 92.5182 74.7828 93.8647C75.0389 93.9599 78.3468 95.7455 79.1737 96.2358C77.8345 93.8355 76.4806 91.4497 75.0463 89.1591C73.1336 86.0461 71.0164 83.0635 68.7087 80.2309C68.5184 80.4066 63.586 85.1561 60.6587 86.1733C58.1047 87.0515 54.6066 87.4686 52.2282 85.8733C51.6584 85.5203 51.1691 85.0516 50.7919 84.4975C50.4148 83.9435 50.1583 83.3163 50.0389 82.6568C49.9196 81.9973 49.9401 81.32 50.0991 80.6689C50.2581 80.0178 50.5522 79.4073 50.9621 78.8771C53.5454 75.7522 60.8197 76.3743 64.1788 77.7135C64.3983 77.8013 66.9231 79.1771 68.1086 79.8285L68.255 79.6528C65.8596 76.8614 63.2194 74.2898 60.366 71.9687C58.8145 70.6734 57.2558 69.5245 55.7116 68.434C54.8773 69.4147 51.0207 73.8422 48.4739 75.0204C46.037 76.184 42.6194 76.9744 40.0727 75.6571C39.4646 75.3672 38.9245 74.9523 38.4876 74.4396C38.0506 73.9269 37.7267 73.3279 37.5368 72.6816C37.3469 72.0353 37.2953 71.3562 37.3855 70.6886C37.4757 70.0211 37.7056 69.38 38.0602 68.8073C40.2922 65.4263 47.5738 65.2433 51.0792 66.2093C51.2695 66.2605 53.1356 67.007 54.4895 67.5705C53.7577 67.0875 53.0698 66.5825 52.3892 66.1069C49.8278 64.4237 47.3835 63.0405 45.2027 61.8257C43.9586 61.1817 42.8609 60.5816 41.7485 60.0547C40.4313 60.5889 35.089 62.6746 32.3227 62.5795C29.5564 62.4844 26.212 61.6062 24.5654 59.2644C24.1616 58.7257 23.8756 58.1082 23.7259 57.4518C23.5763 56.7954 23.5664 56.1149 23.6968 55.4545C23.8272 54.794 24.0951 54.1684 24.483 53.6182C24.871 53.068 25.3703 52.6055 25.9486 52.2609Z" fill="#212121"/>
</g>
<path d="M257.006 83.5166H103.294C100.837 83.5166 98.845 85.5087 98.845 87.9661V319.835C98.845 322.293 100.837 324.285 103.294 324.285H257.006C259.463 324.285 261.455 322.293 261.455 319.835V87.9661C261.455 85.5087 259.463 83.5166 257.006 83.5166Z" fill="#212121" stroke="#212121" stroke-width="0.88" stroke-linecap="round" stroke-linejoin="round"/>
<path d="M253.185 88.9468H107.107V315.013H253.185V88.9468Z" fill="white" stroke="#212121" stroke-width="0.88" stroke-linecap="round" stroke-linejoin="round"/>
<path d="M192.445 64.5479C192.117 64.5479 191.802 64.4176 191.57 64.1857C191.338 63.9537 191.208 63.6392 191.208 63.3112V56.3223C191.208 55.9747 191.139 55.6306 191.006 55.3096C190.873 54.9886 190.677 54.697 190.431 54.4516C190.185 54.2062 189.893 54.0118 189.572 53.8794C189.25 53.7471 188.906 53.6795 188.559 53.6804H177.296C176.949 53.6795 176.605 53.7471 176.284 53.8796C175.963 54.012 175.671 54.2066 175.426 54.4521C175.18 54.6976 174.986 54.9892 174.853 55.3102C174.721 55.6311 174.653 55.9751 174.654 56.3223V63.3112C174.654 63.4742 174.622 63.6356 174.559 63.7861C174.497 63.9367 174.405 64.0733 174.289 64.1883C174.174 64.3032 174.036 64.3942 173.885 64.4559C173.735 64.5176 173.573 64.5489 173.41 64.5479C173.247 64.5479 173.085 64.5802 172.935 64.6428C172.784 64.7054 172.648 64.7971 172.533 64.9128C172.418 65.0284 172.327 65.1656 172.265 65.3165C172.203 65.4674 172.172 65.629 172.173 65.792V84.7315H193.689V65.792C193.689 65.6286 193.656 65.4669 193.594 65.3159C193.531 65.165 193.44 65.0278 193.324 64.9123C193.209 64.7968 193.072 64.7052 192.921 64.6426C192.77 64.5801 192.608 64.5479 192.445 64.5479ZM182.931 63.8966C182.245 63.8966 181.574 63.6932 181.004 63.312C180.433 62.9309 179.989 62.3891 179.726 61.7553C179.464 61.1214 179.395 60.4239 179.529 59.7511C179.663 59.0782 179.993 58.4601 180.478 57.975C180.963 57.4898 181.581 57.1595 182.254 57.0256C182.927 56.8918 183.625 56.9605 184.258 57.223C184.892 57.4856 185.434 57.9302 185.815 58.5006C186.196 59.0711 186.4 59.7417 186.4 60.4278C186.398 61.3472 186.032 62.2284 185.382 62.8785C184.731 63.5286 183.85 63.8947 182.931 63.8966Z" fill="#212121" stroke="#212121" stroke-width="0.88" stroke-linecap="round" stroke-linejoin="round"/>
<path d="M155.656 78.7086H210.198C211.877 78.7086 213.487 79.3756 214.675 80.5627C215.862 81.7499 216.529 83.36 216.529 85.0388V90.6299H149.326V85.0388C149.326 83.36 149.993 81.7499 151.18 80.5627C152.367 79.3756 153.977 78.7086 155.656 78.7086Z" fill="white" stroke="#212121" stroke-width="0.88" stroke-linecap="round" stroke-linejoin="round"/>
<path d="M150.994 80.7723H214.838C214.246 80.1224 213.525 79.6031 212.721 79.2477C211.917 78.8924 211.048 78.7087 210.169 78.7086H155.656C154.778 78.7089 153.91 78.8926 153.107 79.248C152.304 79.6034 151.585 80.1226 150.994 80.7723Z" fill="#212121" stroke="#212121" stroke-width="0.88" stroke-linecap="round" stroke-linejoin="round"/>
<path d="M216.529 90.5714H149.326V94.4866H216.529V90.5714Z" fill="white" stroke="#212121" stroke-width="0.88" stroke-linecap="round" stroke-linejoin="round"/>
<path d="M200.546 147.595H211.889" stroke="#212121" stroke-width="0.88" stroke-miterlimit="10"/>
<path d="M121.875 147.595H191.764" stroke="#212121" stroke-width="0.88" stroke-miterlimit="10"/>
<path d="M183.714 156.377H211.889" stroke="#212121" stroke-width="0.88" stroke-miterlimit="10"/>
<path d="M140.537 156.377H176.03" stroke="#212121" stroke-width="0.88" stroke-miterlimit="10"/>
<path d="M121.875 156.377H133.95" stroke="#212121" stroke-width="0.88" stroke-miterlimit="10"/>
<path d="M157.003 165.158H211.889" stroke="#212121" stroke-width="0.88" stroke-miterlimit="10"/>
<path d="M121.875 165.158H144.928" stroke="#212121" stroke-width="0.88" stroke-miterlimit="10"/>
<path d="M237.868 165.158C243.123 165.158 247.382 160.899 247.382 155.645C247.382 150.391 243.123 146.131 237.868 146.131C232.614 146.131 228.355 150.391 228.355 155.645C228.355 160.899 232.614 165.158 237.868 165.158Z" stroke="#212121" stroke-width="0.88" stroke-miterlimit="10"/>
<path d="M133.218 186.747H121.875" stroke="#212121" stroke-width="0.88" stroke-miterlimit="10"/>
<path d="M211.889 186.747H142" stroke="#212121" stroke-width="0.88" stroke-miterlimit="10"/>
<path d="M150.05 195.529H121.875" stroke="#212121" stroke-width="0.88" stroke-miterlimit="10"/>
<path d="M193.228 195.529H157.734" stroke="#212121" stroke-width="0.88" stroke-miterlimit="10"/>
<path d="M211.889 195.529H199.814" stroke="#212121" stroke-width="0.88" stroke-miterlimit="10"/>
<path d="M176.762 204.311H121.875" stroke="#212121" stroke-width="0.88" stroke-miterlimit="10"/>
<path d="M211.889 204.311H188.837" stroke="#212121" stroke-width="0.88" stroke-miterlimit="10"/>
<path d="M237.868 204.311C243.123 204.311 247.382 200.051 247.382 194.797C247.382 189.543 243.123 185.283 237.868 185.283C232.614 185.283 228.355 189.543 228.355 194.797C228.355 200.051 232.614 204.311 237.868 204.311Z" stroke="#212121" stroke-width="0.88" stroke-miterlimit="10"/>
<path d="M200.546 225.899H211.889" stroke="#212121" stroke-width="0.88" stroke-miterlimit="10"/>
<path d="M121.875 225.899H191.764" stroke="#212121" stroke-width="0.88" stroke-miterlimit="10"/>
<path d="M183.714 234.681H211.889" stroke="#212121" stroke-width="0.88" stroke-miterlimit="10"/>
<path d="M140.537 234.681H176.03" stroke="#212121" stroke-width="0.88" stroke-miterlimit="10"/>
<path d="M121.875 234.681H133.95" stroke="#212121" stroke-width="0.88" stroke-miterlimit="10"/>
<path d="M157.003 243.463H211.889" stroke="#212121" stroke-width="0.88" stroke-miterlimit="10"/>
<path d="M121.875 243.463H144.928" stroke="#212121" stroke-width="0.88" stroke-miterlimit="10"/>
<path d="M237.868 243.463C243.123 243.463 247.382 239.204 247.382 233.949C247.382 228.695 243.123 224.436 237.868 224.436C232.614 224.436 228.355 228.695 228.355 233.949C228.355 239.204 232.614 243.463 237.868 243.463Z" stroke="#212121" stroke-width="0.88" stroke-miterlimit="10"/>
<path d="M234.246 193.216L236.829 197.812L246.599 188.335" stroke="#B75400" stroke-width="5.28" stroke-miterlimit="10" stroke-linecap="round"/>
<path d="M234.246 153.647L236.829 158.25L246.599 148.766" stroke="#B75400" stroke-width="5.28" stroke-miterlimit="10" stroke-linecap="round"/>
<path d="M232.877 230.546L235.461 235.15L245.231 225.665" stroke="#B75400" stroke-width="5.28" stroke-miterlimit="10" stroke-linecap="round"/>
<path d="M319.334 296.637C326.921 296.637 333.071 290.487 333.071 282.9C333.071 275.314 326.921 269.164 319.334 269.164C311.748 269.164 305.598 275.314 305.598 282.9C305.598 290.487 311.748 296.637 319.334 296.637Z" fill="#B75400"/>
<path d="M314.995 280.332H310.597C310.209 280.332 309.894 280.646 309.894 281.034V289.494C309.894 289.882 310.209 290.197 310.597 290.197H314.995C315.383 290.197 315.697 289.882 315.697 289.494V281.034C315.697 280.646 315.383 280.332 314.995 280.332Z" fill="white"/>
<path d="M327.633 281.759C329.097 279.563 327.084 278.949 327.084 278.949H321.786L321.874 278.488C321.874 278.488 322.335 274.887 321.735 273.782C321.135 272.677 318.969 272.216 318.881 272.633C318.793 273.05 318.925 274.887 318.742 275.904C318.195 277.568 317.517 279.185 316.715 280.742C316.629 280.871 316.52 280.983 316.393 281.071V289.275C316.752 289.497 317.17 289.607 317.593 289.589H325.284C325.513 289.523 325.726 289.412 325.911 289.262C326.096 289.112 326.249 288.927 326.361 288.716C326.473 288.506 326.542 288.276 326.563 288.038C326.584 287.801 326.557 287.562 326.484 287.335C326.927 287.078 327.268 286.677 327.452 286.199C327.635 285.722 327.65 285.196 327.494 284.708C329.338 283.142 327.633 281.759 327.633 281.759Z" fill="white"/>
<path d="M36.9458 126.638C49.2175 124.646 57.5509 113.083 55.5589 100.811C53.5669 88.5395 42.0039 80.2062 29.7322 82.1981C17.4605 84.1901 9.12713 95.7531 11.1191 108.025C13.1111 120.297 24.6741 128.63 36.9458 126.638Z" fill="#B75400"/>
<path d="M26.2267 100.202H19.0109C18.3764 100.202 17.862 100.716 17.862 101.351V115.212C17.862 115.846 18.3764 116.361 19.0109 116.361H26.2267C26.8612 116.361 27.3756 115.846 27.3756 115.212V101.351C27.3756 100.716 26.8612 100.202 26.2267 100.202Z" fill="white"/>
<path d="M46.9371 102.544C49.3521 98.9946 46.0297 97.9335 46.0297 97.9335H37.343L37.4967 97.2017C37.4967 97.2017 38.2285 91.3471 37.2698 89.4956C36.3111 87.6441 32.7399 86.927 32.6154 87.5856C32.491 88.2442 32.6959 91.2886 32.3886 92.9498C32.0812 94.6111 29.4613 100.202 29.0661 100.883C28.9232 101.088 28.7477 101.268 28.5465 101.417V114.86C29.1304 115.227 29.8116 115.408 30.5005 115.38H43.0878C43.463 115.271 43.8126 115.087 44.1158 114.841C44.419 114.594 44.6698 114.289 44.8532 113.944C45.0367 113.599 45.1492 113.22 45.1841 112.831C45.219 112.442 45.1756 112.049 45.0564 111.677C47.6982 109.789 46.7176 107.374 46.7176 107.374C49.7327 104.805 46.9371 102.544 46.9371 102.544Z" fill="white"/>
<path d="M204.702 51.4411C212.289 51.4411 218.439 45.2912 218.439 37.7049C218.439 30.1185 212.289 23.9686 204.702 23.9686C197.116 23.9686 190.966 30.1185 190.966 37.7049C190.966 45.2912 197.116 51.4411 204.702 51.4411Z" fill="#B75400"/>
<path d="M200.363 35.1289H195.965C195.577 35.1289 195.262 35.4434 195.262 35.8315V44.2913C195.262 44.6793 195.577 44.9938 195.965 44.9938H200.363C200.751 44.9938 201.065 44.6793 201.065 44.2913V35.8315C201.065 35.4434 200.751 35.1289 200.363 35.1289Z" fill="white"/>
<path d="M213.001 36.556C214.465 34.3605 212.452 33.7458 212.452 33.7458H207.154L207.242 33.2848C207.242 33.2848 207.703 29.6915 207.103 28.5865C206.503 27.4815 204.344 27.0204 204.249 27.4375C204.154 27.8547 204.293 29.6915 204.11 30.7088C203.56 32.3712 202.882 33.9885 202.082 35.5461C201.995 35.6739 201.886 35.7854 201.76 35.8754V44.0718C202.119 44.2986 202.537 44.4109 202.961 44.3938H210.652C210.881 44.327 211.095 44.215 211.28 44.0643C211.465 43.9136 211.618 43.7274 211.73 43.5166C211.842 43.3058 211.91 43.0747 211.931 42.8369C211.952 42.5992 211.925 42.3596 211.852 42.1325C212.295 41.8751 212.636 41.4744 212.82 40.9966C213.003 40.5188 213.018 39.9927 212.862 39.5052C214.706 37.9391 213.001 36.556 213.001 36.556Z" fill="white"/>
<path d="M137.251 288.067L129.808 333.199L141.217 320.304L153.614 333.696L149.15 287.072L137.251 288.067Z" fill="#B75400" stroke="#212121" stroke-width="0.88" stroke-miterlimit="10"/>
<path d="M143.713 288.448L145.608 334.15L154.156 319.206L169.019 329.796L155.173 285.052L143.713 288.448Z" fill="#B75400" stroke="#212121" stroke-width="0.88" stroke-miterlimit="10"/>
<path d="M171.5 278.663C171.5 277.346 174.317 275.839 174.134 274.573C173.952 273.307 170.819 272.619 170.475 271.389C170.131 270.16 172.385 267.891 171.844 266.72C171.302 265.549 168.119 265.791 167.453 264.7C166.787 263.61 168.302 260.814 167.453 259.841C166.604 258.868 163.618 260.002 162.638 259.153C161.657 258.304 162.367 255.187 161.276 254.477C160.186 253.767 157.617 255.714 156.461 255.172C155.305 254.631 155.085 251.447 153.834 251.074C152.582 250.701 150.709 253.269 149.443 253.108C148.177 252.947 147.086 249.918 145.784 249.918C144.481 249.918 143.376 252.925 142.125 253.108C140.873 253.291 138.941 250.715 137.734 251.074C136.526 251.432 136.27 254.638 135.107 255.172C133.943 255.706 131.382 253.782 130.291 254.477C129.201 255.172 129.911 258.304 128.93 259.153C127.949 260.002 124.964 258.86 124.107 259.841C123.251 260.822 124.839 263.61 124.107 264.708C123.376 265.805 120.214 265.535 119.673 266.72C119.131 267.906 121.414 270.13 121.048 271.389C120.682 272.648 117.558 273.27 117.389 274.573C117.221 275.875 120.024 277.346 120.024 278.663C120.024 279.981 117.206 281.481 117.389 282.754C117.572 284.028 120.704 284.708 121.048 285.938C121.392 287.167 119.138 289.436 119.673 290.607C120.207 291.778 123.405 291.536 124.107 292.619C124.81 293.702 123.251 296.505 124.107 297.486C124.964 298.466 127.942 297.325 128.923 298.174C129.903 299.023 129.194 302.14 130.284 302.843C131.374 303.545 133.943 301.613 135.099 302.155C136.256 302.696 136.475 305.88 137.727 306.246C138.978 306.612 140.851 304.05 142.117 304.219C143.383 304.387 144.481 307.409 145.777 307.409C147.072 307.409 148.184 304.401 149.436 304.219C150.687 304.036 152.626 306.612 153.827 306.246C155.027 305.88 155.29 302.689 156.454 302.155C157.617 301.621 160.179 303.545 161.269 302.843C162.36 302.14 161.65 299.023 162.63 298.174C163.611 297.325 166.597 298.466 167.446 297.486C168.295 296.505 166.714 293.717 167.446 292.619C168.177 291.521 171.332 291.792 171.88 290.607C172.429 289.421 170.131 287.196 170.505 285.938C170.878 284.679 173.995 284.05 174.164 282.754C174.332 281.459 171.5 279.959 171.5 278.663Z" fill="#212121"/>
<path d="M145.681 299.14C157.002 299.14 166.18 289.962 166.18 278.642C166.18 267.321 157.002 258.143 145.681 258.143C134.361 258.143 125.183 267.321 125.183 278.642C125.183 289.962 134.361 299.14 145.681 299.14Z" fill="white" stroke="#212121" stroke-width="0.88" stroke-linecap="round" stroke-linejoin="round"/>
<path d="M155.807 288.762C161.397 283.172 161.397 274.109 155.807 268.519C150.217 262.929 141.154 262.929 135.563 268.519C129.973 274.109 129.973 283.172 135.563 288.762C141.154 294.352 150.217 294.352 155.807 288.762Z" fill="white" stroke="#212121" stroke-width="0.88" stroke-linecap="round" stroke-linejoin="round"/>
<path d="M145.703 289.86C151.92 289.86 156.959 284.821 156.959 278.605C156.959 272.389 151.92 267.349 145.703 267.349C139.487 267.349 134.448 272.389 134.448 278.605C134.448 284.821 139.487 289.86 145.703 289.86Z" fill="#B75400"/>
<path d="M142.147 276.497H138.546C138.227 276.497 137.968 276.756 137.968 277.075V283.998C137.968 284.318 138.227 284.576 138.546 284.576H142.147C142.466 284.576 142.725 284.318 142.725 283.998V277.075C142.725 276.756 142.466 276.497 142.147 276.497Z" fill="white"/>
<path d="M152.509 277.668C153.717 275.89 152.055 275.363 152.055 275.363H147.716L147.789 274.982C147.789 274.982 148.17 272.055 147.679 271.133C147.189 270.211 145.411 269.852 145.337 270.189C145.264 270.526 145.374 272.04 145.22 272.867C144.772 274.231 144.217 275.558 143.559 276.834C143.489 276.94 143.4 277.032 143.296 277.105V283.823C143.589 284.006 143.93 284.098 144.276 284.086H150.585C150.772 284.031 150.946 283.939 151.097 283.816C151.249 283.692 151.374 283.54 151.465 283.367C151.556 283.195 151.612 283.006 151.63 282.811C151.647 282.617 151.625 282.421 151.565 282.235C151.929 282.025 152.211 281.698 152.362 281.306C152.514 280.915 152.527 280.483 152.399 280.083C152.602 279.958 152.771 279.785 152.892 279.58C153.012 279.374 153.081 279.143 153.092 278.905C153.103 278.667 153.055 278.43 152.954 278.214C152.852 277.999 152.7 277.811 152.509 277.668Z" fill="white"/>
<path d="M276.904 216.313C276.904 216.313 276.494 235.01 277.116 240.967C277.738 246.924 281.302 277.266 282.692 287.804C284.083 298.342 284.69 318.54 284.69 318.54C284.69 318.54 283.095 318.943 283.095 320.333C283.092 321.203 283.026 322.071 282.897 322.931C282.008 324.031 281.004 325.035 279.904 325.924C278.704 326.722 272.125 328.317 273.12 329.913C274.115 331.508 289.879 330.71 289.879 330.71C289.879 330.71 284.69 333.103 281.697 333.703C278.704 334.304 279.706 336.894 283.49 337.092C287.273 337.289 291.869 337.692 296.063 337.692C300.256 337.692 302.049 336.097 305.437 335.899C308.826 335.701 310.026 335.694 310.626 335.299C311.226 334.904 311.621 329.115 311.621 329.115L310.823 323.326C310.823 323.326 314.761 302.499 313.216 288.419C311.745 274.082 312.082 259.618 314.219 245.366C314.219 245.366 318.076 231.893 317.461 225.943C316.846 219.994 315.829 213.671 315.829 213.671L277.921 214.922L276.904 216.313Z" fill="#212121" stroke="#212121" stroke-width="0.88" stroke-linecap="round" stroke-linejoin="round"/>
<path d="M290.054 159.084C290.054 159.084 283.109 164.339 281.126 167.91C279.143 171.481 279.033 191.262 278.821 196.795C278.609 202.327 276.582 209.624 276.626 212.756C276.669 215.888 276.516 219.767 287.405 219.752C298.295 219.737 313.634 217.476 315.471 216.005C317.307 214.534 318.039 214.337 318.859 211.146C319.678 207.955 325.357 186.681 325.928 179.934C326.499 173.186 326.279 170.12 320.454 161.433C314.629 152.747 307.267 151.473 307.267 151.473L293.772 156.889L290.054 159.084Z" fill="white" stroke="#212121" stroke-width="0.88" stroke-linecap="round" stroke-linejoin="round"/>
<path d="M290.054 159.084L290.369 165.773L281.887 208.658L285.32 217.22L292.726 208.05L292.279 165.341L295.411 161.097L293.772 156.889L290.054 159.084Z" fill="#212121" stroke="#212121" stroke-width="0.88" stroke-linecap="round" stroke-linejoin="round"/>
<path d="M292.828 153.969L289.813 155.674L286.732 162.751L290.054 159.084L291.591 159.721L295.484 155.725L292.828 153.969Z" fill="white" stroke="#212121" stroke-width="0.88" stroke-linecap="round" stroke-linejoin="round"/>
<path d="M283.329 123.628C283.329 123.628 283.285 132.841 283.57 134.451C283.856 136.061 283.658 139.435 285.122 141.916C286.586 144.397 287.874 149.293 288.957 149.966C289.868 150.449 290.86 150.759 291.884 150.881L292.726 157.965L305.584 147.888L304.976 140.445C306.226 139.23 306.947 137.57 306.981 135.827C307.033 132.9 306.74 131.202 305.327 130.704C304.405 130.345 303.554 129.822 302.817 129.16L303.922 124.089C303.922 124.089 306.667 120.283 298.653 118.871C290.64 117.459 283.929 121.096 283.329 123.628Z" fill="white" stroke="#212121" stroke-width="0.88" stroke-linecap="round" stroke-linejoin="round"/>
<path d="M280.409 121.249C280.409 121.249 280.036 123.255 286.995 125.267C293.955 127.28 297.695 127.016 297.695 127.016C297.695 127.016 296.714 127.689 297.526 128.319C298.033 128.702 298.61 128.983 299.224 129.146C299.224 129.146 299.531 134.803 300.146 135C300.761 135.198 301.924 134.532 301.924 134.532C301.924 134.532 301.763 132.336 303 131.531C303.711 131.078 304.513 130.788 305.349 130.683C305.349 130.683 307.494 121.901 304.793 118.937C302.093 115.973 298.587 115.153 290.34 116.5C282.092 117.846 279.655 120.276 280.409 121.249Z" fill="#212121" stroke="#212121" stroke-width="0.88" stroke-linecap="round" stroke-linejoin="round"/>
<path d="M290.581 141.279L287.852 141.557L287.581 133.998L285.532 131.736L284.032 131.239" stroke="#212121" stroke-width="0.88" stroke-linecap="round" stroke-linejoin="round"/>
<path d="M288.993 144.397C289.824 144.44 290.656 144.411 291.481 144.309C292.282 144.182 293.076 144.013 293.86 143.804C293.86 143.804 291.994 145.48 290.64 145.743C289.286 146.007 288.993 144.397 288.993 144.397Z" stroke="#212121" stroke-width="0.88" stroke-linecap="round" stroke-linejoin="round"/>
<path d="M291.855 150.91C291.855 150.91 291.964 151.159 293.552 150.537C294.883 149.89 296.127 149.079 297.255 148.122" stroke="#212121" stroke-width="0.88" stroke-linecap="round" stroke-linejoin="round"/>
<path d="M295.448 130.873C293.86 130.295 289.806 131.348 289.806 131.348" stroke="#212121" stroke-width="0.88" stroke-linecap="round" stroke-linejoin="round"/>
<path d="M293.874 134.378C293.911 134.971 293.677 135.469 293.348 135.491C293.018 135.513 292.718 135.051 292.674 134.459C292.63 133.866 292.865 133.376 293.201 133.346C293.538 133.317 293.874 133.763 293.874 134.378Z" fill="#212121"/>
<path d="M286.951 134.817C286.951 135.41 286.754 135.908 286.425 135.93C286.095 135.952 285.795 135.498 285.751 134.905C285.707 134.312 285.942 133.815 286.278 133.793C286.615 133.771 286.908 134.232 286.951 134.817Z" fill="#212121"/>
<path d="M292.411 156.538L295.836 162.861L309.118 150.295L306.52 147.2L292.411 156.538Z" fill="white" stroke="#212121" stroke-width="0.88" stroke-linecap="round" stroke-linejoin="round"/>
<path d="M256.354 176.187L280.877 180.227L284.646 212.024L262.553 208.519L256.354 176.187Z" fill="#B75400" stroke="#212121" stroke-width="0.88" stroke-miterlimit="10"/>
<path d="M257.401 183.308C257.401 183.308 255.805 183.439 255.403 184.632C255.221 185.137 255.162 185.678 255.232 186.211C255.302 186.743 255.499 187.251 255.805 187.691C256.34 188.357 258.864 189.155 260.196 188.752C261.528 188.35 261.931 187.289 260.994 186.63C260.127 186.129 259.186 185.769 258.206 185.562L257.401 183.308Z" fill="white" stroke="#212121" stroke-width="0.88" stroke-linecap="round" stroke-linejoin="round"/>
<path d="M255.82 187.691C255.82 187.691 255.286 189.418 256.215 190.348C257.145 191.277 259.677 191.548 260.474 190.618C261.272 189.689 260.204 188.752 260.204 188.752C260.204 188.752 256.735 188.489 255.82 187.691Z" fill="white" stroke="#212121" stroke-width="0.88" stroke-linecap="round" stroke-linejoin="round"/>
<path d="M256.603 191.577C256.603 191.577 256.471 194.365 257.532 195.566C258.593 196.766 259.794 196.1 259.53 195.031C259.359 194.375 259.09 193.749 258.733 193.173L256.603 191.577Z" fill="white" stroke="#212121" stroke-width="0.88" stroke-linecap="round" stroke-linejoin="round"/>
<path d="M256.2 190.348C256.141 190.755 256.198 191.17 256.364 191.547C256.529 191.923 256.797 192.246 257.137 192.477C258.33 193.275 260.064 194.073 260.591 192.88C260.744 192.518 260.812 192.126 260.789 191.734C260.766 191.342 260.654 190.96 260.46 190.618C260.46 190.618 257.796 191.284 256.2 190.348Z" fill="white" stroke="#212121" stroke-width="0.88" stroke-linecap="round" stroke-linejoin="round"/>
<path d="M262.648 178.024L262.853 179.319L274.95 181.441V179.473C274.95 179.119 274.838 178.774 274.628 178.488C274.419 178.202 274.124 177.991 273.786 177.885L272.425 177.453L272.147 176.48C272.071 176.214 271.921 175.976 271.715 175.792C271.509 175.608 271.255 175.486 270.983 175.441L266.548 174.709C266.337 174.673 266.12 174.685 265.914 174.742C265.707 174.8 265.516 174.902 265.353 175.042C265.191 175.181 265.061 175.355 264.973 175.55C264.884 175.746 264.84 175.958 264.843 176.172H264.375C264.134 176.161 263.894 176.202 263.671 176.293C263.448 176.384 263.247 176.522 263.083 176.699C262.919 176.875 262.795 177.084 262.72 177.313C262.644 177.542 262.62 177.785 262.648 178.024Z" fill="#212121" stroke="#212121" stroke-width="0.88" stroke-linecap="round" stroke-linejoin="round"/>
<path d="M289.432 194.863C289.432 194.863 287.778 193.07 287.032 192.47C286.286 191.87 282.231 191.87 282.231 191.87V194.417C282.231 194.417 275.938 194.863 274.137 195.148C272.337 195.434 272.037 196.349 272.491 197.102C272.944 197.856 277.438 197.402 277.438 197.402L279.685 197.702C279.685 197.702 276.238 198.603 275.184 198.749C274.13 198.895 272.037 198.749 272.037 199.481C272.037 200.213 272.337 200.674 273.984 200.827C275.63 200.981 278.338 200.974 280.131 201.427C281.924 201.881 277.138 202.159 275.784 202.159C274.43 202.159 274.32 203.359 275.184 203.659C276.047 203.96 278.938 204.391 278.938 204.391C280.021 204.994 281.18 205.447 282.385 205.738C284.632 206.338 283.117 206.038 288.078 205.738C290.511 205.667 292.927 205.316 295.28 204.691L295.426 197.79L290.779 196.327L289.432 194.863Z" fill="white" stroke="#212121" stroke-width="0.88" stroke-linecap="round" stroke-linejoin="round"/>
<path d="M282.231 194.417L284.932 194.717" stroke="#212121" stroke-width="0.88" stroke-linecap="round" stroke-linejoin="round"/>
<path d="M278.938 204.464L283.432 204.611" stroke="#212121" stroke-width="0.88" stroke-linecap="round" stroke-linejoin="round"/>
<path d="M295.426 197.863L294.826 206.411L297.973 206.565L298.273 198.017L295.426 197.863Z" fill="white" stroke="#212121" stroke-width="0.88" stroke-linecap="round" stroke-linejoin="round"/>
<path d="M313.634 154.986C315.88 155.718 328.57 163.036 328.57 169.447C328.57 175.858 326.777 200.183 326.177 205.848C325.577 211.512 323.777 210.348 317.329 210.348C310.882 210.348 301.141 210.048 299.341 209.294C298.837 209.072 298.426 208.681 298.179 208.188C297.931 207.695 297.864 207.131 297.987 206.594L298.265 198.017C298.265 198.017 298.719 195.917 300.219 195.617C301.72 195.317 311.438 196.7 311.438 196.7C311.438 196.7 313.238 180.358 313.538 177.212C313.838 174.065 312.704 168.43 315.105 167.09" fill="white"/>
<path d="M313.634 154.986C315.88 155.718 328.57 163.036 328.57 169.447C328.57 175.858 326.777 200.183 326.177 205.848C325.577 211.512 323.777 210.348 317.329 210.348C310.882 210.348 301.141 210.048 299.341 209.294C298.837 209.072 298.426 208.681 298.179 208.188C297.931 207.695 297.864 207.131 297.987 206.594L298.265 198.017C298.265 198.017 298.719 195.917 300.219 195.617C301.72 195.317 311.438 196.7 311.438 196.7C311.438 196.7 313.238 180.358 313.538 177.212C313.838 174.065 312.704 168.43 315.105 167.09" stroke="#212121" stroke-width="0.88" stroke-linecap="round" stroke-linejoin="round"/>
<path d="M318.515 201.464C316.268 200.564 311.438 196.7 311.438 196.7C311.438 196.7 317.139 198.2 317.885 198.054" stroke="#212121" stroke-width="0.88" stroke-linecap="round" stroke-linejoin="round"/>
<path d="M54.3066 154.254C55.1367 155.432 55.7329 156.759 56.0629 158.162C56.4508 160.211 55.6677 161.485 54.109 161.382C53.6348 161.325 53.1847 161.142 52.8061 160.851C52.4274 160.56 52.1343 160.172 51.9574 159.728C51.9574 159.728 52.2575 163.043 53.4211 164.609C54.5847 166.175 55.4702 165.971 62.3053 166.754C69.1405 167.537 79.3933 166.754 82.2254 166.366C85.0576 165.978 86.9091 165.488 87.8824 164.024C88.7477 162.606 89.532 161.14 90.2315 159.633C90.2315 159.633 87.3042 161.785 85.7382 161.294C84.1721 160.804 84.1721 157.679 84.6624 156.413C85.0304 155.509 85.4557 154.629 85.9357 153.778C86.5417 151.979 86.9011 150.105 87.0042 148.209C87.0042 145.772 86.126 143.233 84.5672 137.569C83.0085 131.904 78.2224 126.928 74.6072 123.313C70.992 119.698 67.0914 122.142 62.6932 124.389C58.295 126.635 53.3186 138.835 52.4477 143.818C51.5769 148.802 54.3066 154.254 54.3066 154.254Z" fill="#212121" stroke="#212121" stroke-width="0.88" stroke-miterlimit="10"/>
<path d="M62.2761 163.548L70.5163 157.547L79.1664 163.548L70.9335 183.512L62.2761 163.548Z" fill="white" stroke="#212121" stroke-width="0.88" stroke-miterlimit="10"/>
<path d="M67.7794 164.975L70.4139 169.271L68.0721 179.034L71.2921 184.8L74.7097 178.155L71.98 169.271L73.9266 165.268L70.8091 160.482L67.7794 164.975Z" fill="#212121" stroke="#212121" stroke-width="0.88" stroke-miterlimit="10"/>
<path d="M65.3351 149.132C65.3351 149.132 65.4375 157.233 65.6278 157.913C65.8181 158.594 69.7333 162.604 70.509 162.897C71.2847 163.19 74.8121 157.913 75.1048 157.526C75.3976 157.138 75.2 149.322 75.2 149.322L65.3351 149.132Z" fill="white" stroke="#212121" stroke-width="0.88" stroke-miterlimit="10"/>
<path d="M71.98 122.991C71.98 122.991 68.6575 126.899 64.7496 130.704C60.8417 134.51 56.2606 139.391 54.5042 144.28C52.7478 149.168 54.3139 154.232 54.3139 154.232C52.0235 151.303 50.7539 147.705 50.6987 143.987C50.7939 138.132 51.8696 127.382 56.9485 121.235C62.0273 115.087 70.0334 114.787 73.7803 115.665C77.5272 116.544 81.984 121.037 84.0257 126.504C86.0675 131.97 88.0288 142.421 87.8312 146.812C87.7924 149.241 87.1565 151.624 85.9797 153.749C86.3206 149.103 85.4082 144.45 83.3378 140.276C79.9202 133.734 76.5026 130.902 73.9632 128.458C73.2232 127.769 72.6575 126.914 72.3127 125.963C71.9679 125.013 71.8539 123.994 71.98 122.991Z" fill="#212121" stroke="#212121" stroke-width="0.88" stroke-miterlimit="10"/>
<path d="M70.509 162.926L66.0229 169.271L62.1297 160.123L65.6278 157.167L70.509 162.926Z" fill="white" stroke="#212121" stroke-width="0.88" stroke-miterlimit="10"/>
<path d="M70.509 162.926L75.1049 169.761L78.7127 160.292L75.1049 157.555L70.509 162.926Z" fill="white" stroke="#212121" stroke-width="0.88" stroke-miterlimit="10"/>
<path d="M47.3177 164.595C47.3177 164.595 29.0222 189.199 28.0489 190.691C27.0756 192.184 26.256 192.155 26.7536 193.37C27.2512 194.585 30.6322 198.244 33.1204 198.346C35.6086 198.449 36.2965 197.651 37.3942 196.056C38.4919 194.46 52.0891 177.672 52.0891 177.672C52.0891 177.672 48.4154 165.092 47.3177 164.595Z" fill="#B75400" stroke="#212121" stroke-width="0.88" stroke-miterlimit="10"/>
<path d="M69.0601 323.085L68.3868 336.953H67.0329L66.689 328.42L69.0601 323.085Z" fill="#212121" stroke="#212121" stroke-width="0.88" stroke-miterlimit="10"/>
<path d="M55.6897 256.636C55.6897 256.636 57.2119 266.881 56.8752 273.248C56.5386 279.615 56.0337 283.786 56.7069 289.553C57.3802 295.32 60.9368 315.613 60.9368 320.187C60.9368 324.761 59.4147 329.027 58.3974 330.549C57.3802 332.071 51.6281 335.884 51.2915 337.56C50.9548 339.236 55.3531 338.782 59.4147 338.175C63.4762 337.567 65.8473 337.406 66.3523 336.799C66.8572 336.192 66.184 332.532 67.3695 328.266C68.5551 323.999 69.7333 324.153 69.2283 321.563C68.7234 318.972 66.6889 316.074 66.6889 311.807C66.6889 307.541 69.3966 282.088 68.7234 275.531C68.0501 268.974 67.7427 256.789 67.7427 256.789L55.6897 256.636Z" fill="white" stroke="#212121" stroke-width="0.88" stroke-miterlimit="10"/>
<path d="M64.6618 332.379C63.1894 331.836 61.6556 331.477 60.0952 331.31C59.3349 331.194 58.5631 331.171 57.7973 331.244C55.9971 333.015 51.5915 336.104 51.2915 337.56C50.9548 339.236 55.3531 338.782 59.4147 338.175C63.4762 337.567 65.8473 337.406 66.3523 336.799C66.8572 336.192 66.184 332.532 67.3695 328.266C68.5551 323.999 69.7333 324.153 69.2283 321.562C68.0428 324.299 67.2012 324.607 66.0157 326.89C65.2394 328.624 64.7809 330.483 64.6618 332.379Z" fill="#212121" stroke="#212121" stroke-width="0.88" stroke-miterlimit="10"/>
<path d="M91.622 324.212L93.0417 338.028L94.381 337.97L94.2492 329.43L91.622 324.212Z" fill="#212121" stroke="#212121" stroke-width="0.88" stroke-miterlimit="10"/>
<path d="M87.9995 256.482C88.8167 262.361 90.3681 268.114 92.6172 273.606C95.0542 279.622 95.3542 283.223 96.5251 288.975C97.6741 294.58 96.7154 314.091 97.0228 319.762C97.2716 324.329 101.458 329.744 102.548 331.223C103.638 332.701 109.515 336.243 109.939 337.904C110.364 339.565 105.995 339.302 101.955 338.877C97.9156 338.453 95.5738 338.402 95.0395 337.816C94.5053 337.231 94.9737 333.542 93.5759 329.334C92.1781 325.126 91.0145 325.331 91.3805 322.748C91.7464 320.165 91.1829 316.579 90.3486 312.62C89.4631 308.426 83.5354 285.345 82.1303 278.89C80.7252 272.436 75.7927 256.943 75.7927 256.943L87.9995 256.482Z" fill="white" stroke="#212121" stroke-width="0.88" stroke-miterlimit="10"/>
<path d="M96.4666 333.294C97.8909 332.687 99.3857 332.262 100.916 332.027C101.66 331.875 102.419 331.816 103.177 331.852C105.051 333.55 109.566 336.426 109.939 337.875C110.364 339.536 105.995 339.272 101.955 338.848C97.9156 338.424 95.5738 338.372 95.0396 337.787C94.5053 337.201 94.9737 333.513 93.5759 329.305C92.1781 325.097 91.0146 325.302 91.3805 322.719C92.6977 325.405 93.5759 325.646 94.842 327.9C95.6937 329.589 96.2435 331.415 96.4666 333.294Z" fill="#212121" stroke="#212121" stroke-width="0.88" stroke-miterlimit="10"/>
<path d="M49.4473 216.4C48.3771 220.128 47.7122 223.96 47.464 227.831C47.1567 233.773 48.0715 267.159 48.0715 267.159C48.0715 267.159 53.8382 268.988 64.8155 269.288C75.7927 269.589 95.9031 267.305 95.9031 267.305C95.9031 267.305 94.9883 233.473 92.705 224.94C90.4218 216.407 89.046 213.963 89.046 213.963C89.046 213.963 66.8206 199.18 49.4473 216.4Z" fill="#212121" stroke="#212121" stroke-width="0.88" stroke-miterlimit="10"/>
<path d="M92.4929 165.056C92.4929 165.056 110.042 190.113 111.044 191.577C112.047 193.041 112.837 193.041 112.347 194.255C111.857 195.47 108.49 199.137 106.002 199.246C103.514 199.356 102.819 198.566 101.721 196.978C100.623 195.39 86.9237 178.558 86.9237 178.558C86.9237 178.558 91.4025 165.554 92.4929 165.056Z" fill="#B75400" stroke="#212121" stroke-width="0.88" stroke-miterlimit="10"/>
<path d="M62.1297 160.109L70.9115 180.6L78.72 160.292L92.4269 165.041L81.4497 196.802L93.671 222.452C93.671 222.452 88.2336 225.24 78.72 226.463C69.2064 227.685 60.8563 226.829 56.7654 225.533C52.6746 224.238 46.9225 221.142 47.2518 221.142C47.5811 221.142 57.5851 195.587 57.5851 195.587L47.3396 164.573L62.1297 160.109Z" fill="#B75400" stroke="#212121" stroke-width="0.88" stroke-miterlimit="10"/>
<path d="M71.014 185.92L80.8203 174.043L78.0833 170.083L83.8354 167.727L81.9034 161.704L78.7127 160.292L70.8822 180.6L62.1297 160.123L59.1512 161.024L57.6363 168.949L64.1349 170.274L61.4052 174.606L71.014 185.92Z" fill="#B75400" stroke="#212121" stroke-width="0.88" stroke-miterlimit="10"/>
<path d="M49.901 212.748C51.1961 212.485 52.4704 212.128 53.7138 211.68C55.8434 210.948 56.9119 211.373 58.2877 212.412C59.6635 213.451 63.1616 215.72 62.6786 216.481C62.1956 217.242 61.9468 217.593 61.1564 217.132C60.366 216.671 56.5899 213.627 55.8215 213.627C54.8795 213.823 53.9669 214.14 53.1064 214.571C54.3887 214.66 55.6367 215.024 56.7655 215.639C58.1413 216.554 61.1564 218.844 61.032 219.605C60.9076 220.367 60.3002 220.476 59.5171 220.337C58.7341 220.198 55.7044 217.483 55.2433 217.483H51.8843C53.1788 218.089 54.422 218.799 55.6019 219.605C56.2093 220.22 57.0655 220.835 57.0655 221.289C57.0655 221.742 56.7875 222.913 55.88 222.613C54.9725 222.313 52.3746 220.059 52.3746 220.059C52.3746 220.059 54.8115 222.643 54.6652 223.082C54.4529 223.726 54.0505 223.718 53.5967 223.411C53.143 223.104 49.8425 221.157 48.774 220.242C47.9983 219.576 48.1081 219.452 47.1933 219.298C46.2785 219.144 45.3638 217.161 45.3638 217.161L49.901 212.748Z" fill="white" stroke="#212121" stroke-width="0.88" stroke-miterlimit="10"/>
<path d="M52.3745 220.059C52.3745 220.059 50.845 218.559 49.9376 218.559" stroke="#212121" stroke-width="0.88" stroke-miterlimit="10"/>
<path d="M91.161 212.748C89.8659 212.485 88.5916 212.128 87.3482 211.68C85.2186 210.948 84.1501 211.373 82.7816 212.412C81.4131 213.451 77.9077 215.72 78.3907 216.481C78.8737 217.242 79.1225 217.593 79.9129 217.132C80.7033 216.671 84.4868 213.627 85.2479 213.627C86.1982 213.812 87.1207 214.119 87.9922 214.541C86.71 214.631 85.4622 214.996 84.3331 215.61C82.9646 216.525 79.9422 218.815 80.0666 219.576C80.191 220.337 80.7984 220.447 81.5815 220.308C82.3645 220.169 85.4015 217.454 85.8553 217.454C86.5325 217.351 87.2006 217.194 87.8531 216.986L85.3942 219.452C84.7868 220.059 83.9306 221.062 83.9306 221.523C83.9306 221.984 84.3038 222.884 85.2186 222.584C86.1334 222.284 88.724 219.064 88.724 219.064C88.724 219.064 86.2797 222.628 86.4261 223.067C86.6383 223.711 87.0408 223.704 87.4945 223.396C87.9483 223.089 90.5462 220.959 91.6147 220.045C92.3904 219.379 92.9832 219.437 93.898 219.313C94.8127 219.188 95.7275 217.176 95.7275 217.176L91.161 212.748Z" fill="white" stroke="#212121" stroke-width="0.88" stroke-miterlimit="10"/>
<path d="M88.7606 219.079C89.2078 218.27 89.9495 217.664 90.8316 217.388" stroke="#212121" stroke-width="0.88" stroke-miterlimit="10"/>
<path d="M94.1029 209.389L90.4291 212.748L95.4567 218.837L99.3793 215.134L94.1029 209.389Z" fill="white" stroke="#212121" stroke-width="0.88" stroke-miterlimit="10"/>
<path d="M103.682 192.309L92.6246 210.216L98.4059 217.666C98.4059 217.666 103.616 210.772 106.192 207.106C108.768 203.44 112.83 194.833 112.676 193.765C112.523 192.697 108.842 189.052 108.842 189.052" fill="#B75400"/>
<path d="M103.682 192.309L92.6246 210.216L98.4059 217.666C98.4059 217.666 103.616 210.772 106.192 207.106C108.768 203.44 112.83 194.833 112.676 193.765C112.523 192.697 108.842 189.052 108.842 189.052" stroke="#212121" stroke-width="0.88" stroke-miterlimit="10"/>
<path d="M46.2273 209.389L49.901 212.748L44.8734 218.837L40.9509 215.134L46.2273 209.389Z" fill="white" stroke="#212121" stroke-width="0.88" stroke-miterlimit="10"/>
<path d="M35.411 191.357L47.0103 210.004L41.5217 216.927C41.5217 216.927 33.3473 207.245 30.7713 203.586C28.1953 199.927 26.2633 193.948 26.417 192.88C26.5706 191.811 30.2224 188.152 30.2224 188.152" fill="#B75400"/>
<path d="M35.411 191.357L47.0103 210.004L41.5217 216.927C41.5217 216.927 33.3473 207.245 30.7713 203.586C28.1953 199.927 26.2633 193.948 26.417 192.88C26.5706 191.811 30.2224 188.152 30.2224 188.152" stroke="#212121" stroke-width="0.88" stroke-miterlimit="10"/>
<path d="M71.6872 126.445C71.6872 126.445 67.1866 132.687 65.1521 134.868L63.1177 137.064L58.7267 137.935C59.021 138.985 59.4105 140.007 59.8903 140.986C60.4685 142.004 62.0858 142.289 62.0858 142.289C62.0858 142.289 62.5249 145.948 63.8275 147.814C65.1302 149.68 68.6722 152.659 73.9925 153.617C75.5952 153.903 78.9103 151.715 80.5057 144.448C82.101 137.181 80.5057 135.029 79.6567 132.563C78.8078 130.097 73.5973 126.445 71.6872 126.445Z" fill="white" stroke="#212121" stroke-width="0.88" stroke-miterlimit="10"/>
<path d="M80.0593 135.761C80.0593 135.761 78.1712 134.005 77.2271 136.705C76.8832 137.671 78.8444 142.377 78.1712 142.779C77.4979 143.182 77.2271 142.648 76.2758 143.321" stroke="#212121" stroke-width="0.88" stroke-miterlimit="10"/>
<path d="M77.3589 146.16C77.3589 146.16 73.6998 147.243 72.2361 144.697" stroke="#212121" stroke-width="0.88" stroke-miterlimit="10"/>
<path d="M73.8461 134.678C73.8461 134.678 70.8749 133.595 69.1185 135.22" stroke="#212121" stroke-width="0.88" stroke-miterlimit="10"/>
<path d="M73.3045 138.242C73.3045 138.974 72.9386 139.537 72.4776 139.537C72.0165 139.537 71.6506 138.959 71.6506 138.242C71.6506 137.525 72.0239 136.939 72.4776 136.939C72.9313 136.939 73.3045 137.525 73.3045 138.242Z" fill="#212121"/>
<path d="M79.7885 138.462C79.7885 139.193 79.4226 139.757 78.9615 139.757C78.5005 139.757 78.1419 139.179 78.1419 138.462C78.1419 137.744 78.5078 137.159 78.9615 137.159C79.4153 137.159 79.7885 137.744 79.7885 138.462Z" fill="#212121"/>
<path d="M123.538 120.016V129.4H121.275V120.016H123.538ZM127.186 123.922V125.662H122.893V123.922H127.186ZM127.553 120.016V121.762H122.893V120.016H127.553ZM131.761 121.988L129.473 129.4H127.043L130.492 120.016H132.032L131.761 121.988ZM133.656 129.4L131.362 121.988L131.065 120.016H132.625L136.093 129.4H133.656ZM133.566 125.9V127.647H128.751V125.9H133.566ZM139.714 120.016V129.4H137.459V120.016H139.714ZM141.834 120.016H145.528C146.249 120.016 146.877 120.123 147.41 120.338C147.942 120.553 148.353 120.871 148.641 121.292C148.933 121.713 149.079 122.233 149.079 122.852C149.079 123.389 148.995 123.838 148.828 124.199C148.66 124.56 148.426 124.858 148.125 125.095C147.829 125.327 147.483 125.518 147.087 125.668L146.346 126.087H143.246L143.233 124.34H145.528C145.815 124.34 146.054 124.289 146.243 124.186C146.432 124.083 146.574 123.937 146.668 123.747C146.767 123.554 146.817 123.324 146.817 123.058C146.817 122.787 146.767 122.555 146.668 122.362C146.57 122.168 146.423 122.02 146.23 121.917C146.041 121.814 145.807 121.762 145.528 121.762H144.097V129.4H141.834V120.016ZM146.971 129.4L144.896 125.249L147.294 125.236L149.395 129.303V129.4H146.971ZM160.125 126.222H162.381C162.351 126.876 162.175 127.451 161.853 127.95C161.53 128.448 161.083 128.837 160.512 129.116C159.945 129.391 159.274 129.529 158.501 129.529C157.874 129.529 157.313 129.424 156.819 129.213C156.329 129.003 155.912 128.7 155.568 128.304C155.229 127.909 154.969 127.43 154.788 126.867C154.612 126.304 154.524 125.67 154.524 124.966V124.456C154.524 123.752 154.617 123.118 154.801 122.555C154.99 121.988 155.257 121.507 155.601 121.111C155.949 120.712 156.365 120.407 156.851 120.196C157.337 119.986 157.876 119.88 158.469 119.88C159.285 119.88 159.975 120.026 160.538 120.319C161.101 120.611 161.537 121.013 161.846 121.524C162.155 122.031 162.338 122.609 162.394 123.258H160.138C160.129 122.905 160.069 122.611 159.958 122.375C159.846 122.134 159.67 121.954 159.429 121.833C159.188 121.713 158.868 121.653 158.469 121.653C158.189 121.653 157.947 121.704 157.74 121.807C157.534 121.911 157.362 122.074 157.225 122.297C157.087 122.521 156.984 122.811 156.915 123.167C156.851 123.52 156.819 123.945 156.819 124.444V124.966C156.819 125.464 156.849 125.889 156.909 126.242C156.969 126.594 157.066 126.882 157.199 127.105C157.332 127.329 157.504 127.494 157.715 127.602C157.929 127.705 158.192 127.756 158.501 127.756C158.845 127.756 159.135 127.703 159.371 127.595C159.607 127.484 159.79 127.316 159.919 127.093C160.048 126.865 160.117 126.575 160.125 126.222ZM170.437 127.66V129.4H165.436V127.66H170.437ZM166.241 120.016V129.4H163.979V120.016H166.241ZM169.793 123.741V125.423H165.436V123.741H169.793ZM170.457 120.016V121.762H165.436V120.016H170.457ZM171.893 120.016H175.586C176.308 120.016 176.936 120.123 177.468 120.338C178.001 120.553 178.412 120.871 178.7 121.292C178.992 121.713 179.138 122.233 179.138 122.852C179.138 123.389 179.054 123.838 178.886 124.199C178.719 124.56 178.485 124.858 178.184 125.095C177.887 125.327 177.542 125.518 177.146 125.668L176.405 126.087H173.305L173.292 124.34H175.586C175.874 124.34 176.113 124.289 176.302 124.186C176.491 124.083 176.633 123.937 176.727 123.747C176.826 123.554 176.876 123.324 176.876 123.058C176.876 122.787 176.826 122.555 176.727 122.362C176.628 122.168 176.482 122.02 176.289 121.917C176.1 121.814 175.866 121.762 175.586 121.762H174.156V129.4H171.893V120.016ZM177.03 129.4L174.955 125.249L177.352 125.236L179.454 129.303V129.4H177.03ZM185.254 120.016V129.4H182.992V120.016H185.254ZM188.077 120.016V121.762H180.233V120.016H188.077ZM191.969 120.016V129.4H189.714V120.016H191.969ZM196.352 120.016V129.4H194.089V120.016H196.352ZM200 123.922V125.662H195.707V123.922H200ZM200.367 120.016V121.762H195.707V120.016H200.367ZM204.24 120.016V129.4H201.984V120.016H204.24ZM211.697 126.222H213.953C213.923 126.876 213.747 127.451 213.424 127.95C213.102 128.448 212.655 128.837 212.084 129.116C211.517 129.391 210.846 129.529 210.073 129.529C209.445 129.529 208.885 129.424 208.391 129.213C207.901 129.003 207.484 128.7 207.14 128.304C206.801 127.909 206.541 127.43 206.36 126.867C206.184 126.304 206.096 125.67 206.096 124.966V124.456C206.096 123.752 206.188 123.118 206.373 122.555C206.562 121.988 206.829 121.507 207.172 121.111C207.52 120.712 207.937 120.407 208.423 120.196C208.908 119.986 209.448 119.88 210.041 119.88C210.857 119.88 211.547 120.026 212.109 120.319C212.672 120.611 213.108 121.013 213.418 121.524C213.727 122.031 213.91 122.609 213.966 123.258H211.71C211.701 122.905 211.641 122.611 211.529 122.375C211.418 122.134 211.242 121.954 211.001 121.833C210.76 121.713 210.44 121.653 210.041 121.653C209.761 121.653 209.518 121.704 209.312 121.807C209.106 121.911 208.934 122.074 208.797 122.297C208.659 122.521 208.556 122.811 208.487 123.167C208.423 123.52 208.391 123.945 208.391 124.444V124.966C208.391 125.464 208.421 125.889 208.481 126.242C208.541 126.594 208.638 126.882 208.771 127.105C208.904 127.329 209.076 127.494 209.286 127.602C209.501 127.705 209.763 127.756 210.073 127.756C210.417 127.756 210.707 127.703 210.943 127.595C211.179 127.484 211.362 127.316 211.491 127.093C211.62 126.865 211.688 126.575 211.697 126.222ZM219.528 121.988L217.239 129.4H214.81L218.258 120.016H219.798L219.528 121.988ZM221.422 129.4L219.128 121.988L218.831 120.016H220.391L223.859 129.4H221.422ZM221.332 125.9V127.647H216.518V125.9H221.332ZM228.847 120.016V129.4H226.585V120.016H228.847ZM231.67 120.016V121.762H223.826V120.016H231.67ZM239.617 127.66V129.4H234.615V127.66H239.617ZM235.421 120.016V129.4H233.158V120.016H235.421ZM238.972 123.741V125.423H234.615V123.741H238.972ZM239.636 120.016V121.762H234.615V120.016H239.636Z" fill="#B75400"/>
</svg>
