<svg xmlns="http://www.w3.org/2000/svg" width="81" height="63" viewBox="0 0 81 63" fill="none">
  <path d="M41.1421 45.7165C51.7413 45.7165 60.3337 37.1241 60.3337 26.5248C60.3337 15.9255 51.7413 7.33313 41.1421 7.33313C30.5428 7.33313 21.9504 15.9255 21.9504 26.5248C21.9504 37.1241 30.5428 45.7165 41.1421 45.7165Z" stroke="#B75400" stroke-width="2.61111" stroke-linecap="round" stroke-linejoin="round"/>
  <path d="M25.5281 38.014L19.0003 49.1635L26.7031 48.7457L30.202 55.6129L35.9725 45.8474C31.612 44.7246 28.1131 41.5651 25.5281 38.014Z" stroke="#B75400" stroke-width="2.61111" stroke-linecap="round" stroke-linejoin="round"/>
  <path d="M56.8616 38.0142C54.3027 41.5914 50.7777 44.6986 46.4171 45.8475L52.1876 55.6392L55.6865 48.7719L63.3893 49.1897L56.8616 38.0142Z" stroke="#B75400" stroke-width="2.61111" stroke-linecap="round" stroke-linejoin="round"/>
  <path d="M52.1094 24.0965C52.6055 23.6265 52.3183 22.7648 51.6394 22.6865L45.3466 21.7726C45.0855 21.7204 44.8505 21.5637 44.72 21.3026L41.8999 15.5843C41.5866 14.9576 40.6989 14.9576 40.4117 15.5843L37.5916 21.3026C37.4611 21.5376 37.2261 21.7204 36.965 21.7726L30.6722 22.6865C29.9933 22.7909 29.7322 23.6265 30.2022 24.0965L34.7716 28.5353C34.9805 28.7442 35.0589 29.0053 35.0066 29.2665L33.9361 35.5331C33.8055 36.212 34.5366 36.7343 35.1372 36.3948L40.7772 33.4442C41.0122 33.3137 41.3255 33.3137 41.5605 33.4442L47.2005 36.3948C47.801 36.7081 48.5322 36.1859 48.4016 35.5331L47.3311 29.2665C47.2789 29.0053 47.3833 28.7181 47.5661 28.5353L52.1094 24.0965Z" stroke="#B75400" stroke-width="2.61111" stroke-linecap="round" stroke-linejoin="round"/>
</svg>
