<svg xmlns="http://www.w3.org/2000/svg" width="150" height="150" viewBox="0 0 150 150" fill="none">
<path d="M100.059 117.95C88.756 124.476 75.3229 126.245 62.7157 122.867C50.1084 119.488 39.3594 111.24 32.8333 99.9369C26.3073 88.6335 24.5387 75.2006 27.9168 62.5932C31.295 49.9859 39.543 39.2369 50.8465 32.7109C62.1499 26.1849 75.5829 24.4163 88.1902 27.7944C100.797 31.1726 111.547 39.4207 118.073 50.724C124.598 62.0274 126.367 75.4605 122.989 88.0677C119.611 100.675 111.363 111.424 100.059 117.95Z" fill="white" stroke="#B75400" stroke-width="21.3161" stroke-miterlimit="10"/>
<path d="M49.022 29.7208L52.5868 36.1266L51.267 36.8611L47.7021 30.4553L49.022 29.7208ZM53.0967 31.0373L53.6696 32.0668L50.757 33.6876L50.1841 32.6581L53.0967 31.0373ZM51.8817 28.1293L52.4571 29.1632L49.2366 30.9554L48.6612 29.9215L51.8817 28.1293Z" fill="white"/>
<path d="M59.6664 26.4143L59.5854 32.8097L58.0531 33.2911L58.4548 25.4808L59.4299 25.1745L59.6664 26.4143ZM63.068 31.7158L59.3397 26.5169L58.8103 25.3691L59.795 25.0598L64.6051 31.2329L63.068 31.7158ZM62.1637 29.1394L62.5183 30.2683L58.8243 31.4286L58.4698 30.2998L62.1637 29.1394Z" fill="white"/>
<path d="M69.0208 23.1353L69.9389 30.4085L68.4453 30.597L67.5271 23.3238L69.0208 23.1353Z" fill="white"/>
<path d="M74.6984 22.7189L77.4294 22.8475C77.9893 22.8739 78.4665 22.9804 78.861 23.167C79.2588 23.3537 79.5589 23.6165 79.7614 23.9554C79.9639 24.2942 80.0538 24.7034 80.0312 25.1829C80.0128 25.5752 79.9298 25.909 79.7825 26.1843C79.6386 26.4564 79.4415 26.6807 79.1913 26.8571C78.9445 27.0303 78.6576 27.1647 78.3305 27.2601L77.8409 27.4891L75.467 27.3773L75.5124 26.2L77.2777 26.2831C77.5426 26.2956 77.7644 26.259 77.9432 26.1733C78.1219 26.0876 78.2589 25.963 78.3539 25.7995C78.4524 25.6361 78.5068 25.4438 78.5172 25.2225C78.5283 24.9878 78.4942 24.7829 78.4151 24.6078C78.336 24.4326 78.2097 24.2956 78.0363 24.1967C77.8628 24.0978 77.642 24.0421 77.3737 24.0295L76.1516 23.9719L75.8624 30.1128L74.3536 30.0417L74.6984 22.7189ZM78.4475 30.2345L76.9315 26.8918L78.5263 26.9568L80.0653 30.2402L80.0619 30.3106L78.4475 30.2345Z" fill="white"/>
<path d="M92.2422 28.1861C92.6914 28.3465 93.0223 28.6147 93.2137 28.9965C93.4112 29.3736 93.4368 29.7713 93.2921 30.1766C93.1474 30.5818 92.8748 30.8751 92.4825 31.0468C92.0937 31.2167 91.6682 31.2123 91.2188 31.0518C90.7694 30.8912 90.4364 30.6246 90.2382 30.2464L90.2367 30.2448C90.042 29.8635 90.0177 29.4642 90.1624 29.0589C90.3072 28.6536 90.5789 28.3622 90.9706 28.1955C91.3649 28.0235 91.7925 28.0256 92.2422 28.1861Z" fill="white" stroke="black" stroke-width="0.338127"/>
<path d="M103.923 31.4321L106.118 33.0625C106.568 33.3968 106.905 33.7514 107.128 34.1263C107.354 34.5032 107.456 34.8888 107.435 35.283C107.414 35.6771 107.261 36.0669 106.974 36.4522C106.74 36.7674 106.485 36.9982 106.209 37.1445C105.938 37.29 105.649 37.3662 105.343 37.373C105.042 37.3791 104.729 37.3305 104.404 37.2272L103.87 37.1441L101.962 35.7269L102.657 34.7751L104.075 35.829C104.288 35.9871 104.493 36.0805 104.689 36.1092C104.885 36.1378 105.068 36.1108 105.238 36.0281C105.411 35.9474 105.564 35.8182 105.696 35.6403C105.836 35.4517 105.922 35.2627 105.954 35.0732C105.986 34.8838 105.958 34.6996 105.869 34.5208C105.78 34.3419 105.628 34.1724 105.412 34.0123L104.43 33.2827L100.764 38.2177L99.5517 37.3169L103.923 31.4321ZM102.842 39.761L103.448 36.141L104.736 37.0847L104.181 40.6682L104.139 40.7248L102.842 39.761Z" fill="white"/>
<path d="M111.005 46.1509L110.126 46.9352L107.528 44.0233L108.407 43.239L111.005 46.1509ZM113.327 39.5114L107.857 44.3915L106.851 43.2643L112.322 38.3842L113.327 39.5114ZM113.03 43.6632L112.173 44.4273L109.914 41.8949L110.771 41.1308L113.03 43.6632ZM115.593 42.0513L114.71 42.839L112.116 39.9308L112.999 39.1432L115.593 42.0513Z" fill="white"/>
<path d="M116.156 51.2631L115.22 49.6466L116.239 49.0562L117.176 50.6726C117.32 50.9224 117.479 51.1022 117.651 51.2119C117.826 51.32 118.009 51.3674 118.199 51.3542C118.389 51.3411 118.577 51.2806 118.763 51.173C118.952 51.0636 119.106 50.9255 119.227 50.7587C119.348 50.5919 119.412 50.4015 119.42 50.1874C119.428 49.9734 119.359 49.7414 119.215 49.4916L118.541 48.3283L113.221 51.4094L112.464 50.1023L118.808 46.4282L120.239 48.8986C120.526 49.3953 120.683 49.873 120.708 50.3317C120.738 50.7916 120.65 51.2068 120.446 51.5773C120.242 51.9477 119.937 52.2499 119.534 52.4837C119.124 52.7209 118.715 52.8318 118.307 52.8163C117.898 52.8007 117.509 52.6614 117.139 52.3984C116.772 52.1382 116.444 51.7598 116.156 51.2631Z" fill="white"/>
<path d="M122.327 62.9928L121.996 63.0985C121.465 63.2681 120.966 63.3483 120.498 63.3392C120.03 63.3302 119.605 63.242 119.224 63.0748C118.846 62.9066 118.521 62.6652 118.248 62.3508C117.976 62.0395 117.769 61.6632 117.628 61.222C117.488 60.7839 117.438 60.3576 117.479 59.943C117.52 59.5317 117.645 59.1463 117.855 58.787C118.067 58.4266 118.361 58.1055 118.736 57.8236C119.112 57.5449 119.566 57.3207 120.097 57.1512L120.427 57.0455C120.961 56.8749 121.461 56.7947 121.926 56.8048C122.394 56.8139 122.818 56.902 123.199 57.0692C123.582 57.2396 123.909 57.4805 124.181 57.7917C124.454 58.1062 124.66 58.4825 124.8 58.9205C124.941 59.3618 124.991 59.7881 124.95 60.1994C124.91 60.614 124.783 60.9999 124.569 61.3571C124.356 61.7174 124.062 62.037 123.686 62.3157C123.314 62.5965 122.861 62.8223 122.327 62.9928ZM121.532 61.6453L121.873 61.5365C122.243 61.418 122.559 61.2803 122.819 61.1233C123.079 60.9662 123.284 60.7915 123.434 60.5992C123.584 60.4068 123.676 60.2009 123.712 59.9817C123.751 59.7613 123.732 59.5297 123.654 59.2867C123.576 59.0437 123.458 58.8437 123.299 58.6867C123.143 58.5319 122.949 58.4195 122.715 58.3497C122.482 58.2831 122.215 58.2612 121.912 58.2839C121.609 58.3066 121.272 58.3772 120.901 58.4957L120.561 58.6045C120.193 58.7219 119.878 58.8597 119.614 59.0177C119.355 59.1747 119.148 59.3499 118.995 59.5433C118.845 59.7357 118.75 59.9421 118.712 60.1624C118.673 60.3827 118.692 60.6143 118.77 60.8574C118.847 61.1004 118.966 61.3004 119.125 61.4574C119.285 61.6143 119.481 61.7262 119.713 61.7928C119.949 61.8584 120.219 61.8798 120.521 61.8571C120.827 61.8333 121.164 61.7627 121.532 61.6453Z" fill="white"/>
<path d="M121.713 71.6686C121.843 71.6563 121.958 71.6253 122.058 71.5755C122.162 71.5288 122.252 71.4495 122.329 71.3377C122.41 71.2257 122.485 71.072 122.554 70.8767C122.623 70.6814 122.691 70.4307 122.757 70.1245C122.833 69.7836 122.923 69.4582 123.029 69.1482C123.135 68.8416 123.266 68.5664 123.422 68.3225C123.582 68.0817 123.774 67.885 123.999 67.7325C124.224 67.5832 124.494 67.4939 124.808 67.4645C125.112 67.436 125.394 67.477 125.654 67.5876C125.917 67.6978 126.149 67.8649 126.349 68.0889C126.552 68.3126 126.717 68.5837 126.844 68.9022C126.972 69.2239 127.055 69.582 127.092 69.9764C127.142 70.5144 127.089 70.9931 126.933 71.4123C126.777 71.8315 126.54 72.1672 126.223 72.4193C125.907 72.6749 125.531 72.823 125.097 72.8637L124.957 71.3698C125.171 71.3498 125.353 71.2871 125.505 71.1819C125.661 71.0796 125.777 70.9339 125.854 70.7447C125.931 70.5588 125.957 70.3305 125.931 70.0598C125.907 69.7991 125.846 69.5856 125.75 69.4193C125.657 69.2528 125.539 69.1323 125.398 69.0579C125.259 68.9832 125.108 68.9535 124.944 68.9689C124.821 68.9805 124.711 69.021 124.617 69.0906C124.522 69.1635 124.438 69.2658 124.362 69.3976C124.287 69.5294 124.219 69.6891 124.159 69.8768C124.099 70.0645 124.044 70.2804 123.993 70.5245C123.909 70.9335 123.807 71.2954 123.685 71.6103C123.563 71.9285 123.418 72.1983 123.25 72.4197C123.082 72.6411 122.884 72.8147 122.656 72.9405C122.429 73.0664 122.164 73.1434 121.864 73.1715C121.546 73.2013 121.256 73.166 120.994 73.0659C120.732 72.9657 120.503 72.8068 120.307 72.5891C120.111 72.3714 119.953 72.1047 119.833 71.789C119.712 71.4733 119.633 71.1149 119.596 70.7139C119.562 70.3529 119.575 69.9926 119.636 69.6329C119.7 69.2729 119.815 68.9402 119.982 68.6346C120.15 68.3324 120.376 68.0819 120.66 67.8833C120.945 67.6847 121.293 67.5662 121.704 67.5277L121.846 69.0366C121.618 69.0579 121.429 69.111 121.279 69.1959C121.128 69.2807 121.011 69.3912 120.926 69.5273C120.841 69.6667 120.785 69.827 120.758 70.0082C120.732 70.1928 120.728 70.392 120.749 70.6059C120.773 70.8665 120.83 71.077 120.919 71.2372C121.008 71.4008 121.122 71.5165 121.26 71.5845C121.398 71.6559 121.549 71.6839 121.713 71.6686Z" fill="white"/>
<path d="M127.026 79.6766L119.718 79.0963L119.837 77.5955L127.145 78.1759L127.026 79.6766Z" fill="white"/>
<path d="M125.462 88.4945L118.363 86.6675L118.738 85.2095L125.837 87.0365L125.462 88.4945ZM124.9 90.679L123.754 90.3841L125.245 84.5913L126.391 84.8862L124.9 90.679Z" fill="white"/>
<path d="M117.177 99.6002L116.867 99.4435C116.369 99.1924 115.957 98.8995 115.629 98.5649C115.302 98.2303 115.061 97.8699 114.906 97.4834C114.755 97.0985 114.692 96.6982 114.718 96.2825C114.742 95.8698 114.858 95.4567 115.067 95.0432C115.274 94.6327 115.538 94.2938 115.857 94.0263C116.175 93.7619 116.534 93.575 116.936 93.4655C117.34 93.3575 117.775 93.3345 118.24 93.3964C118.703 93.4613 119.184 93.6194 119.681 93.8705L119.991 94.0272C120.492 94.2799 120.904 94.5727 121.228 94.9058C121.556 95.2404 121.797 95.6009 121.951 95.9873C122.104 96.3767 122.169 96.7777 122.145 97.1905C122.119 97.6062 122.003 98.0193 121.795 98.4298C121.586 98.8432 121.323 99.1822 121.005 99.4466C120.686 99.7141 120.325 99.9003 119.922 100.005C119.518 100.113 119.084 100.135 118.62 100.07C118.158 100.009 117.677 99.8529 117.177 99.6002ZM117.554 98.0818L117.873 98.2429C118.221 98.4184 118.543 98.5413 118.838 98.6116C119.133 98.6818 119.402 98.7009 119.644 98.6688C119.886 98.6368 120.096 98.5551 120.275 98.4237C120.457 98.2938 120.606 98.115 120.721 97.8873C120.836 97.6596 120.892 97.4339 120.888 97.2102C120.886 96.991 120.826 96.7746 120.708 96.561C120.589 96.3503 120.414 96.147 120.182 95.9509C119.95 95.7548 119.66 95.569 119.312 95.3935L118.993 95.2323C118.649 95.0583 118.327 94.9354 118.029 94.8637C117.733 94.7935 117.463 94.7736 117.218 94.8041C116.977 94.8362 116.765 94.9172 116.583 95.047C116.4 95.1769 116.252 95.3557 116.137 95.5834C116.022 95.8111 115.966 96.0368 115.97 96.2605C115.973 96.4842 116.035 96.7014 116.154 96.912C116.276 97.1241 116.453 97.3283 116.685 97.5243C116.92 97.7219 117.21 97.9077 117.554 98.0818Z" fill="white"/>
<path d="M117.264 105.815L115.537 107.935C115.183 108.37 114.814 108.69 114.43 108.896C114.043 109.105 113.653 109.191 113.26 109.152C112.867 109.114 112.485 108.943 112.113 108.64C111.808 108.392 111.589 108.127 111.455 107.844C111.322 107.567 111.259 107.275 111.265 106.969C111.273 106.668 111.335 106.357 111.453 106.037L111.56 105.507L113.06 103.665L113.98 104.401L112.864 105.771C112.697 105.977 112.594 106.177 112.557 106.372C112.52 106.566 112.539 106.751 112.614 106.924C112.687 107.1 112.809 107.258 112.981 107.398C113.163 107.547 113.348 107.641 113.536 107.682C113.724 107.722 113.909 107.702 114.091 107.621C114.274 107.54 114.45 107.396 114.62 107.188L115.392 106.239L110.625 102.357L111.579 101.186L117.264 105.815ZM108.991 104.364L112.581 105.131L111.58 106.375L108.025 105.661L107.971 105.617L108.991 104.364Z" fill="white"/>
<path d="M109.143 114.562L105.854 112.917L106.758 116.481L105.476 117.514L104.431 112.37L102.758 110.291L103.95 109.331L105.623 111.41L110.429 113.526L109.143 114.562Z" fill="white"/>
<path d="M93.1688 121.469C92.7262 121.647 92.3006 121.665 91.9042 121.506C91.5064 121.355 91.2235 121.074 91.0631 120.675C90.9028 120.275 90.9125 119.875 91.0923 119.487C91.2708 119.102 91.5922 118.823 92.0351 118.645C92.4779 118.467 92.904 118.446 93.3031 118.598L93.3053 118.598C93.7039 118.754 93.9868 119.037 94.1471 119.437C94.3075 119.836 94.2972 120.234 94.1145 120.619C93.9334 121.009 93.6119 121.291 93.1688 121.469Z" fill="white" stroke="black" stroke-width="0.338127"/>
<path d="M77.6177 122.267L76.1178 122.396C76.1056 121.902 76.2035 121.453 76.4115 121.052C76.6161 120.65 76.9232 120.324 77.3329 120.073C77.7392 119.822 78.2416 119.671 78.8403 119.619C79.3085 119.579 79.7351 119.623 80.1201 119.752C80.5054 119.884 80.8433 120.091 81.1337 120.372C81.4207 120.654 81.6514 121.005 81.8256 121.424C81.9999 121.844 82.11 122.321 82.1561 122.856L82.1997 123.363C82.2457 123.898 82.2171 124.387 82.1138 124.831C82.0074 125.278 81.8352 125.665 81.5972 125.992C81.3559 126.32 81.0566 126.581 80.6995 126.777C80.3424 126.973 79.9348 127.09 79.4766 127.13C78.8679 127.182 78.3451 127.116 77.9081 126.931C77.4677 126.747 77.1154 126.471 76.8513 126.103C76.5838 125.735 76.4053 125.305 76.3159 124.815L77.8208 124.685C77.8629 124.978 77.9429 125.222 78.0607 125.417C78.1789 125.616 78.3445 125.758 78.5574 125.845C78.7673 125.934 79.0394 125.965 79.3738 125.936C79.6247 125.914 79.8397 125.849 80.0189 125.739C80.1981 125.629 80.3431 125.474 80.4537 125.272C80.5644 125.07 80.639 124.821 80.6775 124.525C80.7129 124.232 80.714 123.892 80.6806 123.504L80.6361 122.987C80.6036 122.609 80.5465 122.279 80.4649 121.996C80.3836 121.717 80.2759 121.484 80.1419 121.296C80.0048 121.113 79.8383 120.979 79.6424 120.895C79.4434 120.814 79.2101 120.785 78.9426 120.808C78.6282 120.835 78.3734 120.908 78.178 121.026C77.9826 121.144 77.8399 121.306 77.7499 121.512C77.6565 121.719 77.6125 121.971 77.6177 122.267Z" fill="white"/>
<path d="M67.2119 120.459L67.3502 119.289L71.2253 119.747L71.0871 120.917L67.2119 120.459ZM69.8752 126.969L70.7353 119.689L72.2354 119.866L71.3753 127.146L69.8752 126.969ZM67.3454 123.664L67.4801 122.524L70.8502 122.922L70.7155 124.062L67.3454 123.664ZM66.4951 126.57L66.6339 125.395L70.5041 125.852L70.3652 127.027L66.4951 126.57Z" fill="white"/>
<path d="M61.1866 125.425L58.5923 124.562C58.0604 124.385 57.6298 124.153 57.3005 123.867C56.9681 123.579 56.7502 123.245 56.647 122.864C56.5438 122.483 56.5679 122.065 56.7194 121.61C56.8433 121.237 57.0135 120.938 57.2298 120.713C57.442 120.49 57.6924 120.327 57.981 120.225C58.2654 120.125 58.578 120.073 58.9187 120.07L59.452 119.982L61.7071 120.732L61.3449 121.853L59.6679 121.295C59.4163 121.212 59.1928 121.187 58.9975 121.221C58.8023 121.255 58.6367 121.338 58.5009 121.47C58.362 121.6 58.2576 121.771 58.1876 121.981C58.1135 122.204 58.0908 122.411 58.1196 122.601C58.1484 122.791 58.2329 122.957 58.3731 123.099C58.5133 123.241 58.7109 123.354 58.9657 123.439L60.1266 123.825L62.0666 117.992L63.4999 118.468L61.1866 125.425ZM59.6109 117.175L60.1659 120.803L58.6482 120.309L58.055 116.732L58.0772 116.665L59.6109 117.175Z" fill="white"/>
<path d="M48.1703 119.783L51.8806 113.46L53.179 114.222L49.4688 120.545L48.1703 119.783ZM46.2249 118.641L46.8237 117.621L51.9826 120.648L51.3838 121.669L46.2249 118.641Z" fill="white"/>
<path d="M40.8416 114.475L45.5827 108.883L46.731 109.857L41.9898 115.448L40.8416 114.475Z" fill="white"/>
<path d="M35.7863 109.457L41.3591 104.694L42.3405 105.842L36.7676 110.605L35.7863 109.457ZM36.2696 105.202L37.1653 104.436L39.3308 106.97L38.4352 107.736L36.2696 105.202ZM33.6599 106.969L34.5594 106.2L36.954 109.002L36.0545 109.771L33.6599 106.969Z" fill="white"/>
<path d="M30.1444 101.692L36.406 97.8798L37.189 99.1656L30.9273 102.978L30.1444 101.692Z" fill="white"/>
<path d="M30.4488 90.9349L29.8984 89.5337C30.3688 89.3814 30.8262 89.3478 31.2707 89.4328C31.714 89.5148 32.1142 89.7164 32.4712 90.0378C32.827 90.356 33.1147 90.7948 33.3344 91.354C33.5062 91.7914 33.5852 92.213 33.5715 92.6187C33.5546 93.0256 33.4525 93.4083 33.2651 93.7668C33.0765 94.1222 32.8059 94.4431 32.4532 94.7295C32.1004 95.0159 31.6741 95.2572 31.1743 95.4536L30.7009 95.6395C30.201 95.8358 29.7238 95.9476 29.2692 95.9746C28.8103 95.9998 28.3902 95.9449 28.009 95.8097C27.6265 95.6714 27.2906 95.459 27.0013 95.1723C26.712 94.8857 26.4833 94.5283 26.3151 94.1003C26.0918 93.5317 26.0065 93.0116 26.0593 92.5401C26.1109 92.0654 26.2756 91.6491 26.5533 91.2912C26.8298 90.9301 27.1907 90.6369 27.6359 90.4116L28.1881 91.8175C27.9193 91.9411 27.708 92.0872 27.5543 92.2558C27.3974 92.4256 27.3079 92.6248 27.286 92.8534C27.2596 93.0802 27.3078 93.3497 27.4305 93.6622C27.5226 93.8965 27.6467 94.084 27.8029 94.2246C27.9591 94.3652 28.1495 94.4598 28.3743 94.5086C28.599 94.5574 28.8589 94.5581 29.154 94.5107C29.4448 94.4614 29.7714 94.3655 30.1338 94.2232L30.6165 94.0336C30.9696 93.8949 31.27 93.7463 31.5178 93.5876C31.7625 93.4302 31.9556 93.2606 32.0969 93.0788C32.234 92.8952 32.315 92.6975 32.34 92.4857C32.3606 92.272 32.3219 92.0402 32.2237 91.7903C32.1084 91.4966 31.9664 91.2729 31.7978 91.1191C31.6292 90.9653 31.4331 90.8747 31.2095 90.8471C30.9847 90.8164 30.7311 90.8457 30.4488 90.9349Z" fill="white"/>
<path d="M24.7171 83.1327L31.0328 84.1425L31.2863 85.7285L23.6173 84.1957L23.456 83.1864L24.7171 83.1327ZM30.4567 80.5379L24.7711 83.4708L23.5585 83.8278L23.3956 82.8086L30.2024 78.9469L30.4567 80.5379ZM27.7762 81.0581L28.9446 80.8713L29.5557 84.6947L28.3873 84.8814L27.7762 81.0581Z" fill="white"/>
<path d="M22.9249 71.5188L30.2438 71.9387L30.1576 73.4417L22.8387 73.0218L22.9249 71.5188ZM23.0541 69.2669L24.2353 69.3346L23.8928 75.3064L22.7115 75.2386L23.0541 69.2669Z" fill="white"/>
<path d="M24.3084 62.5761L31.4464 64.2468L31.1033 65.7127L23.9653 64.0419L24.3084 62.5761Z" fill="white"/>
<path d="M31.4914 52.9317L31.8102 53.0698C32.3216 53.2912 32.7505 53.5593 33.097 53.874C33.4436 54.1887 33.7054 54.5344 33.8824 54.911C34.0564 55.2863 34.1428 55.6822 34.1417 56.0987C34.1419 56.5122 34.0499 56.9314 33.8658 57.3565C33.683 57.7785 33.4402 58.1323 33.1371 58.4181C32.8355 58.7008 32.4876 58.9086 32.0935 59.0415C31.6963 59.1731 31.2637 59.2217 30.7958 59.1873C30.3292 59.1498 29.8402 59.0203 29.3289 58.7989L29.0101 58.6608C28.4957 58.438 28.0668 58.1699 27.7233 57.8566C27.3768 57.5419 27.115 57.1962 26.9379 56.8195C26.7622 56.4398 26.6742 56.0433 26.674 55.6298C26.6752 55.2133 26.7672 54.7941 26.9499 54.3721C27.134 53.947 27.3769 53.5932 27.6786 53.3105C27.9816 53.0247 28.331 52.8176 28.7269 52.6891C29.1241 52.5575 29.556 52.5104 30.0226 52.5479C30.4874 52.581 30.9771 52.7089 31.4914 52.9317ZM31.2039 54.4697L30.8759 54.3276C30.5186 54.1729 30.1904 54.0691 29.8913 54.0164C29.5923 53.9637 29.323 53.9605 29.0835 54.0067C28.844 54.053 28.6387 54.1469 28.4675 54.2887C28.2933 54.429 28.1556 54.6163 28.0542 54.8504C27.9528 55.0844 27.9105 55.313 27.9272 55.5361C27.9423 55.7548 28.0148 55.9673 28.145 56.1736C28.2764 56.3769 28.4637 56.5695 28.7067 56.7516C28.9497 56.9337 29.2499 57.1021 29.6072 57.2569L29.9352 57.3989C30.2895 57.5524 30.6176 57.6561 30.9198 57.7101C31.2189 57.7628 31.4897 57.7667 31.7323 57.7218C31.9718 57.6756 32.1786 57.5823 32.3528 57.4419C32.527 57.3015 32.6648 57.1143 32.7662 56.8802C32.8676 56.6461 32.9099 56.4175 32.8931 56.1944C32.8763 55.9714 32.8022 55.7582 32.6708 55.5549C32.5362 55.3504 32.3475 55.157 32.1044 54.9749C31.8583 54.7915 31.5581 54.6231 31.2039 54.4697Z" fill="white"/>
<path d="M34.5631 41.8749L40.4838 46.1978L39.5931 47.4178L33.8873 46.8988L37.8562 49.7966L36.9654 51.0165L31.0448 46.6936L31.9355 45.4737L37.6482 45.9915L33.6753 43.0907L34.5631 41.8749Z" fill="white"/>
<path d="M43.3457 36.5467C43.7289 36.2626 44.1359 36.1368 44.5596 36.19C44.9828 36.2357 45.3276 36.4355 45.5839 36.7812C45.8402 37.1269 45.9323 37.5165 45.8569 37.938C45.7818 38.3556 45.5415 38.7068 45.1581 38.991C44.7748 39.2752 44.368 39.4037 43.9434 39.358L43.9413 39.3584C43.516 39.3081 43.1707 39.1062 42.9144 38.7606C42.6581 38.4148 42.567 38.0269 42.6463 37.6087C42.7227 37.1853 42.9622 36.8311 43.3457 36.5467Z" fill="white" stroke="black" stroke-width="0.338127"/>
<path d="M74.7117 96.5471C74.243 96.5471 73.783 96.4858 73.3406 96.3674C72.6529 96.1833 71.9871 95.8765 71.2555 95.4031C71.146 95.333 70.4495 94.7368 70.0597 94.4037L70.0509 94.395C69.9764 94.3336 69.9151 94.281 69.8713 94.2415C69.4464 94.4476 69.0434 94.7237 68.6492 94.9955C67.8563 95.5434 67.0328 96.1044 65.9771 96.1439C65.0704 96.1789 64.111 96.0343 63.0116 95.7055C62.9152 95.6792 62.7005 95.5872 62.3501 95.4469C61.9603 95.2848 61.3733 95.0831 61.1805 95.0042C61.163 94.9955 61.0886 94.9516 61.0623 94.8727C61.036 94.7982 61.036 94.6799 61.0491 94.6536C61.7763 94.0969 62.4771 93.4306 63.1561 92.7819C63.6029 92.3567 64.0672 91.914 64.5316 91.5108C64.6936 91.3705 64.8426 91.2171 64.9871 91.0505L65.2237 90.7481C66.4765 89.0386 67.0021 86.2684 67.2956 84.2082C67.5716 82.2884 67.4227 80.294 67.2606 78.5758C66.9627 75.4023 65.9508 73.1011 64.1592 71.5319C63.327 70.8042 62.3939 70.2125 61.5091 69.6733L61.1236 69.441C60.2212 68.8931 59.2926 68.3277 58.4472 67.657C58.3508 67.5825 58.3114 67.4642 58.342 67.3502C58.4822 66.8067 60.8476 66.044 60.8695 66.0396C61.2944 65.9739 61.7544 65.9388 62.2713 65.9388C62.8582 65.9388 63.4452 65.9826 63.9972 66.0221C65.3419 66.1273 66.2093 66.7366 67.1335 67.3853C67.4577 67.6132 67.7906 67.8455 68.1542 68.0647L68.1892 68.0252C68.2987 67.885 68.3776 67.714 68.4652 67.5343C68.5835 67.2845 68.7061 67.0259 68.9208 66.8155C69.4289 66.3202 70.0509 66.1843 70.5415 66.1229C70.7211 66.101 70.8832 66.0878 71.0453 66.0878C71.9476 66.0878 72.5083 66.456 73.2136 66.9294C73.3231 66.9996 73.4326 67.0741 73.5509 67.153C73.8444 67.3415 74.0941 67.4379 74.2956 67.4379C74.6328 67.4379 74.8343 67.1837 75.1454 66.7672C75.4739 66.3245 75.8418 65.8248 76.5471 65.7416C77.2742 65.6583 77.8481 66.0265 78.3475 66.3508C78.7285 66.5963 79.0921 66.833 79.4601 66.833C79.7536 66.833 80.0558 66.684 80.38 66.3728C80.7786 65.9914 81.1115 65.7021 81.5145 65.7021C81.7992 65.7021 82.084 65.8468 82.4081 66.158L82.4826 66.2281C83.1834 66.8987 83.3762 67.0872 84.2567 66.6182C84.9269 66.2632 85.781 66.0396 86.4907 66.0396C87.6997 66.0396 88.4487 66.6664 88.4925 67.7491L88.383 67.7798L88.1903 67.8411C88.1027 67.8762 88.0545 67.885 87.9756 67.92C87.0382 68.205 84.2041 69.7873 83.9194 70.0065C82.9688 70.7297 82.0752 71.659 81.405 72.6233C78.8074 76.3491 78.8556 81.6572 79.6879 85.0718C80.1259 86.8689 80.7129 88.9641 81.7686 90.9146C82.2373 91.7825 82.7848 92.5891 83.3893 93.3123L83.4507 93.3868C84.9006 95.127 85.2203 95.1971 85.3123 95.2891C85.3693 95.3461 85.4087 95.3856 85.4175 95.4382C85.4306 95.5521 85.3036 95.6398 85.2072 95.6924C85.0802 95.7581 84.9444 95.802 84.8042 95.8327C84.6684 95.8633 84.5808 95.8765 84.4012 95.9072C84.2523 95.9335 84.099 95.9466 83.9456 95.9598C83.2886 96.008 82.6403 96.0343 81.9832 95.9685C81.5758 95.9247 81.1684 95.8765 80.7654 95.802C80.2792 95.7143 79.2498 95.4995 78.676 95.1576L78.2993 95.368C77.7079 95.7713 76.6216 96.2184 76.4814 96.2666C75.9119 96.4463 75.3118 96.5471 74.7117 96.5471ZM70.1955 93.9961C70.5634 94.3161 71.3738 95.0042 71.4658 95.0656C72.1623 95.5171 72.7887 95.8107 73.437 95.9817C74.37 96.2315 75.3994 96.1965 76.3719 95.8765C76.4989 95.837 77.6203 95.368 78.1328 94.9955L78.0189 94.7675C77.594 93.9128 77.007 92.7425 76.7092 91.879C76.6435 91.6949 76.5821 91.5195 76.5208 91.3573C76.1879 90.4412 75.9295 89.7136 75.9295 88.4337V87.3423L78.5139 94.2372C78.5752 94.3599 78.6322 94.5001 78.6804 94.6404H78.6847C78.8906 94.9341 79.9463 95.2409 80.8399 95.4031C82.3512 95.6749 83.7266 95.6792 84.8086 95.4031C84.4844 95.1445 83.9851 94.6316 83.1484 93.6323L83.0871 93.5621C82.4651 92.8214 81.9044 91.9929 81.4181 91.0987C80.3405 89.1131 79.7448 86.9829 79.3024 85.1638C78.4526 81.6703 78.4088 76.2307 81.0808 72.3954C81.7773 71.396 82.7016 70.436 83.6784 69.6865C83.9237 69.498 87.1258 67.7316 88.0457 67.5212C87.8968 66.627 87.1302 66.4297 86.4863 66.4297C85.838 66.4297 85.0539 66.6314 84.4362 66.9601C83.3192 67.5519 82.9425 67.2143 82.2022 66.5086L82.1278 66.4385C81.8825 66.2062 81.681 66.0922 81.5057 66.0922C81.2517 66.0922 80.9757 66.3333 80.6472 66.6533C80.2486 67.0346 79.8587 67.2231 79.4557 67.2231C78.9695 67.2231 78.5402 66.947 78.1284 66.6796C77.6597 66.3771 77.1779 66.0615 76.5865 66.1317C76.0521 66.193 75.763 66.5831 75.4564 66.9996C75.1541 67.4072 74.8431 67.8324 74.2912 67.8324C74.0108 67.8324 73.6954 67.7184 73.3319 67.4861C73.2136 67.4072 73.0997 67.3327 72.9902 67.2626C72.2849 66.7979 71.8206 66.4867 71.0365 66.4867C70.8963 66.4867 70.743 66.4955 70.5853 66.5174C69.9414 66.6007 69.5253 66.776 69.1923 67.1004C69.0303 67.2626 68.9251 67.4773 68.8156 67.7053C68.7455 67.8543 68.6711 68.0077 68.5747 68.1524C69.4596 69.5594 69.9545 71.2469 70.1122 72.2858C70.3838 74.0829 69.937 75.0648 69.5121 76.0159L69.188 76.7348L68.0841 68.4811C67.6548 68.2356 67.2693 67.9639 66.897 67.7053C66.0209 67.0916 65.193 66.513 63.9577 66.4166C63.4102 66.3728 62.832 66.3333 62.2625 66.3333C61.7675 66.3333 61.3295 66.364 60.9221 66.4297C60.6812 66.4823 59.0736 67.1004 58.7582 67.4028C59.5642 68.034 60.4578 68.5775 61.3207 69.0991L61.7062 69.3315C62.6042 69.8794 63.5547 70.4799 64.4089 71.2294C66.2794 72.8644 67.335 75.2532 67.6417 78.5319C67.8038 80.2721 67.9527 82.2971 67.6723 84.2565C67.4139 86.0755 67.0197 88.1707 66.2137 89.8276L68.2287 87.9998C68.4302 87.8157 68.7017 87.6053 68.9208 87.4299L70.0071 86.5708L68.5703 88.7186C68.2462 89.0123 68.0009 89.2446 67.7424 89.6128C67.4796 89.9898 67.0503 90.3097 66.7393 90.5464C66.4064 90.7963 66.0384 90.9278 65.5259 90.9848C65.3025 91.2872 65.0528 91.559 64.7813 91.7957C64.3213 92.1946 63.8614 92.6329 63.4189 93.0537C62.8276 93.6147 62.2231 94.1933 61.5879 94.7062C61.7938 94.7807 62.0785 94.899 62.4903 95.0656C62.7663 95.1796 63.0291 95.2891 63.1123 95.3111C64.1724 95.6267 65.0879 95.7669 65.9508 95.7362C66.897 95.7012 67.6329 95.1971 68.417 94.6579C68.8507 94.3599 69.2975 94.0531 69.7881 93.8295L71.9914 85.4619V86.9872C71.9914 88.4951 71.8907 89.1482 71.7461 89.9109C71.6585 90.3799 71.422 90.9804 71.2117 91.5151C71.0978 91.8001 70.9927 92.0718 70.9226 92.2954C70.7956 92.6855 70.6686 92.9529 70.5021 93.2948C70.4233 93.5008 70.3181 93.7199 70.1955 93.9961ZM76.4989 89.9766C76.5997 90.3974 76.7398 90.7831 76.9019 91.2302C76.9632 91.3968 77.0246 91.5721 77.0903 91.7562C77.248 92.2165 77.4933 92.7688 77.7517 93.3167L76.4989 89.9766ZM71.5271 88.8238L70.8482 91.4012C70.8525 91.3924 70.8525 91.3836 70.8569 91.3793C71.0584 90.862 71.2906 90.2747 71.3694 89.8451C71.4307 89.5164 71.4877 89.2008 71.5271 88.8238ZM67.7599 88.9772L66.1304 90.4544C66.2706 90.3974 66.3933 90.3273 66.5115 90.2396C66.8006 90.0205 67.1993 89.7224 67.427 89.398C67.5365 89.2359 67.6461 89.1 67.7599 88.9772ZM68.5616 68.8931L69.4026 75.2883C69.7136 74.5256 69.9326 73.6884 69.7311 72.3384C69.5997 71.4661 69.223 70.1204 68.5616 68.8931ZM79.1315 92.1814C78.9695 91.8176 78.8862 91.4494 78.8074 91.0944L78.7461 90.8226L78.6103 90.3536C78.6015 90.3141 78.5884 90.2791 78.5752 90.2396C78.4613 89.9328 78.3124 89.6654 78.1679 89.4024C78.0014 89.1 77.8306 88.7844 77.7035 88.4074C77.2217 86.9609 76.8975 85.7073 76.8975 84.2959V82.8757L79.0089 90.3229C79.0527 90.4544 79.0921 90.5947 79.1228 90.7305L79.4951 92.0411L79.1315 92.1814ZM74.4051 79.2464L75.5177 76.7962C75.6272 76.3841 75.7017 75.8801 75.7805 75.3935C75.8637 74.8544 75.9426 74.3459 76.0696 74.0172C76.4376 73.0616 77.2392 72.4786 78.0102 71.9176C78.4 71.6371 78.7636 71.3697 79.079 71.0585L80.0865 70.0635L76.1879 76.954C76.0346 77.4756 75.3293 78.8651 74.865 79.0579L74.4051 79.2464ZM78.5139 72.0403C78.4219 72.1061 78.3299 72.1762 78.2379 72.2419C77.4757 72.7942 76.7574 73.3158 76.4332 74.1618C76.3237 74.4467 76.2492 74.9376 76.166 75.4549C76.1134 75.8055 76.0565 76.1606 75.9864 76.5025L78.5139 72.0403ZM79.8061 71.0234L80.0909 70.1117C80.3143 69.3928 80.9801 67.7096 82.2811 67.6351L82.7454 67.6088L79.8061 71.0234ZM81.6415 68.2882C81.405 68.4636 81.1816 68.7222 80.9801 69.0553L81.6415 68.2882Z" fill="#212121"/>
<path d="M61.3514 95.7713C63.2963 99.3174 68.7806 100.102 72.3813 100.19C73.7567 100.225 75.1453 100.137 76.5077 99.9617C77.2348 99.8653 77.9225 99.6592 78.6716 99.4489C79.9551 99.085 81.2385 98.6862 82.4519 98.1251C83.5339 97.621 85.067 97.1038 85.3912 95.7231C84.8086 96.683 80.1084 96.1351 79.3987 95.7932C78.9563 95.5784 79.0001 95.5039 78.6365 95.8546C77.5108 96.946 75.5264 97.2967 74.0546 97.0249C72.8675 96.8057 71.2643 95.8809 70.3093 95.1401C69.9414 94.8508 70.1166 94.7062 69.6041 94.9472C68.4564 95.482 67.6417 96.2008 66.3232 96.4156C64.9477 96.6392 63.6686 96.3937 62.1355 95.7143C61.7544 95.5477 61.6011 95.5258 61.1674 95.2365L61.3514 95.7713Z" fill="#212121"/>
<path d="M58.4997 66.8461C60.8082 63.7121 64.6104 62.5856 68.1892 61.595C70.0115 61.0909 71.5271 60.7797 73.4501 60.7797C75.1278 60.7797 76.7617 61.1742 78.3956 61.5029C80.0383 61.8317 81.7204 62.0903 83.1747 62.9757C84.1121 63.5455 85.216 63.848 86.1534 64.431C86.4688 64.6282 87.577 64.8912 87.4368 65.369C87.2353 66.0484 85.5971 65.4084 85.0802 65.6714C84.5195 65.9563 83.7792 66.4867 83.1396 66.3026C82.5264 66.1273 82.3512 65.404 81.6634 65.3339C80.6121 65.2287 80.4019 66.3464 79.3506 66.2675C78.5533 66.2062 77.6378 65.2112 76.8318 65.2638C76.0696 65.312 75.2417 66.1317 74.6767 66.5481C73.6385 67.3195 73.1917 66.2456 72.3025 65.8906C71.7724 65.6802 71.5665 65.6188 70.9839 65.6188C69.5253 65.6188 68.636 66.2675 67.8081 67.4247C68.0885 67.0302 66.2399 66.158 66.056 66.1054C65.2806 65.8906 64.4746 65.5662 63.673 65.5531C61.6493 65.518 60.2212 65.575 58.4997 66.8461Z" fill="#212121"/>
<path d="M73.5859 50.0188C73.1873 49.4884 72.6967 49.6988 72.0703 49.7295C71.733 50.6675 72.044 51.4653 72.2148 52.2586C72.4032 53.1353 72.5653 54.0339 72.723 54.8579C72.8938 55.7302 72.9595 56.6419 73.0077 57.6018C73.0296 58.0708 73.0515 58.6012 72.9508 59.0483C72.8588 59.4516 72.5828 59.7233 72.5083 60.1178C73.3012 60.0959 74.1554 60.1134 74.9658 60.0696C74.9701 59.6707 74.7073 59.2762 74.6109 58.8993C74.5014 58.4653 74.5715 58.0489 74.5233 57.6018C74.4445 56.8567 74.2605 56.1247 74.1773 55.3313C73.9889 53.578 73.6954 51.8159 73.5859 50.0188Z" fill="#212121"/>
<path d="M87.6471 53.2887C85.4744 53.3238 83.0959 53.429 81.0852 54.5599C80.1434 55.0859 79.4732 55.7477 78.5928 56.3964C78.1503 56.7252 77.6992 57.0145 77.1823 57.2731C76.661 57.5317 76.0434 57.5755 75.5615 57.8648L75.8156 58.4478C76.4683 58.2637 76.6084 58.1541 77.2786 58.1147C77.9401 58.0752 78.5709 57.9657 79.2936 58.0358C79.9726 58.1015 80.7611 58.0884 81.4094 58.2637C82.1672 58.4697 83.1309 58.4697 83.9062 58.5311C85.4525 58.6494 87.3492 58.3119 88.8955 57.9876C90.0082 57.7509 91.4931 57.2731 92.3473 56.4359C92.7065 56.0809 92.8949 55.7346 93.3242 55.3357C93.7315 54.9544 94.3623 54.1917 94.6646 53.749C94.9624 53.3106 95.234 53.0433 95.5144 52.5699C95.7597 52.1578 96.224 51.2943 96.2328 50.7727C94.1302 53.1397 90.5163 53.2405 87.6471 53.2887Z" fill="#212121"/>
</svg>
