<svg width="300" height="240" viewBox="0 0 300 240" fill="none" xmlns="http://www.w3.org/2000/svg">
<path d="M43.9331 216.166C102.51 246.767 197.49 246.767 256.067 216.166C314.644 185.565 314.644 135.949 256.067 105.34C197.49 74.7323 102.537 74.739 43.9331 105.34C-14.6711 135.942 -14.6176 185.565 43.9331 216.166Z" fill="#F5F5F5"/>
<path d="M27.6043 165.981L8.56299 154.99V114.148L27.6043 125.145V165.981Z" fill="#E0E0E0"/>
<path d="M27.6042 125.145L54.81 109.439V150.275L27.6042 165.981V125.145Z" fill="#EBEBEB"/>
<path d="M54.8101 109.439L27.6043 125.145L8.56299 114.148L35.7687 98.4418L54.8101 109.439Z" fill="#F5F5F5"/>
<path d="M30.3304 126.712L52.091 114.148L52.5933 114.436V129.566L30.8261 142.13L30.3237 141.842L30.3304 126.712Z" fill="#E0E0E0"/>
<path d="M30.8257 127.007L52.593 114.436V129.566L30.8257 142.13V127.007Z" fill="#F5F5F5"/>
<path d="M39.3587 124.643L43.0625 122.506C43.538 122.225 43.9265 122.352 43.9265 122.788C43.892 123.054 43.796 123.309 43.646 123.533C43.4961 123.756 43.2963 123.941 43.0625 124.074L39.3587 126.21C38.8765 126.492 38.488 126.364 38.488 125.929C38.5228 125.662 38.6196 125.406 38.7708 125.183C38.922 124.959 39.1233 124.775 39.3587 124.643V124.643Z" fill="#E0E0E0"/>
<path d="M29.8276 145.854L51.5882 133.29V148.419L52.0905 148.707L30.3233 161.272L29.8276 160.984V145.854Z" fill="#E0E0E0"/>
<path d="M30.3237 146.142L52.091 133.578V148.707L30.3237 161.272V146.142Z" fill="#F5F5F5"/>
<path d="M38.8562 143.785L42.5935 141.655C43.0758 141.374 43.4642 141.501 43.4642 141.936C43.4295 142.204 43.3327 142.459 43.1815 142.682C43.0303 142.906 42.8289 143.091 42.5935 143.222L38.8897 145.359C38.4075 145.64 38.019 145.513 38.019 145.077C38.0491 144.812 38.1404 144.557 38.2857 144.333C38.4309 144.108 38.6262 143.921 38.8562 143.785Z" fill="#E0E0E0"/>
<path d="M27.6043 122.788L8.56299 111.79V70.9547L27.6043 81.9455V122.788Z" fill="#E0E0E0"/>
<path d="M27.6042 81.9456L54.81 66.2396V107.082L27.6042 122.788V81.9456Z" fill="#EBEBEB"/>
<path d="M54.8101 66.2396L27.6043 81.9455L8.56299 70.9547L35.7687 55.2488L54.8101 66.2396Z" fill="#F5F5F5"/>
<path d="M30.3237 83.5195L52.091 70.9547L52.5933 71.2427V86.3726L30.8261 98.9374L30.3237 98.6427V83.5195Z" fill="#E0E0E0"/>
<path d="M39.3587 81.4432L43.0558 79.3067C43.538 79.0321 43.9265 79.1594 43.9265 79.5947C43.8908 79.8618 43.7935 80.117 43.6425 80.3401C43.4914 80.5633 43.2906 80.7483 43.0558 80.8806L39.3587 83.0172C38.8765 83.2918 38.488 83.1712 38.488 82.7359C38.5233 82.4678 38.6203 82.2115 38.7713 81.9872C38.9224 81.7629 39.1235 81.5767 39.3587 81.4432V81.4432Z" fill="#E0E0E0"/>
<path d="M29.8276 102.661L51.5882 90.0966V105.22L52.0905 105.508L30.3233 118.073L29.8276 117.785V102.661Z" fill="#E0E0E0"/>
<path d="M30.3237 102.949L52.091 90.3845V105.508L30.3237 118.073V102.949Z" fill="#F5F5F5"/>
<path d="M38.856 100.585L42.5933 98.4484C43.0688 98.1738 43.464 98.3011 43.464 98.7364C43.4263 99.0029 43.3283 99.2573 43.1774 99.4801C43.0265 99.703 42.8267 99.8884 42.5933 100.022L38.856 102.139C38.3738 102.413 37.9854 102.286 37.9854 101.858C38.0235 101.593 38.1219 101.341 38.2728 101.12C38.4238 100.899 38.6233 100.716 38.856 100.585V100.585Z" fill="#E0E0E0"/>
<path d="M30.3237 83.5195L52.091 70.9547V86.078L30.3237 98.6427V83.5195Z" fill="#E0E0E0"/>
<path d="M62.9742 78.4292L51.0591 71.5508V84.8791L62.9742 91.7508V78.4292Z" fill="#E0E0E0"/>
<path d="M38.488 100.799V81.9455L43.1563 79.2397L43.9265 80.3783L57.5294 72.522V89.8018L38.488 100.799Z" fill="#EBEBEB"/>
<path d="M38.488 100.799L39.8477 84.3031L58.889 73.3123L57.5294 89.8018L38.488 100.799Z" fill="#F5F5F5"/>
<path d="M41.207 90.994L30.8257 84.9996V98.3279L41.207 104.316V90.994Z" fill="#EBEBEB"/>
<path d="M41.207 89.8018L62.9743 77.2371V92.3603L41.207 104.925V89.8018Z" fill="#F5F5F5"/>
<path d="M49.7398 87.4375L53.4369 85.301C53.9191 85.0264 54.3076 85.1536 54.3076 85.589C54.2714 85.8559 54.1739 86.1109 54.0229 86.3339C53.8719 86.557 53.6713 86.7422 53.4369 86.8749L49.7398 89.0114C49.2576 89.2861 48.8691 89.1588 48.8691 88.7301C48.9044 88.462 49.0014 88.2057 49.1525 87.9814C49.3035 87.7571 49.5046 87.5709 49.7398 87.4375Z" fill="#E0E0E0"/>
<path d="M41.2072 89.8018L40.4839 89.3866V104.51L41.2072 104.925V89.8018Z" fill="#E0E0E0"/>
<path d="M40.4839 89.3866L62.2445 76.8152L62.9745 77.2371L41.2072 89.8019L40.4839 89.3866Z" fill="#EBEBEB"/>
<path d="M252.564 141.24L233.516 130.242V89.4067L252.564 100.398V141.24Z" fill="#E0E0E0"/>
<path d="M252.564 100.397L279.769 84.6915V125.534L252.564 141.24V100.397Z" fill="#EBEBEB"/>
<path d="M279.77 84.6916L252.564 100.398L233.516 89.4067L260.728 73.6941L279.77 84.6916Z" fill="#F5F5F5"/>
<path d="M255.283 101.971L277.05 89.4067L277.553 89.6947L277.546 104.818L255.786 117.383L255.283 117.095V101.971Z" fill="#E0E0E0"/>
<path d="M255.785 102.259L277.553 89.6946L277.546 104.818L255.785 117.383V102.259Z" fill="#F5F5F5"/>
<path d="M264.318 99.8952L268.016 97.7587C268.498 97.4841 268.886 97.6113 268.886 98.04C268.851 98.3081 268.754 98.5644 268.603 98.7887C268.452 99.013 268.251 99.1992 268.016 99.3326L264.318 101.469C263.836 101.744 263.448 101.616 263.448 101.188C263.483 100.92 263.58 100.663 263.731 100.439C263.882 100.215 264.083 100.029 264.318 99.8952V99.8952Z" fill="#E0E0E0"/>
<path d="M254.781 121.113L276.549 108.542V123.672L277.051 123.96L255.284 136.524L254.781 136.236V121.113Z" fill="#E0E0E0"/>
<path d="M255.283 121.401L277.05 108.837V123.96L255.283 136.525V121.401Z" fill="#F5F5F5"/>
<path d="M263.816 119.037L267.52 116.901C267.996 116.626 268.384 116.753 268.384 117.182C268.349 117.449 268.252 117.705 268.102 117.929C267.953 118.153 267.753 118.339 267.52 118.474L263.816 120.611C263.334 120.886 262.946 120.758 262.946 120.323C262.982 120.056 263.079 119.801 263.23 119.578C263.381 119.355 263.582 119.17 263.816 119.037Z" fill="#E0E0E0"/>
<path d="M71.3936 183.924C71.3936 183.924 71.4673 173.301 64.7697 165.338C58.8423 158.285 55.6877 153.811 57.5564 151.748C59.425 149.685 63.4436 149.19 68.8619 154.896C74.2803 160.602 74.7023 176.409 73.9521 179.985L71.3936 183.924Z" fill="#B75400"/>
<path opacity="0.2" d="M71.3936 183.924C71.3936 183.924 71.4673 173.301 64.7697 165.338C58.8423 158.285 55.6877 153.811 57.5564 151.748C59.425 149.685 63.4436 149.19 68.8619 154.896C74.2803 160.602 74.7023 176.409 73.9521 179.985L71.3936 183.924Z" fill="black"/>
<path d="M72.5187 172.504C72.4424 172.505 72.3683 172.479 72.3086 172.431C72.2489 172.384 72.2073 172.317 72.1905 172.243C69.8463 161.279 63.8318 155.218 60.4495 152.579C60.3795 152.525 60.3339 152.445 60.3226 152.357C60.3113 152.269 60.3352 152.18 60.3893 152.11C60.4447 152.04 60.5257 151.994 60.6147 151.982C60.7036 151.971 60.7935 151.995 60.8648 152.05C64.3141 154.729 70.4558 160.931 72.8468 172.102C72.8567 172.145 72.8578 172.189 72.8503 172.232C72.8427 172.276 72.8266 172.317 72.8029 172.354C72.7792 172.39 72.7483 172.422 72.7122 172.447C72.676 172.472 72.6353 172.489 72.5923 172.498L72.5187 172.504Z" fill="white"/>
<path d="M71.1389 187.869L68.413 189.442C68.1222 188.648 67.6319 187.942 66.989 187.391C66.3462 186.841 65.5726 186.466 64.7427 186.301C61.7623 185.632 58.668 185.745 56.5783 183.16C54.4886 180.575 57.0337 177.762 56.5783 175.86C56.1229 173.958 55.8282 173.408 52.0909 171.506C48.3536 169.604 46.8801 166.45 49.6931 164.313C52.5062 162.176 57.0605 163.744 59.82 165.652C62.2713 167.327 64.6021 167.769 67.3414 168.111C70.0807 168.452 74.5413 169.972 73.8582 176.335C73.4108 180.274 72.4981 184.145 71.1389 187.869V187.869Z" fill="#B75400"/>
<path d="M60.677 179.51C60.6056 179.509 60.5362 179.486 60.4786 179.444C60.4209 179.402 60.3779 179.343 60.3555 179.275C60.3301 179.19 60.339 179.098 60.3803 179.02C60.4216 178.941 60.492 178.881 60.5765 178.854C60.8176 178.78 66.6044 176.945 69.0624 178.914C69.1234 178.971 69.1606 179.05 69.1666 179.133C69.1725 179.217 69.1469 179.3 69.0947 179.366C69.0425 179.431 68.9675 179.475 68.8846 179.488C68.8018 179.501 68.717 179.483 68.6471 179.436C66.4771 177.695 60.8377 179.476 60.7774 179.496L60.677 179.51Z" fill="white"/>
<path d="M71.4402 187.36C71.3587 187.36 71.2799 187.33 71.2192 187.276C71.1585 187.221 71.1203 187.146 71.112 187.065C69.6184 172.96 52.6266 166.269 52.4591 166.202C52.4176 166.186 52.3796 166.162 52.3473 166.132C52.315 166.102 52.2891 166.065 52.271 166.025C52.2529 165.984 52.2431 165.94 52.242 165.896C52.241 165.852 52.2488 165.808 52.2649 165.766C52.2978 165.685 52.3607 165.62 52.4404 165.584C52.5202 165.548 52.6108 165.543 52.6935 165.572C52.8744 165.646 70.2413 172.477 71.7751 187.005C71.7845 187.092 71.7588 187.18 71.7036 187.249C71.6484 187.318 71.5682 187.363 71.4804 187.373L71.4402 187.36Z" fill="white"/>
<path d="M238.03 178.606C238.104 178.371 240.977 163.583 238.03 153.094C235.351 143.477 231.855 139.927 226.872 139.143C221.889 138.36 219.726 141.95 222.371 146.812C225.017 151.675 231.386 158.124 232.947 168.988C233.617 173.462 234.126 177.347 234.126 177.347L238.03 178.606Z" fill="#B75400"/>
<path opacity="0.2" d="M238.03 178.606C238.104 178.371 240.977 163.583 238.03 153.094C235.351 143.477 231.855 139.927 226.872 139.143C221.889 138.36 219.726 141.95 222.371 146.812C225.017 151.675 231.386 158.124 232.947 168.988C233.617 173.462 234.126 177.347 234.126 177.347L238.03 178.606Z" fill="black"/>
<path d="M236.349 170.113C236.305 170.111 236.262 170.099 236.222 170.08C236.183 170.061 236.147 170.034 236.118 170.001C236.089 169.968 236.066 169.93 236.052 169.888C236.038 169.846 236.032 169.802 236.034 169.758C236.704 157.783 232.793 147.093 225.78 141.849C225.709 141.796 225.662 141.717 225.65 141.629C225.637 141.541 225.66 141.451 225.713 141.38C225.768 141.311 225.847 141.265 225.934 141.252C226.022 141.24 226.11 141.262 226.182 141.313C233.369 146.672 237.401 157.602 236.697 169.798C236.692 169.886 236.653 169.968 236.588 170.027C236.522 170.086 236.437 170.117 236.349 170.113Z" fill="white"/>
<path d="M245.739 186.308C245.357 183.555 246.938 179.43 250.695 178.452C254.453 177.474 256.127 175.317 254.774 172.96C253.421 170.602 253.736 168.439 257.145 167.461C260.554 166.483 263.541 164.782 261.579 161.178C260.152 158.573 259.837 156.885 263.334 151.755C266.234 147.495 263.863 144.997 260.233 145.466C256.603 145.935 254.359 150.261 252.088 150.985C249.818 151.708 249.295 147.85 246.302 149.578C243.308 151.306 243.489 155.733 243.395 158.821C243.301 161.909 243.1 162.605 240.394 162.23C237.688 161.855 235.036 162.297 235.096 168.841C235.143 174.453 238.137 181.405 238.137 181.405L245.739 186.308Z" fill="#B75400"/>
<path d="M240.991 182.122H240.957C240.868 182.112 240.786 182.067 240.729 181.997C240.673 181.926 240.646 181.837 240.656 181.747C242.544 164.876 257.025 150.643 260.802 147.756C260.873 147.702 260.963 147.679 261.051 147.691C261.14 147.702 261.22 147.749 261.274 147.82C261.328 147.891 261.352 147.981 261.34 148.069C261.328 148.158 261.282 148.238 261.211 148.292C257.48 151.139 243.187 165.184 241.325 181.821C241.316 181.903 241.276 181.979 241.215 182.034C241.153 182.09 241.073 182.121 240.991 182.122V182.122Z" fill="white"/>
<path d="M247.594 164.085C247.527 164.085 247.46 164.064 247.404 164.026C247.348 163.988 247.305 163.934 247.28 163.871C247.251 163.786 247.256 163.694 247.293 163.613C247.331 163.532 247.398 163.469 247.481 163.436C252.879 161.426 259.001 162.377 259.262 162.418C259.348 162.432 259.426 162.481 259.477 162.552C259.529 162.624 259.55 162.712 259.536 162.799C259.52 162.886 259.472 162.963 259.401 163.015C259.33 163.067 259.242 163.091 259.155 163.081C259.094 163.081 252.946 162.116 247.715 164.065C247.676 164.078 247.635 164.085 247.594 164.085V164.085Z" fill="white"/>
<path d="M242.786 174.225C242.739 174.225 242.692 174.214 242.65 174.195C242.607 174.175 242.569 174.147 242.538 174.112C240.293 171.497 238.771 168.341 238.124 164.956C238.118 164.912 238.12 164.868 238.13 164.825C238.141 164.782 238.16 164.742 238.186 164.707C238.212 164.671 238.245 164.641 238.282 164.619C238.32 164.596 238.362 164.581 238.405 164.574C238.449 164.568 238.493 164.57 238.536 164.58C238.579 164.591 238.619 164.609 238.655 164.636C238.69 164.662 238.72 164.695 238.743 164.732C238.766 164.77 238.781 164.812 238.787 164.855C239.428 168.107 240.892 171.14 243.04 173.663C243.082 173.712 243.109 173.772 243.118 173.836C243.127 173.9 243.118 173.966 243.091 174.025C243.064 174.084 243.022 174.134 242.968 174.169C242.913 174.205 242.85 174.224 242.786 174.225V174.225Z" fill="white"/>
<path d="M71.1392 84.2094V187.875L177.243 126.619L177.236 32.3765L98.3449 77.927L95.619 70.0707L71.1392 84.2094Z" fill="#B75400"/>
<path opacity="0.7" d="M71.1392 84.2094V187.875L177.243 126.619L177.236 32.3765L98.3449 77.927L95.619 70.0707L71.1392 84.2094Z" fill="black"/>
<path d="M71.1392 187.875L76.5776 93.633L182.681 32.3765L177.243 126.619L71.1392 187.875Z" fill="#E0E0E0"/>
<path d="M71.1389 187.875L79.2966 95.2068L185.4 33.9436L177.243 126.619L71.1389 187.875Z" fill="#B75400"/>
<path opacity="0.7" d="M71.1389 187.875L79.2966 95.2068L185.4 33.9436L177.243 126.619L71.1389 187.875Z" fill="black"/>
<path d="M87.4612 93.633V197.306L193.565 136.042V41.8L114.667 87.3506L111.948 79.4943L87.4612 93.633Z" fill="#B75400"/>
<path opacity="0.5" d="M87.4612 93.633V197.306L193.565 136.042V41.8L114.667 87.3506L111.948 79.4943L87.4612 93.633Z" fill="black"/>
<path d="M87.4612 197.306L92.8996 103.057L199.003 41.8L193.565 136.042L87.4612 197.306Z" fill="#E0E0E0"/>
<path d="M87.4609 197.306L95.6186 104.63L201.722 43.3673L193.565 136.042L87.4609 197.306Z" fill="#B75400"/>
<path opacity="0.5" d="M87.4609 197.306L95.6186 104.63L201.722 43.3673L193.565 136.042L87.4609 197.306Z" fill="black"/>
<path d="M177.216 230.291C158.168 219.294 140.499 207.339 132.435 193.314L156.949 179.162L177.216 230.291Z" fill="#E0E0E0"/>
<path d="M106.502 104.63V208.296L212.606 147.04V52.7975L133.708 98.348L130.989 90.4917L106.502 104.63Z" fill="#B75400"/>
<path opacity="0.2" d="M106.502 104.63V208.296L212.606 147.04V52.7975L133.708 98.348L130.989 90.4917L106.502 104.63Z" fill="black"/>
<path d="M137.07 135.279C136.802 135.279 136.762 134.971 136.762 134.79V46.3812C136.784 46.0382 136.884 45.7049 137.056 45.4074C137.228 45.1099 137.467 44.8564 137.753 44.6666L214.334 0.462267C214.439 0.396854 214.559 0.359915 214.682 0.355103C214.95 0.355103 214.99 0.663196 214.99 0.844031V89.2527C214.969 89.5967 214.869 89.9311 214.697 90.2298C214.525 90.5284 214.286 90.7832 213.999 90.974L137.419 135.178C137.313 135.241 137.193 135.275 137.07 135.279Z" fill="white"/>
<path d="M214.642 0.66317C214.647 0.712137 214.647 0.761553 214.642 0.810519V89.2192C214.62 89.5043 214.535 89.781 214.392 90.0289C214.25 90.2769 214.053 90.4899 213.818 90.6525L137.238 134.857L137.104 134.917C137.095 134.868 137.095 134.818 137.104 134.77V46.3611C137.127 46.0771 137.212 45.8018 137.355 45.555C137.497 45.3083 137.693 45.0963 137.927 44.9345L214.508 0.730146C214.55 0.700601 214.598 0.680083 214.649 0.66987L214.642 0.66317ZM214.689 0.000106997C214.506 0.00553688 214.329 0.0586498 214.173 0.154155L137.593 44.3585C137.256 44.5796 136.976 44.8766 136.775 45.2255C136.573 45.5744 136.457 45.9656 136.434 46.3678V134.776C136.434 135.299 136.695 135.6 137.104 135.6C137.286 135.595 137.464 135.542 137.619 135.446L214.2 91.2419C214.538 91.0223 214.819 90.7257 215.021 90.3765C215.222 90.0272 215.338 89.6352 215.359 89.2326V0.823917C215.359 0.301502 215.097 -0.00659063 214.689 0.000106997V0.000106997Z" fill="#B75400"/>
<path opacity="0.7" d="M214.642 0.66317C214.647 0.712137 214.647 0.761553 214.642 0.810519V89.2192C214.62 89.5043 214.535 89.781 214.392 90.0289C214.25 90.2769 214.053 90.4899 213.818 90.6525L137.238 134.857L137.104 134.917C137.095 134.868 137.095 134.818 137.104 134.77V46.3611C137.127 46.0771 137.212 45.8018 137.355 45.555C137.497 45.3083 137.693 45.0963 137.927 44.9345L214.508 0.730146C214.55 0.700601 214.598 0.680083 214.649 0.66987L214.642 0.66317ZM214.689 0.000106997C214.506 0.00553688 214.329 0.0586498 214.173 0.154155L137.593 44.3585C137.256 44.5796 136.976 44.8766 136.775 45.2255C136.573 45.5744 136.457 45.9656 136.434 46.3678V134.776C136.434 135.299 136.695 135.6 137.104 135.6C137.286 135.595 137.464 135.542 137.619 135.446L214.2 91.2419C214.538 91.0223 214.819 90.7257 215.021 90.3765C215.222 90.0272 215.338 89.6352 215.359 89.2326V0.823917C215.359 0.301502 215.097 -0.00659063 214.689 0.000106997V0.000106997Z" fill="white"/>
<path d="M144.592 49.7367L171.797 34.0308V65.4426L144.592 81.1486V49.7367Z" fill="#B75400"/>
<path opacity="0.8" d="M144.592 49.7367L171.797 34.0308V65.4426L144.592 81.1486V49.7367Z" fill="white"/>
<path d="M167.718 41.8602V51.3039L166.861 51.7794V48.8927C166.861 47.2987 165.569 46.7562 163.961 47.6805L152.435 54.3446C150.834 55.2689 149.534 57.3117 149.534 58.9057V61.7924L148.684 62.3014V52.8778L167.718 41.8602Z" fill="white"/>
<path d="M162.481 65.9047C161.088 66.7084 159.956 65.8645 159.956 64.0092V48.8927L156.453 50.7948V66.0319C156.453 67.8805 155.321 70.0505 153.928 70.8341L151.396 72.2942V73.2989L164.999 65.4425V64.4446L162.481 65.9047Z" fill="white"/>
<path d="M177.216 32.4835C177.216 33.3542 178 33.602 178.957 33.0528L205.426 17.7487C205.896 17.4825 206.298 17.1112 206.6 16.6638C206.902 16.2165 207.096 15.7052 207.168 15.1701C207.168 14.3061 206.384 14.0516 205.426 14.6075L178.978 29.8781C178.5 30.1438 178.092 30.5181 177.786 30.9707C177.48 31.4233 177.285 31.9415 177.216 32.4835V32.4835Z" fill="#455A64"/>
<path d="M177.216 41.8602C177.216 42.7309 178 42.9854 178.957 42.4295L205.406 27.1589C205.876 26.8927 206.278 26.5213 206.58 26.074C206.882 25.6266 207.076 25.1154 207.148 24.5803C207.148 23.7163 206.364 23.4618 205.406 24.0177L178.957 39.2883C178.489 39.5538 178.088 39.9241 177.785 40.3702C177.483 40.8164 177.289 41.3263 177.216 41.8602Z" fill="#455A64"/>
<path d="M177.216 51.3038C177.216 52.1745 178 52.429 178.957 51.8731L205.406 36.6025C205.875 36.337 206.276 35.9667 206.578 35.5206C206.88 35.0744 207.075 34.5645 207.148 34.0306C207.148 33.16 206.364 32.9054 205.406 33.4613L178.957 48.7319C178.489 48.9975 178.088 49.3677 177.785 49.8139C177.483 50.26 177.289 50.7699 177.216 51.3038V51.3038Z" fill="#455A64"/>
<path d="M177.216 60.7274C177.216 61.5981 178 61.8526 178.957 61.2967L205.406 46.0261C205.875 45.7606 206.276 45.3903 206.578 44.9442C206.88 44.498 207.075 43.9881 207.148 43.4542C207.148 42.5835 206.364 42.329 205.406 42.8849L178.957 58.1555C178.489 58.421 178.088 58.7913 177.785 59.2375C177.483 59.6836 177.289 60.1935 177.216 60.7274V60.7274Z" fill="#455A64"/>
<path d="M144.592 89.0048C144.592 89.8755 145.368 90.13 146.333 89.5741L205.426 55.4162C205.896 55.1515 206.297 54.7814 206.599 54.3351C206.902 53.8889 207.096 53.3785 207.167 52.8443C207.167 51.9736 206.384 51.7258 205.426 52.275L146.333 86.4329C145.863 86.6972 145.461 87.0672 145.159 87.5136C144.857 87.9599 144.663 88.4704 144.592 89.0048V89.0048Z" fill="#455A64"/>
<path d="M144.592 98.4284C144.592 99.299 145.368 99.5536 146.333 98.9977L205.426 64.8799C205.896 64.6137 206.297 64.2424 206.599 63.7951C206.902 63.3477 207.096 62.8364 207.167 62.3014C207.167 61.4374 206.384 61.1829 205.426 61.7388L146.333 95.8565C145.863 96.1208 145.461 96.4907 145.159 96.9371C144.857 97.3835 144.663 97.894 144.592 98.4284V98.4284Z" fill="#455A64"/>
<path d="M144.592 107.859C144.592 108.723 145.368 108.977 146.333 108.421L205.426 74.3035C205.896 74.0373 206.297 73.666 206.599 73.2186C206.902 72.7713 207.096 72.26 207.167 71.7249C207.167 70.8609 206.384 70.6064 205.426 71.1623L146.333 105.28C145.862 105.545 145.46 105.916 145.158 106.364C144.855 106.811 144.662 107.323 144.592 107.859V107.859Z" fill="#455A64"/>
<path d="M106.502 208.296L125.544 125.051L231.647 63.7882L212.606 147.04L106.502 208.296Z" fill="#B75400"/>
<path d="M132.462 131.568V193.314L156.949 179.175V117.436L132.462 131.568Z" fill="#B75400"/>
<path opacity="0.2" d="M132.462 131.568V193.314L156.949 179.175V117.436L132.462 131.568Z" fill="black"/>
<path d="M177.263 229.889C175.18 228.335 155.1 212.991 144.893 191.043C134.029 167.709 134.043 140.489 134.043 130.249V129.927L206.833 87.9064C206.833 98.2408 206.833 125.5 217.743 148.915C227.716 170.347 247.025 185.497 250.086 187.815L177.263 229.889Z" fill="white"/>
<path d="M206.498 88.5091C206.498 99.2789 206.705 126.016 217.442 149.082C227.08 169.778 245.404 184.66 249.483 187.801L177.283 229.487C174.463 227.364 155.14 212.275 145.201 190.929C134.351 167.662 134.351 140.496 134.351 130.269V130.142L206.471 88.5024L206.498 88.5091ZM207.141 87.3437L133.681 129.76C133.681 139.398 133.48 167.4 144.565 191.211C155.475 214.579 177.216 230.291 177.216 230.291L250.695 187.868C250.695 187.868 228.928 172.156 218.051 148.788C206.96 124.978 207.167 96.9749 207.167 87.337L207.141 87.3437Z" fill="#B75400"/>
<path opacity="0.7" d="M206.498 88.5091C206.498 99.2789 206.705 126.016 217.442 149.082C227.08 169.778 245.404 184.66 249.483 187.801L177.283 229.487C174.463 227.364 155.14 212.275 145.201 190.929C134.351 167.662 134.351 140.496 134.351 130.269V130.142L206.471 88.5024L206.498 88.5091ZM207.141 87.3437L133.681 129.76C133.681 139.398 133.48 167.4 144.565 191.211C155.475 214.579 177.216 230.291 177.216 230.291L250.695 187.868C250.695 187.868 228.928 172.156 218.051 148.788C206.96 124.978 207.167 96.9749 207.167 87.337L207.141 87.3437Z" fill="white"/>
<path d="M198.856 101.57L175.628 114.965C175.164 115.221 174.767 115.585 174.473 116.027C174.18 116.469 173.997 116.975 173.941 117.503C173.974 118.354 174.785 118.595 175.742 118.039L198.976 104.644C199.436 104.39 199.828 104.031 200.12 103.595C200.413 103.159 200.597 102.66 200.658 102.139C200.617 101.255 199.82 101.014 198.856 101.57Z" fill="#455A64"/>
<path d="M199.352 110.712L176.124 124.107C175.665 124.354 175.275 124.713 174.992 125.151C174.709 125.589 174.541 126.092 174.503 126.612C174.577 127.436 175.421 127.657 176.379 127.101L199.613 113.706C200.07 113.46 200.457 113.101 200.737 112.664C201.017 112.227 201.181 111.726 201.214 111.207C201.147 110.377 200.316 110.176 199.352 110.712Z" fill="#455A64"/>
<path d="M200.283 119.6L177.048 132.995C176.091 133.551 175.394 134.656 175.508 135.453C175.622 136.25 176.499 136.457 177.464 135.902L200.698 122.506C201.656 121.95 202.339 120.852 202.218 120.055C202.098 119.258 201.24 119.044 200.283 119.6Z" fill="#455A64"/>
<path d="M201.675 128.219L178.441 141.615C177.484 142.171 176.821 143.256 176.981 144.033C177.142 144.809 178.053 144.984 178.991 144.428L202.218 131.032C203.182 130.477 203.825 129.398 203.665 128.621C203.504 127.844 202.667 127.664 201.675 128.219Z" fill="#455A64"/>
<path d="M203.564 136.551L180.33 149.946C179.372 150.502 178.749 151.561 178.99 152.304C179.232 153.047 180.149 153.215 181.107 152.659L204.341 139.264C205.305 138.708 205.908 137.656 205.681 136.906C205.453 136.156 204.522 135.995 203.564 136.551Z" fill="#455A64"/>
<path d="M206.015 144.582L149.394 177.273C148.436 177.829 147.853 178.86 148.114 179.577C148.376 180.294 149.374 180.428 150.331 179.872L206.953 147.181C207.918 146.625 208.473 145.6 208.212 144.877C207.951 144.153 206.94 144.026 206.015 144.582Z" fill="#455A64"/>
<path d="M208.996 152.251L152.381 184.942C151.417 185.498 150.887 186.502 151.209 187.185C151.53 187.869 152.548 187.976 153.526 187.42L210.148 154.729C211.112 154.173 211.628 153.168 211.307 152.485C210.985 151.802 209.96 151.701 208.996 152.251Z" fill="#455A64"/>
<path d="M212.713 159.558L156.091 192.249C155.127 192.805 154.651 193.783 155.033 194.432C155.415 195.082 156.507 195.149 157.471 194.593L214.053 161.902C215.01 161.353 215.473 160.381 215.091 159.732C214.709 159.082 213.651 159.002 212.713 159.558Z" fill="#455A64"/>
<path d="M217.046 166.47L160.431 199.154C159.467 199.71 159.038 200.668 159.474 201.277C159.909 201.887 161.054 201.947 162.019 201.384L218.634 168.693C219.598 168.137 220.013 167.193 219.578 166.577C219.143 165.96 218.011 165.914 217.046 166.47Z" fill="#455A64"/>
<path d="M221.99 173.04L165.368 205.724C164.41 206.28 164.028 207.211 164.511 207.794C164.993 208.377 166.178 208.403 167.143 207.848L223.764 175.143C224.722 174.587 225.104 173.67 224.608 173.087C224.113 172.504 222.954 172.464 221.99 173.04Z" fill="#455A64"/>
<path d="M227.448 179.296L170.846 211.98C169.882 212.536 169.507 213.447 170.069 213.989C170.632 214.532 171.824 214.545 172.782 213.989L229.404 181.298C230.368 180.742 230.703 179.845 230.167 179.289C229.631 178.733 228.426 178.746 227.448 179.296Z" fill="#455A64"/>
<path d="M233.476 185.276L176.854 217.961C175.896 218.517 175.582 219.408 176.184 219.937C176.787 220.466 178.02 220.446 178.984 219.89L235.559 187.199C236.517 186.643 236.818 185.772 236.229 185.236C235.639 184.7 234.414 184.721 233.476 185.276Z" fill="#455A64"/>
<path d="M167.21 119.847L140.5 135.252C140.794 144.93 141.899 158.888 145.945 172.946L172.662 157.542C168.609 143.483 167.504 129.519 167.21 119.847Z" fill="#B75400"/>
<path opacity="0.8" d="M167.21 119.847L140.5 135.252C140.794 144.93 141.899 158.888 145.945 172.946L172.662 157.542C168.609 143.483 167.504 129.519 167.21 119.847Z" fill="white"/>
<path d="M151.39 133.122C151.426 132.497 151.329 131.872 151.105 131.288C150.881 130.704 150.535 130.174 150.091 129.733L140.5 135.265C140.58 137.824 140.714 140.684 140.948 143.765C142.196 143.908 143.458 143.675 144.572 143.095C148.342 141.367 151.39 136.886 151.39 133.122Z" fill="#B75400"/>
<path opacity="0.6" d="M151.39 133.122C151.426 132.497 151.329 131.872 151.105 131.288C150.881 130.704 150.535 130.174 150.091 129.733L140.5 135.265C140.58 137.824 140.714 140.684 140.948 143.765C142.196 143.908 143.458 143.675 144.572 143.095C148.342 141.367 151.39 136.886 151.39 133.122Z" fill="white"/>
<path d="M170.391 148.299C168.609 146.055 164.986 139.123 163.439 136.103C163.378 135.983 163.283 135.885 163.165 135.82C163.048 135.755 162.914 135.727 162.781 135.74C162.647 135.752 162.521 135.804 162.417 135.889C162.313 135.974 162.238 136.088 162.2 136.216C160.526 141.938 159.554 147.842 159.306 153.798C157.076 152.027 155.158 149.894 153.634 147.488C153.569 147.395 153.478 147.323 153.373 147.279C153.268 147.235 153.153 147.223 153.041 147.242C152.929 147.262 152.825 147.313 152.742 147.39C152.658 147.467 152.598 147.566 152.569 147.676C149.648 158.921 151.115 169.986 151.115 169.986L172.661 157.542C171.764 154.434 171.021 151.34 170.391 148.299Z" fill="#B75400"/>
<path opacity="0.6" d="M170.391 148.299C168.609 146.055 164.986 139.123 163.439 136.103C163.378 135.983 163.283 135.885 163.165 135.82C163.048 135.755 162.914 135.727 162.781 135.74C162.647 135.752 162.521 135.804 162.417 135.889C162.313 135.974 162.238 136.088 162.2 136.216C160.526 141.938 159.554 147.842 159.306 153.798C157.076 152.027 155.158 149.894 153.634 147.488C153.569 147.395 153.478 147.323 153.373 147.279C153.268 147.235 153.153 147.223 153.041 147.242C152.929 147.262 152.825 147.313 152.742 147.39C152.658 147.467 152.598 147.566 152.569 147.676C149.648 158.921 151.115 169.986 151.115 169.986L172.661 157.542C171.764 154.434 171.021 151.34 170.391 148.299Z" fill="white"/>
</svg>
