<svg width="82" height="83" viewBox="0 0 82 83" fill="none" xmlns="http://www.w3.org/2000/svg">
<g clip-path="url(#clip0_815_984)">
<path d="M0 0.264954H82V82.265H0V0.264954Z" fill="#E85E13"/>
<path d="M25.0777 45.6979C25.0777 52.2668 21.2398 55.5143 15.778 55.5143C11.5054 55.5143 8.73352 53.5379 6.91293 51.0448L10.1195 47.7645C11.7432 49.8229 13.3588 51.012 15.696 51.012C18.3039 51.012 20.0917 49.2735 20.0917 45.5913V27.4183H25.0777V45.6979ZM33.9018 55.1124H29.1126V34.2167H33.9018V55.1124ZM31.4826 31.8549C29.7604 31.8549 28.3663 30.4608 28.3581 28.7468C28.3581 27.0246 29.7522 25.6305 31.4662 25.6223C33.1802 25.6141 34.5825 27.0164 34.5907 28.7304V28.7386C34.5989 30.4608 33.2048 31.8549 31.4826 31.8549ZM53.0836 48.9372C53.0836 53.3247 49.6802 55.5061 45.3256 55.5061C42.3569 55.5061 39.0765 54.44 36.4605 52.3816L38.6009 49.1422C40.8561 50.8398 43.3082 51.7173 45.4486 51.7173C47.507 51.7173 48.6879 50.848 48.6879 49.4621V49.3801C48.6879 47.7563 46.4737 47.2069 44.0216 46.4524C40.9381 45.5831 37.4938 44.3202 37.4938 40.3182V40.2362C37.4938 36.2834 40.7823 33.8641 44.9319 33.8641C47.5398 33.8641 50.3937 34.7744 52.6079 36.2424L50.7053 39.6457C48.6879 38.4238 46.5475 37.6693 44.8089 37.6693C42.9473 37.6693 41.8812 38.5386 41.8812 39.7687V39.8507C41.8812 41.3515 44.1365 41.9829 46.5885 42.7784C49.631 43.7297 53.0754 45.1156 53.0754 48.8716L53.0836 48.9372ZM66.0244 55.5881C59.8082 55.5881 55.224 50.725 55.224 44.7466C55.224 38.7682 59.8164 33.7903 66.0655 33.7903C70.0264 33.7903 72.4785 35.2583 74.4139 37.3905L71.4452 40.597C69.9854 39.0552 68.4355 37.9891 66.0244 37.9891C62.5391 37.9891 60.0132 40.9988 60.0132 44.6728C60.0132 48.4288 62.5883 51.4385 66.2623 51.4385C68.5175 51.4385 70.1823 50.3724 71.683 48.8306L74.5697 51.6845C72.5113 53.9643 70.1003 55.5881 66.0244 55.5881Z" fill="white"/>
</g>
<defs>
<clipPath id="clip0_815_984">
<rect width="82" height="82" fill="white" transform="translate(0 0.264954)"/>
</clipPath>
</defs>
</svg>
