<svg xmlns="http://www.w3.org/2000/svg" width="139" height="46" viewBox="0 0 139 46" fill="none">
  <g clip-path="url(#clip0_815_988)">
    <path d="M62.1433 37.1099C60.4533 37.1099 58.9133 36.7999 57.4933 36.2199C56.1033 35.6299 54.9033 34.7999 53.8933 33.7899C52.8733 32.7699 52.1033 31.5699 51.5533 30.1899C51.0033 28.8399 50.7233 27.3599 50.7233 25.8199V25.7599C50.7233 24.2199 51.0033 22.7399 51.5533 21.3899C52.1033 20.0399 52.9033 18.8299 53.9233 17.7899C54.9433 16.7399 56.1733 15.9399 57.5533 15.3299C58.9433 14.7099 60.5133 14.4399 62.2033 14.4399C63.8933 14.4399 65.4333 14.7499 66.8533 15.3299C68.2433 15.9199 69.4433 16.7499 70.4533 17.7599C71.4733 18.7799 72.2433 19.9799 72.7933 21.3599C73.3433 22.7099 73.6233 24.1899 73.6233 25.7299V25.7899C73.6233 27.3299 73.3433 28.8099 72.7933 30.1599C72.2433 31.5099 71.4433 32.7199 70.4233 33.7599C69.4033 34.8099 68.1733 35.6099 66.7933 36.2199C65.3733 36.7999 63.8333 37.1099 62.1433 37.1099ZM62.2033 33.5399C63.2833 33.5399 64.2933 33.3199 65.1933 32.9199C66.1133 32.5199 66.8833 31.9699 67.5333 31.2599C68.1833 30.5499 68.6733 29.7499 69.0433 28.7999C69.4133 27.8799 69.5933 26.8599 69.5933 25.7799V25.7199C69.5933 24.6399 69.4133 23.6599 69.0433 22.6999C68.6733 21.7499 68.1533 20.9099 67.5033 20.2399C66.8533 19.5299 66.0533 18.9799 65.1333 18.5799C64.2133 18.1499 63.2233 17.9599 62.1133 17.9599C61.0333 17.9599 60.0233 18.1799 59.1233 18.5799C58.2033 18.9799 57.4333 19.5299 56.7833 20.2399C56.1333 20.9499 55.6433 21.7499 55.2733 22.6999C54.9033 23.6499 54.7233 24.6399 54.7233 25.7199V25.7799C54.7233 26.8599 54.9033 27.8399 55.2733 28.7999C55.6433 29.7499 56.1333 30.5899 56.8133 31.2599C57.4633 31.9699 58.2633 32.5199 59.1833 32.9199C60.1033 33.3499 61.1233 33.5399 62.2033 33.5399Z" fill="#333F48"/>
    <path d="M86.4033 37.1099C84.8033 37.1099 83.3233 36.8298 81.9733 36.2198C80.6233 35.6298 79.4133 34.8299 78.4333 33.8199C77.4533 32.8099 76.6733 31.5999 76.0933 30.2199C75.5433 28.8299 75.2633 27.3599 75.2633 25.7899V25.7299C75.2633 24.1599 75.5433 22.6799 76.0933 21.3299C76.6433 19.9799 77.4133 18.7699 78.4333 17.7299C79.4533 16.6799 80.6233 15.8799 82.0333 15.2999C83.4233 14.7099 84.9233 14.4099 86.5933 14.4099C87.6133 14.4099 88.5033 14.4999 89.3333 14.6599C90.1633 14.8099 90.9033 15.0599 91.6133 15.3699C92.2933 15.6799 92.9333 16.0499 93.5233 16.4499C94.1133 16.8799 94.6633 17.3399 95.1833 17.8399L92.7233 20.6999C91.8333 19.8999 90.9033 19.2199 89.9233 18.7299C88.9333 18.2399 87.8333 17.9899 86.5633 17.9899C85.5133 17.9899 84.5633 18.2099 83.6733 18.6099C82.7833 19.0099 82.0133 19.5599 81.3933 20.2699C80.7433 20.9799 80.2533 21.7799 79.8833 22.7299C79.5133 23.6799 79.3333 24.6699 79.3333 25.7499V25.8099C79.3333 26.8899 79.5133 27.8699 79.8833 28.8299C80.2533 29.7799 80.7433 30.6199 81.3933 31.3199C82.0433 32.0299 82.7833 32.5799 83.6733 32.9799C84.5633 33.3799 85.5233 33.5998 86.5633 33.5998C87.2433 33.5998 87.8533 33.5398 88.4133 33.3798C88.9633 33.2598 89.5233 33.0698 90.0133 32.8298C90.5033 32.5898 91.0033 32.3099 91.4633 31.9398C91.9233 31.5698 92.3833 31.1998 92.8533 30.7398L95.3133 33.2299C94.7633 33.8199 94.1733 34.3398 93.5533 34.8298C92.9333 35.3198 92.2633 35.7198 91.5533 36.0598C90.8433 36.3998 90.0733 36.6799 89.2133 36.8599C88.3433 37.0199 87.4233 37.1099 86.4033 37.1099Z" fill="#333F48"/>
    <path d="M98.0133 14.7798H101.863V33.1998H113.413V36.7098H98.0133V14.7798Z" fill="#333F48"/>
    <path d="M124.473 37.1099C122.873 37.1099 121.393 36.8298 120.043 36.2198C118.693 35.6298 117.483 34.8299 116.503 33.8199C115.513 32.7999 114.743 31.5999 114.163 30.2199C113.613 28.8299 113.333 27.3599 113.333 25.7899V25.7299C113.333 24.1599 113.613 22.6799 114.163 21.3299C114.713 19.9799 115.483 18.7699 116.503 17.7299C117.523 16.6799 118.693 15.8799 120.103 15.2999C121.493 14.7099 122.993 14.4099 124.663 14.4099C125.683 14.4099 126.573 14.4999 127.403 14.6599C128.233 14.8099 128.973 15.0599 129.683 15.3699C130.393 15.6799 131.003 16.0499 131.593 16.4499C132.183 16.8799 132.733 17.3399 133.253 17.8399L130.793 20.6999C129.933 19.8999 128.973 19.2199 127.993 18.7299C127.013 18.2399 125.903 17.9899 124.633 17.9899C123.583 17.9899 122.633 18.2099 121.743 18.6099C120.853 19.0099 120.083 19.5599 119.463 20.2699C118.813 20.9799 118.323 21.7799 117.953 22.7299C117.583 23.6799 117.403 24.6699 117.403 25.7499V25.8099C117.403 26.8899 117.583 27.8699 117.953 28.8299C118.323 29.7799 118.813 30.6199 119.463 31.3199C120.113 32.0299 120.853 32.5799 121.743 32.9799C122.633 33.3799 123.593 33.5998 124.633 33.5998C125.313 33.5998 125.923 33.5398 126.483 33.3798C127.033 33.2598 127.593 33.0698 128.083 32.8298C128.573 32.5798 129.073 32.3099 129.533 31.9398C129.993 31.5698 130.453 31.1998 130.923 30.7398L133.383 33.2299C132.833 33.8199 132.243 34.3398 131.623 34.8298C131.003 35.3198 130.333 35.7198 129.623 36.0598C128.913 36.3998 128.143 36.6799 127.283 36.8599C126.443 37.0199 125.483 37.1099 124.473 37.1099Z" fill="#333F48"/>
    <path d="M36.2133 15.1499C34.6133 5.29988 25.3133 -1.36012 15.4533 0.27988C5.59332 1.91988 -1.05668 11.2099 0.583323 21.0299C1.78332 28.3899 7.29332 33.9599 14.1033 35.6299C14.1333 35.1099 14.1933 34.5499 14.3233 34.0299C9.42332 32.3399 5.57332 27.9599 4.65332 22.3899C3.32332 14.3199 8.55332 6.73988 16.3733 5.44988C23.3333 4.30988 29.9933 8.52988 32.2633 15.1799C33.8633 15.7699 35.2833 16.6299 36.4233 17.7699C36.4533 16.9099 36.3633 16.0099 36.2133 15.1499Z" fill="#236192"/>
    <path d="M32.4533 11.9199C24.9733 9.88989 17.2433 14.2599 15.1733 21.7399C14.3133 24.8199 14.5833 27.9599 15.6933 30.7299C16.0933 30.1799 16.5533 29.6499 17.0833 29.2199C16.7433 27.4599 16.7733 25.6199 17.3033 23.7699C19.0233 17.5499 25.2833 13.8199 31.3133 15.4899C37.3433 17.1599 40.8633 23.5299 39.1333 29.7799C37.9633 34.0299 34.7033 37.0799 30.8233 38.0899C30.6733 38.5499 30.4833 39.0099 30.2733 39.4399C35.8133 38.8199 40.7133 34.9099 42.2833 29.1899C44.3133 21.7099 39.9033 13.9799 32.4533 11.9199Z" fill="#4C8C2B"/>
    <path d="M28.3533 26.5399C23.7333 23.4899 17.5133 24.7799 14.4633 29.4299C11.4133 34.0499 12.7033 40.2699 17.3533 43.3199C21.9733 46.3699 28.2233 45.0799 31.2433 40.4299C34.3033 35.8099 33.0033 29.5899 28.3533 26.5399ZM29.0033 39.9099C26.6033 43.5699 21.7933 44.6499 18.2533 42.3399C14.7133 40.0299 13.7833 35.1599 16.1933 31.4999C18.5933 27.8399 23.4033 26.7599 26.9433 29.0699C30.4833 31.4099 31.4033 36.2799 29.0033 39.9099Z" fill="#E87722"/>
    <path d="M136.693 17.5199C136.473 17.5199 136.293 17.4899 136.143 17.3999C135.963 17.3399 135.803 17.2199 135.683 17.0899C135.563 16.9699 135.463 16.8099 135.373 16.6299C135.313 16.4499 135.253 16.2599 135.253 16.0799C135.253 15.8999 135.283 15.7099 135.373 15.5299C135.433 15.3499 135.553 15.1899 135.683 15.0699C135.803 14.9499 135.963 14.8199 136.143 14.7599C136.323 14.6999 136.513 14.6399 136.693 14.6399C136.913 14.6399 137.093 14.6699 137.243 14.7599C137.423 14.8199 137.583 14.9399 137.703 15.0699C137.823 15.1899 137.923 15.3499 138.013 15.5299C138.073 15.7099 138.133 15.8999 138.133 16.0799C138.133 16.2599 138.103 16.4499 138.013 16.6299C137.953 16.8099 137.833 16.9699 137.703 17.0899C137.583 17.2099 137.423 17.3399 137.243 17.3999C137.093 17.4899 136.913 17.5199 136.693 17.5199ZM136.693 17.3699C136.873 17.3699 137.033 17.3399 137.183 17.2799C137.333 17.2199 137.463 17.1299 137.583 16.9999C137.703 16.8799 137.803 16.7499 137.863 16.5999C137.923 16.4499 137.953 16.2899 137.953 16.1099C137.953 15.9299 137.923 15.7699 137.863 15.6199C137.803 15.4699 137.713 15.3399 137.583 15.2199C137.463 15.0999 137.333 14.9999 137.183 14.9399C137.033 14.8799 136.873 14.8499 136.693 14.8499C136.513 14.8499 136.353 14.8799 136.203 14.9399C136.053 14.9999 135.923 15.0899 135.803 15.2199C135.683 15.3399 135.583 15.4699 135.523 15.6199C135.463 15.7699 135.433 15.9299 135.433 16.1099C135.433 16.2899 135.463 16.4499 135.523 16.5999C135.583 16.7499 135.673 16.8799 135.803 16.9999C135.923 17.1199 136.053 17.2199 136.203 17.2799C136.353 17.3399 136.513 17.3699 136.693 17.3699ZM136.113 15.2999H136.793C137.013 15.2999 137.163 15.3599 137.253 15.4499C137.343 15.5399 137.373 15.6299 137.373 15.7899C137.373 15.9099 137.343 16.0099 137.283 16.0999C137.223 16.1599 137.133 16.2199 137.033 16.2799L137.403 16.8299H137.003L136.663 16.3399H136.443V16.8299H136.103V15.2999H136.113ZM136.783 16.0399C136.873 16.0399 136.933 16.0099 136.963 15.9799C136.993 15.9499 137.023 15.8899 137.023 15.8299C137.023 15.7699 136.993 15.7099 136.963 15.6799C136.903 15.6499 136.843 15.6199 136.783 15.6199H136.443V16.0499H136.783V16.0399Z" fill="#333F48"/>
  </g>
  <defs>
    <clipPath id="clip0_815_988">
      <rect width="138" height="45" fill="white" transform="translate(0.333313 0.0299072)"/>
    </clipPath>
  </defs>
</svg>
