<svg xmlns="http://www.w3.org/2000/svg" width="57" height="62" viewBox="0 0 57 62" fill="none">
<path d="M16.9164 3.39316V9.16638H11.1432H11.1431C10.8885 9.16645 10.6443 9.26762 10.4643 9.44767C10.2842 9.62771 10.1831 9.87188 10.183 10.1265V10.1265V58.6062C10.1831 58.8608 10.2842 59.105 10.4643 59.2851C10.6443 59.4651 10.8885 59.5663 11.1431 59.5663H45.9155C46.1702 59.5663 46.4144 59.4651 46.5944 59.2851C46.7745 59.105 46.8756 58.8608 46.8757 58.6062V52.833H52.6489C52.9036 52.8329 53.1477 52.7317 53.3278 52.5517C53.5078 52.3716 53.609 52.1275 53.6091 51.8728V50.4577L53.6091 48.8847L53.6091 46.7309C53.6091 46.7307 53.6091 46.7305 53.6091 46.7303V46.6627V3.39316C53.609 3.13851 53.5078 2.89433 53.3278 2.71429C53.1478 2.53425 52.9036 2.43307 52.649 2.43301H17.8766H17.8765C17.6219 2.43307 17.3777 2.53425 17.1977 2.71429C17.0176 2.89433 16.9165 3.13851 16.9164 3.39313V3.39316ZM46.5757 9.2338V9.42943C46.4877 9.34613 46.3856 9.28095 46.2751 9.2363L46.5757 9.2338ZM51.6887 50.9127H48.7655C48.9491 50.8696 49.1353 50.8225 49.3198 50.7748C49.4332 50.7454 49.5459 50.7158 49.6574 50.6865C50.1809 50.549 50.675 50.4192 51.0615 50.3627C51.2984 50.3282 51.473 50.3249 51.5822 50.3526C51.6347 50.3658 51.6593 50.3832 51.6704 50.3954C51.679 50.4048 51.6888 50.4207 51.6887 50.4577V50.5198V50.9127ZM13.2857 17.6788L13.2857 17.8288V17.6788H13.284H13.2823H13.2806H13.2789H13.2772H13.2755H13.2738H13.2721H13.2705H13.2688H13.2671H13.2655H13.2638H13.2622H13.2605H13.2589H13.2572H13.2556H13.254H13.2524H13.2507H13.2491H13.2475H13.2459H13.2443H13.2427H13.2412H13.2396H13.238H13.2364H13.2349H13.2333H13.2317H13.2302H13.2286H13.2271H13.2256H13.224H13.2225H13.221H13.2194H13.2179H13.2164H13.2149H13.2134H13.2119H13.2104H13.2089H13.2074H13.206H13.2045H13.203H13.2016H13.2001H13.1986H13.1972H13.1957H13.1943H13.1928H13.1914H13.19H13.1885H13.1871H13.1857H13.1843H13.1829H13.1815H13.1801H13.1787H13.1773H13.1759H13.1745H13.1731H13.1717H13.1703H13.169H13.1676H13.1662H13.1649H13.1635H13.1622H13.1608H13.1595H13.1581H13.1568H13.1555H13.1541H13.1528H13.1515H13.1502H13.1489H13.1475H13.1462H13.1449H13.1436H13.1423H13.141H13.1398H13.1385H13.1372H13.1359H13.1346H13.1334H13.1321H13.1308H13.1296H13.1283H13.1271H13.1258H13.1246H13.1233H13.1221H13.1208H13.1196H13.1184H13.1171H13.1159H13.1147H13.1135H13.1123H13.1111H13.1099H13.1086H13.1074H13.1062H13.1051H13.1039H13.1027H13.1015H13.1003H13.0991H13.0979H13.0968H13.0956H13.0944H13.0933H13.0921H13.0909H13.0898H13.0886H13.0875H13.0863H13.0852H13.0841H13.0829H13.0818H13.0806H13.0795H13.0784H13.0773H13.0761H13.075H13.0739H13.0728H13.0717H13.0706H13.0695H13.0683H13.0672H13.0661H13.065H13.064H13.0629H13.0618H13.0607H13.0596H13.0585H13.0574H13.0564H13.0553H13.0542H13.0531H13.0521H13.051H13.0499H13.0489H13.0478H13.0468H13.0457H13.0447H13.0436H13.0426H13.0415H13.0405H13.0394H13.0384H13.0374H13.0363H13.0353H13.0343H13.0332H13.0322H13.0312H13.0302H13.0291H13.0281H13.0271H13.0261H13.0251H13.0241H13.023H13.022H13.021H13.02H13.019H13.018H13.017H13.016H13.015H13.014H13.013H13.0121H13.0111H13.0101H13.0091H13.0081H13.0071H13.0061H13.0052H13.0042H13.0032H13.0022H13.0013H13.0003H12.9993H12.9984H12.9974H12.9964H12.9955H12.9945H12.9935H12.9926H12.9916H12.9906H12.9897H12.9887H12.9878H12.9868H12.9859H12.9849H12.984H12.983H12.9821H12.9811H12.9802H12.9792H12.9783H12.9774H12.9764H12.9755H12.9745H12.9736H12.9727H12.9717H12.9708H12.9699H12.9689H12.968H12.9671H12.9661H12.9652H12.9643H12.9633H12.9624H12.9615H12.9606H12.9596H12.9587H12.9578H12.9569H12.9559H12.955H12.9541H12.9532H12.9523H12.9513H12.9504H12.9495H12.9486H12.9477H12.9467H12.9458H12.9449H12.944H12.9431H12.9422H12.9413H12.9403H12.9394H12.9385H12.9376H12.9367H12.9358H12.9349H12.9339H12.933H12.9321H12.9312H12.9303H12.9294H12.9285H12.9276H12.9267H12.9258H12.9248H12.9239H12.923H12.9221H12.9212H12.9203H12.9194H12.9185H12.9176H12.9166H12.9157H12.9148H12.9139H12.913H12.9121H12.9112H12.9103H12.9094H12.9085H12.9075H12.9066H12.9057H12.9048H12.9039H12.903H12.9021H12.9011H12.9002H12.8993H12.8984H12.8975H12.8966H12.8957H12.8947H12.8938H12.8929H12.892H12.8911H12.8901H12.8892H12.8883H12.8874H12.8865H12.8855H12.8846H12.8837H12.8828H12.8818H12.8809H12.88H12.8791H12.8781H12.8772H12.8763H12.8753H12.8744H12.8735H12.8725H12.8716H12.8707H12.8697H12.8688H12.8679H12.8669H12.866H12.865H12.8641H12.8632H12.8622H12.8613H12.8603H12.8594H12.8584H12.8575H12.8565H12.8556H12.8546H12.8537H12.8527H12.8518H12.8508H12.8498H12.8489H12.8479H12.8469H12.846H12.845H12.844H12.8431H12.8421H12.8411H12.8402H12.8392H12.8382H12.8372H12.8363H12.8353H12.8343H12.8333H12.8323H12.8313H12.8303H12.8294H12.8284H12.8274H12.8264H12.8254H12.8244H12.8234H12.8224H12.8214H12.8204H12.8194H12.8183H12.8173H12.8163H12.8153H12.8143H12.8133H12.8122H12.8112H12.8102H12.8092H12.8081H12.8071H12.8061H12.805H12.804H12.803H12.8019H12.8009H12.7998H12.7988H12.7977H12.7967H12.7956H12.7946H12.7935H12.7925H12.7914H12.7903H12.7893H12.7882H12.7871H12.786H12.785H12.7839H12.7828H12.7817H12.7806H12.7795H12.7785H12.7774H12.7763H12.7752H12.7741H12.773H12.7718H12.7707H12.7696H12.7685H12.7674H12.7663H12.7652H12.764H12.7629H12.7618H12.7606H12.7595H12.7584H12.7572H12.7561H12.7549H12.7538H12.7526H12.7515H12.7503H12.7491H12.748H12.7468H12.7456H12.7445H12.7433H12.7421H12.7409H12.7397H12.7385H12.7374H12.7362H12.735H12.7338H12.7326H12.7314H12.7301H12.7289H12.7277H12.7265H12.7253H12.724H12.7228H12.7216H12.7203H12.7191H12.7179H12.7166H12.7154H12.7141H12.7128H12.1033V11.0867H44.9554V17.6788H15.6114H15.4614H15.4597H15.4581H15.4563H15.4546H15.4528H15.451H15.4491H15.4472H15.4453H15.4434H15.4414H15.4393H15.4373H15.4352H15.433H15.4308H15.4286H15.4264H15.4241H15.4218H15.4194H15.4171H15.4147H15.4122H15.4097H15.4072H15.4047H15.4021H15.3995H15.3968H15.3942H15.3914H15.3887H15.3859H15.3831H15.3803H15.3774H15.3745H15.3716H15.3686H15.3656H15.3626H15.3595H15.3565H15.3534H15.3502H15.347H15.3438H15.3406H15.3373H15.334H15.3307H15.3274H15.324H15.3206H15.3171H15.3137H15.3102H15.3067H15.3031H15.2995H15.2959H15.2923H15.2886H15.2849H15.2812H15.2775H15.2737H15.2699H15.2661H15.2623H15.2584H15.2545H15.2506H15.2466H15.2426H15.2386H15.2346H15.2306H15.2265H15.2224H15.2183H15.2141H15.21H15.2058H15.2015H15.1973H15.193H15.1887H15.1844H15.1801H15.1757H15.1714H15.167H15.1625H15.1581H15.1536H15.1491H15.1446H15.1401H15.1355H15.1309H15.1263H15.1217H15.1171H15.1124H15.1077H15.103H15.0983H15.0936H15.0888H15.084H15.0792H15.0744H15.0696H15.0647H15.0598H15.0549H15.05H15.0451H15.0401H15.0352H15.0302H15.0252H15.0201H15.0151H15.01H15.005H14.9999H14.9948H14.9896H14.9845H14.9793H14.9742H14.969H14.9638H14.9585H14.9533H14.9481H14.9428H14.9375H14.9322H14.9269H14.9216H14.9162H14.9109H14.9055H14.9001H14.8947H14.8893H14.8839H14.8784H14.873H14.8675H14.862H14.8565H14.851H14.8455H14.84H14.8344H14.8289H14.8233H14.8178H14.8122H14.8066H14.801H14.7953H14.7897H14.7841H14.7784H14.7727H14.7671H14.7614H14.7557H14.75H14.7443H14.7385H14.7328H14.7271H14.7213H14.7156H14.7098H14.704H14.6982H14.6924H14.6866H14.6808H14.675H14.6692H14.6634H14.6575H14.6517H14.6458H14.64H14.6341H14.6282H14.6223H14.6165H14.6106H14.6047H14.5988H14.5929H14.5869H14.581H14.5751H14.5692H14.5632H14.5573H14.5514H14.5454H14.5395H14.5335H14.5276H14.5216H14.5156H14.5097H14.5037H14.4977H14.4917H14.4858H14.4798H14.4738H14.4678H14.4618H14.4558H14.4498H14.4438H14.4378H14.4318H14.4258H14.4198H14.4138H14.4078H14.4018H14.3958H14.3898H14.3838H14.3778H14.3718H14.3658H14.3598H14.3538H14.3478H14.3418H14.3358H14.3299H14.3239H14.3179H14.3119H14.3059H14.2999H14.2939H14.288H14.282H14.276H14.27H14.2641H14.2581H14.2521H14.2462H14.2402H14.2343H14.2283H14.2224H14.2164H14.2105H14.2046H14.1987H14.1927H14.1868H14.1809H14.175H14.1691H14.1632H14.1574H14.1515H14.1456H14.1397H14.1339H14.128H14.1222H14.1163H14.1105H14.1047H14.0989H14.0931H14.0873H14.0815H14.0757H14.0699H14.0641H14.0584H14.0526H14.0469H14.0412H14.0354H14.0297H14.024H14.0183H14.0127H14.007H14.0013H13.9957H13.99H13.9844H13.9788H13.9732H13.9676H13.962H13.9564H13.9508H13.9453H13.9398H13.9342H13.9287H13.9232H13.9177H13.9122H13.9068H13.9013H13.8959H13.8905H13.885H13.8796H13.8743H13.8689H13.8635H13.8582H13.8529H13.8476H13.8423H13.837H13.8317H13.8265H13.8212H13.816H13.8108H13.8056H13.8004H13.7953H13.7901H13.785H13.7799H13.7748H13.7697H13.7647H13.7596H13.7546H13.7496H13.7446H13.7397H13.7347H13.7298H13.7249H13.72H13.7151H13.7102H13.7054H13.7006H13.6958H13.691H13.6863H13.6815H13.6768H13.6721H13.6674H13.6628H13.6581H13.6535H13.6489H13.6443H13.6398H13.6352H13.6307H13.6262H13.6218H13.6173H13.6129H13.6085H13.6041H13.5998H13.5954H13.5911H13.5868H13.5826H13.5783H13.5741H13.5699H13.5658H13.5616H13.5575H13.5534H13.5493H13.5453H13.5413H13.5373H13.5333H13.5293H13.5254H13.5215H13.5177H13.5138H13.51H13.5062H13.5024H13.4987H13.495H13.4913H13.4877H13.484H13.4804H13.4769H13.4733H13.4698H13.4663H13.4628H13.4594H13.456H13.4526H13.4493H13.446H13.4427H13.4394H13.4362H13.433H13.4298H13.4267H13.4235H13.4205H13.4174H13.4144H13.4114H13.4084H13.4055H13.4026H13.3998H13.3969H13.3941H13.3913H13.3886H13.3859H13.3832H13.3806H13.378H13.3754H13.3729H13.3704H13.3679H13.3654H13.363H13.3606H13.3583H13.356H13.3537H13.3515H13.3493H13.3471H13.345H13.3429H13.3408H13.3388H13.3368H13.3348H13.3329H13.331H13.3292H13.3273H13.3256H13.3238H13.3221H13.3204H13.3188H13.3172H13.3157H13.3141H13.3127H13.3112H13.3098H13.3084H13.3071H13.3058H13.3046H13.3034H13.3022H13.301H13.2999H13.2989H13.2979H13.2969H13.296H13.2951H13.2942H13.2934H13.2926H13.2919H13.2912H13.2905H13.2899H13.2893H13.2888H13.2883H13.2879H13.2875H13.2871H13.2868H13.2865H13.2863H13.2861H13.2859H13.2858H13.2857ZM15.4614 19.5991H15.5235H44.9554V57.646H12.1033V19.5991H12.7128H12.7141H12.7154H12.7168H12.7182H12.7196H12.7211H12.7227H12.7242H12.7258H12.7275H12.7291H12.7309H12.7326H12.7344H12.7363H12.7381H12.74H12.742H12.744H12.746H12.7481H12.7502H12.7523H12.7545H12.7567H12.759H12.7613H12.7636H12.766H12.7684H12.7708H12.7733H12.7758H12.7784H12.7809H12.7836H12.7862H12.7889H12.7916H12.7944H12.7972H12.8H12.8029H12.8058H12.8087H12.8117H12.8147H12.8178H12.8208H12.8239H12.8271H12.8303H12.8335H12.8367H12.84H12.8433H12.8466H12.85H12.8534H12.8568H12.8603H12.8638H12.8673H12.8709H12.8745H12.8781H12.8818H12.8855H12.8892H12.893H12.8967H12.9006H12.9044H12.9083H12.9122H12.9161H12.9201H12.9241H12.9281H12.9321H12.9362H12.9403H12.9445H12.9487H12.9528H12.9571H12.9613H12.9656H12.9699H12.9743H12.9786H12.983H12.9875H12.9919H12.9964H13.0009H13.0054H13.01H13.0146H13.0192H13.0238H13.0285H13.0332H13.0379H13.0426H13.0474H13.0522H13.057H13.0618H13.0667H13.0716H13.0765H13.0815H13.0864H13.0914H13.0964H13.1015H13.1065H13.1116H13.1167H13.1219H13.127H13.1322H13.1374H13.1426H13.1479H13.1532H13.1584H13.1638H13.1691H13.1745H13.1798H13.1852H13.1907H13.1961H13.2016H13.2071H13.2126H13.2181H13.2237H13.2292H13.2348H13.2405H13.2461H13.2517H13.2574H13.2631H13.2688H13.2745H13.2803H13.2861H13.2919H13.2977H13.3035H13.3093H13.3152H13.3211H13.327H13.3329H13.3388H13.3448H13.3507H13.3567H13.3627H13.3688H13.3748H13.3809H13.3869H13.393H13.3991H13.4052H13.4114H13.4175H13.4237H13.4299H13.4361H13.4423H13.4485H13.4548H13.461H13.4673H13.4736H13.4799H13.4862H13.4925H13.4989H13.5052H13.5116H13.518H13.5244H13.5308H13.5372H13.5437H13.5501H13.5566H13.5631H13.5696H13.5761H13.5826H13.5891H13.5956H13.6022H13.6087H13.6153H13.6219H13.6285H13.6351H13.6417H13.6483H13.655H13.6616H13.6683H13.6749H13.6816H13.6883H13.695H13.7017H13.7084H13.7151H13.7219H13.7286H13.7354H13.7421H13.7489H13.7557H13.7624H13.7692H13.776H13.7828H13.7897H13.7965H13.8033H13.8102H13.817H13.8238H13.8307H13.8376H13.8444H13.8513H13.8582H13.8651H13.872H13.8789H13.8858H13.8927H13.8996H13.9065H13.9135H13.9204H13.9273H13.9343H13.9412H13.9481H13.9551H13.9621H13.969H13.976H13.9829H13.9899H13.9969H14.0039H14.0108H14.0178H14.0248H14.0318H14.0388H14.0458H14.0528H14.0598H14.0668H14.0738H14.0808H14.0878H14.0948H14.1018H14.1088H14.1158H14.1228H14.1298H14.1368H14.1438H14.1508H14.1578H14.1648H14.1718H14.1788H14.1858H14.1928H14.1998H14.2068H14.2138H14.2208H14.2278H14.2348H14.2418H14.2488H14.2558H14.2628H14.2698H14.2767H14.2837H14.2907H14.2977H14.3046H14.3116H14.3186H14.3255H14.3325H14.3394H14.3464H14.3533H14.3602H14.3672H14.3741H14.381H14.3879H14.3949H14.4018H14.4087H14.4156H14.4225H14.4293H14.4362H14.4431H14.45H14.4568H14.4637H14.4705H14.4774H14.4842H14.491H14.4978H14.5046H14.5114H14.5182H14.525H14.5318H14.5386H14.5453H14.5521H14.5588H14.5656H14.5723H14.579H14.5857H14.5924H14.5991H14.6058H14.6125H14.6191H14.6258H14.6324H14.6391H14.6457H14.6523H14.6589H14.6655H14.672H14.6786H14.6852H14.6917H14.6982H14.7047H14.7113H14.7177H14.7242H14.7307H14.7372H14.7436H14.75H14.7564H14.7629H14.7692H14.7756H14.782H14.7883H14.7947H14.801H14.8073H14.8136H14.8199H14.8261H14.8324H14.8386H14.8448H14.8511H14.8572H14.8634H14.8696H14.8757H14.8818H14.888H14.8941H14.9001H14.9062H14.9122H14.9183H14.9243H14.9303H14.9362H14.9422H14.9481H14.9541H14.96H14.9659H14.9717H14.9776H14.9834H14.9892H14.995H15.0008H15.0066H15.0123H15.018H15.0237H15.0294H15.0351H15.0407H15.0463H15.0519H15.0575H15.0631H15.0686H15.0741H15.0796H15.0851H15.0906H15.096H15.1014H15.1068H15.1122H15.1175H15.1228H15.1281H15.1334H15.1387H15.1439H15.1491H15.1543H15.1595H15.1646H15.1698H15.1748H15.1799H15.185H15.19H15.195H15.2H15.2049H15.2099H15.2148H15.2196H15.2245H15.2293H15.2341H15.2389H15.2437H15.2484H15.2531H15.2578H15.2624H15.267H15.2716H15.2762H15.2807H15.2852H15.2897H15.2942H15.2986H15.303H15.3074H15.3118H15.3161H15.3204H15.3246H15.3289H15.3331H15.3373H15.3414H15.3456H15.3496H15.3537H15.3578H15.3618H15.3657H15.3697H15.3736H15.3775H15.3813H15.3852H15.389H15.3927H15.3965H15.4002H15.4038H15.4075H15.4111H15.4147H15.4182H15.4217H15.4252H15.4287H15.4321H15.4355H15.4388H15.4421H15.4454H15.4487H15.4519H15.4551H15.4582H15.4614ZM18.8444 27.6073H38.2143C38.469 27.6073 38.7132 27.5062 38.8933 27.3261C39.0733 27.146 39.1745 26.9018 39.1745 26.6472C39.1745 26.3925 39.0733 26.1483 38.8933 25.9682C38.7132 25.7882 38.469 25.687 38.2143 25.687H18.8444C18.5898 25.687 18.3456 25.7882 18.1655 25.9682C17.9854 26.1483 17.8843 26.3925 17.8843 26.6472C17.8843 26.9018 17.9854 27.146 18.1655 27.3261C18.3456 27.5062 18.5898 27.6073 18.8444 27.6073ZM22.325 34.3407H34.7337C34.9884 34.3407 35.2326 34.2396 35.4126 34.0595C35.5927 33.8794 35.6939 33.6352 35.6939 33.3806C35.6939 33.1259 35.5927 32.8817 35.4126 32.7016C35.2326 32.5216 34.9884 32.4204 34.7337 32.4204H22.325C22.0704 32.4204 21.8261 32.5216 21.6461 32.7016C21.466 32.8817 21.3649 33.1259 21.3649 33.3806C21.3649 33.6352 21.466 33.8794 21.6461 34.0595C21.8261 34.2396 22.0704 34.3407 22.325 34.3407ZM18.8444 47.8069H38.2143C38.469 47.8069 38.7132 47.7058 38.8933 47.5257C39.0733 47.3457 39.1745 47.1014 39.1745 46.8468C39.1745 46.5921 39.0733 46.3479 38.8933 46.1679C38.7132 45.9878 38.469 45.8866 38.2143 45.8866H18.8444C18.5898 45.8866 18.3456 45.9878 18.1655 46.1679C17.9854 46.3479 17.8843 46.5921 17.8843 46.8468C17.8843 47.1014 17.9854 47.3457 18.1655 47.5257C18.3456 47.7058 18.5898 47.8069 18.8444 47.8069Z" fill="#B75400" stroke="#B75400" stroke-width="0.3"/>
</svg>
