<svg xmlns="http://www.w3.org/2000/svg" width="57" height="58" viewBox="0 0 57 58" fill="none">
  <path d="M14.9041 20.7246C15.6257 19.4987 16.5006 18.3749 17.5039 17.3801L8.97887 8.03208C6.83394 10.0818 5.00505 12.458 3.56641 15.0772L14.9041 20.7246Z" fill="#B75400"/>
  <path d="M35.8008 14.1206C37.0915 14.7121 38.2923 15.4667 39.3758 16.3604L47.9249 7.02674C45.6732 5.08482 43.1201 3.48271 40.3483 2.29951L35.8008 14.1206Z" fill="#B75400"/>
  <path d="M55.3798 16.9311L44.0488 22.5795C44.5899 23.8425 44.9746 25.1839 45.1832 26.583L57.7875 25.3933C57.416 22.4092 56.5899 19.5639 55.3798 16.9311Z" fill="#B75400"/>
  <path d="M43.2355 20.9414L54.5651 15.294C53.1616 12.6859 51.3717 10.317 49.2708 8.26466L40.7217 17.5962C41.6953 18.5966 42.5422 19.7199 43.2355 20.9414Z" fill="#B75400"/>
  <path d="M12.6513 28.9934C12.6513 28.7385 12.6599 28.4837 12.6709 28.2305L0.0634981 27.1019C0.0240516 27.7269 0 28.3575 0 28.9934C0 31.4114 0.300274 33.7607 0.858374 36.0059L13.0348 32.513C12.7852 31.3783 12.6513 30.202 12.6513 28.9934Z" fill="#B75400"/>
  <path d="M41.6487 39.3565C40.7528 40.4472 39.7186 41.4195 38.5742 42.249L45.2307 53.0264C47.7012 51.3525 49.9007 49.308 51.7493 46.973L41.6487 39.3565Z" fill="#B75400"/>
  <path d="M45.361 28.9949C45.361 30.1884 45.2326 31.3524 44.9863 32.4735L57.1612 35.9717C57.7162 33.7361 58.0121 31.399 58.0121 28.9949C58.0121 28.3976 57.9925 27.8049 57.9557 27.2146L45.3498 28.4051C45.3567 28.6025 45.361 28.7978 45.361 28.9949Z" fill="#B75400"/>
  <path d="M16.566 39.597L6.48926 47.2556C8.36345 49.5631 10.5828 51.5745 13.0699 53.2168L19.7252 42.451C18.5526 41.6403 17.4904 40.6794 16.566 39.597Z" fill="#B75400"/>
  <path d="M12.8559 26.4131C13.0815 24.989 13.4942 23.627 14.0634 22.3514L2.73706 16.7085C1.48556 19.372 0.627555 22.2549 0.237305 25.2815L12.8559 26.4131Z" fill="#B75400"/>
  <path d="M43.6823 54.001L37.0355 43.2377C35.8278 43.9194 34.5271 44.4546 33.1562 44.814L35.5023 57.2646C38.4207 56.5941 41.1725 55.4809 43.6823 54.001Z" fill="#B75400"/>
  <path d="M44.5002 34.2363C44.0593 35.5309 43.4632 36.7528 42.7305 37.8802L52.8392 45.5049C54.4813 43.1444 55.779 40.5306 56.6651 37.7322L44.5002 34.2363Z" fill="#B75400"/>
  <path d="M31.364 45.1773C30.5947 45.2886 29.8069 45.3492 29.0051 45.3492C28.3613 45.3492 27.7255 45.309 27.1015 45.2364L24.7568 57.6875C26.1444 57.891 27.5622 57.999 29.0051 57.999C30.6059 57.999 32.177 57.8674 33.7075 57.6172L31.364 45.1773Z" fill="#B75400"/>
  <path d="M30.0508 12.6719C31.4555 12.7619 32.8122 13.0292 34.0978 13.4531L38.6449 1.63554C35.9395 0.680163 33.0535 0.114635 30.0508 0.00899601V12.6719Z" fill="#B75400"/>
  <path d="M25.3 44.9259C23.8824 44.5951 22.5353 44.0802 21.2855 43.4075L14.626 54.1787C17.1879 55.6451 19.989 56.7308 22.9578 57.3633L25.3 44.9259Z" fill="#B75400"/>
  <path d="M24.09 13.3965C25.4031 12.9812 26.7883 12.7284 28.2215 12.6614V0.000461578C25.1778 0.0816641 22.2537 0.636031 19.5117 1.58717L24.09 13.3965Z" fill="#B75400"/>
  <path d="M15.4562 38.1424C14.6532 36.9559 13.9977 35.6567 13.527 34.2751L1.35938 37.7668C2.2809 40.6691 3.64642 43.373 5.37832 45.8008L15.4562 38.1424Z" fill="#B75400"/>
  <path d="M18.8728 16.167C19.9421 15.3201 21.1188 14.6065 22.3801 14.0448L17.8045 2.24123C15.0794 3.38537 12.5683 4.93495 10.3418 6.81164L18.8728 16.167Z" fill="#B75400"/>
</svg>
