<svg xmlns="http://www.w3.org/2000/svg" width="76" height="50" viewBox="0 0 76 50" fill="none">
  <path d="M38.1125 36.4761C46.5036 36.4761 53.3059 29.6204 53.3059 21.1636C53.3059 12.7067 46.5036 5.85107 38.1125 5.85107C29.7214 5.85107 22.9191 12.7067 22.9191 21.1636C22.9191 29.6204 29.7214 36.4761 38.1125 36.4761Z" stroke="#B75400" stroke-width="2.5" stroke-linecap="round" stroke-linejoin="round"/>
  <path d="M25.7514 30.3301L20.5836 39.2259L26.6816 38.8925L29.4516 44.3717L34.0199 36.5801C30.5678 35.6842 27.7979 33.1634 25.7514 30.3301Z" stroke="#B75400" stroke-width="2.5" stroke-linecap="round" stroke-linejoin="round"/>
  <path d="M50.5571 30.3306C48.5313 33.1847 45.7407 35.6639 42.2885 36.5806L46.8569 44.3931L49.6268 38.9139L55.7249 39.2472L50.5571 30.3306Z" stroke="#B75400" stroke-width="2.5" stroke-linecap="round" stroke-linejoin="round"/>
  <path d="M46.7949 19.2258C47.1877 18.8508 46.9603 18.1633 46.4228 18.1008L41.4411 17.3716C41.2343 17.3299 41.0483 17.2049 40.945 16.9966L38.7124 12.4341C38.4644 11.9341 37.7616 11.9341 37.5342 12.4341L35.3017 16.9966C35.1983 17.1841 35.0123 17.3299 34.8056 17.3716L29.8238 18.1008C29.2863 18.1841 29.0796 18.8508 29.4517 19.2258L33.0692 22.7674C33.2346 22.9341 33.2966 23.1424 33.2552 23.3507L32.4077 28.3507C32.3043 28.8924 32.8831 29.3091 33.3586 29.0382L37.8236 26.6841C38.0096 26.5799 38.2577 26.5799 38.4437 26.6841L42.9087 29.0382C43.3841 29.2882 43.963 28.8715 43.8596 28.3507L43.0121 23.3507C42.9707 23.1424 43.0534 22.9132 43.1981 22.7674L46.7949 19.2258Z" stroke="#B75400" stroke-width="2.5" stroke-linecap="round" stroke-linejoin="round"/>
</svg>
