<svg xmlns="http://www.w3.org/2000/svg" width="573" height="133" viewBox="0 0 573 133" fill="none">
<path d="M4 1H569C570.657 1 572 2.34314 572 4V56H1V4C1 2.34315 2.34315 1 4 1Z" fill="#F5F5F5"/>
<path d="M4 1H569C570.657 1 572 2.34314 572 4V56H1V4C1 2.34315 2.34315 1 4 1Z" stroke="#E0E0E0" stroke-width="2"/>
<path d="M105.665 22.2031V35H103.028V22.2031H105.665ZM110.763 27.6699V29.7266H104.944V27.6699H110.763ZM111.378 22.2031V24.2686H104.944V22.2031H111.378ZM112.151 30.3418V30.1572C112.151 29.46 112.251 28.8184 112.45 28.2324C112.649 27.6406 112.939 27.1279 113.32 26.6943C113.701 26.2607 114.17 25.9238 114.727 25.6836C115.283 25.4375 115.922 25.3145 116.643 25.3145C117.363 25.3145 118.005 25.4375 118.567 25.6836C119.13 25.9238 119.602 26.2607 119.982 26.6943C120.369 27.1279 120.662 27.6406 120.861 28.2324C121.061 28.8184 121.16 29.46 121.16 30.1572V30.3418C121.16 31.0332 121.061 31.6748 120.861 32.2666C120.662 32.8525 120.369 33.3652 119.982 33.8047C119.602 34.2383 119.133 34.5752 118.576 34.8154C118.02 35.0557 117.381 35.1758 116.66 35.1758C115.939 35.1758 115.298 35.0557 114.735 34.8154C114.179 34.5752 113.707 34.2383 113.32 33.8047C112.939 33.3652 112.649 32.8525 112.45 32.2666C112.251 31.6748 112.151 31.0332 112.151 30.3418ZM114.683 30.1572V30.3418C114.683 30.7402 114.718 31.1123 114.788 31.458C114.858 31.8037 114.97 32.1084 115.122 32.3721C115.28 32.6299 115.485 32.832 115.737 32.9785C115.989 33.125 116.297 33.1982 116.66 33.1982C117.012 33.1982 117.313 33.125 117.565 32.9785C117.817 32.832 118.02 32.6299 118.172 32.3721C118.324 32.1084 118.436 31.8037 118.506 31.458C118.582 31.1123 118.62 30.7402 118.62 30.3418V30.1572C118.62 29.7705 118.582 29.4072 118.506 29.0674C118.436 28.7217 118.321 28.417 118.163 28.1533C118.011 27.8838 117.809 27.6729 117.557 27.5205C117.305 27.3682 117 27.292 116.643 27.292C116.285 27.292 115.98 27.3682 115.729 27.5205C115.482 27.6729 115.28 27.8838 115.122 28.1533C114.97 28.417 114.858 28.7217 114.788 29.0674C114.718 29.4072 114.683 29.7705 114.683 30.1572ZM125.247 27.5645V35H122.716V25.4902H125.098L125.247 27.5645ZM128.112 25.4287L128.068 27.7754C127.945 27.7578 127.796 27.7432 127.62 27.7314C127.45 27.7139 127.295 27.7051 127.154 27.7051C126.797 27.7051 126.486 27.752 126.223 27.8457C125.965 27.9336 125.748 28.0654 125.572 28.2412C125.402 28.417 125.273 28.6309 125.186 28.8828C125.104 29.1348 125.057 29.4219 125.045 29.7441L124.535 29.5859C124.535 28.9707 124.597 28.4053 124.72 27.8896C124.843 27.3682 125.021 26.9141 125.256 26.5273C125.496 26.1406 125.789 25.8418 126.135 25.6309C126.48 25.4199 126.876 25.3145 127.321 25.3145C127.462 25.3145 127.605 25.3262 127.752 25.3496C127.898 25.3672 128.019 25.3936 128.112 25.4287ZM133.386 30.3418V30.1572C133.386 29.46 133.485 28.8184 133.685 28.2324C133.884 27.6406 134.174 27.1279 134.555 26.6943C134.936 26.2607 135.404 25.9238 135.961 25.6836C136.518 25.4375 137.156 25.3145 137.877 25.3145C138.598 25.3145 139.239 25.4375 139.802 25.6836C140.364 25.9238 140.836 26.2607 141.217 26.6943C141.604 27.1279 141.896 27.6406 142.096 28.2324C142.295 28.8184 142.395 29.46 142.395 30.1572V30.3418C142.395 31.0332 142.295 31.6748 142.096 32.2666C141.896 32.8525 141.604 33.3652 141.217 33.8047C140.836 34.2383 140.367 34.5752 139.811 34.8154C139.254 35.0557 138.615 35.1758 137.895 35.1758C137.174 35.1758 136.532 35.0557 135.97 34.8154C135.413 34.5752 134.941 34.2383 134.555 33.8047C134.174 33.3652 133.884 32.8525 133.685 32.2666C133.485 31.6748 133.386 31.0332 133.386 30.3418ZM135.917 30.1572V30.3418C135.917 30.7402 135.952 31.1123 136.022 31.458C136.093 31.8037 136.204 32.1084 136.356 32.3721C136.515 32.6299 136.72 32.832 136.972 32.9785C137.224 33.125 137.531 33.1982 137.895 33.1982C138.246 33.1982 138.548 33.125 138.8 32.9785C139.052 32.832 139.254 32.6299 139.406 32.3721C139.559 32.1084 139.67 31.8037 139.74 31.458C139.816 31.1123 139.854 30.7402 139.854 30.3418V30.1572C139.854 29.7705 139.816 29.4072 139.74 29.0674C139.67 28.7217 139.556 28.417 139.397 28.1533C139.245 27.8838 139.043 27.6729 138.791 27.5205C138.539 27.3682 138.234 27.292 137.877 27.292C137.52 27.292 137.215 27.3682 136.963 27.5205C136.717 27.6729 136.515 27.8838 136.356 28.1533C136.204 28.417 136.093 28.7217 136.022 29.0674C135.952 29.4072 135.917 29.7705 135.917 30.1572ZM149.575 32.7236V25.4902H152.106V35H149.725L149.575 32.7236ZM149.856 30.7725L150.604 30.7549C150.604 31.3877 150.53 31.9766 150.384 32.5215C150.237 33.0605 150.018 33.5293 149.725 33.9277C149.432 34.3203 149.062 34.6279 148.617 34.8506C148.172 35.0674 147.647 35.1758 147.044 35.1758C146.581 35.1758 146.153 35.1113 145.761 34.9824C145.374 34.8477 145.04 34.6396 144.759 34.3584C144.483 34.0713 144.267 33.7051 144.108 33.2598C143.956 32.8086 143.88 32.2666 143.88 31.6338V25.4902H146.411V31.6514C146.411 31.9326 146.443 32.1699 146.508 32.3633C146.578 32.5566 146.675 32.7148 146.798 32.8379C146.921 32.9609 147.064 33.0488 147.229 33.1016C147.398 33.1543 147.586 33.1807 147.791 33.1807C148.312 33.1807 148.723 33.0752 149.021 32.8643C149.326 32.6533 149.54 32.3662 149.663 32.0029C149.792 31.6338 149.856 31.2236 149.856 30.7725ZM158.698 25.4902V27.2832H153.161V25.4902H158.698ZM154.532 23.1436H157.063V32.1348C157.063 32.4102 157.099 32.6211 157.169 32.7676C157.245 32.9141 157.356 33.0166 157.503 33.0752C157.649 33.1279 157.834 33.1543 158.057 33.1543C158.215 33.1543 158.355 33.1484 158.479 33.1367C158.607 33.1191 158.716 33.1016 158.804 33.084L158.812 34.9473C158.596 35.0176 158.361 35.0732 158.109 35.1143C157.857 35.1553 157.579 35.1758 157.274 35.1758C156.718 35.1758 156.231 35.085 155.815 34.9033C155.405 34.7158 155.089 34.417 154.866 34.0068C154.644 33.5967 154.532 33.0576 154.532 32.3896V23.1436ZM162.671 27.3184V38.6562H160.14V25.4902H162.486L162.671 27.3184ZM168.691 30.1396V30.3242C168.691 31.0156 168.609 31.6572 168.445 32.249C168.287 32.8408 168.053 33.3564 167.742 33.7959C167.432 34.2295 167.045 34.5693 166.582 34.8154C166.125 35.0557 165.598 35.1758 165 35.1758C164.42 35.1758 163.916 35.0586 163.488 34.8242C163.061 34.5898 162.7 34.2617 162.407 33.8398C162.12 33.4121 161.889 32.917 161.713 32.3545C161.537 31.792 161.402 31.1885 161.309 30.5439V30.0605C161.402 29.3691 161.537 28.7363 161.713 28.1621C161.889 27.582 162.12 27.0811 162.407 26.6592C162.7 26.2314 163.058 25.9004 163.479 25.666C163.907 25.4316 164.408 25.3145 164.982 25.3145C165.586 25.3145 166.116 25.4287 166.573 25.6572C167.036 25.8857 167.423 26.2139 167.733 26.6416C168.05 27.0693 168.287 27.5791 168.445 28.1709C168.609 28.7627 168.691 29.4189 168.691 30.1396ZM166.151 30.3242V30.1396C166.151 29.7354 166.116 29.3633 166.046 29.0234C165.981 28.6777 165.876 28.376 165.729 28.1182C165.589 27.8604 165.401 27.6611 165.167 27.5205C164.938 27.374 164.66 27.3008 164.332 27.3008C163.986 27.3008 163.69 27.3564 163.444 27.4678C163.204 27.5791 163.008 27.7402 162.855 27.9512C162.703 28.1621 162.589 28.4141 162.513 28.707C162.437 29 162.39 29.3311 162.372 29.7002V30.9219C162.401 31.3555 162.483 31.7451 162.618 32.0908C162.753 32.4307 162.961 32.7002 163.242 32.8994C163.523 33.0986 163.893 33.1982 164.35 33.1982C164.684 33.1982 164.965 33.125 165.193 32.9785C165.422 32.8262 165.606 32.6182 165.747 32.3545C165.894 32.0908 165.996 31.7861 166.055 31.4404C166.119 31.0947 166.151 30.7227 166.151 30.3242ZM175.89 32.7236V25.4902H178.421V35H176.039L175.89 32.7236ZM176.171 30.7725L176.918 30.7549C176.918 31.3877 176.845 31.9766 176.698 32.5215C176.552 33.0605 176.332 33.5293 176.039 33.9277C175.746 34.3203 175.377 34.6279 174.932 34.8506C174.486 35.0674 173.962 35.1758 173.358 35.1758C172.896 35.1758 172.468 35.1113 172.075 34.9824C171.688 34.8477 171.354 34.6396 171.073 34.3584C170.798 34.0713 170.581 33.7051 170.423 33.2598C170.271 32.8086 170.194 32.2666 170.194 31.6338V25.4902H172.726V31.6514C172.726 31.9326 172.758 32.1699 172.822 32.3633C172.893 32.5566 172.989 32.7148 173.112 32.8379C173.235 32.9609 173.379 33.0488 173.543 33.1016C173.713 33.1543 173.9 33.1807 174.105 33.1807C174.627 33.1807 175.037 33.0752 175.336 32.8643C175.641 32.6533 175.854 32.3662 175.978 32.0029C176.106 31.6338 176.171 31.2236 176.171 30.7725ZM185.013 25.4902V27.2832H179.476V25.4902H185.013ZM180.847 23.1436H183.378V32.1348C183.378 32.4102 183.413 32.6211 183.483 32.7676C183.56 32.9141 183.671 33.0166 183.817 33.0752C183.964 33.1279 184.148 33.1543 184.371 33.1543C184.529 33.1543 184.67 33.1484 184.793 33.1367C184.922 33.1191 185.03 33.1016 185.118 33.084L185.127 34.9473C184.91 35.0176 184.676 35.0732 184.424 35.1143C184.172 35.1553 183.894 35.1758 183.589 35.1758C183.032 35.1758 182.546 35.085 182.13 34.9033C181.72 34.7158 181.403 34.417 181.181 34.0068C180.958 33.5967 180.847 33.0576 180.847 32.3896V23.1436ZM191.596 32.3721C191.596 32.1904 191.543 32.0264 191.438 31.8799C191.332 31.7334 191.136 31.5986 190.849 31.4756C190.567 31.3467 190.16 31.2295 189.627 31.124C189.146 31.0186 188.698 30.8867 188.282 30.7285C187.872 30.5645 187.515 30.3682 187.21 30.1396C186.911 29.9111 186.677 29.6416 186.507 29.3311C186.337 29.0146 186.252 28.6543 186.252 28.25C186.252 27.8516 186.337 27.4766 186.507 27.125C186.683 26.7734 186.932 26.4629 187.254 26.1934C187.582 25.918 187.98 25.7041 188.449 25.5518C188.924 25.3936 189.457 25.3145 190.049 25.3145C190.875 25.3145 191.584 25.4463 192.176 25.71C192.773 25.9736 193.23 26.3369 193.547 26.7998C193.869 27.2568 194.03 27.7783 194.03 28.3643H191.499C191.499 28.1182 191.446 27.8984 191.341 27.7051C191.241 27.5059 191.083 27.3506 190.866 27.2393C190.655 27.1221 190.38 27.0635 190.04 27.0635C189.759 27.0635 189.516 27.1133 189.311 27.2129C189.105 27.3066 188.947 27.4355 188.836 27.5996C188.73 27.7578 188.678 27.9336 188.678 28.127C188.678 28.2734 188.707 28.4053 188.766 28.5225C188.83 28.6338 188.933 28.7363 189.073 28.8301C189.214 28.9238 189.396 29.0117 189.618 29.0938C189.847 29.1699 190.128 29.2402 190.462 29.3047C191.147 29.4453 191.76 29.6299 192.299 29.8584C192.838 30.0811 193.266 30.3857 193.582 30.7725C193.898 31.1533 194.057 31.6543 194.057 32.2754C194.057 32.6973 193.963 33.084 193.775 33.4355C193.588 33.7871 193.318 34.0947 192.967 34.3584C192.615 34.6162 192.193 34.8184 191.701 34.9648C191.215 35.1055 190.667 35.1758 190.058 35.1758C189.173 35.1758 188.423 35.0176 187.808 34.7012C187.198 34.3848 186.735 33.9834 186.419 33.4971C186.108 33.0049 185.953 32.501 185.953 31.9854H188.353C188.364 32.3311 188.452 32.6094 188.616 32.8203C188.786 33.0312 189 33.1836 189.258 33.2773C189.521 33.3711 189.806 33.418 190.11 33.418C190.438 33.418 190.711 33.374 190.928 33.2861C191.145 33.1924 191.309 33.0693 191.42 32.917C191.537 32.7588 191.596 32.5771 191.596 32.3721ZM205.324 32.3721C205.324 32.1904 205.271 32.0264 205.166 31.8799C205.061 31.7334 204.864 31.5986 204.577 31.4756C204.296 31.3467 203.889 31.2295 203.355 31.124C202.875 31.0186 202.427 30.8867 202.011 30.7285C201.601 30.5645 201.243 30.3682 200.938 30.1396C200.64 29.9111 200.405 29.6416 200.235 29.3311C200.065 29.0146 199.98 28.6543 199.98 28.25C199.98 27.8516 200.065 27.4766 200.235 27.125C200.411 26.7734 200.66 26.4629 200.982 26.1934C201.311 25.918 201.709 25.7041 202.178 25.5518C202.652 25.3936 203.186 25.3145 203.777 25.3145C204.604 25.3145 205.312 25.4463 205.904 25.71C206.502 25.9736 206.959 26.3369 207.275 26.7998C207.598 27.2568 207.759 27.7783 207.759 28.3643H205.228C205.228 28.1182 205.175 27.8984 205.069 27.7051C204.97 27.5059 204.812 27.3506 204.595 27.2393C204.384 27.1221 204.108 27.0635 203.769 27.0635C203.487 27.0635 203.244 27.1133 203.039 27.2129C202.834 27.3066 202.676 27.4355 202.564 27.5996C202.459 27.7578 202.406 27.9336 202.406 28.127C202.406 28.2734 202.436 28.4053 202.494 28.5225C202.559 28.6338 202.661 28.7363 202.802 28.8301C202.942 28.9238 203.124 29.0117 203.347 29.0938C203.575 29.1699 203.856 29.2402 204.19 29.3047C204.876 29.4453 205.488 29.6299 206.027 29.8584C206.566 30.0811 206.994 30.3857 207.311 30.7725C207.627 31.1533 207.785 31.6543 207.785 32.2754C207.785 32.6973 207.691 33.084 207.504 33.4355C207.316 33.7871 207.047 34.0947 206.695 34.3584C206.344 34.6162 205.922 34.8184 205.43 34.9648C204.943 35.1055 204.396 35.1758 203.786 35.1758C202.901 35.1758 202.151 35.0176 201.536 34.7012C200.927 34.3848 200.464 33.9834 200.147 33.4971C199.837 33.0049 199.682 32.501 199.682 31.9854H202.081C202.093 32.3311 202.181 32.6094 202.345 32.8203C202.515 33.0312 202.729 33.1836 202.986 33.2773C203.25 33.3711 203.534 33.418 203.839 33.418C204.167 33.418 204.439 33.374 204.656 33.2861C204.873 33.1924 205.037 33.0693 205.148 32.917C205.266 32.7588 205.324 32.5771 205.324 32.3721ZM215.054 32.7236V25.4902H217.585V35H215.203L215.054 32.7236ZM215.335 30.7725L216.082 30.7549C216.082 31.3877 216.009 31.9766 215.862 32.5215C215.716 33.0605 215.496 33.5293 215.203 33.9277C214.91 34.3203 214.541 34.6279 214.096 34.8506C213.65 35.0674 213.126 35.1758 212.522 35.1758C212.06 35.1758 211.632 35.1113 211.239 34.9824C210.853 34.8477 210.519 34.6396 210.237 34.3584C209.962 34.0713 209.745 33.7051 209.587 33.2598C209.435 32.8086 209.358 32.2666 209.358 31.6338V25.4902H211.89V31.6514C211.89 31.9326 211.922 32.1699 211.986 32.3633C212.057 32.5566 212.153 32.7148 212.276 32.8379C212.399 32.9609 212.543 33.0488 212.707 33.1016C212.877 33.1543 213.064 33.1807 213.27 33.1807C213.791 33.1807 214.201 33.0752 214.5 32.8643C214.805 32.6533 215.019 32.3662 215.142 32.0029C215.271 31.6338 215.335 31.2236 215.335 30.7725ZM219.519 21.5H222.05V32.8203L221.795 35H219.519V21.5ZM228.07 30.1484V30.333C228.07 31.042 227.994 31.6924 227.842 32.2842C227.695 32.876 227.467 33.3887 227.156 33.8223C226.846 34.25 226.459 34.584 225.996 34.8242C225.539 35.0586 225 35.1758 224.379 35.1758C223.799 35.1758 223.295 35.0586 222.867 34.8242C222.445 34.5898 222.091 34.2588 221.804 33.8311C221.517 33.4033 221.285 32.9023 221.109 32.3281C220.934 31.7539 220.802 31.127 220.714 30.4473V30.043C220.802 29.3633 220.934 28.7363 221.109 28.1621C221.285 27.5879 221.517 27.0869 221.804 26.6592C222.091 26.2314 222.445 25.9004 222.867 25.666C223.289 25.4316 223.787 25.3145 224.361 25.3145C224.988 25.3145 225.533 25.4346 225.996 25.6748C226.465 25.9092 226.852 26.2432 227.156 26.6768C227.467 27.1045 227.695 27.6143 227.842 28.2061C227.994 28.792 228.07 29.4395 228.07 30.1484ZM225.539 30.333V30.1484C225.539 29.7617 225.51 29.3984 225.451 29.0586C225.398 28.7129 225.305 28.4111 225.17 28.1533C225.035 27.8896 224.851 27.6816 224.616 27.5293C224.388 27.377 224.092 27.3008 223.729 27.3008C223.383 27.3008 223.09 27.3594 222.85 27.4766C222.609 27.5938 222.41 27.7578 222.252 27.9688C222.1 28.1797 221.985 28.4316 221.909 28.7246C221.833 29.0117 221.786 29.3281 221.769 29.6738V30.8252C221.786 31.2881 221.862 31.6982 221.997 32.0557C222.138 32.4072 222.349 32.6855 222.63 32.8906C222.917 33.0898 223.289 33.1895 223.746 33.1895C224.104 33.1895 224.399 33.1191 224.634 32.9785C224.868 32.8379 225.05 32.6387 225.179 32.3809C225.313 32.123 225.407 31.8213 225.46 31.4756C225.513 31.124 225.539 30.7432 225.539 30.333ZM232.175 27.459V35H229.635V25.4902H232.017L232.175 27.459ZM231.823 29.9111H231.12C231.12 29.249 231.199 28.6396 231.357 28.083C231.521 27.5205 231.759 27.0342 232.069 26.624C232.386 26.208 232.775 25.8857 233.238 25.6572C233.701 25.4287 234.237 25.3145 234.847 25.3145C235.269 25.3145 235.655 25.3789 236.007 25.5078C236.358 25.6309 236.66 25.8271 236.912 26.0967C237.17 26.3604 237.369 26.7061 237.51 27.1338C237.65 27.5557 237.721 28.0625 237.721 28.6543V35H235.189V28.9355C235.189 28.502 235.131 28.168 235.014 27.9336C234.896 27.6992 234.729 27.5352 234.513 27.4414C234.302 27.3477 234.047 27.3008 233.748 27.3008C233.42 27.3008 233.133 27.3682 232.887 27.5029C232.646 27.6377 232.447 27.8252 232.289 28.0654C232.131 28.2998 232.014 28.5752 231.938 28.8916C231.861 29.208 231.823 29.5479 231.823 29.9111ZM237.483 29.6211L236.578 29.7354C236.578 29.1143 236.654 28.5371 236.807 28.0039C236.965 27.4707 237.196 27.002 237.501 26.5977C237.812 26.1934 238.195 25.8799 238.652 25.6572C239.109 25.4287 239.637 25.3145 240.234 25.3145C240.691 25.3145 241.107 25.3818 241.482 25.5166C241.857 25.6455 242.177 25.8535 242.44 26.1406C242.71 26.4219 242.915 26.791 243.056 27.248C243.202 27.7051 243.275 28.2646 243.275 28.9268V35H240.735V28.9268C240.735 28.4873 240.677 28.1533 240.56 27.9248C240.448 27.6904 240.284 27.5293 240.067 27.4414C239.856 27.3477 239.604 27.3008 239.312 27.3008C239.007 27.3008 238.74 27.3623 238.512 27.4854C238.283 27.6025 238.093 27.7666 237.94 27.9775C237.788 28.1885 237.674 28.4346 237.598 28.7158C237.521 28.9912 237.483 29.293 237.483 29.6211ZM247.907 25.4902V35H245.367V25.4902H247.907ZM245.209 23.0117C245.209 22.6426 245.338 22.3379 245.596 22.0977C245.854 21.8574 246.199 21.7373 246.633 21.7373C247.061 21.7373 247.403 21.8574 247.661 22.0977C247.925 22.3379 248.057 22.6426 248.057 23.0117C248.057 23.3809 247.925 23.6855 247.661 23.9258C247.403 24.166 247.061 24.2861 246.633 24.2861C246.199 24.2861 245.854 24.166 245.596 23.9258C245.338 23.6855 245.209 23.3809 245.209 23.0117ZM254.657 25.4902V27.2832H249.12V25.4902H254.657ZM250.491 23.1436H253.022V32.1348C253.022 32.4102 253.058 32.6211 253.128 32.7676C253.204 32.9141 253.315 33.0166 253.462 33.0752C253.608 33.1279 253.793 33.1543 254.016 33.1543C254.174 33.1543 254.314 33.1484 254.438 33.1367C254.566 33.1191 254.675 33.1016 254.763 33.084L254.771 34.9473C254.555 35.0176 254.32 35.0732 254.068 35.1143C253.816 35.1553 253.538 35.1758 253.233 35.1758C252.677 35.1758 252.19 35.085 251.774 34.9033C251.364 34.7158 251.048 34.417 250.825 34.0068C250.603 33.5967 250.491 33.0576 250.491 32.3896V23.1436ZM260.757 25.4902V27.2832H255.22V25.4902H260.757ZM256.591 23.1436H259.122V32.1348C259.122 32.4102 259.157 32.6211 259.228 32.7676C259.304 32.9141 259.415 33.0166 259.562 33.0752C259.708 33.1279 259.893 33.1543 260.115 33.1543C260.273 33.1543 260.414 33.1484 260.537 33.1367C260.666 33.1191 260.774 33.1016 260.862 33.084L260.871 34.9473C260.654 35.0176 260.42 35.0732 260.168 35.1143C259.916 35.1553 259.638 35.1758 259.333 35.1758C258.776 35.1758 258.29 35.085 257.874 34.9033C257.464 34.7158 257.147 34.417 256.925 34.0068C256.702 33.5967 256.591 33.0576 256.591 32.3896V23.1436ZM266.575 35.1758C265.837 35.1758 265.175 35.0586 264.589 34.8242C264.003 34.584 263.505 34.2529 263.095 33.8311C262.69 33.4092 262.38 32.9199 262.163 32.3633C261.946 31.8008 261.838 31.2031 261.838 30.5703V30.2188C261.838 29.498 261.94 28.8389 262.146 28.2412C262.351 27.6436 262.644 27.125 263.024 26.6855C263.411 26.2461 263.88 25.9092 264.431 25.6748C264.981 25.4346 265.603 25.3145 266.294 25.3145C266.968 25.3145 267.565 25.4258 268.087 25.6484C268.608 25.8711 269.045 26.1875 269.396 26.5977C269.754 27.0078 270.023 27.5 270.205 28.0742C270.387 28.6426 270.478 29.2754 270.478 29.9727V31.0273H262.919V29.3398H267.99V29.1465C267.99 28.7949 267.926 28.4814 267.797 28.2061C267.674 27.9248 267.486 27.7021 267.234 27.5381C266.982 27.374 266.66 27.292 266.268 27.292C265.934 27.292 265.646 27.3652 265.406 27.5117C265.166 27.6582 264.97 27.8633 264.817 28.127C264.671 28.3906 264.56 28.7012 264.483 29.0586C264.413 29.4102 264.378 29.7969 264.378 30.2188V30.5703C264.378 30.9512 264.431 31.3027 264.536 31.625C264.647 31.9473 264.803 32.2256 265.002 32.46C265.207 32.6943 265.453 32.876 265.74 33.0049C266.033 33.1338 266.364 33.1982 266.733 33.1982C267.19 33.1982 267.615 33.1104 268.008 32.9346C268.406 32.7529 268.749 32.4805 269.036 32.1172L270.267 33.4531C270.067 33.7402 269.795 34.0156 269.449 34.2793C269.109 34.543 268.699 34.7598 268.219 34.9297C267.738 35.0938 267.19 35.1758 266.575 35.1758ZM277.535 32.9258V21.5H280.084V35H277.79L277.535 32.9258ZM271.523 30.3594V30.1748C271.523 29.4482 271.605 28.7891 271.77 28.1973C271.934 27.5996 272.174 27.0869 272.49 26.6592C272.807 26.2314 273.196 25.9004 273.659 25.666C274.122 25.4316 274.649 25.3145 275.241 25.3145C275.798 25.3145 276.284 25.4316 276.7 25.666C277.122 25.9004 277.479 26.2344 277.772 26.668C278.071 27.0957 278.312 27.6025 278.493 28.1885C278.675 28.7686 278.807 29.4043 278.889 30.0957V30.5C278.807 31.1621 278.675 31.7773 278.493 32.3457C278.312 32.9141 278.071 33.4121 277.772 33.8398C277.479 34.2617 277.122 34.5898 276.7 34.8242C276.278 35.0586 275.786 35.1758 275.224 35.1758C274.632 35.1758 274.104 35.0557 273.642 34.8154C273.185 34.5752 272.798 34.2383 272.481 33.8047C272.171 33.3711 271.934 32.8613 271.77 32.2754C271.605 31.6895 271.523 31.0508 271.523 30.3594ZM274.055 30.1748V30.3594C274.055 30.752 274.084 31.1182 274.143 31.458C274.207 31.7979 274.31 32.0996 274.45 32.3633C274.597 32.6211 274.784 32.8232 275.013 32.9697C275.247 33.1104 275.531 33.1807 275.865 33.1807C276.299 33.1807 276.656 33.084 276.938 32.8906C277.219 32.6914 277.433 32.4189 277.579 32.0732C277.731 31.7275 277.819 31.3291 277.843 30.8779V29.7266C277.825 29.3574 277.772 29.0264 277.685 28.7334C277.603 28.4346 277.479 28.1797 277.315 27.9688C277.157 27.7578 276.958 27.5938 276.718 27.4766C276.483 27.3594 276.205 27.3008 275.883 27.3008C275.555 27.3008 275.273 27.377 275.039 27.5293C274.805 27.6758 274.614 27.8779 274.468 28.1357C274.327 28.3936 274.222 28.6982 274.151 29.0498C274.087 29.3955 274.055 29.7705 274.055 30.1748ZM291.202 25.4902V27.2832H285.665V25.4902H291.202ZM287.036 23.1436H289.567V32.1348C289.567 32.4102 289.603 32.6211 289.673 32.7676C289.749 32.9141 289.86 33.0166 290.007 33.0752C290.153 33.1279 290.338 33.1543 290.561 33.1543C290.719 33.1543 290.859 33.1484 290.982 33.1367C291.111 33.1191 291.22 33.1016 291.308 33.084L291.316 34.9473C291.1 35.0176 290.865 35.0732 290.613 35.1143C290.361 35.1553 290.083 35.1758 289.778 35.1758C289.222 35.1758 288.735 35.085 288.319 34.9033C287.909 34.7158 287.593 34.417 287.37 34.0068C287.147 33.5967 287.036 33.0576 287.036 32.3896V23.1436ZM292.011 30.3418V30.1572C292.011 29.46 292.11 28.8184 292.31 28.2324C292.509 27.6406 292.799 27.1279 293.18 26.6943C293.561 26.2607 294.029 25.9238 294.586 25.6836C295.143 25.4375 295.781 25.3145 296.502 25.3145C297.223 25.3145 297.864 25.4375 298.427 25.6836C298.989 25.9238 299.461 26.2607 299.842 26.6943C300.229 27.1279 300.521 27.6406 300.721 28.2324C300.92 28.8184 301.02 29.46 301.02 30.1572V30.3418C301.02 31.0332 300.92 31.6748 300.721 32.2666C300.521 32.8525 300.229 33.3652 299.842 33.8047C299.461 34.2383 298.992 34.5752 298.436 34.8154C297.879 35.0557 297.24 35.1758 296.52 35.1758C295.799 35.1758 295.157 35.0557 294.595 34.8154C294.038 34.5752 293.566 34.2383 293.18 33.8047C292.799 33.3652 292.509 32.8525 292.31 32.2666C292.11 31.6748 292.011 31.0332 292.011 30.3418ZM294.542 30.1572V30.3418C294.542 30.7402 294.577 31.1123 294.647 31.458C294.718 31.8037 294.829 32.1084 294.981 32.3721C295.14 32.6299 295.345 32.832 295.597 32.9785C295.849 33.125 296.156 33.1982 296.52 33.1982C296.871 33.1982 297.173 33.125 297.425 32.9785C297.677 32.832 297.879 32.6299 298.031 32.3721C298.184 32.1084 298.295 31.8037 298.365 31.458C298.441 31.1123 298.479 30.7402 298.479 30.3418V30.1572C298.479 29.7705 298.441 29.4072 298.365 29.0674C298.295 28.7217 298.181 28.417 298.022 28.1533C297.87 27.8838 297.668 27.6729 297.416 27.5205C297.164 27.3682 296.859 27.292 296.502 27.292C296.145 27.292 295.84 27.3682 295.588 27.5205C295.342 27.6729 295.14 27.8838 294.981 28.1533C294.829 28.417 294.718 28.7217 294.647 29.0674C294.577 29.4072 294.542 29.7705 294.542 30.1572ZM309.589 27.459V35H307.049V25.4902H309.431L309.589 27.459ZM309.237 29.9111H308.534C308.534 29.249 308.613 28.6396 308.771 28.083C308.936 27.5205 309.173 27.0342 309.483 26.624C309.8 26.208 310.189 25.8857 310.652 25.6572C311.115 25.4287 311.651 25.3145 312.261 25.3145C312.683 25.3145 313.069 25.3789 313.421 25.5078C313.772 25.6309 314.074 25.8271 314.326 26.0967C314.584 26.3604 314.783 26.7061 314.924 27.1338C315.064 27.5557 315.135 28.0625 315.135 28.6543V35H312.604V28.9355C312.604 28.502 312.545 28.168 312.428 27.9336C312.311 27.6992 312.144 27.5352 311.927 27.4414C311.716 27.3477 311.461 27.3008 311.162 27.3008C310.834 27.3008 310.547 27.3682 310.301 27.5029C310.061 27.6377 309.861 27.8252 309.703 28.0654C309.545 28.2998 309.428 28.5752 309.352 28.8916C309.275 29.208 309.237 29.5479 309.237 29.9111ZM314.897 29.6211L313.992 29.7354C313.992 29.1143 314.068 28.5371 314.221 28.0039C314.379 27.4707 314.61 27.002 314.915 26.5977C315.226 26.1934 315.609 25.8799 316.066 25.6572C316.523 25.4287 317.051 25.3145 317.648 25.3145C318.105 25.3145 318.521 25.3818 318.896 25.5166C319.271 25.6455 319.591 25.8535 319.854 26.1406C320.124 26.4219 320.329 26.791 320.47 27.248C320.616 27.7051 320.689 28.2646 320.689 28.9268V35H318.149V28.9268C318.149 28.4873 318.091 28.1533 317.974 27.9248C317.862 27.6904 317.698 27.5293 317.481 27.4414C317.271 27.3477 317.019 27.3008 316.726 27.3008C316.421 27.3008 316.154 27.3623 315.926 27.4854C315.697 27.6025 315.507 27.7666 315.354 27.9775C315.202 28.1885 315.088 28.4346 315.012 28.7158C314.936 28.9912 314.897 29.293 314.897 29.6211ZM327.782 32.8555V28.6191C327.782 28.3145 327.732 28.0537 327.633 27.8369C327.533 27.6143 327.378 27.4414 327.167 27.3184C326.962 27.1953 326.695 27.1338 326.367 27.1338C326.086 27.1338 325.843 27.1836 325.638 27.2832C325.433 27.377 325.274 27.5146 325.163 27.6963C325.052 27.8721 324.996 28.0801 324.996 28.3203H322.465C322.465 27.916 322.559 27.5322 322.746 27.1689C322.934 26.8057 323.206 26.4863 323.563 26.2109C323.921 25.9297 324.346 25.71 324.838 25.5518C325.336 25.3936 325.893 25.3145 326.508 25.3145C327.246 25.3145 327.902 25.4375 328.477 25.6836C329.051 25.9297 329.502 26.2988 329.83 26.791C330.164 27.2832 330.331 27.8984 330.331 28.6367V32.7061C330.331 33.2275 330.363 33.6553 330.428 33.9893C330.492 34.3174 330.586 34.6045 330.709 34.8506V35H328.151C328.028 34.7422 327.935 34.4199 327.87 34.0332C327.812 33.6406 327.782 33.248 327.782 32.8555ZM328.116 29.208L328.134 30.6406H326.719C326.385 30.6406 326.095 30.6787 325.849 30.7549C325.603 30.8311 325.4 30.9395 325.242 31.0801C325.084 31.2148 324.967 31.373 324.891 31.5547C324.82 31.7363 324.785 31.9355 324.785 32.1523C324.785 32.3691 324.835 32.5654 324.935 32.7412C325.034 32.9111 325.178 33.0459 325.365 33.1455C325.553 33.2393 325.772 33.2861 326.024 33.2861C326.405 33.2861 326.736 33.21 327.018 33.0576C327.299 32.9053 327.516 32.7178 327.668 32.4951C327.826 32.2725 327.908 32.0615 327.914 31.8623L328.582 32.9346C328.488 33.1748 328.359 33.4238 328.195 33.6816C328.037 33.9395 327.835 34.1826 327.589 34.4111C327.343 34.6338 327.047 34.8184 326.701 34.9648C326.355 35.1055 325.945 35.1758 325.471 35.1758C324.867 35.1758 324.319 35.0557 323.827 34.8154C323.341 34.5693 322.954 34.2324 322.667 33.8047C322.386 33.3711 322.245 32.8789 322.245 32.3281C322.245 31.8301 322.339 31.3877 322.526 31.001C322.714 30.6143 322.989 30.2891 323.353 30.0254C323.722 29.7559 324.182 29.5537 324.732 29.4189C325.283 29.2783 325.922 29.208 326.648 29.208H328.116ZM334.954 25.4902V35H332.414V25.4902H334.954ZM332.256 23.0117C332.256 22.6426 332.385 22.3379 332.643 22.0977C332.9 21.8574 333.246 21.7373 333.68 21.7373C334.107 21.7373 334.45 21.8574 334.708 22.0977C334.972 22.3379 335.104 22.6426 335.104 23.0117C335.104 23.3809 334.972 23.6855 334.708 23.9258C334.45 24.166 334.107 24.2861 333.68 24.2861C333.246 24.2861 332.9 24.166 332.643 23.9258C332.385 23.6855 332.256 23.3809 332.256 23.0117ZM339.524 27.5205V35H336.993V25.4902H339.366L339.524 27.5205ZM339.155 29.9111H338.47C338.47 29.208 338.561 28.5752 338.742 28.0127C338.924 27.4443 339.179 26.9609 339.507 26.5625C339.835 26.1582 340.225 25.8506 340.676 25.6396C341.133 25.4229 341.643 25.3145 342.205 25.3145C342.65 25.3145 343.058 25.3789 343.427 25.5078C343.796 25.6367 344.112 25.8418 344.376 26.123C344.646 26.4043 344.851 26.7764 344.991 27.2393C345.138 27.7021 345.211 28.2676 345.211 28.9355V35H342.662V28.9268C342.662 28.5049 342.604 28.1768 342.486 27.9424C342.369 27.708 342.196 27.5439 341.968 27.4502C341.745 27.3506 341.47 27.3008 341.142 27.3008C340.802 27.3008 340.506 27.3682 340.254 27.5029C340.008 27.6377 339.803 27.8252 339.639 28.0654C339.48 28.2998 339.36 28.5752 339.278 28.8916C339.196 29.208 339.155 29.5479 339.155 29.9111ZM354.149 27.3184V38.6562H351.618V25.4902H353.965L354.149 27.3184ZM360.17 30.1396V30.3242C360.17 31.0156 360.088 31.6572 359.924 32.249C359.766 32.8408 359.531 33.3564 359.221 33.7959C358.91 34.2295 358.523 34.5693 358.061 34.8154C357.604 35.0557 357.076 35.1758 356.479 35.1758C355.898 35.1758 355.395 35.0586 354.967 34.8242C354.539 34.5898 354.179 34.2617 353.886 33.8398C353.599 33.4121 353.367 32.917 353.191 32.3545C353.016 31.792 352.881 31.1885 352.787 30.5439V30.0605C352.881 29.3691 353.016 28.7363 353.191 28.1621C353.367 27.582 353.599 27.0811 353.886 26.6592C354.179 26.2314 354.536 25.9004 354.958 25.666C355.386 25.4316 355.887 25.3145 356.461 25.3145C357.064 25.3145 357.595 25.4287 358.052 25.6572C358.515 25.8857 358.901 26.2139 359.212 26.6416C359.528 27.0693 359.766 27.5791 359.924 28.1709C360.088 28.7627 360.17 29.4189 360.17 30.1396ZM357.63 30.3242V30.1396C357.63 29.7354 357.595 29.3633 357.524 29.0234C357.46 28.6777 357.354 28.376 357.208 28.1182C357.067 27.8604 356.88 27.6611 356.646 27.5205C356.417 27.374 356.139 27.3008 355.811 27.3008C355.465 27.3008 355.169 27.3564 354.923 27.4678C354.683 27.5791 354.486 27.7402 354.334 27.9512C354.182 28.1621 354.067 28.4141 353.991 28.707C353.915 29 353.868 29.3311 353.851 29.7002V30.9219C353.88 31.3555 353.962 31.7451 354.097 32.0908C354.231 32.4307 354.439 32.7002 354.721 32.8994C355.002 33.0986 355.371 33.1982 355.828 33.1982C356.162 33.1982 356.443 33.125 356.672 32.9785C356.9 32.8262 357.085 32.6182 357.226 32.3545C357.372 32.0908 357.475 31.7861 357.533 31.4404C357.598 31.0947 357.63 30.7227 357.63 30.3242ZM366.876 32.8555V28.6191C366.876 28.3145 366.826 28.0537 366.727 27.8369C366.627 27.6143 366.472 27.4414 366.261 27.3184C366.056 27.1953 365.789 27.1338 365.461 27.1338C365.18 27.1338 364.937 27.1836 364.731 27.2832C364.526 27.377 364.368 27.5146 364.257 27.6963C364.146 27.8721 364.09 28.0801 364.09 28.3203H361.559C361.559 27.916 361.652 27.5322 361.84 27.1689C362.027 26.8057 362.3 26.4863 362.657 26.2109C363.015 25.9297 363.439 25.71 363.932 25.5518C364.43 25.3936 364.986 25.3145 365.602 25.3145C366.34 25.3145 366.996 25.4375 367.57 25.6836C368.145 25.9297 368.596 26.2988 368.924 26.791C369.258 27.2832 369.425 27.8984 369.425 28.6367V32.7061C369.425 33.2275 369.457 33.6553 369.521 33.9893C369.586 34.3174 369.68 34.6045 369.803 34.8506V35H367.245C367.122 34.7422 367.028 34.4199 366.964 34.0332C366.905 33.6406 366.876 33.248 366.876 32.8555ZM367.21 29.208L367.228 30.6406H365.812C365.479 30.6406 365.188 30.6787 364.942 30.7549C364.696 30.8311 364.494 30.9395 364.336 31.0801C364.178 31.2148 364.061 31.373 363.984 31.5547C363.914 31.7363 363.879 31.9355 363.879 32.1523C363.879 32.3691 363.929 32.5654 364.028 32.7412C364.128 32.9111 364.271 33.0459 364.459 33.1455C364.646 33.2393 364.866 33.2861 365.118 33.2861C365.499 33.2861 365.83 33.21 366.111 33.0576C366.393 32.9053 366.609 32.7178 366.762 32.4951C366.92 32.2725 367.002 32.0615 367.008 31.8623L367.676 32.9346C367.582 33.1748 367.453 33.4238 367.289 33.6816C367.131 33.9395 366.929 34.1826 366.683 34.4111C366.437 34.6338 366.141 34.8184 365.795 34.9648C365.449 35.1055 365.039 35.1758 364.564 35.1758C363.961 35.1758 363.413 35.0557 362.921 34.8154C362.435 34.5693 362.048 34.2324 361.761 33.8047C361.479 33.3711 361.339 32.8789 361.339 32.3281C361.339 31.8301 361.433 31.3877 361.62 31.001C361.808 30.6143 362.083 30.2891 362.446 30.0254C362.815 29.7559 363.275 29.5537 363.826 29.4189C364.377 29.2783 365.016 29.208 365.742 29.208H367.21ZM373.854 27.5205V35H371.323V25.4902H373.696L373.854 27.5205ZM373.485 29.9111H372.8C372.8 29.208 372.891 28.5752 373.072 28.0127C373.254 27.4443 373.509 26.9609 373.837 26.5625C374.165 26.1582 374.555 25.8506 375.006 25.6396C375.463 25.4229 375.973 25.3145 376.535 25.3145C376.98 25.3145 377.388 25.3789 377.757 25.5078C378.126 25.6367 378.442 25.8418 378.706 26.123C378.976 26.4043 379.181 26.7764 379.321 27.2393C379.468 27.7021 379.541 28.2676 379.541 28.9355V35H376.992V28.9268C376.992 28.5049 376.934 28.1768 376.816 27.9424C376.699 27.708 376.526 27.5439 376.298 27.4502C376.075 27.3506 375.8 27.3008 375.472 27.3008C375.132 27.3008 374.836 27.3682 374.584 27.5029C374.338 27.6377 374.133 27.8252 373.969 28.0654C373.811 28.2998 373.69 28.5752 373.608 28.8916C373.526 29.208 373.485 29.5479 373.485 29.9111ZM385.843 35.1758C385.104 35.1758 384.442 35.0586 383.856 34.8242C383.271 34.584 382.772 34.2529 382.362 33.8311C381.958 33.4092 381.647 32.9199 381.431 32.3633C381.214 31.8008 381.105 31.2031 381.105 30.5703V30.2188C381.105 29.498 381.208 28.8389 381.413 28.2412C381.618 27.6436 381.911 27.125 382.292 26.6855C382.679 26.2461 383.147 25.9092 383.698 25.6748C384.249 25.4346 384.87 25.3145 385.562 25.3145C386.235 25.3145 386.833 25.4258 387.354 25.6484C387.876 25.8711 388.312 26.1875 388.664 26.5977C389.021 27.0078 389.291 27.5 389.473 28.0742C389.654 28.6426 389.745 29.2754 389.745 29.9727V31.0273H382.187V29.3398H387.258V29.1465C387.258 28.7949 387.193 28.4814 387.064 28.2061C386.941 27.9248 386.754 27.7021 386.502 27.5381C386.25 27.374 385.928 27.292 385.535 27.292C385.201 27.292 384.914 27.3652 384.674 27.5117C384.434 27.6582 384.237 27.8633 384.085 28.127C383.938 28.3906 383.827 28.7012 383.751 29.0586C383.681 29.4102 383.646 29.7969 383.646 30.2188V30.5703C383.646 30.9512 383.698 31.3027 383.804 31.625C383.915 31.9473 384.07 32.2256 384.27 32.46C384.475 32.6943 384.721 32.876 385.008 33.0049C385.301 33.1338 385.632 33.1982 386.001 33.1982C386.458 33.1982 386.883 33.1104 387.275 32.9346C387.674 32.7529 388.017 32.4805 388.304 32.1172L389.534 33.4531C389.335 33.7402 389.062 34.0156 388.717 34.2793C388.377 34.543 387.967 34.7598 387.486 34.9297C387.006 35.0938 386.458 35.1758 385.843 35.1758ZM393.858 21.5V35H391.318V21.5H393.858ZM401.092 32.3721C401.092 32.1904 401.039 32.0264 400.934 31.8799C400.828 31.7334 400.632 31.5986 400.345 31.4756C400.063 31.3467 399.656 31.2295 399.123 31.124C398.643 31.0186 398.194 30.8867 397.778 30.7285C397.368 30.5645 397.011 30.3682 396.706 30.1396C396.407 29.9111 396.173 29.6416 396.003 29.3311C395.833 29.0146 395.748 28.6543 395.748 28.25C395.748 27.8516 395.833 27.4766 396.003 27.125C396.179 26.7734 396.428 26.4629 396.75 26.1934C397.078 25.918 397.477 25.7041 397.945 25.5518C398.42 25.3936 398.953 25.3145 399.545 25.3145C400.371 25.3145 401.08 25.4463 401.672 25.71C402.27 25.9736 402.727 26.3369 403.043 26.7998C403.365 27.2568 403.526 27.7783 403.526 28.3643H400.995C400.995 28.1182 400.942 27.8984 400.837 27.7051C400.737 27.5059 400.579 27.3506 400.362 27.2393C400.151 27.1221 399.876 27.0635 399.536 27.0635C399.255 27.0635 399.012 27.1133 398.807 27.2129C398.602 27.3066 398.443 27.4355 398.332 27.5996C398.227 27.7578 398.174 27.9336 398.174 28.127C398.174 28.2734 398.203 28.4053 398.262 28.5225C398.326 28.6338 398.429 28.7363 398.569 28.8301C398.71 28.9238 398.892 29.0117 399.114 29.0938C399.343 29.1699 399.624 29.2402 399.958 29.3047C400.644 29.4453 401.256 29.6299 401.795 29.8584C402.334 30.0811 402.762 30.3857 403.078 30.7725C403.395 31.1533 403.553 31.6543 403.553 32.2754C403.553 32.6973 403.459 33.084 403.271 33.4355C403.084 33.7871 402.814 34.0947 402.463 34.3584C402.111 34.6162 401.689 34.8184 401.197 34.9648C400.711 35.1055 400.163 35.1758 399.554 35.1758C398.669 35.1758 397.919 35.0176 397.304 34.7012C396.694 34.3848 396.231 33.9834 395.915 33.4971C395.604 33.0049 395.449 32.501 395.449 31.9854H397.849C397.86 32.3311 397.948 32.6094 398.112 32.8203C398.282 33.0312 398.496 33.1836 398.754 33.2773C399.018 33.3711 399.302 33.418 399.606 33.418C399.935 33.418 400.207 33.374 400.424 33.2861C400.641 33.1924 400.805 33.0693 400.916 32.917C401.033 32.7588 401.092 32.5771 401.092 32.3721ZM415.04 24.3916L411.56 35H408.756L413.511 22.2031H415.295L415.04 24.3916ZM417.932 35L414.442 24.3916L414.161 22.2031H415.963L420.744 35H417.932ZM417.773 30.2363V32.3018H411.015V30.2363H417.773ZM431.388 32.8555V28.6191C431.388 28.3145 431.338 28.0537 431.238 27.8369C431.139 27.6143 430.983 27.4414 430.772 27.3184C430.567 27.1953 430.301 27.1338 429.973 27.1338C429.691 27.1338 429.448 27.1836 429.243 27.2832C429.038 27.377 428.88 27.5146 428.769 27.6963C428.657 27.8721 428.602 28.0801 428.602 28.3203H426.07C426.07 27.916 426.164 27.5322 426.352 27.1689C426.539 26.8057 426.812 26.4863 427.169 26.2109C427.526 25.9297 427.951 25.71 428.443 25.5518C428.941 25.3936 429.498 25.3145 430.113 25.3145C430.852 25.3145 431.508 25.4375 432.082 25.6836C432.656 25.9297 433.107 26.2988 433.436 26.791C433.77 27.2832 433.937 27.8984 433.937 28.6367V32.7061C433.937 33.2275 433.969 33.6553 434.033 33.9893C434.098 34.3174 434.191 34.6045 434.314 34.8506V35H431.757C431.634 34.7422 431.54 34.4199 431.476 34.0332C431.417 33.6406 431.388 33.248 431.388 32.8555ZM431.722 29.208L431.739 30.6406H430.324C429.99 30.6406 429.7 30.6787 429.454 30.7549C429.208 30.8311 429.006 30.9395 428.848 31.0801C428.689 31.2148 428.572 31.373 428.496 31.5547C428.426 31.7363 428.391 31.9355 428.391 32.1523C428.391 32.3691 428.44 32.5654 428.54 32.7412C428.64 32.9111 428.783 33.0459 428.971 33.1455C429.158 33.2393 429.378 33.2861 429.63 33.2861C430.011 33.2861 430.342 33.21 430.623 33.0576C430.904 32.9053 431.121 32.7178 431.273 32.4951C431.432 32.2725 431.514 32.0615 431.52 31.8623L432.188 32.9346C432.094 33.1748 431.965 33.4238 431.801 33.6816C431.643 33.9395 431.44 34.1826 431.194 34.4111C430.948 34.6338 430.652 34.8184 430.307 34.9648C429.961 35.1055 429.551 35.1758 429.076 35.1758C428.473 35.1758 427.925 35.0557 427.433 34.8154C426.946 34.5693 426.56 34.2324 426.272 33.8047C425.991 33.3711 425.851 32.8789 425.851 32.3281C425.851 31.8301 425.944 31.3877 426.132 31.001C426.319 30.6143 426.595 30.2891 426.958 30.0254C427.327 29.7559 427.787 29.5537 428.338 29.4189C428.889 29.2783 429.527 29.208 430.254 29.208H431.722ZM438.366 27.5205V35H435.835V25.4902H438.208L438.366 27.5205ZM437.997 29.9111H437.312C437.312 29.208 437.402 28.5752 437.584 28.0127C437.766 27.4443 438.021 26.9609 438.349 26.5625C438.677 26.1582 439.066 25.8506 439.518 25.6396C439.975 25.4229 440.484 25.3145 441.047 25.3145C441.492 25.3145 441.899 25.3789 442.269 25.5078C442.638 25.6367 442.954 25.8418 443.218 26.123C443.487 26.4043 443.692 26.7764 443.833 27.2393C443.979 27.7021 444.053 28.2676 444.053 28.9355V35H441.504V28.9268C441.504 28.5049 441.445 28.1768 441.328 27.9424C441.211 27.708 441.038 27.5439 440.81 27.4502C440.587 27.3506 440.312 27.3008 439.983 27.3008C439.644 27.3008 439.348 27.3682 439.096 27.5029C438.85 27.6377 438.645 27.8252 438.48 28.0654C438.322 28.2998 438.202 28.5752 438.12 28.8916C438.038 29.208 437.997 29.5479 437.997 29.9111ZM451.594 32.9258V21.5H454.143V35H451.849L451.594 32.9258ZM445.582 30.3594V30.1748C445.582 29.4482 445.664 28.7891 445.828 28.1973C445.992 27.5996 446.232 27.0869 446.549 26.6592C446.865 26.2314 447.255 25.9004 447.718 25.666C448.181 25.4316 448.708 25.3145 449.3 25.3145C449.856 25.3145 450.343 25.4316 450.759 25.666C451.181 25.9004 451.538 26.2344 451.831 26.668C452.13 27.0957 452.37 27.6025 452.552 28.1885C452.733 28.7686 452.865 29.4043 452.947 30.0957V30.5C452.865 31.1621 452.733 31.7773 452.552 32.3457C452.37 32.9141 452.13 33.4121 451.831 33.8398C451.538 34.2617 451.181 34.5898 450.759 34.8242C450.337 35.0586 449.845 35.1758 449.282 35.1758C448.69 35.1758 448.163 35.0557 447.7 34.8154C447.243 34.5752 446.856 34.2383 446.54 33.8047C446.229 33.3711 445.992 32.8613 445.828 32.2754C445.664 31.6895 445.582 31.0508 445.582 30.3594ZM448.113 30.1748V30.3594C448.113 30.752 448.143 31.1182 448.201 31.458C448.266 31.7979 448.368 32.0996 448.509 32.3633C448.655 32.6211 448.843 32.8232 449.071 32.9697C449.306 33.1104 449.59 33.1807 449.924 33.1807C450.357 33.1807 450.715 33.084 450.996 32.8906C451.277 32.6914 451.491 32.4189 451.638 32.0732C451.79 31.7275 451.878 31.3291 451.901 30.8779V29.7266C451.884 29.3574 451.831 29.0264 451.743 28.7334C451.661 28.4346 451.538 28.1797 451.374 27.9688C451.216 27.7578 451.017 27.5938 450.776 27.4766C450.542 27.3594 450.264 27.3008 449.941 27.3008C449.613 27.3008 449.332 27.377 449.098 27.5293C448.863 27.6758 448.673 27.8779 448.526 28.1357C448.386 28.3936 448.28 28.6982 448.21 29.0498C448.146 29.3955 448.113 29.7705 448.113 30.1748ZM465.771 29.3838H462.483L462.466 27.5732H465.226C465.712 27.5732 466.11 27.5117 466.421 27.3887C466.731 27.2598 466.963 27.0752 467.115 26.835C467.273 26.5889 467.353 26.29 467.353 25.9385C467.353 25.54 467.276 25.2178 467.124 24.9717C466.978 24.7256 466.746 24.5469 466.43 24.4355C466.119 24.3242 465.718 24.2686 465.226 24.2686H463.397V35H460.761V22.2031H465.226C465.97 22.2031 466.635 22.2734 467.221 22.4141C467.812 22.5547 468.313 22.7686 468.724 23.0557C469.134 23.3428 469.447 23.7061 469.664 24.1455C469.881 24.5791 469.989 25.0947 469.989 25.6924C469.989 26.2197 469.869 26.7061 469.629 27.1514C469.395 27.5967 469.022 27.96 468.513 28.2412C468.009 28.5225 467.35 28.6777 466.535 28.707L465.771 29.3838ZM465.656 35H461.763L462.791 32.9434H465.656C466.119 32.9434 466.497 32.8701 466.79 32.7236C467.083 32.5713 467.3 32.3662 467.44 32.1084C467.581 31.8506 467.651 31.5547 467.651 31.2207C467.651 30.8457 467.587 30.5205 467.458 30.2451C467.335 29.9697 467.136 29.7588 466.86 29.6123C466.585 29.46 466.222 29.3838 465.771 29.3838H463.23L463.248 27.5732H466.412L467.019 28.2852C467.798 28.2734 468.425 28.4111 468.899 28.6982C469.38 28.9795 469.729 29.3457 469.945 29.7969C470.168 30.248 470.279 30.7314 470.279 31.2471C470.279 32.0674 470.101 32.7588 469.743 33.3213C469.386 33.8779 468.861 34.2969 468.17 34.5781C467.484 34.8594 466.646 35 465.656 35Z" fill="#212121"/>
<path d="M572 56V129C572 130.657 570.657 132 569 132H4C2.34315 132 1 130.657 1 129V56H572Z" fill="white"/>
<path d="M572 56V129C572 130.657 570.657 132 569 132H4C2.34315 132 1 130.657 1 129V56H572Z" stroke="#E0E0E0" stroke-width="2"/>
<path d="M87.8115 99.5625L90.0693 91.625H91.1631L90.5303 94.7109L88.1006 103H87.0146L87.8115 99.5625ZM85.4756 91.625L87.2725 99.4062L87.8115 103H86.7334L83.9756 91.625H85.4756ZM94.085 99.3984L95.8428 91.625H97.3506L94.6006 103H93.5225L94.085 99.3984ZM91.3271 91.625L93.5225 99.5625L94.3193 103H93.2334L90.8896 94.7109L90.249 91.625H91.3271ZM103.522 101.555V97.2031C103.522 96.8698 103.455 96.5807 103.319 96.3359C103.189 96.0859 102.991 95.8932 102.726 95.7578C102.46 95.6224 102.132 95.5547 101.741 95.5547C101.377 95.5547 101.056 95.6172 100.78 95.7422C100.509 95.8672 100.296 96.0312 100.14 96.2344C99.9886 96.4375 99.9131 96.6562 99.9131 96.8906H98.4678C98.4678 96.5885 98.5459 96.2891 98.7021 95.9922C98.8584 95.6953 99.0824 95.4271 99.374 95.1875C99.6709 94.9427 100.025 94.75 100.437 94.6094C100.853 94.4635 101.317 94.3906 101.827 94.3906C102.442 94.3906 102.983 94.4948 103.452 94.7031C103.926 94.9115 104.296 95.2266 104.562 95.6484C104.832 96.0651 104.968 96.5885 104.968 97.2188V101.156C104.968 101.438 104.991 101.737 105.038 102.055C105.09 102.372 105.166 102.646 105.265 102.875V103H103.757C103.684 102.833 103.627 102.612 103.585 102.336C103.543 102.055 103.522 101.794 103.522 101.555ZM103.772 97.875L103.788 98.8906H102.327C101.916 98.8906 101.549 98.9245 101.226 98.9922C100.903 99.0547 100.632 99.151 100.413 99.2812C100.194 99.4115 100.028 99.5755 99.9131 99.7734C99.7985 99.9661 99.7412 100.193 99.7412 100.453C99.7412 100.719 99.8011 100.961 99.9209 101.18C100.041 101.398 100.22 101.573 100.46 101.703C100.705 101.828 101.004 101.891 101.358 101.891C101.801 101.891 102.192 101.797 102.53 101.609C102.869 101.422 103.137 101.193 103.335 100.922C103.538 100.651 103.647 100.388 103.663 100.133L104.28 100.828C104.244 101.047 104.145 101.289 103.983 101.555C103.822 101.82 103.606 102.076 103.335 102.32C103.069 102.56 102.752 102.76 102.382 102.922C102.017 103.078 101.606 103.156 101.147 103.156C100.575 103.156 100.072 103.044 99.6396 102.82C99.2126 102.596 98.8792 102.297 98.6396 101.922C98.4053 101.542 98.2881 101.117 98.2881 100.648C98.2881 100.195 98.3766 99.7969 98.5537 99.4531C98.7308 99.1042 98.986 98.8151 99.3193 98.5859C99.6527 98.3516 100.054 98.1745 100.522 98.0547C100.991 97.9349 101.515 97.875 102.093 97.875H103.772ZM112.163 100.758C112.163 100.549 112.116 100.357 112.022 100.18C111.934 99.9974 111.749 99.8333 111.468 99.6875C111.192 99.5365 110.775 99.4062 110.218 99.2969C109.749 99.1979 109.325 99.0807 108.944 98.9453C108.569 98.8099 108.249 98.6458 107.983 98.4531C107.723 98.2604 107.522 98.0339 107.382 97.7734C107.241 97.513 107.171 97.2083 107.171 96.8594C107.171 96.526 107.244 96.2109 107.39 95.9141C107.541 95.6172 107.752 95.3542 108.022 95.125C108.299 94.8958 108.629 94.7161 109.015 94.5859C109.4 94.4557 109.83 94.3906 110.304 94.3906C110.981 94.3906 111.559 94.5104 112.038 94.75C112.517 94.9896 112.884 95.3099 113.14 95.7109C113.395 96.1068 113.522 96.5469 113.522 97.0312H112.077C112.077 96.7969 112.007 96.5703 111.866 96.3516C111.731 96.1276 111.53 95.9427 111.265 95.7969C111.004 95.651 110.684 95.5781 110.304 95.5781C109.903 95.5781 109.577 95.6406 109.327 95.7656C109.082 95.8854 108.903 96.0391 108.788 96.2266C108.679 96.4141 108.624 96.612 108.624 96.8203C108.624 96.9766 108.65 97.1172 108.702 97.2422C108.759 97.362 108.858 97.474 108.999 97.5781C109.14 97.6771 109.338 97.7708 109.593 97.8594C109.848 97.9479 110.174 98.0365 110.569 98.125C111.262 98.2812 111.832 98.4688 112.28 98.6875C112.728 98.9062 113.062 99.1745 113.28 99.4922C113.499 99.8099 113.608 100.195 113.608 100.648C113.608 101.018 113.53 101.357 113.374 101.664C113.223 101.971 113.002 102.237 112.71 102.461C112.424 102.68 112.08 102.852 111.679 102.977C111.283 103.096 110.838 103.156 110.343 103.156C109.598 103.156 108.968 103.023 108.452 102.758C107.937 102.492 107.546 102.148 107.28 101.727C107.015 101.305 106.882 100.859 106.882 100.391H108.335C108.356 100.786 108.47 101.102 108.679 101.336C108.887 101.565 109.142 101.729 109.444 101.828C109.746 101.922 110.046 101.969 110.343 101.969C110.739 101.969 111.069 101.917 111.335 101.812C111.606 101.708 111.812 101.565 111.952 101.383C112.093 101.201 112.163 100.992 112.163 100.758ZM128.556 84.4775V103H124.899V88.6924L120.507 90.0889V87.207L128.162 84.4775H128.556ZM147.218 100.144V103H134.573V100.562L140.553 94.1514C141.154 93.4827 141.628 92.8945 141.975 92.3867C142.322 91.8704 142.571 91.4092 142.724 91.0029C142.884 90.5882 142.965 90.1947 142.965 89.8223C142.965 89.2637 142.872 88.7855 142.686 88.3877C142.499 87.9814 142.224 87.6683 141.86 87.4482C141.505 87.2282 141.065 87.1182 140.54 87.1182C139.981 87.1182 139.499 87.2536 139.093 87.5244C138.695 87.7952 138.39 88.1719 138.179 88.6543C137.976 89.1367 137.874 89.6826 137.874 90.292H134.205C134.205 89.1917 134.467 88.1846 134.992 87.2705C135.517 86.348 136.257 85.6159 137.214 85.0742C138.17 84.5241 139.304 84.249 140.616 84.249C141.911 84.249 143.003 84.4606 143.892 84.8838C144.789 85.2985 145.466 85.8994 145.923 86.6865C146.388 87.4652 146.621 88.3962 146.621 89.4795C146.621 90.0889 146.524 90.6855 146.329 91.2695C146.134 91.8451 145.855 92.4206 145.491 92.9961C145.136 93.5632 144.704 94.1387 144.196 94.7227C143.688 95.3066 143.126 95.9118 142.508 96.5381L139.296 100.144H147.218ZM162.228 96.2266V103H160.774V94.5469H162.149L162.228 96.2266ZM161.931 98.4531L161.259 98.4297C161.264 97.8516 161.34 97.3177 161.485 96.8281C161.631 96.3333 161.847 95.9036 162.134 95.5391C162.42 95.1745 162.777 94.8932 163.204 94.6953C163.631 94.4922 164.126 94.3906 164.688 94.3906C165.084 94.3906 165.449 94.4479 165.782 94.5625C166.116 94.6719 166.405 94.8464 166.649 95.0859C166.894 95.3255 167.084 95.6328 167.22 96.0078C167.355 96.3828 167.423 96.8359 167.423 97.3672V103H165.978V97.4375C165.978 96.9948 165.902 96.6406 165.751 96.375C165.605 96.1094 165.397 95.9167 165.126 95.7969C164.855 95.6719 164.537 95.6094 164.173 95.6094C163.746 95.6094 163.389 95.6849 163.103 95.8359C162.816 95.987 162.587 96.1953 162.415 96.4609C162.243 96.7266 162.118 97.0312 162.04 97.375C161.967 97.7135 161.931 98.0729 161.931 98.4531ZM167.407 97.6562L166.438 97.9531C166.444 97.4896 166.519 97.0443 166.665 96.6172C166.816 96.1901 167.032 95.8099 167.313 95.4766C167.6 95.1432 167.951 94.8802 168.368 94.6875C168.785 94.4896 169.261 94.3906 169.798 94.3906C170.251 94.3906 170.652 94.4505 171.001 94.5703C171.355 94.6901 171.652 94.875 171.892 95.125C172.136 95.3698 172.321 95.6849 172.446 96.0703C172.571 96.4557 172.634 96.9141 172.634 97.4453V103H171.181V97.4297C171.181 96.9557 171.105 96.5885 170.954 96.3281C170.808 96.0625 170.6 95.8776 170.329 95.7734C170.063 95.6641 169.746 95.6094 169.376 95.6094C169.058 95.6094 168.777 95.6641 168.532 95.7734C168.287 95.8828 168.082 96.0339 167.915 96.2266C167.748 96.4141 167.621 96.6302 167.532 96.875C167.449 97.1198 167.407 97.3802 167.407 97.6562ZM174.438 98.8672V98.6875C174.438 98.0781 174.527 97.513 174.704 96.9922C174.881 96.4661 175.136 96.0104 175.47 95.625C175.803 95.2344 176.207 94.9323 176.681 94.7188C177.155 94.5 177.686 94.3906 178.274 94.3906C178.868 94.3906 179.402 94.5 179.876 94.7188C180.355 94.9323 180.761 95.2344 181.095 95.625C181.433 96.0104 181.691 96.4661 181.868 96.9922C182.045 97.513 182.134 98.0781 182.134 98.6875V98.8672C182.134 99.4766 182.045 100.042 181.868 100.562C181.691 101.083 181.433 101.539 181.095 101.93C180.761 102.315 180.358 102.617 179.884 102.836C179.415 103.049 178.884 103.156 178.29 103.156C177.696 103.156 177.162 103.049 176.688 102.836C176.215 102.617 175.808 102.315 175.47 101.93C175.136 101.539 174.881 101.083 174.704 100.562C174.527 100.042 174.438 99.4766 174.438 98.8672ZM175.884 98.6875V98.8672C175.884 99.2891 175.933 99.6875 176.032 100.062C176.131 100.432 176.28 100.76 176.478 101.047C176.681 101.333 176.933 101.56 177.235 101.727C177.537 101.888 177.889 101.969 178.29 101.969C178.686 101.969 179.032 101.888 179.329 101.727C179.631 101.56 179.881 101.333 180.079 101.047C180.277 100.76 180.425 100.432 180.524 100.062C180.629 99.6875 180.681 99.2891 180.681 98.8672V98.6875C180.681 98.2708 180.629 97.8776 180.524 97.5078C180.425 97.1328 180.274 96.8021 180.071 96.5156C179.873 96.224 179.623 95.9948 179.321 95.8281C179.024 95.6615 178.675 95.5781 178.274 95.5781C177.879 95.5781 177.53 95.6615 177.228 95.8281C176.931 95.9948 176.681 96.224 176.478 96.5156C176.28 96.8021 176.131 97.1328 176.032 97.5078C175.933 97.8776 175.884 98.2708 175.884 98.6875ZM185.392 96.3516V103H183.946V94.5469H185.313L185.392 96.3516ZM185.048 98.4531L184.446 98.4297C184.451 97.8516 184.537 97.3177 184.704 96.8281C184.871 96.3333 185.105 95.9036 185.407 95.5391C185.709 95.1745 186.069 94.8932 186.485 94.6953C186.907 94.4922 187.373 94.3906 187.884 94.3906C188.3 94.3906 188.675 94.4479 189.009 94.5625C189.342 94.6719 189.626 94.849 189.86 95.0938C190.1 95.3385 190.282 95.6562 190.407 96.0469C190.532 96.4323 190.595 96.9036 190.595 97.4609V103H189.142V97.4453C189.142 97.0026 189.076 96.6484 188.946 96.3828C188.816 96.112 188.626 95.9167 188.376 95.7969C188.126 95.6719 187.819 95.6094 187.454 95.6094C187.095 95.6094 186.767 95.6849 186.47 95.8359C186.178 95.987 185.925 96.1953 185.712 96.4609C185.504 96.7266 185.34 97.0312 185.22 97.375C185.105 97.7135 185.048 98.0729 185.048 98.4531ZM196.329 94.5469V95.6562H191.759V94.5469H196.329ZM193.306 92.4922H194.751V100.906C194.751 101.193 194.795 101.409 194.884 101.555C194.972 101.701 195.087 101.797 195.228 101.844C195.368 101.891 195.519 101.914 195.681 101.914C195.8 101.914 195.925 101.904 196.056 101.883C196.191 101.857 196.293 101.836 196.36 101.82L196.368 103C196.254 103.036 196.103 103.07 195.915 103.102C195.733 103.138 195.511 103.156 195.251 103.156C194.897 103.156 194.571 103.086 194.274 102.945C193.978 102.805 193.741 102.57 193.563 102.242C193.392 101.909 193.306 101.461 193.306 100.898V92.4922ZM199.47 91V103H198.024V91H199.47ZM199.126 98.4531L198.524 98.4297C198.53 97.8516 198.616 97.3177 198.782 96.8281C198.949 96.3333 199.183 95.9036 199.485 95.5391C199.787 95.1745 200.147 94.8932 200.563 94.6953C200.985 94.4922 201.451 94.3906 201.962 94.3906C202.379 94.3906 202.754 94.4479 203.087 94.5625C203.42 94.6719 203.704 94.849 203.938 95.0938C204.178 95.3385 204.36 95.6562 204.485 96.0469C204.61 96.4323 204.673 96.9036 204.673 97.4609V103H203.22V97.4453C203.22 97.0026 203.155 96.6484 203.024 96.3828C202.894 96.112 202.704 95.9167 202.454 95.7969C202.204 95.6719 201.897 95.6094 201.532 95.6094C201.173 95.6094 200.845 95.6849 200.548 95.8359C200.256 95.987 200.004 96.1953 199.79 96.4609C199.582 96.7266 199.418 97.0312 199.298 97.375C199.183 97.7135 199.126 98.0729 199.126 98.4531ZM211.759 100.758C211.759 100.549 211.712 100.357 211.618 100.18C211.53 99.9974 211.345 99.8333 211.063 99.6875C210.787 99.5365 210.371 99.4062 209.813 99.2969C209.345 99.1979 208.92 99.0807 208.54 98.9453C208.165 98.8099 207.845 98.6458 207.579 98.4531C207.319 98.2604 207.118 98.0339 206.978 97.7734C206.837 97.513 206.767 97.2083 206.767 96.8594C206.767 96.526 206.84 96.2109 206.985 95.9141C207.136 95.6172 207.347 95.3542 207.618 95.125C207.894 94.8958 208.225 94.7161 208.61 94.5859C208.996 94.4557 209.425 94.3906 209.899 94.3906C210.576 94.3906 211.155 94.5104 211.634 94.75C212.113 94.9896 212.48 95.3099 212.735 95.7109C212.991 96.1068 213.118 96.5469 213.118 97.0312H211.673C211.673 96.7969 211.603 96.5703 211.462 96.3516C211.326 96.1276 211.126 95.9427 210.86 95.7969C210.6 95.651 210.28 95.5781 209.899 95.5781C209.498 95.5781 209.173 95.6406 208.923 95.7656C208.678 95.8854 208.498 96.0391 208.384 96.2266C208.274 96.4141 208.22 96.612 208.22 96.8203C208.22 96.9766 208.246 97.1172 208.298 97.2422C208.355 97.362 208.454 97.474 208.595 97.5781C208.735 97.6771 208.933 97.7708 209.188 97.8594C209.444 97.9479 209.769 98.0365 210.165 98.125C210.858 98.2812 211.428 98.4688 211.876 98.6875C212.324 98.9062 212.657 99.1745 212.876 99.4922C213.095 99.8099 213.204 100.195 213.204 100.648C213.204 101.018 213.126 101.357 212.97 101.664C212.819 101.971 212.597 102.237 212.306 102.461C212.019 102.68 211.675 102.852 211.274 102.977C210.879 103.096 210.433 103.156 209.938 103.156C209.194 103.156 208.563 103.023 208.048 102.758C207.532 102.492 207.142 102.148 206.876 101.727C206.61 101.305 206.478 100.859 206.478 100.391H207.931C207.951 100.786 208.066 101.102 208.274 101.336C208.483 101.565 208.738 101.729 209.04 101.828C209.342 101.922 209.642 101.969 209.938 101.969C210.334 101.969 210.665 101.917 210.931 101.812C211.201 101.708 211.407 101.565 211.548 101.383C211.688 101.201 211.759 100.992 211.759 100.758Z" fill="#C62828"/>
<path d="M375.698 91.625V103H374.183L368.456 94.2266V103H366.948V91.625H368.456L374.206 100.422V91.625H375.698ZM377.769 98.8672V98.6875C377.769 98.0781 377.857 97.513 378.034 96.9922C378.211 96.4661 378.466 96.0104 378.8 95.625C379.133 95.2344 379.537 94.9323 380.011 94.7188C380.485 94.5 381.016 94.3906 381.604 94.3906C382.198 94.3906 382.732 94.5 383.206 94.7188C383.685 94.9323 384.091 95.2344 384.425 95.625C384.763 96.0104 385.021 96.4661 385.198 96.9922C385.375 97.513 385.464 98.0781 385.464 98.6875V98.8672C385.464 99.4766 385.375 100.042 385.198 100.562C385.021 101.083 384.763 101.539 384.425 101.93C384.091 102.315 383.688 102.617 383.214 102.836C382.745 103.049 382.214 103.156 381.62 103.156C381.026 103.156 380.493 103.049 380.019 102.836C379.545 102.617 379.138 102.315 378.8 101.93C378.466 101.539 378.211 101.083 378.034 100.562C377.857 100.042 377.769 99.4766 377.769 98.8672ZM379.214 98.6875V98.8672C379.214 99.2891 379.263 99.6875 379.362 100.062C379.461 100.432 379.61 100.76 379.808 101.047C380.011 101.333 380.263 101.56 380.565 101.727C380.868 101.888 381.219 101.969 381.62 101.969C382.016 101.969 382.362 101.888 382.659 101.727C382.961 101.56 383.211 101.333 383.409 101.047C383.607 100.76 383.756 100.432 383.854 100.062C383.959 99.6875 384.011 99.2891 384.011 98.8672V98.6875C384.011 98.2708 383.959 97.8776 383.854 97.5078C383.756 97.1328 383.604 96.8021 383.401 96.5156C383.203 96.224 382.953 95.9948 382.651 95.8281C382.354 95.6615 382.006 95.5781 381.604 95.5781C381.209 95.5781 380.86 95.6615 380.558 95.8281C380.261 95.9948 380.011 96.224 379.808 96.5156C379.61 96.8021 379.461 97.1328 379.362 97.5078C379.263 97.8776 379.214 98.2708 379.214 98.6875ZM389.417 101.5L391.589 94.5469H392.542L392.354 95.9297L390.144 103H389.214L389.417 101.5ZM387.956 94.5469L389.808 101.578L389.94 103H388.964L386.511 94.5469H387.956ZM394.62 101.523L396.386 94.5469H397.823L395.37 103H394.401L394.62 101.523ZM392.753 94.5469L394.878 101.383L395.12 103H394.198L391.925 95.9141L391.737 94.5469H392.753ZM412.877 84.3252H413.41V87.2451H413.194C412.229 87.2451 411.37 87.389 410.617 87.6768C409.864 87.9645 409.225 88.375 408.7 88.9082C408.184 89.4329 407.786 90.0677 407.507 90.8125C407.236 91.5573 407.101 92.391 407.101 93.3135V96.3857C407.101 97.0459 407.164 97.6299 407.291 98.1377C407.426 98.637 407.617 99.056 407.862 99.3945C408.116 99.7246 408.412 99.9743 408.751 100.144C409.09 100.304 409.47 100.385 409.894 100.385C410.291 100.385 410.651 100.3 410.973 100.131C411.303 99.9616 411.582 99.7246 411.811 99.4199C412.048 99.1068 412.225 98.7428 412.344 98.3281C412.471 97.9049 412.534 97.4437 412.534 96.9443C412.534 96.445 412.471 95.9837 412.344 95.5605C412.225 95.1374 412.048 94.7734 411.811 94.4688C411.574 94.1556 411.286 93.9144 410.947 93.7451C410.609 93.5758 410.228 93.4912 409.805 93.4912C409.229 93.4912 408.721 93.6266 408.281 93.8975C407.85 94.1598 407.511 94.4984 407.266 94.9131C407.02 95.3278 406.889 95.7637 406.872 96.2207L405.768 95.5098C405.793 94.8581 405.928 94.2402 406.174 93.6562C406.428 93.0723 406.775 92.556 407.215 92.1074C407.663 91.6504 408.201 91.2949 408.827 91.041C409.453 90.7786 410.16 90.6475 410.947 90.6475C411.811 90.6475 412.568 90.8125 413.22 91.1426C413.88 91.4727 414.43 91.9255 414.87 92.501C415.31 93.0765 415.64 93.7409 415.86 94.4941C416.08 95.2474 416.19 96.0514 416.19 96.9062C416.19 97.8034 416.042 98.637 415.746 99.4072C415.458 100.177 415.039 100.85 414.489 101.426C413.948 102.001 413.296 102.45 412.534 102.771C411.772 103.093 410.918 103.254 409.97 103.254C408.988 103.254 408.095 103.076 407.291 102.721C406.495 102.357 405.81 101.849 405.234 101.197C404.659 100.546 404.215 99.7712 403.901 98.874C403.597 97.9769 403.444 96.9951 403.444 95.9287V94.5068C403.444 93.0173 403.66 91.6546 404.092 90.4189C404.532 89.1748 405.162 88.0999 405.983 87.1943C406.804 86.2803 407.795 85.5736 408.954 85.0742C410.114 84.5749 411.421 84.3252 412.877 84.3252ZM431.099 96.2266V103H429.646V94.5469H431.021L431.099 96.2266ZM430.802 98.4531L430.13 98.4297C430.135 97.8516 430.211 97.3177 430.356 96.8281C430.502 96.3333 430.718 95.9036 431.005 95.5391C431.291 95.1745 431.648 94.8932 432.075 94.6953C432.502 94.4922 432.997 94.3906 433.56 94.3906C433.955 94.3906 434.32 94.4479 434.653 94.5625C434.987 94.6719 435.276 94.8464 435.521 95.0859C435.765 95.3255 435.955 95.6328 436.091 96.0078C436.226 96.3828 436.294 96.8359 436.294 97.3672V103H434.849V97.4375C434.849 96.9948 434.773 96.6406 434.622 96.375C434.476 96.1094 434.268 95.9167 433.997 95.7969C433.726 95.6719 433.409 95.6094 433.044 95.6094C432.617 95.6094 432.26 95.6849 431.974 95.8359C431.687 95.987 431.458 96.1953 431.286 96.4609C431.114 96.7266 430.989 97.0312 430.911 97.375C430.838 97.7135 430.802 98.0729 430.802 98.4531ZM436.278 97.6562L435.31 97.9531C435.315 97.4896 435.39 97.0443 435.536 96.6172C435.687 96.1901 435.903 95.8099 436.185 95.4766C436.471 95.1432 436.823 94.8802 437.239 94.6875C437.656 94.4896 438.132 94.3906 438.669 94.3906C439.122 94.3906 439.523 94.4505 439.872 94.5703C440.226 94.6901 440.523 94.875 440.763 95.125C441.007 95.3698 441.192 95.6849 441.317 96.0703C441.442 96.4557 441.505 96.9141 441.505 97.4453V103H440.052V97.4297C440.052 96.9557 439.976 96.5885 439.825 96.3281C439.679 96.0625 439.471 95.8776 439.2 95.7734C438.935 95.6641 438.617 95.6094 438.247 95.6094C437.929 95.6094 437.648 95.6641 437.403 95.7734C437.159 95.8828 436.953 96.0339 436.786 96.2266C436.619 96.4141 436.492 96.6302 436.403 96.875C436.32 97.1198 436.278 97.3802 436.278 97.6562ZM443.31 98.8672V98.6875C443.31 98.0781 443.398 97.513 443.575 96.9922C443.752 96.4661 444.007 96.0104 444.341 95.625C444.674 95.2344 445.078 94.9323 445.552 94.7188C446.026 94.5 446.557 94.3906 447.146 94.3906C447.739 94.3906 448.273 94.5 448.747 94.7188C449.226 94.9323 449.632 95.2344 449.966 95.625C450.304 96.0104 450.562 96.4661 450.739 96.9922C450.916 97.513 451.005 98.0781 451.005 98.6875V98.8672C451.005 99.4766 450.916 100.042 450.739 100.562C450.562 101.083 450.304 101.539 449.966 101.93C449.632 102.315 449.229 102.617 448.755 102.836C448.286 103.049 447.755 103.156 447.161 103.156C446.567 103.156 446.034 103.049 445.56 102.836C445.086 102.617 444.679 102.315 444.341 101.93C444.007 101.539 443.752 101.083 443.575 100.562C443.398 100.042 443.31 99.4766 443.31 98.8672ZM444.755 98.6875V98.8672C444.755 99.2891 444.804 99.6875 444.903 100.062C445.002 100.432 445.151 100.76 445.349 101.047C445.552 101.333 445.804 101.56 446.106 101.727C446.409 101.888 446.76 101.969 447.161 101.969C447.557 101.969 447.903 101.888 448.2 101.727C448.502 101.56 448.752 101.333 448.95 101.047C449.148 100.76 449.297 100.432 449.396 100.062C449.5 99.6875 449.552 99.2891 449.552 98.8672V98.6875C449.552 98.2708 449.5 97.8776 449.396 97.5078C449.297 97.1328 449.146 96.8021 448.942 96.5156C448.744 96.224 448.494 95.9948 448.192 95.8281C447.896 95.6615 447.547 95.5781 447.146 95.5781C446.75 95.5781 446.401 95.6615 446.099 95.8281C445.802 95.9948 445.552 96.224 445.349 96.5156C445.151 96.8021 445.002 97.1328 444.903 97.5078C444.804 97.8776 444.755 98.2708 444.755 98.6875ZM454.263 96.3516V103H452.817V94.5469H454.185L454.263 96.3516ZM453.919 98.4531L453.317 98.4297C453.323 97.8516 453.409 97.3177 453.575 96.8281C453.742 96.3333 453.976 95.9036 454.278 95.5391C454.58 95.1745 454.94 94.8932 455.356 94.6953C455.778 94.4922 456.244 94.3906 456.755 94.3906C457.172 94.3906 457.547 94.4479 457.88 94.5625C458.213 94.6719 458.497 94.849 458.731 95.0938C458.971 95.3385 459.153 95.6562 459.278 96.0469C459.403 96.4323 459.466 96.9036 459.466 97.4609V103H458.013V97.4453C458.013 97.0026 457.948 96.6484 457.817 96.3828C457.687 96.112 457.497 95.9167 457.247 95.7969C456.997 95.6719 456.69 95.6094 456.325 95.6094C455.966 95.6094 455.638 95.6849 455.341 95.8359C455.049 95.987 454.797 96.1953 454.583 96.4609C454.375 96.7266 454.211 97.0312 454.091 97.375C453.976 97.7135 453.919 98.0729 453.919 98.4531ZM465.2 94.5469V95.6562H460.63V94.5469H465.2ZM462.177 92.4922H463.622V100.906C463.622 101.193 463.666 101.409 463.755 101.555C463.843 101.701 463.958 101.797 464.099 101.844C464.239 101.891 464.39 101.914 464.552 101.914C464.672 101.914 464.797 101.904 464.927 101.883C465.062 101.857 465.164 101.836 465.231 101.82L465.239 103C465.125 103.036 464.974 103.07 464.786 103.102C464.604 103.138 464.382 103.156 464.122 103.156C463.768 103.156 463.442 103.086 463.146 102.945C462.849 102.805 462.612 102.57 462.435 102.242C462.263 101.909 462.177 101.461 462.177 100.898V92.4922ZM468.341 91V103H466.896V91H468.341ZM467.997 98.4531L467.396 98.4297C467.401 97.8516 467.487 97.3177 467.653 96.8281C467.82 96.3333 468.054 95.9036 468.356 95.5391C468.659 95.1745 469.018 94.8932 469.435 94.6953C469.856 94.4922 470.323 94.3906 470.833 94.3906C471.25 94.3906 471.625 94.4479 471.958 94.5625C472.291 94.6719 472.575 94.849 472.81 95.0938C473.049 95.3385 473.231 95.6562 473.356 96.0469C473.481 96.4323 473.544 96.9036 473.544 97.4609V103H472.091V97.4453C472.091 97.0026 472.026 96.6484 471.896 96.3828C471.765 96.112 471.575 95.9167 471.325 95.7969C471.075 95.6719 470.768 95.6094 470.403 95.6094C470.044 95.6094 469.716 95.6849 469.419 95.8359C469.127 95.987 468.875 96.1953 468.661 96.4609C468.453 96.7266 468.289 97.0312 468.169 97.375C468.054 97.7135 467.997 98.0729 467.997 98.4531ZM480.63 100.758C480.63 100.549 480.583 100.357 480.489 100.18C480.401 99.9974 480.216 99.8333 479.935 99.6875C479.659 99.5365 479.242 99.4062 478.685 99.2969C478.216 99.1979 477.791 99.0807 477.411 98.9453C477.036 98.8099 476.716 98.6458 476.45 98.4531C476.19 98.2604 475.989 98.0339 475.849 97.7734C475.708 97.513 475.638 97.2083 475.638 96.8594C475.638 96.526 475.711 96.2109 475.856 95.9141C476.007 95.6172 476.218 95.3542 476.489 95.125C476.765 94.8958 477.096 94.7161 477.481 94.5859C477.867 94.4557 478.297 94.3906 478.771 94.3906C479.448 94.3906 480.026 94.5104 480.505 94.75C480.984 94.9896 481.351 95.3099 481.606 95.7109C481.862 96.1068 481.989 96.5469 481.989 97.0312H480.544C480.544 96.7969 480.474 96.5703 480.333 96.3516C480.198 96.1276 479.997 95.9427 479.731 95.7969C479.471 95.651 479.151 95.5781 478.771 95.5781C478.369 95.5781 478.044 95.6406 477.794 95.7656C477.549 95.8854 477.369 96.0391 477.255 96.2266C477.146 96.4141 477.091 96.612 477.091 96.8203C477.091 96.9766 477.117 97.1172 477.169 97.2422C477.226 97.362 477.325 97.474 477.466 97.5781C477.606 97.6771 477.804 97.7708 478.06 97.8594C478.315 97.9479 478.64 98.0365 479.036 98.125C479.729 98.2812 480.299 98.4688 480.747 98.6875C481.195 98.9062 481.528 99.1745 481.747 99.4922C481.966 99.8099 482.075 100.195 482.075 100.648C482.075 101.018 481.997 101.357 481.841 101.664C481.69 101.971 481.468 102.237 481.177 102.461C480.89 102.68 480.547 102.852 480.146 102.977C479.75 103.096 479.304 103.156 478.81 103.156C478.065 103.156 477.435 103.023 476.919 102.758C476.403 102.492 476.013 102.148 475.747 101.727C475.481 101.305 475.349 100.859 475.349 100.391H476.802C476.823 100.786 476.937 101.102 477.146 101.336C477.354 101.565 477.609 101.729 477.911 101.828C478.213 101.922 478.513 101.969 478.81 101.969C479.205 101.969 479.536 101.917 479.802 101.812C480.073 101.708 480.278 101.565 480.419 101.383C480.56 101.201 480.63 100.992 480.63 100.758Z" fill="#68A028"/>
</svg>
