<svg xmlns="http://www.w3.org/2000/svg" width="573" height="133" viewBox="0 0 573 133" fill="none">
<path d="M4 1H569C570.657 1 572 2.34314 572 4V56H1V4C1 2.34315 2.34315 1 4 1Z" fill="#F5F5F5"/>
<path d="M4 1H569C570.657 1 572 2.34314 572 4V56H1V4C1 2.34315 2.34315 1 4 1Z" stroke="#E0E0E0" stroke-width="2"/>
<path d="M105.718 22.2031V35H103.081V22.2031H105.718ZM110.815 27.6699V29.7266H104.997V27.6699H110.815ZM111.431 22.2031V24.2686H104.997V22.2031H111.431ZM112.204 30.3418V30.1572C112.204 29.46 112.304 28.8184 112.503 28.2324C112.702 27.6406 112.992 27.1279 113.373 26.6943C113.754 26.2607 114.223 25.9238 114.779 25.6836C115.336 25.4375 115.975 25.3145 116.695 25.3145C117.416 25.3145 118.058 25.4375 118.62 25.6836C119.183 25.9238 119.654 26.2607 120.035 26.6943C120.422 27.1279 120.715 27.6406 120.914 28.2324C121.113 28.8184 121.213 29.46 121.213 30.1572V30.3418C121.213 31.0332 121.113 31.6748 120.914 32.2666C120.715 32.8525 120.422 33.3652 120.035 33.8047C119.654 34.2383 119.186 34.5752 118.629 34.8154C118.072 35.0557 117.434 35.1758 116.713 35.1758C115.992 35.1758 115.351 35.0557 114.788 34.8154C114.231 34.5752 113.76 34.2383 113.373 33.8047C112.992 33.3652 112.702 32.8525 112.503 32.2666C112.304 31.6748 112.204 31.0332 112.204 30.3418ZM114.735 30.1572V30.3418C114.735 30.7402 114.771 31.1123 114.841 31.458C114.911 31.8037 115.022 32.1084 115.175 32.3721C115.333 32.6299 115.538 32.832 115.79 32.9785C116.042 33.125 116.35 33.1982 116.713 33.1982C117.064 33.1982 117.366 33.125 117.618 32.9785C117.87 32.832 118.072 32.6299 118.225 32.3721C118.377 32.1084 118.488 31.8037 118.559 31.458C118.635 31.1123 118.673 30.7402 118.673 30.3418V30.1572C118.673 29.7705 118.635 29.4072 118.559 29.0674C118.488 28.7217 118.374 28.417 118.216 28.1533C118.063 27.8838 117.861 27.6729 117.609 27.5205C117.357 27.3682 117.053 27.292 116.695 27.292C116.338 27.292 116.033 27.3682 115.781 27.5205C115.535 27.6729 115.333 27.8838 115.175 28.1533C115.022 28.417 114.911 28.7217 114.841 29.0674C114.771 29.4072 114.735 29.7705 114.735 30.1572ZM125.3 27.5645V35H122.769V25.4902H125.15L125.3 27.5645ZM128.165 25.4287L128.121 27.7754C127.998 27.7578 127.849 27.7432 127.673 27.7314C127.503 27.7139 127.348 27.7051 127.207 27.7051C126.85 27.7051 126.539 27.752 126.275 27.8457C126.018 27.9336 125.801 28.0654 125.625 28.2412C125.455 28.417 125.326 28.6309 125.238 28.8828C125.156 29.1348 125.109 29.4219 125.098 29.7441L124.588 29.5859C124.588 28.9707 124.649 28.4053 124.772 27.8896C124.896 27.3682 125.074 26.9141 125.309 26.5273C125.549 26.1406 125.842 25.8418 126.188 25.6309C126.533 25.4199 126.929 25.3145 127.374 25.3145C127.515 25.3145 127.658 25.3262 127.805 25.3496C127.951 25.3672 128.071 25.3936 128.165 25.4287ZM133.438 30.3418V30.1572C133.438 29.46 133.538 28.8184 133.737 28.2324C133.937 27.6406 134.227 27.1279 134.607 26.6943C134.988 26.2607 135.457 25.9238 136.014 25.6836C136.57 25.4375 137.209 25.3145 137.93 25.3145C138.65 25.3145 139.292 25.4375 139.854 25.6836C140.417 25.9238 140.889 26.2607 141.27 26.6943C141.656 27.1279 141.949 27.6406 142.148 28.2324C142.348 28.8184 142.447 29.46 142.447 30.1572V30.3418C142.447 31.0332 142.348 31.6748 142.148 32.2666C141.949 32.8525 141.656 33.3652 141.27 33.8047C140.889 34.2383 140.42 34.5752 139.863 34.8154C139.307 35.0557 138.668 35.1758 137.947 35.1758C137.227 35.1758 136.585 35.0557 136.022 34.8154C135.466 34.5752 134.994 34.2383 134.607 33.8047C134.227 33.3652 133.937 32.8525 133.737 32.2666C133.538 31.6748 133.438 31.0332 133.438 30.3418ZM135.97 30.1572V30.3418C135.97 30.7402 136.005 31.1123 136.075 31.458C136.146 31.8037 136.257 32.1084 136.409 32.3721C136.567 32.6299 136.772 32.832 137.024 32.9785C137.276 33.125 137.584 33.1982 137.947 33.1982C138.299 33.1982 138.601 33.125 138.853 32.9785C139.104 32.832 139.307 32.6299 139.459 32.3721C139.611 32.1084 139.723 31.8037 139.793 31.458C139.869 31.1123 139.907 30.7402 139.907 30.3418V30.1572C139.907 29.7705 139.869 29.4072 139.793 29.0674C139.723 28.7217 139.608 28.417 139.45 28.1533C139.298 27.8838 139.096 27.6729 138.844 27.5205C138.592 27.3682 138.287 27.292 137.93 27.292C137.572 27.292 137.268 27.3682 137.016 27.5205C136.77 27.6729 136.567 27.8838 136.409 28.1533C136.257 28.417 136.146 28.7217 136.075 29.0674C136.005 29.4072 135.97 29.7705 135.97 30.1572ZM149.628 32.7236V25.4902H152.159V35H149.777L149.628 32.7236ZM149.909 30.7725L150.656 30.7549C150.656 31.3877 150.583 31.9766 150.437 32.5215C150.29 33.0605 150.07 33.5293 149.777 33.9277C149.484 34.3203 149.115 34.6279 148.67 34.8506C148.225 35.0674 147.7 35.1758 147.097 35.1758C146.634 35.1758 146.206 35.1113 145.813 34.9824C145.427 34.8477 145.093 34.6396 144.812 34.3584C144.536 34.0713 144.319 33.7051 144.161 33.2598C144.009 32.8086 143.933 32.2666 143.933 31.6338V25.4902H146.464V31.6514C146.464 31.9326 146.496 32.1699 146.561 32.3633C146.631 32.5566 146.728 32.7148 146.851 32.8379C146.974 32.9609 147.117 33.0488 147.281 33.1016C147.451 33.1543 147.639 33.1807 147.844 33.1807C148.365 33.1807 148.775 33.0752 149.074 32.8643C149.379 32.6533 149.593 32.3662 149.716 32.0029C149.845 31.6338 149.909 31.2236 149.909 30.7725ZM158.751 25.4902V27.2832H153.214V25.4902H158.751ZM154.585 23.1436H157.116V32.1348C157.116 32.4102 157.151 32.6211 157.222 32.7676C157.298 32.9141 157.409 33.0166 157.556 33.0752C157.702 33.1279 157.887 33.1543 158.109 33.1543C158.268 33.1543 158.408 33.1484 158.531 33.1367C158.66 33.1191 158.769 33.1016 158.856 33.084L158.865 34.9473C158.648 35.0176 158.414 35.0732 158.162 35.1143C157.91 35.1553 157.632 35.1758 157.327 35.1758C156.771 35.1758 156.284 35.085 155.868 34.9033C155.458 34.7158 155.142 34.417 154.919 34.0068C154.696 33.5967 154.585 33.0576 154.585 32.3896V23.1436ZM162.724 27.3184V38.6562H160.192V25.4902H162.539L162.724 27.3184ZM168.744 30.1396V30.3242C168.744 31.0156 168.662 31.6572 168.498 32.249C168.34 32.8408 168.105 33.3564 167.795 33.7959C167.484 34.2295 167.098 34.5693 166.635 34.8154C166.178 35.0557 165.65 35.1758 165.053 35.1758C164.473 35.1758 163.969 35.0586 163.541 34.8242C163.113 34.5898 162.753 34.2617 162.46 33.8398C162.173 33.4121 161.941 32.917 161.766 32.3545C161.59 31.792 161.455 31.1885 161.361 30.5439V30.0605C161.455 29.3691 161.59 28.7363 161.766 28.1621C161.941 27.582 162.173 27.0811 162.46 26.6592C162.753 26.2314 163.11 25.9004 163.532 25.666C163.96 25.4316 164.461 25.3145 165.035 25.3145C165.639 25.3145 166.169 25.4287 166.626 25.6572C167.089 25.8857 167.476 26.2139 167.786 26.6416C168.103 27.0693 168.34 27.5791 168.498 28.1709C168.662 28.7627 168.744 29.4189 168.744 30.1396ZM166.204 30.3242V30.1396C166.204 29.7354 166.169 29.3633 166.099 29.0234C166.034 28.6777 165.929 28.376 165.782 28.1182C165.642 27.8604 165.454 27.6611 165.22 27.5205C164.991 27.374 164.713 27.3008 164.385 27.3008C164.039 27.3008 163.743 27.3564 163.497 27.4678C163.257 27.5791 163.061 27.7402 162.908 27.9512C162.756 28.1621 162.642 28.4141 162.565 28.707C162.489 29 162.442 29.3311 162.425 29.7002V30.9219C162.454 31.3555 162.536 31.7451 162.671 32.0908C162.806 32.4307 163.014 32.7002 163.295 32.8994C163.576 33.0986 163.945 33.1982 164.402 33.1982C164.736 33.1982 165.018 33.125 165.246 32.9785C165.475 32.8262 165.659 32.6182 165.8 32.3545C165.946 32.0908 166.049 31.7861 166.107 31.4404C166.172 31.0947 166.204 30.7227 166.204 30.3242ZM175.942 32.7236V25.4902H178.474V35H176.092L175.942 32.7236ZM176.224 30.7725L176.971 30.7549C176.971 31.3877 176.897 31.9766 176.751 32.5215C176.604 33.0605 176.385 33.5293 176.092 33.9277C175.799 34.3203 175.43 34.6279 174.984 34.8506C174.539 35.0674 174.015 35.1758 173.411 35.1758C172.948 35.1758 172.521 35.1113 172.128 34.9824C171.741 34.8477 171.407 34.6396 171.126 34.3584C170.851 34.0713 170.634 33.7051 170.476 33.2598C170.323 32.8086 170.247 32.2666 170.247 31.6338V25.4902H172.778V31.6514C172.778 31.9326 172.811 32.1699 172.875 32.3633C172.945 32.5566 173.042 32.7148 173.165 32.8379C173.288 32.9609 173.432 33.0488 173.596 33.1016C173.766 33.1543 173.953 33.1807 174.158 33.1807C174.68 33.1807 175.09 33.0752 175.389 32.8643C175.693 32.6533 175.907 32.3662 176.03 32.0029C176.159 31.6338 176.224 31.2236 176.224 30.7725ZM185.065 25.4902V27.2832H179.528V25.4902H185.065ZM180.899 23.1436H183.431V32.1348C183.431 32.4102 183.466 32.6211 183.536 32.7676C183.612 32.9141 183.724 33.0166 183.87 33.0752C184.017 33.1279 184.201 33.1543 184.424 33.1543C184.582 33.1543 184.723 33.1484 184.846 33.1367C184.975 33.1191 185.083 33.1016 185.171 33.084L185.18 34.9473C184.963 35.0176 184.729 35.0732 184.477 35.1143C184.225 35.1553 183.946 35.1758 183.642 35.1758C183.085 35.1758 182.599 35.085 182.183 34.9033C181.772 34.7158 181.456 34.417 181.233 34.0068C181.011 33.5967 180.899 33.0576 180.899 32.3896V23.1436ZM191.648 32.3721C191.648 32.1904 191.596 32.0264 191.49 31.8799C191.385 31.7334 191.188 31.5986 190.901 31.4756C190.62 31.3467 190.213 31.2295 189.68 31.124C189.199 31.0186 188.751 30.8867 188.335 30.7285C187.925 30.5645 187.567 30.3682 187.263 30.1396C186.964 29.9111 186.729 29.6416 186.56 29.3311C186.39 29.0146 186.305 28.6543 186.305 28.25C186.305 27.8516 186.39 27.4766 186.56 27.125C186.735 26.7734 186.984 26.4629 187.307 26.1934C187.635 25.918 188.033 25.7041 188.502 25.5518C188.977 25.3936 189.51 25.3145 190.102 25.3145C190.928 25.3145 191.637 25.4463 192.229 25.71C192.826 25.9736 193.283 26.3369 193.6 26.7998C193.922 27.2568 194.083 27.7783 194.083 28.3643H191.552C191.552 28.1182 191.499 27.8984 191.394 27.7051C191.294 27.5059 191.136 27.3506 190.919 27.2393C190.708 27.1221 190.433 27.0635 190.093 27.0635C189.812 27.0635 189.568 27.1133 189.363 27.2129C189.158 27.3066 189 27.4355 188.889 27.5996C188.783 27.7578 188.73 27.9336 188.73 28.127C188.73 28.2734 188.76 28.4053 188.818 28.5225C188.883 28.6338 188.985 28.7363 189.126 28.8301C189.267 28.9238 189.448 29.0117 189.671 29.0938C189.899 29.1699 190.181 29.2402 190.515 29.3047C191.2 29.4453 191.812 29.6299 192.352 29.8584C192.891 30.0811 193.318 30.3857 193.635 30.7725C193.951 31.1533 194.109 31.6543 194.109 32.2754C194.109 32.6973 194.016 33.084 193.828 33.4355C193.641 33.7871 193.371 34.0947 193.02 34.3584C192.668 34.6162 192.246 34.8184 191.754 34.9648C191.268 35.1055 190.72 35.1758 190.11 35.1758C189.226 35.1758 188.476 35.0176 187.86 34.7012C187.251 34.3848 186.788 33.9834 186.472 33.4971C186.161 33.0049 186.006 32.501 186.006 31.9854H188.405C188.417 32.3311 188.505 32.6094 188.669 32.8203C188.839 33.0312 189.053 33.1836 189.311 33.2773C189.574 33.3711 189.858 33.418 190.163 33.418C190.491 33.418 190.764 33.374 190.98 33.2861C191.197 33.1924 191.361 33.0693 191.473 32.917C191.59 32.7588 191.648 32.5771 191.648 32.3721ZM205.377 32.3721C205.377 32.1904 205.324 32.0264 205.219 31.8799C205.113 31.7334 204.917 31.5986 204.63 31.4756C204.349 31.3467 203.941 31.2295 203.408 31.124C202.928 31.0186 202.479 30.8867 202.063 30.7285C201.653 30.5645 201.296 30.3682 200.991 30.1396C200.692 29.9111 200.458 29.6416 200.288 29.3311C200.118 29.0146 200.033 28.6543 200.033 28.25C200.033 27.8516 200.118 27.4766 200.288 27.125C200.464 26.7734 200.713 26.4629 201.035 26.1934C201.363 25.918 201.762 25.7041 202.23 25.5518C202.705 25.3936 203.238 25.3145 203.83 25.3145C204.656 25.3145 205.365 25.4463 205.957 25.71C206.555 25.9736 207.012 26.3369 207.328 26.7998C207.65 27.2568 207.812 27.7783 207.812 28.3643H205.28C205.28 28.1182 205.228 27.8984 205.122 27.7051C205.022 27.5059 204.864 27.3506 204.647 27.2393C204.437 27.1221 204.161 27.0635 203.821 27.0635C203.54 27.0635 203.297 27.1133 203.092 27.2129C202.887 27.3066 202.729 27.4355 202.617 27.5996C202.512 27.7578 202.459 27.9336 202.459 28.127C202.459 28.2734 202.488 28.4053 202.547 28.5225C202.611 28.6338 202.714 28.7363 202.854 28.8301C202.995 28.9238 203.177 29.0117 203.399 29.0938C203.628 29.1699 203.909 29.2402 204.243 29.3047C204.929 29.4453 205.541 29.6299 206.08 29.8584C206.619 30.0811 207.047 30.3857 207.363 30.7725C207.68 31.1533 207.838 31.6543 207.838 32.2754C207.838 32.6973 207.744 33.084 207.557 33.4355C207.369 33.7871 207.1 34.0947 206.748 34.3584C206.396 34.6162 205.975 34.8184 205.482 34.9648C204.996 35.1055 204.448 35.1758 203.839 35.1758C202.954 35.1758 202.204 35.0176 201.589 34.7012C200.979 34.3848 200.517 33.9834 200.2 33.4971C199.89 33.0049 199.734 32.501 199.734 31.9854H202.134C202.146 32.3311 202.233 32.6094 202.397 32.8203C202.567 33.0312 202.781 33.1836 203.039 33.2773C203.303 33.3711 203.587 33.418 203.892 33.418C204.22 33.418 204.492 33.374 204.709 33.2861C204.926 33.1924 205.09 33.0693 205.201 32.917C205.318 32.7588 205.377 32.5771 205.377 32.3721ZM215.106 32.7236V25.4902H217.638V35H215.256L215.106 32.7236ZM215.388 30.7725L216.135 30.7549C216.135 31.3877 216.062 31.9766 215.915 32.5215C215.769 33.0605 215.549 33.5293 215.256 33.9277C214.963 34.3203 214.594 34.6279 214.148 34.8506C213.703 35.0674 213.179 35.1758 212.575 35.1758C212.112 35.1758 211.685 35.1113 211.292 34.9824C210.905 34.8477 210.571 34.6396 210.29 34.3584C210.015 34.0713 209.798 33.7051 209.64 33.2598C209.487 32.8086 209.411 32.2666 209.411 31.6338V25.4902H211.942V31.6514C211.942 31.9326 211.975 32.1699 212.039 32.3633C212.109 32.5566 212.206 32.7148 212.329 32.8379C212.452 32.9609 212.596 33.0488 212.76 33.1016C212.93 33.1543 213.117 33.1807 213.322 33.1807C213.844 33.1807 214.254 33.0752 214.553 32.8643C214.857 32.6533 215.071 32.3662 215.194 32.0029C215.323 31.6338 215.388 31.2236 215.388 30.7725ZM219.571 21.5H222.103V32.8203L221.848 35H219.571V21.5ZM228.123 30.1484V30.333C228.123 31.042 228.047 31.6924 227.895 32.2842C227.748 32.876 227.52 33.3887 227.209 33.8223C226.898 34.25 226.512 34.584 226.049 34.8242C225.592 35.0586 225.053 35.1758 224.432 35.1758C223.852 35.1758 223.348 35.0586 222.92 34.8242C222.498 34.5898 222.144 34.2588 221.856 33.8311C221.569 33.4033 221.338 32.9023 221.162 32.3281C220.986 31.7539 220.854 31.127 220.767 30.4473V30.043C220.854 29.3633 220.986 28.7363 221.162 28.1621C221.338 27.5879 221.569 27.0869 221.856 26.6592C222.144 26.2314 222.498 25.9004 222.92 25.666C223.342 25.4316 223.84 25.3145 224.414 25.3145C225.041 25.3145 225.586 25.4346 226.049 25.6748C226.518 25.9092 226.904 26.2432 227.209 26.6768C227.52 27.1045 227.748 27.6143 227.895 28.2061C228.047 28.792 228.123 29.4395 228.123 30.1484ZM225.592 30.333V30.1484C225.592 29.7617 225.562 29.3984 225.504 29.0586C225.451 28.7129 225.357 28.4111 225.223 28.1533C225.088 27.8896 224.903 27.6816 224.669 27.5293C224.44 27.377 224.145 27.3008 223.781 27.3008C223.436 27.3008 223.143 27.3594 222.902 27.4766C222.662 27.5938 222.463 27.7578 222.305 27.9688C222.152 28.1797 222.038 28.4316 221.962 28.7246C221.886 29.0117 221.839 29.3281 221.821 29.6738V30.8252C221.839 31.2881 221.915 31.6982 222.05 32.0557C222.19 32.4072 222.401 32.6855 222.683 32.8906C222.97 33.0898 223.342 33.1895 223.799 33.1895C224.156 33.1895 224.452 33.1191 224.687 32.9785C224.921 32.8379 225.103 32.6387 225.231 32.3809C225.366 32.123 225.46 31.8213 225.513 31.4756C225.565 31.124 225.592 30.7432 225.592 30.333ZM232.228 27.459V35H229.688V25.4902H232.069L232.228 27.459ZM231.876 29.9111H231.173C231.173 29.249 231.252 28.6396 231.41 28.083C231.574 27.5205 231.812 27.0342 232.122 26.624C232.438 26.208 232.828 25.8857 233.291 25.6572C233.754 25.4287 234.29 25.3145 234.899 25.3145C235.321 25.3145 235.708 25.3789 236.06 25.5078C236.411 25.6309 236.713 25.8271 236.965 26.0967C237.223 26.3604 237.422 26.7061 237.562 27.1338C237.703 27.5557 237.773 28.0625 237.773 28.6543V35H235.242V28.9355C235.242 28.502 235.184 28.168 235.066 27.9336C234.949 27.6992 234.782 27.5352 234.565 27.4414C234.354 27.3477 234.1 27.3008 233.801 27.3008C233.473 27.3008 233.186 27.3682 232.939 27.5029C232.699 27.6377 232.5 27.8252 232.342 28.0654C232.184 28.2998 232.066 28.5752 231.99 28.8916C231.914 29.208 231.876 29.5479 231.876 29.9111ZM237.536 29.6211L236.631 29.7354C236.631 29.1143 236.707 28.5371 236.859 28.0039C237.018 27.4707 237.249 27.002 237.554 26.5977C237.864 26.1934 238.248 25.8799 238.705 25.6572C239.162 25.4287 239.689 25.3145 240.287 25.3145C240.744 25.3145 241.16 25.3818 241.535 25.5166C241.91 25.6455 242.229 25.8535 242.493 26.1406C242.763 26.4219 242.968 26.791 243.108 27.248C243.255 27.7051 243.328 28.2646 243.328 28.9268V35H240.788V28.9268C240.788 28.4873 240.729 28.1533 240.612 27.9248C240.501 27.6904 240.337 27.5293 240.12 27.4414C239.909 27.3477 239.657 27.3008 239.364 27.3008C239.06 27.3008 238.793 27.3623 238.564 27.4854C238.336 27.6025 238.146 27.7666 237.993 27.9775C237.841 28.1885 237.727 28.4346 237.65 28.7158C237.574 28.9912 237.536 29.293 237.536 29.6211ZM247.96 25.4902V35H245.42V25.4902H247.96ZM245.262 23.0117C245.262 22.6426 245.391 22.3379 245.648 22.0977C245.906 21.8574 246.252 21.7373 246.686 21.7373C247.113 21.7373 247.456 21.8574 247.714 22.0977C247.978 22.3379 248.109 22.6426 248.109 23.0117C248.109 23.3809 247.978 23.6855 247.714 23.9258C247.456 24.166 247.113 24.2861 246.686 24.2861C246.252 24.2861 245.906 24.166 245.648 23.9258C245.391 23.6855 245.262 23.3809 245.262 23.0117ZM254.71 25.4902V27.2832H249.173V25.4902H254.71ZM250.544 23.1436H253.075V32.1348C253.075 32.4102 253.11 32.6211 253.181 32.7676C253.257 32.9141 253.368 33.0166 253.515 33.0752C253.661 33.1279 253.846 33.1543 254.068 33.1543C254.227 33.1543 254.367 33.1484 254.49 33.1367C254.619 33.1191 254.728 33.1016 254.815 33.084L254.824 34.9473C254.607 35.0176 254.373 35.0732 254.121 35.1143C253.869 35.1553 253.591 35.1758 253.286 35.1758C252.729 35.1758 252.243 35.085 251.827 34.9033C251.417 34.7158 251.101 34.417 250.878 34.0068C250.655 33.5967 250.544 33.0576 250.544 32.3896V23.1436ZM260.81 25.4902V27.2832H255.272V25.4902H260.81ZM256.644 23.1436H259.175V32.1348C259.175 32.4102 259.21 32.6211 259.28 32.7676C259.356 32.9141 259.468 33.0166 259.614 33.0752C259.761 33.1279 259.945 33.1543 260.168 33.1543C260.326 33.1543 260.467 33.1484 260.59 33.1367C260.719 33.1191 260.827 33.1016 260.915 33.084L260.924 34.9473C260.707 35.0176 260.473 35.0732 260.221 35.1143C259.969 35.1553 259.69 35.1758 259.386 35.1758C258.829 35.1758 258.343 35.085 257.927 34.9033C257.517 34.7158 257.2 34.417 256.978 34.0068C256.755 33.5967 256.644 33.0576 256.644 32.3896V23.1436ZM266.628 35.1758C265.89 35.1758 265.228 35.0586 264.642 34.8242C264.056 34.584 263.558 34.2529 263.147 33.8311C262.743 33.4092 262.433 32.9199 262.216 32.3633C261.999 31.8008 261.891 31.2031 261.891 30.5703V30.2188C261.891 29.498 261.993 28.8389 262.198 28.2412C262.403 27.6436 262.696 27.125 263.077 26.6855C263.464 26.2461 263.933 25.9092 264.483 25.6748C265.034 25.4346 265.655 25.3145 266.347 25.3145C267.021 25.3145 267.618 25.4258 268.14 25.6484C268.661 25.8711 269.098 26.1875 269.449 26.5977C269.807 27.0078 270.076 27.5 270.258 28.0742C270.439 28.6426 270.53 29.2754 270.53 29.9727V31.0273H262.972V29.3398H268.043V29.1465C268.043 28.7949 267.979 28.4814 267.85 28.2061C267.727 27.9248 267.539 27.7021 267.287 27.5381C267.035 27.374 266.713 27.292 266.32 27.292C265.986 27.292 265.699 27.3652 265.459 27.5117C265.219 27.6582 265.022 27.8633 264.87 28.127C264.724 28.3906 264.612 28.7012 264.536 29.0586C264.466 29.4102 264.431 29.7969 264.431 30.2188V30.5703C264.431 30.9512 264.483 31.3027 264.589 31.625C264.7 31.9473 264.855 32.2256 265.055 32.46C265.26 32.6943 265.506 32.876 265.793 33.0049C266.086 33.1338 266.417 33.1982 266.786 33.1982C267.243 33.1982 267.668 33.1104 268.061 32.9346C268.459 32.7529 268.802 32.4805 269.089 32.1172L270.319 33.4531C270.12 33.7402 269.848 34.0156 269.502 34.2793C269.162 34.543 268.752 34.7598 268.271 34.9297C267.791 35.0938 267.243 35.1758 266.628 35.1758ZM277.588 32.9258V21.5H280.137V35H277.843L277.588 32.9258ZM271.576 30.3594V30.1748C271.576 29.4482 271.658 28.7891 271.822 28.1973C271.986 27.5996 272.227 27.0869 272.543 26.6592C272.859 26.2314 273.249 25.9004 273.712 25.666C274.175 25.4316 274.702 25.3145 275.294 25.3145C275.851 25.3145 276.337 25.4316 276.753 25.666C277.175 25.9004 277.532 26.2344 277.825 26.668C278.124 27.0957 278.364 27.6025 278.546 28.1885C278.728 28.7686 278.859 29.4043 278.941 30.0957V30.5C278.859 31.1621 278.728 31.7773 278.546 32.3457C278.364 32.9141 278.124 33.4121 277.825 33.8398C277.532 34.2617 277.175 34.5898 276.753 34.8242C276.331 35.0586 275.839 35.1758 275.276 35.1758C274.685 35.1758 274.157 35.0557 273.694 34.8154C273.237 34.5752 272.851 34.2383 272.534 33.8047C272.224 33.3711 271.986 32.8613 271.822 32.2754C271.658 31.6895 271.576 31.0508 271.576 30.3594ZM274.107 30.1748V30.3594C274.107 30.752 274.137 31.1182 274.195 31.458C274.26 31.7979 274.362 32.0996 274.503 32.3633C274.649 32.6211 274.837 32.8232 275.065 32.9697C275.3 33.1104 275.584 33.1807 275.918 33.1807C276.352 33.1807 276.709 33.084 276.99 32.8906C277.271 32.6914 277.485 32.4189 277.632 32.0732C277.784 31.7275 277.872 31.3291 277.896 30.8779V29.7266C277.878 29.3574 277.825 29.0264 277.737 28.7334C277.655 28.4346 277.532 28.1797 277.368 27.9688C277.21 27.7578 277.011 27.5938 276.771 27.4766C276.536 27.3594 276.258 27.3008 275.936 27.3008C275.607 27.3008 275.326 27.377 275.092 27.5293C274.857 27.6758 274.667 27.8779 274.521 28.1357C274.38 28.3936 274.274 28.6982 274.204 29.0498C274.14 29.3955 274.107 29.7705 274.107 30.1748ZM291.255 25.4902V27.2832H285.718V25.4902H291.255ZM287.089 23.1436H289.62V32.1348C289.62 32.4102 289.655 32.6211 289.726 32.7676C289.802 32.9141 289.913 33.0166 290.06 33.0752C290.206 33.1279 290.391 33.1543 290.613 33.1543C290.771 33.1543 290.912 33.1484 291.035 33.1367C291.164 33.1191 291.272 33.1016 291.36 33.084L291.369 34.9473C291.152 35.0176 290.918 35.0732 290.666 35.1143C290.414 35.1553 290.136 35.1758 289.831 35.1758C289.274 35.1758 288.788 35.085 288.372 34.9033C287.962 34.7158 287.646 34.417 287.423 34.0068C287.2 33.5967 287.089 33.0576 287.089 32.3896V23.1436ZM292.063 30.3418V30.1572C292.063 29.46 292.163 28.8184 292.362 28.2324C292.562 27.6406 292.852 27.1279 293.232 26.6943C293.613 26.2607 294.082 25.9238 294.639 25.6836C295.195 25.4375 295.834 25.3145 296.555 25.3145C297.275 25.3145 297.917 25.4375 298.479 25.6836C299.042 25.9238 299.514 26.2607 299.895 26.6943C300.281 27.1279 300.574 27.6406 300.773 28.2324C300.973 28.8184 301.072 29.46 301.072 30.1572V30.3418C301.072 31.0332 300.973 31.6748 300.773 32.2666C300.574 32.8525 300.281 33.3652 299.895 33.8047C299.514 34.2383 299.045 34.5752 298.488 34.8154C297.932 35.0557 297.293 35.1758 296.572 35.1758C295.852 35.1758 295.21 35.0557 294.647 34.8154C294.091 34.5752 293.619 34.2383 293.232 33.8047C292.852 33.3652 292.562 32.8525 292.362 32.2666C292.163 31.6748 292.063 31.0332 292.063 30.3418ZM294.595 30.1572V30.3418C294.595 30.7402 294.63 31.1123 294.7 31.458C294.771 31.8037 294.882 32.1084 295.034 32.3721C295.192 32.6299 295.397 32.832 295.649 32.9785C295.901 33.125 296.209 33.1982 296.572 33.1982C296.924 33.1982 297.226 33.125 297.478 32.9785C297.729 32.832 297.932 32.6299 298.084 32.3721C298.236 32.1084 298.348 31.8037 298.418 31.458C298.494 31.1123 298.532 30.7402 298.532 30.3418V30.1572C298.532 29.7705 298.494 29.4072 298.418 29.0674C298.348 28.7217 298.233 28.417 298.075 28.1533C297.923 27.8838 297.721 27.6729 297.469 27.5205C297.217 27.3682 296.912 27.292 296.555 27.292C296.197 27.292 295.893 27.3682 295.641 27.5205C295.395 27.6729 295.192 27.8838 295.034 28.1533C294.882 28.417 294.771 28.7217 294.7 29.0674C294.63 29.4072 294.595 29.7705 294.595 30.1572ZM309.642 27.459V35H307.102V25.4902H309.483L309.642 27.459ZM309.29 29.9111H308.587C308.587 29.249 308.666 28.6396 308.824 28.083C308.988 27.5205 309.226 27.0342 309.536 26.624C309.853 26.208 310.242 25.8857 310.705 25.6572C311.168 25.4287 311.704 25.3145 312.313 25.3145C312.735 25.3145 313.122 25.3789 313.474 25.5078C313.825 25.6309 314.127 25.8271 314.379 26.0967C314.637 26.3604 314.836 26.7061 314.977 27.1338C315.117 27.5557 315.188 28.0625 315.188 28.6543V35H312.656V28.9355C312.656 28.502 312.598 28.168 312.48 27.9336C312.363 27.6992 312.196 27.5352 311.979 27.4414C311.769 27.3477 311.514 27.3008 311.215 27.3008C310.887 27.3008 310.6 27.3682 310.354 27.5029C310.113 27.6377 309.914 27.8252 309.756 28.0654C309.598 28.2998 309.48 28.5752 309.404 28.8916C309.328 29.208 309.29 29.5479 309.29 29.9111ZM314.95 29.6211L314.045 29.7354C314.045 29.1143 314.121 28.5371 314.273 28.0039C314.432 27.4707 314.663 27.002 314.968 26.5977C315.278 26.1934 315.662 25.8799 316.119 25.6572C316.576 25.4287 317.104 25.3145 317.701 25.3145C318.158 25.3145 318.574 25.3818 318.949 25.5166C319.324 25.6455 319.644 25.8535 319.907 26.1406C320.177 26.4219 320.382 26.791 320.522 27.248C320.669 27.7051 320.742 28.2646 320.742 28.9268V35H318.202V28.9268C318.202 28.4873 318.144 28.1533 318.026 27.9248C317.915 27.6904 317.751 27.5293 317.534 27.4414C317.323 27.3477 317.071 27.3008 316.778 27.3008C316.474 27.3008 316.207 27.3623 315.979 27.4854C315.75 27.6025 315.56 27.7666 315.407 27.9775C315.255 28.1885 315.141 28.4346 315.064 28.7158C314.988 28.9912 314.95 29.293 314.95 29.6211ZM327.835 32.8555V28.6191C327.835 28.3145 327.785 28.0537 327.686 27.8369C327.586 27.6143 327.431 27.4414 327.22 27.3184C327.015 27.1953 326.748 27.1338 326.42 27.1338C326.139 27.1338 325.896 27.1836 325.69 27.2832C325.485 27.377 325.327 27.5146 325.216 27.6963C325.104 27.8721 325.049 28.0801 325.049 28.3203H322.518C322.518 27.916 322.611 27.5322 322.799 27.1689C322.986 26.8057 323.259 26.4863 323.616 26.2109C323.974 25.9297 324.398 25.71 324.891 25.5518C325.389 25.3936 325.945 25.3145 326.561 25.3145C327.299 25.3145 327.955 25.4375 328.529 25.6836C329.104 25.9297 329.555 26.2988 329.883 26.791C330.217 27.2832 330.384 27.8984 330.384 28.6367V32.7061C330.384 33.2275 330.416 33.6553 330.48 33.9893C330.545 34.3174 330.639 34.6045 330.762 34.8506V35H328.204C328.081 34.7422 327.987 34.4199 327.923 34.0332C327.864 33.6406 327.835 33.248 327.835 32.8555ZM328.169 29.208L328.187 30.6406H326.771C326.438 30.6406 326.147 30.6787 325.901 30.7549C325.655 30.8311 325.453 30.9395 325.295 31.0801C325.137 31.2148 325.02 31.373 324.943 31.5547C324.873 31.7363 324.838 31.9355 324.838 32.1523C324.838 32.3691 324.888 32.5654 324.987 32.7412C325.087 32.9111 325.23 33.0459 325.418 33.1455C325.605 33.2393 325.825 33.2861 326.077 33.2861C326.458 33.2861 326.789 33.21 327.07 33.0576C327.352 32.9053 327.568 32.7178 327.721 32.4951C327.879 32.2725 327.961 32.0615 327.967 31.8623L328.635 32.9346C328.541 33.1748 328.412 33.4238 328.248 33.6816C328.09 33.9395 327.888 34.1826 327.642 34.4111C327.396 34.6338 327.1 34.8184 326.754 34.9648C326.408 35.1055 325.998 35.1758 325.523 35.1758C324.92 35.1758 324.372 35.0557 323.88 34.8154C323.394 34.5693 323.007 34.2324 322.72 33.8047C322.438 33.3711 322.298 32.8789 322.298 32.3281C322.298 31.8301 322.392 31.3877 322.579 31.001C322.767 30.6143 323.042 30.2891 323.405 30.0254C323.774 29.7559 324.234 29.5537 324.785 29.4189C325.336 29.2783 325.975 29.208 326.701 29.208H328.169ZM335.007 25.4902V35H332.467V25.4902H335.007ZM332.309 23.0117C332.309 22.6426 332.438 22.3379 332.695 22.0977C332.953 21.8574 333.299 21.7373 333.732 21.7373C334.16 21.7373 334.503 21.8574 334.761 22.0977C335.024 22.3379 335.156 22.6426 335.156 23.0117C335.156 23.3809 335.024 23.6855 334.761 23.9258C334.503 24.166 334.16 24.2861 333.732 24.2861C333.299 24.2861 332.953 24.166 332.695 23.9258C332.438 23.6855 332.309 23.3809 332.309 23.0117ZM339.577 27.5205V35H337.046V25.4902H339.419L339.577 27.5205ZM339.208 29.9111H338.522C338.522 29.208 338.613 28.5752 338.795 28.0127C338.977 27.4443 339.231 26.9609 339.56 26.5625C339.888 26.1582 340.277 25.8506 340.729 25.6396C341.186 25.4229 341.695 25.3145 342.258 25.3145C342.703 25.3145 343.11 25.3789 343.479 25.5078C343.849 25.6367 344.165 25.8418 344.429 26.123C344.698 26.4043 344.903 26.7764 345.044 27.2393C345.19 27.7021 345.264 28.2676 345.264 28.9355V35H342.715V28.9268C342.715 28.5049 342.656 28.1768 342.539 27.9424C342.422 27.708 342.249 27.5439 342.021 27.4502C341.798 27.3506 341.522 27.3008 341.194 27.3008C340.854 27.3008 340.559 27.3682 340.307 27.5029C340.061 27.6377 339.855 27.8252 339.691 28.0654C339.533 28.2998 339.413 28.5752 339.331 28.8916C339.249 29.208 339.208 29.5479 339.208 29.9111ZM354.202 27.3184V38.6562H351.671V25.4902H354.018L354.202 27.3184ZM360.223 30.1396V30.3242C360.223 31.0156 360.141 31.6572 359.977 32.249C359.818 32.8408 359.584 33.3564 359.273 33.7959C358.963 34.2295 358.576 34.5693 358.113 34.8154C357.656 35.0557 357.129 35.1758 356.531 35.1758C355.951 35.1758 355.447 35.0586 355.02 34.8242C354.592 34.5898 354.231 34.2617 353.938 33.8398C353.651 33.4121 353.42 32.917 353.244 32.3545C353.068 31.792 352.934 31.1885 352.84 30.5439V30.0605C352.934 29.3691 353.068 28.7363 353.244 28.1621C353.42 27.582 353.651 27.0811 353.938 26.6592C354.231 26.2314 354.589 25.9004 355.011 25.666C355.438 25.4316 355.939 25.3145 356.514 25.3145C357.117 25.3145 357.647 25.4287 358.104 25.6572C358.567 25.8857 358.954 26.2139 359.265 26.6416C359.581 27.0693 359.818 27.5791 359.977 28.1709C360.141 28.7627 360.223 29.4189 360.223 30.1396ZM357.683 30.3242V30.1396C357.683 29.7354 357.647 29.3633 357.577 29.0234C357.513 28.6777 357.407 28.376 357.261 28.1182C357.12 27.8604 356.933 27.6611 356.698 27.5205C356.47 27.374 356.191 27.3008 355.863 27.3008C355.518 27.3008 355.222 27.3564 354.976 27.4678C354.735 27.5791 354.539 27.7402 354.387 27.9512C354.234 28.1621 354.12 28.4141 354.044 28.707C353.968 29 353.921 29.3311 353.903 29.7002V30.9219C353.933 31.3555 354.015 31.7451 354.149 32.0908C354.284 32.4307 354.492 32.7002 354.773 32.8994C355.055 33.0986 355.424 33.1982 355.881 33.1982C356.215 33.1982 356.496 33.125 356.725 32.9785C356.953 32.8262 357.138 32.6182 357.278 32.3545C357.425 32.0908 357.527 31.7861 357.586 31.4404C357.65 31.0947 357.683 30.7227 357.683 30.3242ZM366.929 32.8555V28.6191C366.929 28.3145 366.879 28.0537 366.779 27.8369C366.68 27.6143 366.524 27.4414 366.313 27.3184C366.108 27.1953 365.842 27.1338 365.514 27.1338C365.232 27.1338 364.989 27.1836 364.784 27.2832C364.579 27.377 364.421 27.5146 364.31 27.6963C364.198 27.8721 364.143 28.0801 364.143 28.3203H361.611C361.611 27.916 361.705 27.5322 361.893 27.1689C362.08 26.8057 362.353 26.4863 362.71 26.2109C363.067 25.9297 363.492 25.71 363.984 25.5518C364.482 25.3936 365.039 25.3145 365.654 25.3145C366.393 25.3145 367.049 25.4375 367.623 25.6836C368.197 25.9297 368.648 26.2988 368.977 26.791C369.311 27.2832 369.478 27.8984 369.478 28.6367V32.7061C369.478 33.2275 369.51 33.6553 369.574 33.9893C369.639 34.3174 369.732 34.6045 369.855 34.8506V35H367.298C367.175 34.7422 367.081 34.4199 367.017 34.0332C366.958 33.6406 366.929 33.248 366.929 32.8555ZM367.263 29.208L367.28 30.6406H365.865C365.531 30.6406 365.241 30.6787 364.995 30.7549C364.749 30.8311 364.547 30.9395 364.389 31.0801C364.23 31.2148 364.113 31.373 364.037 31.5547C363.967 31.7363 363.932 31.9355 363.932 32.1523C363.932 32.3691 363.981 32.5654 364.081 32.7412C364.181 32.9111 364.324 33.0459 364.512 33.1455C364.699 33.2393 364.919 33.2861 365.171 33.2861C365.552 33.2861 365.883 33.21 366.164 33.0576C366.445 32.9053 366.662 32.7178 366.814 32.4951C366.973 32.2725 367.055 32.0615 367.061 31.8623L367.729 32.9346C367.635 33.1748 367.506 33.4238 367.342 33.6816C367.184 33.9395 366.981 34.1826 366.735 34.4111C366.489 34.6338 366.193 34.8184 365.848 34.9648C365.502 35.1055 365.092 35.1758 364.617 35.1758C364.014 35.1758 363.466 35.0557 362.974 34.8154C362.487 34.5693 362.101 34.2324 361.813 33.8047C361.532 33.3711 361.392 32.8789 361.392 32.3281C361.392 31.8301 361.485 31.3877 361.673 31.001C361.86 30.6143 362.136 30.2891 362.499 30.0254C362.868 29.7559 363.328 29.5537 363.879 29.4189C364.43 29.2783 365.068 29.208 365.795 29.208H367.263ZM373.907 27.5205V35H371.376V25.4902H373.749L373.907 27.5205ZM373.538 29.9111H372.853C372.853 29.208 372.943 28.5752 373.125 28.0127C373.307 27.4443 373.562 26.9609 373.89 26.5625C374.218 26.1582 374.607 25.8506 375.059 25.6396C375.516 25.4229 376.025 25.3145 376.588 25.3145C377.033 25.3145 377.44 25.3789 377.81 25.5078C378.179 25.6367 378.495 25.8418 378.759 26.123C379.028 26.4043 379.233 26.7764 379.374 27.2393C379.521 27.7021 379.594 28.2676 379.594 28.9355V35H377.045V28.9268C377.045 28.5049 376.986 28.1768 376.869 27.9424C376.752 27.708 376.579 27.5439 376.351 27.4502C376.128 27.3506 375.853 27.3008 375.524 27.3008C375.185 27.3008 374.889 27.3682 374.637 27.5029C374.391 27.6377 374.186 27.8252 374.021 28.0654C373.863 28.2998 373.743 28.5752 373.661 28.8916C373.579 29.208 373.538 29.5479 373.538 29.9111ZM385.896 35.1758C385.157 35.1758 384.495 35.0586 383.909 34.8242C383.323 34.584 382.825 34.2529 382.415 33.8311C382.011 33.4092 381.7 32.9199 381.483 32.3633C381.267 31.8008 381.158 31.2031 381.158 30.5703V30.2188C381.158 29.498 381.261 28.8389 381.466 28.2412C381.671 27.6436 381.964 27.125 382.345 26.6855C382.731 26.2461 383.2 25.9092 383.751 25.6748C384.302 25.4346 384.923 25.3145 385.614 25.3145C386.288 25.3145 386.886 25.4258 387.407 25.6484C387.929 25.8711 388.365 26.1875 388.717 26.5977C389.074 27.0078 389.344 27.5 389.525 28.0742C389.707 28.6426 389.798 29.2754 389.798 29.9727V31.0273H382.239V29.3398H387.311V29.1465C387.311 28.7949 387.246 28.4814 387.117 28.2061C386.994 27.9248 386.807 27.7021 386.555 27.5381C386.303 27.374 385.98 27.292 385.588 27.292C385.254 27.292 384.967 27.3652 384.727 27.5117C384.486 27.6582 384.29 27.8633 384.138 28.127C383.991 28.3906 383.88 28.7012 383.804 29.0586C383.733 29.4102 383.698 29.7969 383.698 30.2188V30.5703C383.698 30.9512 383.751 31.3027 383.856 31.625C383.968 31.9473 384.123 32.2256 384.322 32.46C384.527 32.6943 384.773 32.876 385.061 33.0049C385.354 33.1338 385.685 33.1982 386.054 33.1982C386.511 33.1982 386.936 33.1104 387.328 32.9346C387.727 32.7529 388.069 32.4805 388.356 32.1172L389.587 33.4531C389.388 33.7402 389.115 34.0156 388.77 34.2793C388.43 34.543 388.02 34.7598 387.539 34.9297C387.059 35.0938 386.511 35.1758 385.896 35.1758ZM393.911 21.5V35H391.371V21.5H393.911ZM401.145 32.3721C401.145 32.1904 401.092 32.0264 400.986 31.8799C400.881 31.7334 400.685 31.5986 400.397 31.4756C400.116 31.3467 399.709 31.2295 399.176 31.124C398.695 31.0186 398.247 30.8867 397.831 30.7285C397.421 30.5645 397.063 30.3682 396.759 30.1396C396.46 29.9111 396.226 29.6416 396.056 29.3311C395.886 29.0146 395.801 28.6543 395.801 28.25C395.801 27.8516 395.886 27.4766 396.056 27.125C396.231 26.7734 396.48 26.4629 396.803 26.1934C397.131 25.918 397.529 25.7041 397.998 25.5518C398.473 25.3936 399.006 25.3145 399.598 25.3145C400.424 25.3145 401.133 25.4463 401.725 25.71C402.322 25.9736 402.779 26.3369 403.096 26.7998C403.418 27.2568 403.579 27.7783 403.579 28.3643H401.048C401.048 28.1182 400.995 27.8984 400.89 27.7051C400.79 27.5059 400.632 27.3506 400.415 27.2393C400.204 27.1221 399.929 27.0635 399.589 27.0635C399.308 27.0635 399.064 27.1133 398.859 27.2129C398.654 27.3066 398.496 27.4355 398.385 27.5996C398.279 27.7578 398.227 27.9336 398.227 28.127C398.227 28.2734 398.256 28.4053 398.314 28.5225C398.379 28.6338 398.481 28.7363 398.622 28.8301C398.763 28.9238 398.944 29.0117 399.167 29.0938C399.396 29.1699 399.677 29.2402 400.011 29.3047C400.696 29.4453 401.309 29.6299 401.848 29.8584C402.387 30.0811 402.814 30.3857 403.131 30.7725C403.447 31.1533 403.605 31.6543 403.605 32.2754C403.605 32.6973 403.512 33.084 403.324 33.4355C403.137 33.7871 402.867 34.0947 402.516 34.3584C402.164 34.6162 401.742 34.8184 401.25 34.9648C400.764 35.1055 400.216 35.1758 399.606 35.1758C398.722 35.1758 397.972 35.0176 397.356 34.7012C396.747 34.3848 396.284 33.9834 395.968 33.4971C395.657 33.0049 395.502 32.501 395.502 31.9854H397.901C397.913 32.3311 398.001 32.6094 398.165 32.8203C398.335 33.0312 398.549 33.1836 398.807 33.2773C399.07 33.3711 399.354 33.418 399.659 33.418C399.987 33.418 400.26 33.374 400.477 33.2861C400.693 33.1924 400.857 33.0693 400.969 32.917C401.086 32.7588 401.145 32.5771 401.145 32.3721ZM417.308 30.7549H419.936C419.883 31.6162 419.646 32.3809 419.224 33.0488C418.808 33.7168 418.225 34.2383 417.475 34.6133C416.73 34.9883 415.834 35.1758 414.785 35.1758C413.965 35.1758 413.229 35.0352 412.579 34.7539C411.929 34.4668 411.372 34.0566 410.909 33.5234C410.452 32.9902 410.104 32.3457 409.863 31.5898C409.623 30.834 409.503 29.9873 409.503 29.0498V28.1621C409.503 27.2246 409.626 26.3779 409.872 25.6221C410.124 24.8604 410.481 24.2129 410.944 23.6797C411.413 23.1465 411.973 22.7363 412.623 22.4492C413.273 22.1621 414 22.0186 414.803 22.0186C415.869 22.0186 416.769 22.2119 417.501 22.5986C418.239 22.9854 418.811 23.5186 419.215 24.1982C419.625 24.8779 419.871 25.6514 419.953 26.5186H417.316C417.287 26.0029 417.185 25.5664 417.009 25.209C416.833 24.8457 416.566 24.5732 416.209 24.3916C415.857 24.2041 415.389 24.1104 414.803 24.1104C414.363 24.1104 413.979 24.1924 413.651 24.3564C413.323 24.5205 413.048 24.7695 412.825 25.1035C412.603 25.4375 412.436 25.8594 412.324 26.3691C412.219 26.873 412.166 27.4648 412.166 28.1445V29.0498C412.166 29.7119 412.216 30.2949 412.315 30.7988C412.415 31.2969 412.567 31.7188 412.772 32.0645C412.983 32.4043 413.253 32.6621 413.581 32.8379C413.915 33.0078 414.316 33.0928 414.785 33.0928C415.336 33.0928 415.79 33.0049 416.147 32.8291C416.505 32.6533 416.777 32.3926 416.965 32.0469C417.158 31.7012 417.272 31.2705 417.308 30.7549ZM431.124 32.8555V28.6191C431.124 28.3145 431.074 28.0537 430.975 27.8369C430.875 27.6143 430.72 27.4414 430.509 27.3184C430.304 27.1953 430.037 27.1338 429.709 27.1338C429.428 27.1338 429.185 27.1836 428.979 27.2832C428.774 27.377 428.616 27.5146 428.505 27.6963C428.394 27.8721 428.338 28.0801 428.338 28.3203H425.807C425.807 27.916 425.9 27.5322 426.088 27.1689C426.275 26.8057 426.548 26.4863 426.905 26.2109C427.263 25.9297 427.688 25.71 428.18 25.5518C428.678 25.3936 429.234 25.3145 429.85 25.3145C430.588 25.3145 431.244 25.4375 431.818 25.6836C432.393 25.9297 432.844 26.2988 433.172 26.791C433.506 27.2832 433.673 27.8984 433.673 28.6367V32.7061C433.673 33.2275 433.705 33.6553 433.77 33.9893C433.834 34.3174 433.928 34.6045 434.051 34.8506V35H431.493C431.37 34.7422 431.276 34.4199 431.212 34.0332C431.153 33.6406 431.124 33.248 431.124 32.8555ZM431.458 29.208L431.476 30.6406H430.061C429.727 30.6406 429.437 30.6787 429.19 30.7549C428.944 30.8311 428.742 30.9395 428.584 31.0801C428.426 31.2148 428.309 31.373 428.232 31.5547C428.162 31.7363 428.127 31.9355 428.127 32.1523C428.127 32.3691 428.177 32.5654 428.276 32.7412C428.376 32.9111 428.52 33.0459 428.707 33.1455C428.895 33.2393 429.114 33.2861 429.366 33.2861C429.747 33.2861 430.078 33.21 430.359 33.0576C430.641 32.9053 430.857 32.7178 431.01 32.4951C431.168 32.2725 431.25 32.0615 431.256 31.8623L431.924 32.9346C431.83 33.1748 431.701 33.4238 431.537 33.6816C431.379 33.9395 431.177 34.1826 430.931 34.4111C430.685 34.6338 430.389 34.8184 430.043 34.9648C429.697 35.1055 429.287 35.1758 428.812 35.1758C428.209 35.1758 427.661 35.0557 427.169 34.8154C426.683 34.5693 426.296 34.2324 426.009 33.8047C425.728 33.3711 425.587 32.8789 425.587 32.3281C425.587 31.8301 425.681 31.3877 425.868 31.001C426.056 30.6143 426.331 30.2891 426.694 30.0254C427.063 29.7559 427.523 29.5537 428.074 29.4189C428.625 29.2783 429.264 29.208 429.99 29.208H431.458ZM438.103 27.5205V35H435.571V25.4902H437.944L438.103 27.5205ZM437.733 29.9111H437.048C437.048 29.208 437.139 28.5752 437.32 28.0127C437.502 27.4443 437.757 26.9609 438.085 26.5625C438.413 26.1582 438.803 25.8506 439.254 25.6396C439.711 25.4229 440.221 25.3145 440.783 25.3145C441.229 25.3145 441.636 25.3789 442.005 25.5078C442.374 25.6367 442.69 25.8418 442.954 26.123C443.224 26.4043 443.429 26.7764 443.569 27.2393C443.716 27.7021 443.789 28.2676 443.789 28.9355V35H441.24V28.9268C441.24 28.5049 441.182 28.1768 441.064 27.9424C440.947 27.708 440.774 27.5439 440.546 27.4502C440.323 27.3506 440.048 27.3008 439.72 27.3008C439.38 27.3008 439.084 27.3682 438.832 27.5029C438.586 27.6377 438.381 27.8252 438.217 28.0654C438.059 28.2998 437.938 28.5752 437.856 28.8916C437.774 29.208 437.733 29.5479 437.733 29.9111ZM451.33 32.9258V21.5H453.879V35H451.585L451.33 32.9258ZM445.318 30.3594V30.1748C445.318 29.4482 445.4 28.7891 445.564 28.1973C445.729 27.5996 445.969 27.0869 446.285 26.6592C446.602 26.2314 446.991 25.9004 447.454 25.666C447.917 25.4316 448.444 25.3145 449.036 25.3145C449.593 25.3145 450.079 25.4316 450.495 25.666C450.917 25.9004 451.274 26.2344 451.567 26.668C451.866 27.0957 452.106 27.6025 452.288 28.1885C452.47 28.7686 452.602 29.4043 452.684 30.0957V30.5C452.602 31.1621 452.47 31.7773 452.288 32.3457C452.106 32.9141 451.866 33.4121 451.567 33.8398C451.274 34.2617 450.917 34.5898 450.495 34.8242C450.073 35.0586 449.581 35.1758 449.019 35.1758C448.427 35.1758 447.899 35.0557 447.437 34.8154C446.979 34.5752 446.593 34.2383 446.276 33.8047C445.966 33.3711 445.729 32.8613 445.564 32.2754C445.4 31.6895 445.318 31.0508 445.318 30.3594ZM447.85 30.1748V30.3594C447.85 30.752 447.879 31.1182 447.938 31.458C448.002 31.7979 448.104 32.0996 448.245 32.3633C448.392 32.6211 448.579 32.8232 448.808 32.9697C449.042 33.1104 449.326 33.1807 449.66 33.1807C450.094 33.1807 450.451 33.084 450.732 32.8906C451.014 32.6914 451.228 32.4189 451.374 32.0732C451.526 31.7275 451.614 31.3291 451.638 30.8779V29.7266C451.62 29.3574 451.567 29.0264 451.479 28.7334C451.397 28.4346 451.274 28.1797 451.11 27.9688C450.952 27.7578 450.753 27.5938 450.513 27.4766C450.278 27.3594 450 27.3008 449.678 27.3008C449.35 27.3008 449.068 27.377 448.834 27.5293C448.6 27.6758 448.409 27.8779 448.263 28.1357C448.122 28.3936 448.017 28.6982 447.946 29.0498C447.882 29.3955 447.85 29.7705 447.85 30.1748ZM464.426 35H461.64L461.657 32.9434H464.426C465.117 32.9434 465.7 32.7881 466.175 32.4775C466.649 32.1611 467.007 31.7012 467.247 31.0977C467.493 30.4941 467.616 29.7646 467.616 28.9092V28.2852C467.616 27.6289 467.546 27.0518 467.405 26.5537C467.271 26.0557 467.068 25.6367 466.799 25.2969C466.529 24.957 466.198 24.7021 465.806 24.5322C465.413 24.3564 464.962 24.2686 464.452 24.2686H461.587V22.2031H464.452C465.308 22.2031 466.09 22.3496 466.799 22.6426C467.514 22.9297 468.132 23.3428 468.653 23.8818C469.175 24.4209 469.576 25.0654 469.857 25.8154C470.145 26.5596 470.288 27.3887 470.288 28.3027V28.9092C470.288 29.8174 470.145 30.6465 469.857 31.3965C469.576 32.1465 469.175 32.791 468.653 33.3301C468.138 33.8633 467.52 34.2764 466.799 34.5693C466.084 34.8564 465.293 35 464.426 35ZM463.134 22.2031V35H460.497V22.2031H463.134Z" fill="#212121"/>
<path d="M572 56V129C572 130.657 570.657 132 569 132H4C2.34315 132 1 130.657 1 129V56H572Z" fill="white"/>
<path d="M572 56V129C572 130.657 570.657 132 569 132H4C2.34315 132 1 130.657 1 129V56H572Z" stroke="#E0E0E0" stroke-width="2"/>
<path d="M87.8115 99.5625L90.0693 91.625H91.1631L90.5303 94.7109L88.1006 103H87.0146L87.8115 99.5625ZM85.4756 91.625L87.2725 99.4062L87.8115 103H86.7334L83.9756 91.625H85.4756ZM94.085 99.3984L95.8428 91.625H97.3506L94.6006 103H93.5225L94.085 99.3984ZM91.3271 91.625L93.5225 99.5625L94.3193 103H93.2334L90.8896 94.7109L90.249 91.625H91.3271ZM103.522 101.555V97.2031C103.522 96.8698 103.455 96.5807 103.319 96.3359C103.189 96.0859 102.991 95.8932 102.726 95.7578C102.46 95.6224 102.132 95.5547 101.741 95.5547C101.377 95.5547 101.056 95.6172 100.78 95.7422C100.509 95.8672 100.296 96.0312 100.14 96.2344C99.9886 96.4375 99.9131 96.6562 99.9131 96.8906H98.4678C98.4678 96.5885 98.5459 96.2891 98.7021 95.9922C98.8584 95.6953 99.0824 95.4271 99.374 95.1875C99.6709 94.9427 100.025 94.75 100.437 94.6094C100.853 94.4635 101.317 94.3906 101.827 94.3906C102.442 94.3906 102.983 94.4948 103.452 94.7031C103.926 94.9115 104.296 95.2266 104.562 95.6484C104.832 96.0651 104.968 96.5885 104.968 97.2188V101.156C104.968 101.438 104.991 101.737 105.038 102.055C105.09 102.372 105.166 102.646 105.265 102.875V103H103.757C103.684 102.833 103.627 102.612 103.585 102.336C103.543 102.055 103.522 101.794 103.522 101.555ZM103.772 97.875L103.788 98.8906H102.327C101.916 98.8906 101.549 98.9245 101.226 98.9922C100.903 99.0547 100.632 99.151 100.413 99.2812C100.194 99.4115 100.028 99.5755 99.9131 99.7734C99.7985 99.9661 99.7412 100.193 99.7412 100.453C99.7412 100.719 99.8011 100.961 99.9209 101.18C100.041 101.398 100.22 101.573 100.46 101.703C100.705 101.828 101.004 101.891 101.358 101.891C101.801 101.891 102.192 101.797 102.53 101.609C102.869 101.422 103.137 101.193 103.335 100.922C103.538 100.651 103.647 100.388 103.663 100.133L104.28 100.828C104.244 101.047 104.145 101.289 103.983 101.555C103.822 101.82 103.606 102.076 103.335 102.32C103.069 102.56 102.752 102.76 102.382 102.922C102.017 103.078 101.606 103.156 101.147 103.156C100.575 103.156 100.072 103.044 99.6396 102.82C99.2126 102.596 98.8792 102.297 98.6396 101.922C98.4053 101.542 98.2881 101.117 98.2881 100.648C98.2881 100.195 98.3766 99.7969 98.5537 99.4531C98.7308 99.1042 98.986 98.8151 99.3193 98.5859C99.6527 98.3516 100.054 98.1745 100.522 98.0547C100.991 97.9349 101.515 97.875 102.093 97.875H103.772ZM112.163 100.758C112.163 100.549 112.116 100.357 112.022 100.18C111.934 99.9974 111.749 99.8333 111.468 99.6875C111.192 99.5365 110.775 99.4062 110.218 99.2969C109.749 99.1979 109.325 99.0807 108.944 98.9453C108.569 98.8099 108.249 98.6458 107.983 98.4531C107.723 98.2604 107.522 98.0339 107.382 97.7734C107.241 97.513 107.171 97.2083 107.171 96.8594C107.171 96.526 107.244 96.2109 107.39 95.9141C107.541 95.6172 107.752 95.3542 108.022 95.125C108.299 94.8958 108.629 94.7161 109.015 94.5859C109.4 94.4557 109.83 94.3906 110.304 94.3906C110.981 94.3906 111.559 94.5104 112.038 94.75C112.517 94.9896 112.884 95.3099 113.14 95.7109C113.395 96.1068 113.522 96.5469 113.522 97.0312H112.077C112.077 96.7969 112.007 96.5703 111.866 96.3516C111.731 96.1276 111.53 95.9427 111.265 95.7969C111.004 95.651 110.684 95.5781 110.304 95.5781C109.903 95.5781 109.577 95.6406 109.327 95.7656C109.082 95.8854 108.903 96.0391 108.788 96.2266C108.679 96.4141 108.624 96.612 108.624 96.8203C108.624 96.9766 108.65 97.1172 108.702 97.2422C108.759 97.362 108.858 97.474 108.999 97.5781C109.14 97.6771 109.338 97.7708 109.593 97.8594C109.848 97.9479 110.174 98.0365 110.569 98.125C111.262 98.2812 111.832 98.4688 112.28 98.6875C112.728 98.9062 113.062 99.1745 113.28 99.4922C113.499 99.8099 113.608 100.195 113.608 100.648C113.608 101.018 113.53 101.357 113.374 101.664C113.223 101.971 113.002 102.237 112.71 102.461C112.424 102.68 112.08 102.852 111.679 102.977C111.283 103.096 110.838 103.156 110.343 103.156C109.598 103.156 108.968 103.023 108.452 102.758C107.937 102.492 107.546 102.148 107.28 101.727C107.015 101.305 106.882 100.859 106.882 100.391H108.335C108.356 100.786 108.47 101.102 108.679 101.336C108.887 101.565 109.142 101.729 109.444 101.828C109.746 101.922 110.046 101.969 110.343 101.969C110.739 101.969 111.069 101.917 111.335 101.812C111.606 101.708 111.812 101.565 111.952 101.383C112.093 101.201 112.163 100.992 112.163 100.758ZM132.288 100.144V103H119.644V100.562L125.623 94.1514C126.224 93.4827 126.698 92.8945 127.045 92.3867C127.392 91.8704 127.642 91.4092 127.794 91.0029C127.955 90.5882 128.035 90.1947 128.035 89.8223C128.035 89.2637 127.942 88.7855 127.756 88.3877C127.57 87.9814 127.295 87.6683 126.931 87.4482C126.575 87.2282 126.135 87.1182 125.61 87.1182C125.052 87.1182 124.569 87.2536 124.163 87.5244C123.765 87.7952 123.461 88.1719 123.249 88.6543C123.046 89.1367 122.944 89.6826 122.944 90.292H119.275C119.275 89.1917 119.538 88.1846 120.062 87.2705C120.587 86.348 121.328 85.6159 122.284 85.0742C123.241 84.5241 124.375 84.249 125.687 84.249C126.981 84.249 128.073 84.4606 128.962 84.8838C129.859 85.2985 130.536 85.8994 130.993 86.6865C131.459 87.4652 131.691 88.3962 131.691 89.4795C131.691 90.0889 131.594 90.6855 131.399 91.2695C131.205 91.8451 130.925 92.4206 130.562 92.9961C130.206 93.5632 129.774 94.1387 129.267 94.7227C128.759 95.3066 128.196 95.9118 127.578 96.5381L124.366 100.144H132.288ZM147.522 96.0938V98.9629H134.205L134.027 96.7412L141.733 84.5156H144.641L141.492 89.7842L137.658 96.0938H147.522ZM145.428 84.5156V103H141.771V84.5156H145.428ZM162.228 96.2266V103H160.774V94.5469H162.149L162.228 96.2266ZM161.931 98.4531L161.259 98.4297C161.264 97.8516 161.34 97.3177 161.485 96.8281C161.631 96.3333 161.847 95.9036 162.134 95.5391C162.42 95.1745 162.777 94.8932 163.204 94.6953C163.631 94.4922 164.126 94.3906 164.688 94.3906C165.084 94.3906 165.449 94.4479 165.782 94.5625C166.116 94.6719 166.405 94.8464 166.649 95.0859C166.894 95.3255 167.084 95.6328 167.22 96.0078C167.355 96.3828 167.423 96.8359 167.423 97.3672V103H165.978V97.4375C165.978 96.9948 165.902 96.6406 165.751 96.375C165.605 96.1094 165.397 95.9167 165.126 95.7969C164.855 95.6719 164.537 95.6094 164.173 95.6094C163.746 95.6094 163.389 95.6849 163.103 95.8359C162.816 95.987 162.587 96.1953 162.415 96.4609C162.243 96.7266 162.118 97.0312 162.04 97.375C161.967 97.7135 161.931 98.0729 161.931 98.4531ZM167.407 97.6562L166.438 97.9531C166.444 97.4896 166.519 97.0443 166.665 96.6172C166.816 96.1901 167.032 95.8099 167.313 95.4766C167.6 95.1432 167.951 94.8802 168.368 94.6875C168.785 94.4896 169.261 94.3906 169.798 94.3906C170.251 94.3906 170.652 94.4505 171.001 94.5703C171.355 94.6901 171.652 94.875 171.892 95.125C172.136 95.3698 172.321 95.6849 172.446 96.0703C172.571 96.4557 172.634 96.9141 172.634 97.4453V103H171.181V97.4297C171.181 96.9557 171.105 96.5885 170.954 96.3281C170.808 96.0625 170.6 95.8776 170.329 95.7734C170.063 95.6641 169.746 95.6094 169.376 95.6094C169.058 95.6094 168.777 95.6641 168.532 95.7734C168.287 95.8828 168.082 96.0339 167.915 96.2266C167.748 96.4141 167.621 96.6302 167.532 96.875C167.449 97.1198 167.407 97.3802 167.407 97.6562ZM174.438 98.8672V98.6875C174.438 98.0781 174.527 97.513 174.704 96.9922C174.881 96.4661 175.136 96.0104 175.47 95.625C175.803 95.2344 176.207 94.9323 176.681 94.7188C177.155 94.5 177.686 94.3906 178.274 94.3906C178.868 94.3906 179.402 94.5 179.876 94.7188C180.355 94.9323 180.761 95.2344 181.095 95.625C181.433 96.0104 181.691 96.4661 181.868 96.9922C182.045 97.513 182.134 98.0781 182.134 98.6875V98.8672C182.134 99.4766 182.045 100.042 181.868 100.562C181.691 101.083 181.433 101.539 181.095 101.93C180.761 102.315 180.358 102.617 179.884 102.836C179.415 103.049 178.884 103.156 178.29 103.156C177.696 103.156 177.162 103.049 176.688 102.836C176.215 102.617 175.808 102.315 175.47 101.93C175.136 101.539 174.881 101.083 174.704 100.562C174.527 100.042 174.438 99.4766 174.438 98.8672ZM175.884 98.6875V98.8672C175.884 99.2891 175.933 99.6875 176.032 100.062C176.131 100.432 176.28 100.76 176.478 101.047C176.681 101.333 176.933 101.56 177.235 101.727C177.537 101.888 177.889 101.969 178.29 101.969C178.686 101.969 179.032 101.888 179.329 101.727C179.631 101.56 179.881 101.333 180.079 101.047C180.277 100.76 180.425 100.432 180.524 100.062C180.629 99.6875 180.681 99.2891 180.681 98.8672V98.6875C180.681 98.2708 180.629 97.8776 180.524 97.5078C180.425 97.1328 180.274 96.8021 180.071 96.5156C179.873 96.224 179.623 95.9948 179.321 95.8281C179.024 95.6615 178.675 95.5781 178.274 95.5781C177.879 95.5781 177.53 95.6615 177.228 95.8281C176.931 95.9948 176.681 96.224 176.478 96.5156C176.28 96.8021 176.131 97.1328 176.032 97.5078C175.933 97.8776 175.884 98.2708 175.884 98.6875ZM185.392 96.3516V103H183.946V94.5469H185.313L185.392 96.3516ZM185.048 98.4531L184.446 98.4297C184.451 97.8516 184.537 97.3177 184.704 96.8281C184.871 96.3333 185.105 95.9036 185.407 95.5391C185.709 95.1745 186.069 94.8932 186.485 94.6953C186.907 94.4922 187.373 94.3906 187.884 94.3906C188.3 94.3906 188.675 94.4479 189.009 94.5625C189.342 94.6719 189.626 94.849 189.86 95.0938C190.1 95.3385 190.282 95.6562 190.407 96.0469C190.532 96.4323 190.595 96.9036 190.595 97.4609V103H189.142V97.4453C189.142 97.0026 189.076 96.6484 188.946 96.3828C188.816 96.112 188.626 95.9167 188.376 95.7969C188.126 95.6719 187.819 95.6094 187.454 95.6094C187.095 95.6094 186.767 95.6849 186.47 95.8359C186.178 95.987 185.925 96.1953 185.712 96.4609C185.504 96.7266 185.34 97.0312 185.22 97.375C185.105 97.7135 185.048 98.0729 185.048 98.4531ZM196.329 94.5469V95.6562H191.759V94.5469H196.329ZM193.306 92.4922H194.751V100.906C194.751 101.193 194.795 101.409 194.884 101.555C194.972 101.701 195.087 101.797 195.228 101.844C195.368 101.891 195.519 101.914 195.681 101.914C195.8 101.914 195.925 101.904 196.056 101.883C196.191 101.857 196.293 101.836 196.36 101.82L196.368 103C196.254 103.036 196.103 103.07 195.915 103.102C195.733 103.138 195.511 103.156 195.251 103.156C194.897 103.156 194.571 103.086 194.274 102.945C193.978 102.805 193.741 102.57 193.563 102.242C193.392 101.909 193.306 101.461 193.306 100.898V92.4922ZM199.47 91V103H198.024V91H199.47ZM199.126 98.4531L198.524 98.4297C198.53 97.8516 198.616 97.3177 198.782 96.8281C198.949 96.3333 199.183 95.9036 199.485 95.5391C199.787 95.1745 200.147 94.8932 200.563 94.6953C200.985 94.4922 201.451 94.3906 201.962 94.3906C202.379 94.3906 202.754 94.4479 203.087 94.5625C203.42 94.6719 203.704 94.849 203.938 95.0938C204.178 95.3385 204.36 95.6562 204.485 96.0469C204.61 96.4323 204.673 96.9036 204.673 97.4609V103H203.22V97.4453C203.22 97.0026 203.155 96.6484 203.024 96.3828C202.894 96.112 202.704 95.9167 202.454 95.7969C202.204 95.6719 201.897 95.6094 201.532 95.6094C201.173 95.6094 200.845 95.6849 200.548 95.8359C200.256 95.987 200.004 96.1953 199.79 96.4609C199.582 96.7266 199.418 97.0312 199.298 97.375C199.183 97.7135 199.126 98.0729 199.126 98.4531ZM211.759 100.758C211.759 100.549 211.712 100.357 211.618 100.18C211.53 99.9974 211.345 99.8333 211.063 99.6875C210.787 99.5365 210.371 99.4062 209.813 99.2969C209.345 99.1979 208.92 99.0807 208.54 98.9453C208.165 98.8099 207.845 98.6458 207.579 98.4531C207.319 98.2604 207.118 98.0339 206.978 97.7734C206.837 97.513 206.767 97.2083 206.767 96.8594C206.767 96.526 206.84 96.2109 206.985 95.9141C207.136 95.6172 207.347 95.3542 207.618 95.125C207.894 94.8958 208.225 94.7161 208.61 94.5859C208.996 94.4557 209.425 94.3906 209.899 94.3906C210.576 94.3906 211.155 94.5104 211.634 94.75C212.113 94.9896 212.48 95.3099 212.735 95.7109C212.991 96.1068 213.118 96.5469 213.118 97.0312H211.673C211.673 96.7969 211.603 96.5703 211.462 96.3516C211.326 96.1276 211.126 95.9427 210.86 95.7969C210.6 95.651 210.28 95.5781 209.899 95.5781C209.498 95.5781 209.173 95.6406 208.923 95.7656C208.678 95.8854 208.498 96.0391 208.384 96.2266C208.274 96.4141 208.22 96.612 208.22 96.8203C208.22 96.9766 208.246 97.1172 208.298 97.2422C208.355 97.362 208.454 97.474 208.595 97.5781C208.735 97.6771 208.933 97.7708 209.188 97.8594C209.444 97.9479 209.769 98.0365 210.165 98.125C210.858 98.2812 211.428 98.4688 211.876 98.6875C212.324 98.9062 212.657 99.1745 212.876 99.4922C213.095 99.8099 213.204 100.195 213.204 100.648C213.204 101.018 213.126 101.357 212.97 101.664C212.819 101.971 212.597 102.237 212.306 102.461C212.019 102.68 211.675 102.852 211.274 102.977C210.879 103.096 210.433 103.156 209.938 103.156C209.194 103.156 208.563 103.023 208.048 102.758C207.532 102.492 207.142 102.148 206.876 101.727C206.61 101.305 206.478 100.859 206.478 100.391H207.931C207.951 100.786 208.066 101.102 208.274 101.336C208.483 101.565 208.738 101.729 209.04 101.828C209.342 101.922 209.642 101.969 209.938 101.969C210.334 101.969 210.665 101.917 210.931 101.812C211.201 101.708 211.407 101.565 211.548 101.383C211.688 101.201 211.759 100.992 211.759 100.758Z" fill="#C62828"/>
<path d="M368.233 91.625V103H366.718L360.991 94.2266V103H359.483V91.625H360.991L366.741 100.422V91.625H368.233ZM370.304 98.8672V98.6875C370.304 98.0781 370.392 97.513 370.569 96.9922C370.746 96.4661 371.002 96.0104 371.335 95.625C371.668 95.2344 372.072 94.9323 372.546 94.7188C373.02 94.5 373.551 94.3906 374.14 94.3906C374.733 94.3906 375.267 94.5 375.741 94.7188C376.22 94.9323 376.627 95.2344 376.96 95.625C377.299 96.0104 377.556 96.4661 377.733 96.9922C377.91 97.513 377.999 98.0781 377.999 98.6875V98.8672C377.999 99.4766 377.91 100.042 377.733 100.562C377.556 101.083 377.299 101.539 376.96 101.93C376.627 102.315 376.223 102.617 375.749 102.836C375.28 103.049 374.749 103.156 374.155 103.156C373.562 103.156 373.028 103.049 372.554 102.836C372.08 102.617 371.674 102.315 371.335 101.93C371.002 101.539 370.746 101.083 370.569 100.562C370.392 100.042 370.304 99.4766 370.304 98.8672ZM371.749 98.6875V98.8672C371.749 99.2891 371.799 99.6875 371.897 100.062C371.996 100.432 372.145 100.76 372.343 101.047C372.546 101.333 372.799 101.56 373.101 101.727C373.403 101.888 373.754 101.969 374.155 101.969C374.551 101.969 374.897 101.888 375.194 101.727C375.496 101.56 375.746 101.333 375.944 101.047C376.142 100.76 376.291 100.432 376.39 100.062C376.494 99.6875 376.546 99.2891 376.546 98.8672V98.6875C376.546 98.2708 376.494 97.8776 376.39 97.5078C376.291 97.1328 376.14 96.8021 375.937 96.5156C375.739 96.224 375.489 95.9948 375.187 95.8281C374.89 95.6615 374.541 95.5781 374.14 95.5781C373.744 95.5781 373.395 95.6615 373.093 95.8281C372.796 95.9948 372.546 96.224 372.343 96.5156C372.145 96.8021 371.996 97.1328 371.897 97.5078C371.799 97.8776 371.749 98.2708 371.749 98.6875ZM381.952 101.5L384.124 94.5469H385.077L384.89 95.9297L382.679 103H381.749L381.952 101.5ZM380.491 94.5469L382.343 101.578L382.476 103H381.499L379.046 94.5469H380.491ZM387.155 101.523L388.921 94.5469H390.358L387.905 103H386.937L387.155 101.523ZM385.288 94.5469L387.413 101.383L387.655 103H386.733L384.46 95.9141L384.272 94.5469H385.288ZM404.892 84.4775V103H401.235V88.6924L396.843 90.0889V87.207L404.498 84.4775H404.892ZM423.554 100.144V103H410.909V100.562L416.889 94.1514C417.49 93.4827 417.964 92.8945 418.311 92.3867C418.658 91.8704 418.907 91.4092 419.06 91.0029C419.22 90.5882 419.301 90.1947 419.301 89.8223C419.301 89.2637 419.208 88.7855 419.021 88.3877C418.835 87.9814 418.56 87.6683 418.196 87.4482C417.841 87.2282 417.401 87.1182 416.876 87.1182C416.317 87.1182 415.835 87.2536 415.429 87.5244C415.031 87.7952 414.726 88.1719 414.515 88.6543C414.312 89.1367 414.21 89.6826 414.21 90.292H410.541C410.541 89.1917 410.803 88.1846 411.328 87.2705C411.853 86.348 412.593 85.6159 413.55 85.0742C414.506 84.5241 415.64 84.249 416.952 84.249C418.247 84.249 419.339 84.4606 420.228 84.8838C421.125 85.2985 421.802 85.8994 422.259 86.6865C422.724 87.4652 422.957 88.3962 422.957 89.4795C422.957 90.0889 422.86 90.6855 422.665 91.2695C422.47 91.8451 422.191 92.4206 421.827 92.9961C421.472 93.5632 421.04 94.1387 420.532 94.7227C420.024 95.3066 419.462 95.9118 418.844 96.5381L415.632 100.144H423.554ZM438.563 96.2266V103H437.11V94.5469H438.485L438.563 96.2266ZM438.267 98.4531L437.595 98.4297C437.6 97.8516 437.675 97.3177 437.821 96.8281C437.967 96.3333 438.183 95.9036 438.47 95.5391C438.756 95.1745 439.113 94.8932 439.54 94.6953C439.967 94.4922 440.462 94.3906 441.024 94.3906C441.42 94.3906 441.785 94.4479 442.118 94.5625C442.451 94.6719 442.741 94.8464 442.985 95.0859C443.23 95.3255 443.42 95.6328 443.556 96.0078C443.691 96.3828 443.759 96.8359 443.759 97.3672V103H442.313V97.4375C442.313 96.9948 442.238 96.6406 442.087 96.375C441.941 96.1094 441.733 95.9167 441.462 95.7969C441.191 95.6719 440.873 95.6094 440.509 95.6094C440.082 95.6094 439.725 95.6849 439.438 95.8359C439.152 95.987 438.923 96.1953 438.751 96.4609C438.579 96.7266 438.454 97.0312 438.376 97.375C438.303 97.7135 438.267 98.0729 438.267 98.4531ZM443.743 97.6562L442.774 97.9531C442.78 97.4896 442.855 97.0443 443.001 96.6172C443.152 96.1901 443.368 95.8099 443.649 95.4766C443.936 95.1432 444.287 94.8802 444.704 94.6875C445.121 94.4896 445.597 94.3906 446.134 94.3906C446.587 94.3906 446.988 94.4505 447.337 94.5703C447.691 94.6901 447.988 94.875 448.228 95.125C448.472 95.3698 448.657 95.6849 448.782 96.0703C448.907 96.4557 448.97 96.9141 448.97 97.4453V103H447.517V97.4297C447.517 96.9557 447.441 96.5885 447.29 96.3281C447.144 96.0625 446.936 95.8776 446.665 95.7734C446.399 95.6641 446.082 95.6094 445.712 95.6094C445.394 95.6094 445.113 95.6641 444.868 95.7734C444.623 95.8828 444.418 96.0339 444.251 96.2266C444.084 96.4141 443.957 96.6302 443.868 96.875C443.785 97.1198 443.743 97.3802 443.743 97.6562ZM450.774 98.8672V98.6875C450.774 98.0781 450.863 97.513 451.04 96.9922C451.217 96.4661 451.472 96.0104 451.806 95.625C452.139 95.2344 452.543 94.9323 453.017 94.7188C453.491 94.5 454.022 94.3906 454.61 94.3906C455.204 94.3906 455.738 94.5 456.212 94.7188C456.691 94.9323 457.097 95.2344 457.431 95.625C457.769 96.0104 458.027 96.4661 458.204 96.9922C458.381 97.513 458.47 98.0781 458.47 98.6875V98.8672C458.47 99.4766 458.381 100.042 458.204 100.562C458.027 101.083 457.769 101.539 457.431 101.93C457.097 102.315 456.694 102.617 456.22 102.836C455.751 103.049 455.22 103.156 454.626 103.156C454.032 103.156 453.498 103.049 453.024 102.836C452.55 102.617 452.144 102.315 451.806 101.93C451.472 101.539 451.217 101.083 451.04 100.562C450.863 100.042 450.774 99.4766 450.774 98.8672ZM452.22 98.6875V98.8672C452.22 99.2891 452.269 99.6875 452.368 100.062C452.467 100.432 452.616 100.76 452.813 101.047C453.017 101.333 453.269 101.56 453.571 101.727C453.873 101.888 454.225 101.969 454.626 101.969C455.022 101.969 455.368 101.888 455.665 101.727C455.967 101.56 456.217 101.333 456.415 101.047C456.613 100.76 456.761 100.432 456.86 100.062C456.965 99.6875 457.017 99.2891 457.017 98.8672V98.6875C457.017 98.2708 456.965 97.8776 456.86 97.5078C456.761 97.1328 456.61 96.8021 456.407 96.5156C456.209 96.224 455.959 95.9948 455.657 95.8281C455.36 95.6615 455.011 95.5781 454.61 95.5781C454.215 95.5781 453.866 95.6615 453.563 95.8281C453.267 95.9948 453.017 96.224 452.813 96.5156C452.616 96.8021 452.467 97.1328 452.368 97.5078C452.269 97.8776 452.22 98.2708 452.22 98.6875ZM461.728 96.3516V103H460.282V94.5469H461.649L461.728 96.3516ZM461.384 98.4531L460.782 98.4297C460.787 97.8516 460.873 97.3177 461.04 96.8281C461.207 96.3333 461.441 95.9036 461.743 95.5391C462.045 95.1745 462.405 94.8932 462.821 94.6953C463.243 94.4922 463.709 94.3906 464.22 94.3906C464.636 94.3906 465.011 94.4479 465.345 94.5625C465.678 94.6719 465.962 94.849 466.196 95.0938C466.436 95.3385 466.618 95.6562 466.743 96.0469C466.868 96.4323 466.931 96.9036 466.931 97.4609V103H465.478V97.4453C465.478 97.0026 465.412 96.6484 465.282 96.3828C465.152 96.112 464.962 95.9167 464.712 95.7969C464.462 95.6719 464.155 95.6094 463.79 95.6094C463.431 95.6094 463.103 95.6849 462.806 95.8359C462.514 95.987 462.261 96.1953 462.048 96.4609C461.84 96.7266 461.675 97.0312 461.556 97.375C461.441 97.7135 461.384 98.0729 461.384 98.4531ZM472.665 94.5469V95.6562H468.095V94.5469H472.665ZM469.642 92.4922H471.087V100.906C471.087 101.193 471.131 101.409 471.22 101.555C471.308 101.701 471.423 101.797 471.563 101.844C471.704 101.891 471.855 101.914 472.017 101.914C472.136 101.914 472.261 101.904 472.392 101.883C472.527 101.857 472.629 101.836 472.696 101.82L472.704 103C472.59 103.036 472.438 103.07 472.251 103.102C472.069 103.138 471.847 103.156 471.587 103.156C471.233 103.156 470.907 103.086 470.61 102.945C470.313 102.805 470.076 102.57 469.899 102.242C469.728 101.909 469.642 101.461 469.642 100.898V92.4922ZM475.806 91V103H474.36V91H475.806ZM475.462 98.4531L474.86 98.4297C474.866 97.8516 474.951 97.3177 475.118 96.8281C475.285 96.3333 475.519 95.9036 475.821 95.5391C476.123 95.1745 476.483 94.8932 476.899 94.6953C477.321 94.4922 477.787 94.3906 478.298 94.3906C478.715 94.3906 479.09 94.4479 479.423 94.5625C479.756 94.6719 480.04 94.849 480.274 95.0938C480.514 95.3385 480.696 95.6562 480.821 96.0469C480.946 96.4323 481.009 96.9036 481.009 97.4609V103H479.556V97.4453C479.556 97.0026 479.491 96.6484 479.36 96.3828C479.23 96.112 479.04 95.9167 478.79 95.7969C478.54 95.6719 478.233 95.6094 477.868 95.6094C477.509 95.6094 477.181 95.6849 476.884 95.8359C476.592 95.987 476.34 96.1953 476.126 96.4609C475.918 96.7266 475.754 97.0312 475.634 97.375C475.519 97.7135 475.462 98.0729 475.462 98.4531ZM488.095 100.758C488.095 100.549 488.048 100.357 487.954 100.18C487.866 99.9974 487.681 99.8333 487.399 99.6875C487.123 99.5365 486.707 99.4062 486.149 99.2969C485.681 99.1979 485.256 99.0807 484.876 98.9453C484.501 98.8099 484.181 98.6458 483.915 98.4531C483.655 98.2604 483.454 98.0339 483.313 97.7734C483.173 97.513 483.103 97.2083 483.103 96.8594C483.103 96.526 483.175 96.2109 483.321 95.9141C483.472 95.6172 483.683 95.3542 483.954 95.125C484.23 94.8958 484.561 94.7161 484.946 94.5859C485.332 94.4557 485.761 94.3906 486.235 94.3906C486.912 94.3906 487.491 94.5104 487.97 94.75C488.449 94.9896 488.816 95.3099 489.071 95.7109C489.326 96.1068 489.454 96.5469 489.454 97.0312H488.009C488.009 96.7969 487.938 96.5703 487.798 96.3516C487.662 96.1276 487.462 95.9427 487.196 95.7969C486.936 95.651 486.616 95.5781 486.235 95.5781C485.834 95.5781 485.509 95.6406 485.259 95.7656C485.014 95.8854 484.834 96.0391 484.72 96.2266C484.61 96.4141 484.556 96.612 484.556 96.8203C484.556 96.9766 484.582 97.1172 484.634 97.2422C484.691 97.362 484.79 97.474 484.931 97.5781C485.071 97.6771 485.269 97.7708 485.524 97.8594C485.78 97.9479 486.105 98.0365 486.501 98.125C487.194 98.2812 487.764 98.4688 488.212 98.6875C488.66 98.9062 488.993 99.1745 489.212 99.4922C489.431 99.8099 489.54 100.195 489.54 100.648C489.54 101.018 489.462 101.357 489.306 101.664C489.155 101.971 488.933 102.237 488.642 102.461C488.355 102.68 488.011 102.852 487.61 102.977C487.215 103.096 486.769 103.156 486.274 103.156C485.53 103.156 484.899 103.023 484.384 102.758C483.868 102.492 483.478 102.148 483.212 101.727C482.946 101.305 482.813 100.859 482.813 100.391H484.267C484.287 100.786 484.402 101.102 484.61 101.336C484.819 101.565 485.074 101.729 485.376 101.828C485.678 101.922 485.978 101.969 486.274 101.969C486.67 101.969 487.001 101.917 487.267 101.812C487.537 101.708 487.743 101.565 487.884 101.383C488.024 101.201 488.095 100.992 488.095 100.758Z" fill="#68A028"/>
</svg>
