<svg width="605" height="368" viewBox="0 0 605 368" fill="none" xmlns="http://www.w3.org/2000/svg">
<path d="M66 237.867H179.425V295.046H66L108.534 266.457L66 237.867Z" fill="#B75400"/>
<path d="M366.575 237.867H480L437.466 266.457L480 295.046H366.575V237.867Z" fill="#B75400"/>
<rect x="136.89" y="211.396" width="272.219" height="72.0031" fill="#812700"/>
<path d="M373.347 211.639L351.763 205.856L373.347 211.639C380.429 185.207 376.721 157.044 363.039 133.346C349.357 109.647 326.821 92.3548 300.389 85.2724C273.957 78.1899 245.794 81.8976 222.096 95.5799C198.397 109.262 181.105 131.798 174.022 158.23C166.94 184.662 170.648 212.825 184.33 236.524C198.012 260.222 220.548 277.514 246.98 284.597C273.412 291.679 301.575 287.971 325.274 274.289C348.972 260.607 366.264 238.071 373.347 211.639Z" fill="white" stroke="#B75400" stroke-width="44.6905" stroke-miterlimit="10"/>
<path d="M217.802 88.4674L225.275 101.898L222.508 103.438L215.034 90.0074L217.802 88.4674ZM226.344 91.2275L227.545 93.386L221.439 96.7841L220.238 94.6257L226.344 91.2275ZM223.797 85.1309L225.003 87.2985L218.251 91.056L217.045 88.8883L223.797 85.1309Z" fill="white"/>
<path d="M240.298 81.4578L240.129 94.8662L236.916 95.8753L237.758 79.5006L239.803 78.8584L240.298 81.4578ZM247.43 92.5726L239.613 81.6729L238.503 79.2665L240.568 78.6179L250.653 91.5603L247.43 92.5726ZM245.534 87.1711L246.277 89.5378L238.533 91.9705L237.789 89.6038L245.534 87.1711Z" fill="white"/>
<path d="M260.079 74.5463L262.004 89.795L258.872 90.1903L256.947 74.9416L260.079 74.5463Z" fill="white"/>
<path d="M272.149 73.6669L277.874 73.9365C279.048 73.9918 280.049 74.215 280.876 74.6063C281.71 74.9978 282.339 75.5488 282.764 76.2592C283.188 76.9696 283.377 77.8274 283.329 78.8327C283.291 79.6552 283.117 80.355 282.808 80.9323C282.506 81.5028 282.093 81.973 281.568 82.3428C281.051 82.7059 280.449 82.9876 279.764 83.1878L278.737 83.6678L273.76 83.4335L273.855 80.9651L277.556 81.1394C278.112 81.1655 278.577 81.0888 278.952 80.9092C279.326 80.7296 279.613 80.4683 279.813 80.1254C280.019 79.7829 280.133 79.3796 280.155 78.9157C280.178 78.4236 280.107 77.994 279.941 77.6269C279.775 77.2598 279.51 76.9726 279.147 76.7652C278.783 76.5579 278.32 76.4409 277.758 76.4145L275.195 76.2938L274.589 89.1686L271.426 89.0196L272.149 73.6669ZM280.009 89.4238L276.83 82.4156L280.174 82.5519L283.401 89.4356L283.394 89.5832L280.009 89.4238Z" fill="white"/>
<path d="M309.39 92.0907L309.39 92.0907C310.212 91.7306 310.782 91.1163 311.086 90.2666C311.389 89.418 311.336 88.5862 310.923 87.7965C310.522 86.9942 309.829 86.4305 308.886 86.0936C307.942 85.7565 307.044 85.7526 306.216 86.1145C305.396 86.4641 304.828 87.0742 304.524 87.9234C304.221 88.7731 304.273 89.6097 304.681 90.4092L304.681 90.4092L304.683 90.4125C305.099 91.2061 305.797 91.7654 306.74 92.1021C307.683 92.4387 308.574 92.4473 309.39 92.0907Z" fill="white" stroke="black" stroke-width="0.708904"/>
<path d="M333.951 92.124L338.552 95.5422C339.496 96.243 340.201 96.9865 340.67 97.7725C341.143 98.5628 341.358 99.3711 341.314 100.198C341.27 101.024 340.948 101.841 340.348 102.649C339.857 103.31 339.322 103.794 338.743 104.1C338.175 104.406 337.57 104.565 336.928 104.579C336.296 104.592 335.64 104.49 334.959 104.274L333.839 104.099L329.839 101.128L331.295 99.1328L334.27 101.342C334.716 101.674 335.145 101.87 335.556 101.93C335.967 101.99 336.351 101.933 336.708 101.76C337.07 101.591 337.39 101.32 337.667 100.947C337.961 100.551 338.141 100.155 338.208 99.7578C338.276 99.3606 338.216 98.9745 338.03 98.5995C337.844 98.2246 337.525 97.8692 337.073 97.5335L335.014 96.0038L327.328 106.35L324.786 104.462L333.951 92.124ZM331.683 109.586L332.955 101.997L335.654 103.975L334.491 111.488L334.403 111.607L331.683 109.586Z" fill="white"/>
<path d="M348.943 123.115L347.099 124.759L341.653 118.654L343.497 117.01L348.943 123.115ZM353.812 109.195L342.342 119.426L340.234 117.063L351.703 106.832L353.812 109.195ZM353.188 117.899L351.392 119.502L346.656 114.192L348.452 112.59L353.188 117.899ZM358.562 114.52L356.711 116.171L351.272 110.074L353.123 108.423L358.562 114.52Z" fill="white"/>
<path d="M359.857 133.992L357.895 130.603L360.032 129.365L361.995 132.754C362.298 133.278 362.63 133.655 362.991 133.885C363.358 134.111 363.741 134.211 364.14 134.183C364.539 134.156 364.933 134.029 365.323 133.803C365.719 133.574 366.043 133.284 366.296 132.935C366.549 132.585 366.683 132.186 366.7 131.737C366.717 131.288 366.573 130.802 366.27 130.278L364.857 127.839L353.704 134.299L352.117 131.558L365.417 123.855L368.417 129.035C369.02 130.076 369.348 131.078 369.4 132.039C369.463 133.003 369.28 133.874 368.851 134.651C368.423 135.427 367.785 136.061 366.939 136.551C366.08 137.049 365.223 137.281 364.366 137.248C363.51 137.216 362.694 136.924 361.919 136.372C361.148 135.827 360.461 135.033 359.857 133.992Z" fill="white"/>
<path d="M372.88 158.774L372.186 158.996C371.073 159.351 370.026 159.52 369.045 159.501C368.063 159.482 367.173 159.297 366.374 158.946C365.582 158.593 364.9 158.087 364.327 157.428C363.756 156.776 363.324 155.987 363.028 155.062C362.735 154.143 362.63 153.249 362.715 152.38C362.801 151.518 363.064 150.71 363.503 149.956C363.949 149.201 364.565 148.528 365.351 147.937C366.14 147.352 367.09 146.882 368.203 146.527L368.897 146.305C370.016 145.948 371.063 145.78 372.038 145.801C373.019 145.82 373.909 146.004 374.708 146.355C375.51 146.712 376.195 147.217 376.766 147.87C377.338 148.529 377.771 149.318 378.065 150.236C378.36 151.162 378.465 152.055 378.378 152.918C378.294 153.787 378.028 154.596 377.58 155.345C377.134 156.1 376.517 156.77 375.729 157.355C374.949 157.943 373.999 158.417 372.88 158.774ZM371.213 155.949L371.927 155.721C372.704 155.473 373.366 155.184 373.91 154.855C374.455 154.525 374.885 154.159 375.2 153.756C375.514 153.352 375.709 152.921 375.783 152.461C375.865 151.999 375.824 151.514 375.662 151.004C375.499 150.495 375.25 150.075 374.916 149.746C374.591 149.422 374.183 149.186 373.693 149.04C373.205 148.9 372.644 148.854 372.009 148.902C371.374 148.949 370.668 149.097 369.89 149.346L369.176 149.574C368.405 149.82 367.744 150.109 367.192 150.44C366.647 150.769 366.214 151.137 365.893 151.542C365.579 151.946 365.381 152.378 365.299 152.84C365.218 153.302 365.259 153.788 365.421 154.297C365.584 154.807 365.832 155.226 366.167 155.555C366.501 155.884 366.912 156.119 367.4 156.258C367.894 156.396 368.459 156.441 369.094 156.393C369.735 156.343 370.442 156.195 371.213 155.949Z" fill="white"/>
<path d="M371.633 177.167C371.906 177.142 372.148 177.077 372.357 176.972C372.574 176.874 372.763 176.708 372.925 176.474C373.094 176.239 373.251 175.917 373.397 175.507C373.542 175.098 373.684 174.572 373.822 173.93C373.981 173.215 374.171 172.533 374.393 171.883C374.616 171.24 374.89 170.663 375.217 170.152C375.551 169.647 375.955 169.235 376.427 168.915C376.899 168.602 377.465 168.415 378.123 168.353C378.761 168.293 379.352 168.379 379.897 168.611C380.449 168.842 380.934 169.193 381.352 169.662C381.778 170.131 382.125 170.7 382.392 171.367C382.66 172.042 382.833 172.793 382.91 173.619C383.016 174.748 382.905 175.751 382.577 176.63C382.25 177.509 381.754 178.213 381.089 178.741C380.426 179.277 379.638 179.588 378.728 179.673L378.434 176.541C378.883 176.499 379.266 176.367 379.585 176.147C379.911 175.932 380.155 175.627 380.315 175.23C380.477 174.84 380.531 174.362 380.478 173.794C380.426 173.248 380.3 172.8 380.097 172.452C379.902 172.102 379.656 171.85 379.359 171.694C379.068 171.537 378.751 171.475 378.408 171.507C378.149 171.531 377.92 171.616 377.722 171.762C377.524 171.915 377.346 172.13 377.188 172.406C377.03 172.682 376.888 173.017 376.763 173.411C376.637 173.804 376.52 174.257 376.413 174.769C376.239 175.626 376.023 176.385 375.767 177.045C375.512 177.712 375.208 178.278 374.855 178.742C374.503 179.206 374.088 179.57 373.611 179.834C373.134 180.098 372.58 180.259 371.949 180.318C371.284 180.381 370.676 180.307 370.126 180.097C369.577 179.887 369.097 179.554 368.686 179.097C368.276 178.641 367.944 178.082 367.692 177.42C367.439 176.758 367.273 176.006 367.194 175.166C367.123 174.409 367.152 173.653 367.279 172.899C367.413 172.145 367.655 171.447 368.005 170.806C368.356 170.173 368.83 169.648 369.427 169.231C370.024 168.815 370.753 168.566 371.615 168.486L371.912 171.649C371.435 171.694 371.039 171.805 370.724 171.983C370.408 172.161 370.161 172.393 369.983 172.678C369.805 172.97 369.688 173.306 369.632 173.686C369.576 174.073 369.57 174.491 369.612 174.939C369.663 175.486 369.782 175.927 369.969 176.263C370.156 176.606 370.395 176.848 370.684 176.991C370.973 177.141 371.29 177.199 371.633 177.167Z" fill="white"/>
<path d="M382.774 194.123L367.453 192.906L367.703 189.76L383.024 190.977L382.774 194.123Z" fill="white"/>
<path d="M379.468 212.774L364.583 208.944L365.369 205.887L380.254 209.718L379.468 212.774ZM378.289 217.354L375.887 216.736L379.012 204.591L381.414 205.209L378.289 217.354Z" fill="white"/>
<path d="M362.024 236.253L361.373 235.924C360.331 235.398 359.466 234.784 358.78 234.082C358.093 233.381 357.588 232.625 357.264 231.815C356.946 231.008 356.814 230.169 356.868 229.297C356.919 228.432 357.163 227.566 357.601 226.699C358.035 225.838 358.587 225.128 359.257 224.567C359.923 224.013 360.677 223.621 361.518 223.391C362.366 223.165 363.277 223.116 364.252 223.246C365.224 223.382 366.231 223.714 367.274 224.24L367.924 224.569C368.973 225.099 369.838 225.713 370.518 226.411C371.205 227.112 371.71 227.868 372.034 228.678C372.355 229.495 372.49 230.335 372.439 231.201C372.385 232.072 372.141 232.938 371.706 233.799C371.269 234.666 370.717 235.377 370.05 235.931C369.381 236.492 368.624 236.882 367.78 237.102C366.932 237.328 366.022 237.374 365.05 237.237C364.082 237.111 363.073 236.783 362.024 236.253ZM362.815 233.069L363.484 233.407C364.213 233.775 364.887 234.033 365.506 234.18C366.126 234.327 366.689 234.367 367.196 234.3C367.703 234.233 368.144 234.062 368.52 233.786C368.902 233.514 369.213 233.139 369.454 232.662C369.696 232.184 369.812 231.711 369.805 231.242C369.8 230.783 369.675 230.329 369.428 229.881C369.178 229.439 368.81 229.013 368.324 228.602C367.837 228.191 367.23 227.801 366.501 227.433L365.832 227.095C365.11 226.731 364.436 226.473 363.81 226.323C363.191 226.175 362.624 226.134 362.111 226.198C361.604 226.265 361.16 226.435 360.778 226.707C360.396 226.979 360.084 227.354 359.843 227.831C359.602 228.309 359.485 228.782 359.493 229.251C359.5 229.72 359.629 230.175 359.879 230.617C360.136 231.062 360.507 231.49 360.993 231.901C361.485 232.315 362.093 232.705 362.815 233.069Z" fill="white"/>
<path d="M362.093 249.457L358.473 253.902C357.731 254.813 356.957 255.485 356.151 255.918C355.34 256.356 354.523 256.534 353.699 256.453C352.876 256.373 352.074 256.015 351.294 255.379C350.655 254.859 350.196 254.303 349.915 253.712C349.635 253.13 349.503 252.518 349.517 251.877C349.532 251.245 349.663 250.594 349.91 249.923L350.134 248.812L353.28 244.949L355.209 246.492L352.869 249.365C352.518 249.796 352.303 250.216 352.225 250.624C352.147 251.032 352.186 251.419 352.344 251.783C352.497 252.152 352.753 252.484 353.113 252.777C353.495 253.088 353.883 253.286 354.277 253.371C354.671 253.455 355.059 253.413 355.442 253.244C355.825 253.075 356.194 252.772 356.55 252.335L358.169 250.346L348.175 242.207L350.175 239.752L362.093 249.457ZM344.749 246.414L352.274 248.023L350.177 250.631L342.724 249.135L342.609 249.042L344.749 246.414Z" fill="white"/>
<path d="M344.924 267.938L338.029 264.49L339.924 271.962L337.235 274.127L335.045 263.342L331.537 258.983L334.037 256.971L337.545 261.33L347.621 265.767L344.924 267.938Z" fill="white"/>
<path d="M306.474 277.512L306.474 277.512C306.097 278.326 306.077 279.164 306.413 280.002C306.749 280.838 307.34 281.425 308.173 281.743C309.005 282.078 309.897 282.04 310.827 281.667C311.757 281.294 312.432 280.702 312.811 279.882C313.194 279.076 313.215 278.243 312.879 277.406C312.543 276.569 311.949 275.977 311.113 275.649L311.113 275.649L311.11 275.648C310.273 275.329 309.379 275.373 308.45 275.746C307.521 276.119 306.848 276.704 306.474 277.512Z" fill="white" stroke="black" stroke-width="0.708904"/>
<path d="M278.307 284.301L275.162 284.572C275.136 283.536 275.342 282.596 275.778 281.754C276.207 280.912 276.85 280.227 277.709 279.701C278.561 279.176 279.615 278.859 280.87 278.751C281.851 278.667 282.746 278.759 283.553 279.029C284.361 279.306 285.069 279.739 285.678 280.329C286.28 280.92 286.763 281.656 287.129 282.535C287.494 283.415 287.725 284.416 287.821 285.538L287.913 286.6C288.009 287.722 287.949 288.748 287.733 289.678C287.51 290.615 287.149 291.427 286.65 292.112C286.144 292.799 285.516 293.347 284.768 293.758C284.019 294.168 283.164 294.415 282.204 294.497C280.928 294.607 279.832 294.469 278.915 294.081C277.992 293.695 277.253 293.115 276.7 292.344C276.139 291.573 275.765 290.672 275.577 289.643L278.732 289.372C278.821 289.986 278.988 290.497 279.235 290.907C279.483 291.324 279.83 291.622 280.277 291.803C280.717 291.991 281.287 292.055 281.988 291.994C282.514 291.949 282.965 291.811 283.341 291.581C283.717 291.351 284.02 291.025 284.252 290.602C284.484 290.18 284.641 289.658 284.722 289.036C284.796 288.422 284.798 287.709 284.728 286.895L284.635 285.812C284.567 285.02 284.447 284.327 284.276 283.735C284.105 283.149 283.88 282.66 283.599 282.267C283.311 281.882 282.962 281.601 282.551 281.425C282.134 281.256 281.645 281.196 281.084 281.244C280.425 281.301 279.891 281.453 279.481 281.7C279.072 281.947 278.772 282.287 278.584 282.72C278.388 283.154 278.296 283.681 278.307 284.301Z" fill="white"/>
<path d="M256.294 280.509L256.584 278.055L264.708 279.015L264.419 281.468L256.294 280.509ZM261.878 294.157L263.681 278.894L266.826 279.265L265.023 294.529L261.878 294.157ZM256.574 287.228L256.856 284.837L263.922 285.672L263.64 288.062L256.574 287.228ZM254.791 293.32L255.082 290.857L263.196 291.815L262.905 294.279L254.791 293.32Z" fill="white"/>
<path d="M243.47 290.876L238.031 289.067C236.916 288.697 236.013 288.211 235.323 287.611C234.626 287.008 234.169 286.307 233.953 285.509C233.736 284.71 233.787 283.833 234.104 282.878C234.364 282.097 234.721 281.47 235.175 280.998C235.619 280.53 236.144 280.189 236.749 279.975C237.346 279.766 238.001 279.657 238.715 279.65L239.834 279.466L244.561 281.038L243.802 283.389L240.286 282.219C239.759 282.044 239.29 281.992 238.881 282.063C238.471 282.135 238.124 282.309 237.84 282.585C237.548 282.859 237.329 283.216 237.183 283.657C237.027 284.124 236.98 284.557 237.04 284.956C237.1 285.354 237.278 285.702 237.572 286C237.866 286.298 238.28 286.536 238.814 286.714L241.248 287.523L245.315 275.293L248.32 276.292L243.47 290.876ZM240.167 273.58L241.33 281.187L238.148 280.151L236.905 272.651L236.951 272.511L240.167 273.58Z" fill="white"/>
<path d="M215.997 278.965L223.776 265.709L226.498 267.306L218.719 280.562L215.997 278.965ZM211.918 276.571L213.174 274.432L223.99 280.779L222.734 282.918L211.918 276.571Z" fill="white"/>
<path d="M200.496 267.739L210.436 256.016L212.843 258.058L202.903 269.78L200.496 267.739Z" fill="white"/>
<path d="M189.787 257.11L201.471 247.124L203.529 249.531L191.845 259.517L189.787 257.11ZM190.801 248.189L192.679 246.585L197.219 251.897L195.341 253.502L190.801 248.189ZM185.33 251.894L187.215 250.282L192.236 256.156L190.35 257.768L185.33 251.894Z" fill="white"/>
<path d="M177.868 240.706L190.996 232.713L192.638 235.409L179.51 243.402L177.868 240.706Z" fill="white"/>
<path d="M178.433 218.003L177.279 215.066C178.265 214.746 179.224 214.676 180.156 214.854C181.085 215.026 181.924 215.449 182.673 216.123C183.418 216.79 184.022 217.71 184.482 218.882C184.842 219.799 185.008 220.683 184.979 221.534C184.944 222.387 184.73 223.189 184.337 223.941C183.942 224.686 183.374 225.358 182.635 225.959C181.895 226.559 181.001 227.065 179.953 227.477L178.961 227.867C177.913 228.279 176.912 228.513 175.959 228.57C174.997 228.622 174.117 228.507 173.317 228.224C172.515 227.934 171.811 227.488 171.205 226.887C170.598 226.286 170.118 225.537 169.766 224.64C169.298 223.448 169.119 222.357 169.23 221.369C169.338 220.374 169.683 219.501 170.265 218.75C170.845 217.993 171.602 217.379 172.535 216.906L173.693 219.854C173.129 220.113 172.686 220.419 172.364 220.773C172.035 221.129 171.847 221.546 171.801 222.026C171.746 222.501 171.847 223.066 172.104 223.721C172.297 224.213 172.558 224.606 172.885 224.9C173.213 225.195 173.612 225.394 174.083 225.496C174.554 225.598 175.099 225.6 175.718 225.5C176.327 225.397 177.012 225.196 177.772 224.897L178.784 224.5C179.524 224.209 180.154 223.898 180.674 223.565C181.187 223.235 181.591 222.879 181.888 222.498C182.175 222.113 182.345 221.699 182.397 221.255C182.441 220.807 182.359 220.321 182.154 219.797C181.912 219.181 181.614 218.712 181.261 218.39C180.907 218.067 180.496 217.877 180.027 217.819C179.556 217.755 179.024 217.816 178.433 218.003Z" fill="white"/>
<path d="M166.361 201.445L179.602 203.562L180.134 206.887L164.055 203.674L163.717 201.558L166.361 201.445ZM178.394 196.005L166.474 202.154L163.932 202.902L163.59 200.765L177.861 192.669L178.394 196.005ZM172.775 197.095L175.224 196.704L176.505 204.72L174.056 205.111L172.775 197.095Z" fill="white"/>
<path d="M162.593 176.888L177.937 177.768L177.757 180.919L162.412 180.039L162.593 176.888ZM162.864 172.167L165.34 172.309L164.622 184.829L162.146 184.687L162.864 172.167Z" fill="white"/>
<path d="M165.517 157.974L180.483 161.477L179.763 164.55L164.798 161.047L165.517 157.974Z" fill="white"/>
<path d="M180.631 137.591L181.3 137.88C182.372 138.344 183.271 138.906 183.997 139.566C184.724 140.226 185.273 140.951 185.644 141.74C186.009 142.527 186.19 143.357 186.188 144.23C186.188 145.097 185.995 145.976 185.609 146.867C185.226 147.752 184.717 148.494 184.081 149.093C183.449 149.686 182.72 150.121 181.893 150.4C181.061 150.676 180.154 150.778 179.173 150.706C178.194 150.627 177.169 150.356 176.097 149.891L175.429 149.602C174.35 149.135 173.451 148.573 172.731 147.916C172.004 147.256 171.456 146.531 171.084 145.742C170.716 144.946 170.532 144.114 170.531 143.247C170.534 142.374 170.726 141.495 171.11 140.61C171.496 139.719 172.005 138.977 172.637 138.385C173.273 137.786 174.005 137.351 174.835 137.082C175.668 136.806 176.573 136.707 177.552 136.786C178.526 136.855 179.553 137.123 180.631 137.591ZM180.028 140.815L179.341 140.517C178.591 140.193 177.903 139.975 177.276 139.865C176.649 139.754 176.085 139.747 175.583 139.844C175.081 139.941 174.65 140.138 174.291 140.435C173.926 140.73 173.637 141.122 173.425 141.613C173.212 142.104 173.123 142.583 173.159 143.051C173.19 143.509 173.342 143.955 173.615 144.387C173.891 144.814 174.283 145.217 174.793 145.599C175.302 145.981 175.932 146.334 176.681 146.659L177.368 146.956C178.111 147.278 178.799 147.496 179.433 147.609C180.06 147.719 180.627 147.728 181.136 147.633C181.638 147.536 182.072 147.341 182.437 147.046C182.802 146.752 183.091 146.36 183.304 145.869C183.516 145.378 183.605 144.899 183.57 144.431C183.535 143.963 183.379 143.516 183.104 143.09C182.822 142.661 182.426 142.256 181.916 141.874C181.4 141.49 180.771 141.137 180.028 140.815Z" fill="white"/>
<path d="M187.177 114.224L199.59 123.287L197.723 125.845L185.761 124.757L194.081 130.832L192.214 133.39L179.801 124.326L181.668 121.769L193.645 122.854L185.316 116.773L187.177 114.224Z" fill="white"/>
<path d="M211.635 106.538L211.635 106.538C211.793 105.654 211.6 104.839 211.063 104.114C210.526 103.39 209.805 102.972 208.919 102.875C208.03 102.762 207.176 103.025 206.371 103.621C205.566 104.218 205.063 104.962 204.904 105.851C204.738 106.728 204.929 107.539 205.466 108.264C206.003 108.988 206.728 109.41 207.619 109.516L207.619 109.516L207.623 109.516C208.513 109.612 209.367 109.343 210.171 108.746C210.975 108.15 211.478 107.414 211.635 106.538Z" fill="white" stroke="black" stroke-width="0.708904"/>
<path d="M272.131 229.417C271.148 229.417 270.184 229.288 269.256 229.04C267.815 228.654 266.419 228.011 264.885 227.018C264.655 226.871 263.195 225.622 262.378 224.923L262.359 224.905C262.203 224.776 262.075 224.666 261.983 224.583C261.092 225.015 260.247 225.594 259.42 226.164C257.758 227.312 256.032 228.489 253.818 228.571C251.917 228.645 249.906 228.342 247.601 227.652C247.399 227.597 246.949 227.404 246.214 227.11C245.397 226.77 244.166 226.348 243.762 226.182C243.725 226.164 243.569 226.072 243.514 225.906C243.459 225.75 243.459 225.502 243.487 225.447C245.011 224.28 246.48 222.883 247.904 221.523C248.841 220.631 249.814 219.703 250.788 218.858C251.127 218.564 251.44 218.242 251.743 217.893L252.239 217.259C254.865 213.675 255.967 207.867 256.583 203.548C257.161 199.523 256.849 195.341 256.509 191.739C255.885 185.085 253.763 180.261 250.007 176.971C248.262 175.445 246.306 174.205 244.451 173.074L243.643 172.587C241.751 171.439 239.804 170.253 238.031 168.847C237.829 168.691 237.747 168.443 237.811 168.204C238.105 167.064 243.064 165.465 243.11 165.456C244.001 165.318 244.965 165.245 246.049 165.245C247.279 165.245 248.51 165.337 249.667 165.419C252.487 165.64 254.305 166.917 256.243 168.277C256.922 168.755 257.62 169.242 258.383 169.702L258.456 169.619C258.686 169.325 258.851 168.967 259.035 168.59C259.283 168.066 259.54 167.524 259.99 167.083C261.055 166.044 262.359 165.759 263.388 165.631C263.764 165.585 264.104 165.557 264.444 165.557C266.336 165.557 267.511 166.329 268.99 167.322C269.22 167.469 269.449 167.625 269.697 167.79C270.313 168.185 270.836 168.388 271.258 168.388C271.966 168.388 272.388 167.855 273.04 166.982C273.729 166.053 274.5 165.006 275.979 164.831C277.503 164.657 278.707 165.428 279.754 166.109C280.553 166.623 281.315 167.119 282.086 167.119C282.702 167.119 283.335 166.807 284.015 166.154C284.851 165.355 285.549 164.748 286.393 164.748C286.99 164.748 287.587 165.052 288.267 165.704L288.423 165.851C289.892 167.257 290.297 167.652 292.143 166.669C293.548 165.925 295.338 165.456 296.826 165.456C299.361 165.456 300.931 166.77 301.023 169.04L300.794 169.104L300.39 169.233C300.206 169.307 300.105 169.325 299.94 169.398C297.974 169.996 292.032 173.313 291.435 173.773C289.442 175.289 287.569 177.237 286.164 179.259C280.718 187.07 280.819 198.199 282.564 205.358C283.482 209.126 284.713 213.519 286.926 217.608C287.909 219.428 289.057 221.119 290.324 222.635L290.453 222.791C293.493 226.439 294.163 226.586 294.356 226.779C294.475 226.899 294.558 226.982 294.576 227.092C294.604 227.331 294.337 227.515 294.135 227.625C293.869 227.763 293.584 227.855 293.29 227.919C293.006 227.983 292.822 228.011 292.446 228.075C292.133 228.13 291.812 228.158 291.49 228.185C290.113 228.287 288.754 228.342 287.376 228.204C286.522 228.112 285.668 228.011 284.823 227.855C283.804 227.671 281.645 227.221 280.442 226.504L279.652 226.945C278.413 227.79 276.135 228.728 275.841 228.829C274.647 229.206 273.389 229.417 272.131 229.417ZM262.662 224.068C263.434 224.739 265.133 226.182 265.326 226.311C266.786 227.257 268.099 227.873 269.458 228.231C271.415 228.755 273.573 228.682 275.612 228.011C275.878 227.928 278.229 226.945 279.304 226.164L279.065 225.686C278.174 223.894 276.943 221.44 276.319 219.63C276.181 219.244 276.052 218.876 275.924 218.536C275.226 216.616 274.684 215.09 274.684 212.407V210.118L280.102 224.574C280.231 224.831 280.35 225.125 280.451 225.419H280.461C280.892 226.035 283.106 226.678 284.979 227.018C288.148 227.588 291.031 227.597 293.3 227.018C292.62 226.476 291.573 225.401 289.819 223.306L289.69 223.159C288.386 221.606 287.211 219.869 286.191 217.994C283.932 213.831 282.683 209.365 281.756 205.551C279.974 198.227 279.882 186.822 285.484 178.781C286.944 176.686 288.882 174.673 290.93 173.102C291.445 172.707 298.158 169.003 300.087 168.562C299.774 166.687 298.167 166.274 296.817 166.274C295.458 166.274 293.814 166.697 292.519 167.386C290.177 168.627 289.387 167.919 287.835 166.439L287.679 166.292C287.165 165.805 286.742 165.566 286.375 165.566C285.842 165.566 285.264 166.072 284.575 166.743C283.739 167.542 282.922 167.937 282.077 167.937C281.058 167.937 280.158 167.358 279.294 166.798C278.312 166.164 277.301 165.502 276.062 165.649C274.941 165.778 274.335 166.596 273.692 167.469C273.058 168.323 272.406 169.215 271.249 169.215C270.662 169.215 270 168.976 269.238 168.489C268.99 168.323 268.751 168.167 268.522 168.02C267.043 167.046 266.07 166.393 264.426 166.393C264.132 166.393 263.81 166.412 263.48 166.458C262.13 166.632 261.257 167 260.559 167.68C260.219 168.02 259.999 168.47 259.769 168.948C259.623 169.261 259.466 169.582 259.264 169.886C261.119 172.835 262.157 176.373 262.488 178.551C263.057 182.319 262.121 184.378 261.23 186.372L260.55 187.879L258.236 170.575C257.336 170.06 256.528 169.49 255.747 168.948C253.91 167.662 252.174 166.449 249.585 166.246C248.437 166.154 247.224 166.072 246.03 166.072C244.993 166.072 244.074 166.136 243.22 166.274C242.715 166.384 239.345 167.68 238.683 168.314C240.373 169.637 242.247 170.777 244.056 171.87L244.864 172.358C246.747 173.506 248.74 174.765 250.531 176.337C254.452 179.765 256.665 184.773 257.308 191.647C257.648 195.295 257.96 199.541 257.372 203.649C256.831 207.463 256.004 211.855 254.314 215.329L258.539 211.497C258.961 211.111 259.531 210.67 259.99 210.302L262.267 208.501L259.255 213.004C258.576 213.62 258.061 214.107 257.519 214.879C256.968 215.669 256.068 216.34 255.416 216.836C254.718 217.36 253.947 217.636 252.872 217.755C252.404 218.389 251.881 218.959 251.311 219.455C250.347 220.291 249.383 221.21 248.455 222.093C247.215 223.269 245.948 224.482 244.616 225.557C245.048 225.713 245.645 225.962 246.508 226.311C247.087 226.55 247.638 226.779 247.812 226.825C250.035 227.487 251.954 227.781 253.763 227.717C255.747 227.643 257.29 226.586 258.934 225.456C259.843 224.831 260.78 224.188 261.808 223.719L266.428 206.176V209.374C266.428 212.535 266.217 213.905 265.913 215.504C265.73 216.487 265.234 217.746 264.793 218.867C264.554 219.464 264.334 220.034 264.187 220.503C263.921 221.321 263.654 221.881 263.305 222.598C263.14 223.03 262.92 223.489 262.662 224.068ZM275.878 215.641C276.089 216.524 276.383 217.332 276.723 218.27C276.851 218.619 276.98 218.986 277.118 219.372C277.448 220.337 277.963 221.495 278.505 222.644L275.878 215.641ZM265.454 213.224L264.031 218.628C264.04 218.61 264.04 218.591 264.049 218.582C264.472 217.498 264.958 216.266 265.124 215.366C265.252 214.676 265.372 214.015 265.454 213.224ZM257.556 213.546L254.14 216.643C254.434 216.524 254.691 216.377 254.939 216.193C255.545 215.733 256.381 215.108 256.858 214.428C257.088 214.088 257.317 213.803 257.556 213.546ZM259.237 171.439L261 184.846C261.652 183.247 262.111 181.492 261.689 178.662C261.413 176.833 260.624 174.012 259.237 171.439ZM281.397 220.264C281.058 219.501 280.883 218.729 280.718 217.985L280.589 217.415L280.305 216.432C280.286 216.349 280.259 216.276 280.231 216.193C279.992 215.55 279.68 214.989 279.377 214.438C279.028 213.803 278.67 213.142 278.403 212.351C277.393 209.319 276.714 206.691 276.714 203.731V200.754L281.14 216.367C281.232 216.643 281.315 216.937 281.379 217.222L282.16 219.97L281.397 220.264ZM271.488 193.145L273.821 188.008C274.05 187.144 274.206 186.087 274.372 185.067C274.546 183.937 274.712 182.871 274.978 182.181C275.749 180.178 277.43 178.956 279.046 177.78C279.864 177.191 280.626 176.631 281.287 175.978L283.399 173.892L275.226 188.339C274.904 189.432 273.426 192.345 272.452 192.75L271.488 193.145ZM280.102 178.037C279.91 178.175 279.717 178.322 279.524 178.46C277.926 179.617 276.42 180.711 275.74 182.485C275.511 183.082 275.354 184.111 275.18 185.196C275.07 185.931 274.95 186.675 274.803 187.392L280.102 178.037ZM282.812 175.905L283.409 173.993C283.877 172.486 285.273 168.957 288.001 168.801L288.974 168.746L282.812 175.905ZM286.66 170.17C286.164 170.538 285.695 171.08 285.273 171.779L286.66 170.17Z" fill="#212121"/>
<path d="M244.12 227.79C248.198 235.225 259.696 236.87 267.245 237.054C270.129 237.127 273.04 236.943 275.896 236.576C277.421 236.374 278.863 235.942 280.433 235.501C283.124 234.738 285.815 233.901 288.359 232.725C290.627 231.668 293.841 230.584 294.521 227.689C293.3 229.702 283.445 228.553 281.958 227.836C281.03 227.386 281.122 227.23 280.36 227.965C277.999 230.253 273.839 230.988 270.753 230.419C268.265 229.959 264.903 228.02 262.901 226.467C262.13 225.86 262.497 225.557 261.423 226.063C259.016 227.184 257.308 228.691 254.544 229.141C251.66 229.61 248.978 229.095 245.764 227.671C244.965 227.322 244.644 227.276 243.734 226.669L244.12 227.79Z" fill="#212121"/>
<path d="M238.142 167.147C242.981 160.576 250.953 158.214 258.456 156.138C262.277 155.081 265.454 154.428 269.486 154.428C273.003 154.428 276.429 155.255 279.855 155.945C283.298 156.634 286.825 157.176 289.874 159.032C291.839 160.227 294.154 160.861 296.119 162.083C296.78 162.497 299.104 163.048 298.81 164.05C298.388 165.474 294.953 164.133 293.869 164.684C292.694 165.281 291.141 166.393 289.801 166.007C288.515 165.64 288.148 164.124 286.706 163.976C284.502 163.756 284.061 166.099 281.857 165.934C280.185 165.805 278.266 163.719 276.576 163.829C274.978 163.931 273.242 165.649 272.057 166.522C269.881 168.139 268.944 165.888 267.08 165.144C265.969 164.702 265.537 164.574 264.315 164.574C261.257 164.574 259.393 165.934 257.657 168.36C258.245 167.533 254.369 165.704 253.984 165.594C252.358 165.144 250.668 164.464 248.988 164.436C244.745 164.362 241.751 164.482 238.142 167.147Z" fill="#212121"/>
<path d="M269.771 131.867C268.935 130.755 267.906 131.197 266.593 131.261C265.886 133.227 266.538 134.9 266.896 136.563C267.291 138.401 267.631 140.285 267.961 142.013C268.32 143.842 268.457 145.753 268.558 147.766C268.604 148.749 268.65 149.861 268.439 150.798C268.246 151.644 267.668 152.214 267.511 153.041C269.174 152.995 270.965 153.031 272.664 152.94C272.673 152.103 272.122 151.276 271.92 150.486C271.69 149.576 271.837 148.703 271.736 147.766C271.571 146.203 271.185 144.669 271.01 143.005C270.616 139.329 270 135.635 269.771 131.867Z" fill="#212121"/>
<path d="M299.251 138.723C294.696 138.796 289.709 139.017 285.493 141.388C283.519 142.491 282.114 143.878 280.268 145.239C279.34 145.928 278.394 146.534 277.311 147.076C276.218 147.619 274.923 147.711 273.913 148.317L274.445 149.539C275.814 149.153 276.108 148.924 277.513 148.841C278.899 148.758 280.222 148.528 281.737 148.676C283.161 148.813 284.814 148.786 286.173 149.153C287.762 149.585 289.782 149.585 291.408 149.714C294.65 149.962 298.626 149.254 301.868 148.574C304.201 148.078 307.314 147.076 309.105 145.321C309.858 144.577 310.253 143.851 311.153 143.015C312.007 142.215 313.33 140.616 313.963 139.688C314.588 138.769 315.157 138.208 315.745 137.216C316.259 136.352 317.233 134.542 317.251 133.448C312.843 138.411 305.266 138.622 299.251 138.723Z" fill="#212121"/>
</svg>
